<svg width="22" height="13" viewBox="0 0 22 13" fill="none" xmlns="http://www.w3.org/2000/svg">
<path d="M9.00684 2.84082L9.00586 2.82715C8.95691 1.9188 8.68659 1.39261 8.41309 1.0166C8.34979 0.929609 8.28772 0.851881 8.23828 0.790039C8.1856 0.724143 8.14924 0.67881 8.12109 0.637695C8.07288 0.567257 8.07489 0.548789 8.0752 0.544922C8.07517 0.549104 8.07499 0.538316 8.08789 0.525391C8.09329 0.519987 8.10115 0.514405 8.1123 0.509766C8.12321 0.505266 8.14228 0.500033 8.17188 0.5H11.8574C11.9264 0.500017 11.9629 0.508803 11.9785 0.513672C11.9835 0.523544 11.9939 0.545289 12.0029 0.586914C12.0166 0.649978 12.0264 0.74159 12.0264 0.871094V5.5625C12.0265 6.14877 12.3078 6.73926 12.8916 6.73926C13.4306 6.73912 13.8229 6.38662 14.3398 5.86133L14.3574 5.8418C15.2416 4.8451 15.9844 3.59372 16.501 2.60742C16.7609 2.11122 16.9661 1.67526 17.1074 1.36328C17.1781 1.20725 17.2333 1.08212 17.2705 0.995117C17.289 0.951848 17.3028 0.917887 17.3125 0.894531C17.3174 0.882845 17.3216 0.873474 17.3242 0.867188L17.3252 0.865234C17.3796 0.738188 17.4406 0.65424 17.5107 0.600586C17.5741 0.552194 17.6808 0.500069 17.8838 0.5H20.2295C20.3847 0.500015 20.4581 0.522668 20.4883 0.536133C20.4884 0.537933 20.4892 0.539872 20.4893 0.541992C20.4906 0.576508 20.485 0.636925 20.458 0.727539L20.4521 0.746094L20.4482 0.765625C20.3905 1.03393 20.1894 1.49074 19.8789 2.06738C19.5771 2.62797 19.1989 3.25428 18.8262 3.84375C18.4541 4.43216 18.0899 4.97829 17.8193 5.37793C17.6842 5.57756 17.573 5.74091 17.4951 5.85352C17.4562 5.90981 17.4249 5.95383 17.4043 5.9834C17.3941 5.99796 17.386 6.0092 17.3809 6.0166C17.3783 6.02021 17.3763 6.0236 17.375 6.02539L17.374 6.02734L17.3643 6.04004L17.3564 6.05371C17.2476 6.23071 17.0854 6.48533 17.0615 6.7832C17.0349 7.11574 17.1778 7.39777 17.375 7.6582V7.65918C17.3762 7.66087 17.3777 7.66236 17.3789 7.66406C17.3813 7.66722 17.3833 7.67068 17.3857 7.67383V7.67285C17.5453 7.89213 17.8465 8.18822 18.126 8.46484C18.4334 8.76914 18.7584 9.09112 19.0146 9.39648L19.0225 9.40527C19.5228 9.97349 19.9526 10.4881 20.2812 10.9375C20.6136 11.392 20.8144 11.7441 20.8955 11.9951C20.9288 12.1129 20.9317 12.1884 20.9268 12.2305C20.9224 12.2672 20.9135 12.2777 20.9121 12.2793C20.9066 12.2857 20.833 12.3564 20.5625 12.3564H18.2188C18.0707 12.3564 17.9676 12.3279 17.8701 12.2764C17.7616 12.2189 17.6373 12.12 17.4629 11.9434C17.2865 11.7647 17.0896 11.5387 16.8203 11.2373C16.5557 10.9412 16.2348 10.5885 15.8291 10.1787L15.8223 10.1719C14.4236 8.8111 13.7002 8.5001 13.1396 8.5C12.8931 8.5 12.5165 8.52489 12.2646 8.84082C12.1492 8.98577 12.0939 9.15234 12.0645 9.30566C12.0351 9.45855 12.0254 9.62969 12.0254 9.81152V11.9355C12.0254 12.1852 11.9839 12.1897 11.9668 12.2012C11.8729 12.2648 11.596 12.3574 10.8516 12.3574C8.56774 12.3572 5.97968 10.948 4.1123 8.24023L4.10938 8.23535C2.67815 6.20919 1.77127 4.43623 1.22363 3.10059C0.949701 2.43242 0.766215 1.87514 0.652344 1.45312C0.534771 1.01735 0.500043 0.758078 0.5 0.669922C0.5 0.54532 0.525696 0.535141 0.512695 0.548828C0.497987 0.56397 0.539607 0.501049 0.803711 0.500977H3.14844C3.37006 0.501005 3.43641 0.547342 3.47266 0.581055C3.51931 0.624462 3.57542 0.706965 3.64648 0.878906L3.72266 1.08301C4.30836 2.80548 5.09544 4.42154 5.84277 5.61426C6.21545 6.20899 6.58708 6.7126 6.92871 7.07422C7.09905 7.25452 7.27345 7.41178 7.44727 7.52734C7.61157 7.63658 7.82799 7.74404 8.07129 7.74414C8.17843 7.74414 8.32552 7.73255 8.47363 7.66504C8.63541 7.59119 8.75733 7.4699 8.83984 7.31934C8.97949 7.06441 9.00684 6.71775 9.00684 6.34082V2.84082Z" fill="#789776" stroke="#789776"/>
</svg>
