<svg width="85" height="55" viewBox="0 0 85 55" fill="none" xmlns="http://www.w3.org/2000/svg">
<path d="M15.159 20.4887C14.6975 20.1669 11.7458 23.4167 10.9477 25.1342C10.3382 26.4444 10.1466 27.0169 10.1466 27.0169C9.74902 28.0935 9.90574 28.028 8.83478 29.2926C7.92636 30.3664 6.76833 32.5596 6.18787 34.9207C5.61321 37.2591 5.14303 39.1703 3.8486 41.4631C3.33779 42.3689 2.23781 44.1433 1.65154 46.4732C1.51513 47.0144 1.3555 47.7834 1.79375 48.353C2.18266 48.86 3.08239 49.2531 3.70929 48.8401C4.37392 48.4015 4.40004 47.2792 3.99371 46.9602C3.44808 46.5359 1.94178 47.4074 1.08269 48.3644C0.632834 48.8657 0.345489 49.1876 0.377414 49.6034C0.423851 50.2272 1.26554 50.4949 4.32458 51.8763C7.52584 53.3232 6.87283 53.0953 7.54036 53.2919C9.59811 53.8957 9.67356 54.021 10.4717 54.1492C12.0331 54.4055 12.5294 54.4055 13.3566 54.3343C14.3753 54.2489 14.5204 54.1805 14.5785 53.7789C14.6859 53.0469 12.8719 51.9617 11.5833 51.2725C9.20629 50.0022 8.81448 49.9025 7.61292 49.0281C7.20079 48.729 6.2227 48.3046 6.24882 47.0286C6.26624 46.1542 6.63484 45.5418 6.86992 45.2541C7.51714 44.3028 8.28335 42.8218 9.45879 41.184C11.1566 38.8143 12.007 37.6294 12.8632 36.5898C15.1996 33.7558 15.9803 33.9068 20.4499 29.7683C23.1287 27.2903 25.0268 25.2196 25.6973 24.4791C28.7128 21.1495 28.0452 21.3204 30.8025 18.3554C31.7109 17.3785 32.6135 16.1736 34.4188 13.7612C34.5813 13.5419 35.5971 12.1548 35.6232 10.4202C35.6319 9.92746 35.5565 9.6227 35.3388 9.44611C34.8164 9.01887 33.5771 9.40908 32.9995 10.1411C32.3958 10.9044 32.5932 11.9412 32.7151 12.6475C33.1504 15.154 33.075 17.7259 33.4958 20.2324C34.3491 25.3222 34.0444 24.5304 34.3462 25.6611C35.1443 28.6404 36.0208 31.9016 38.6706 33.246C39.2714 33.5507 40.8213 33.6362 43.918 33.8014C47.8768 34.015 49.5863 32.0554 50.0391 31.5855C51.1593 30.4291 51.4583 27.7717 50.1406 26.7378C49.3425 26.1111 49.2003 25.9972 47.871 25.8861C46.6782 25.7836 45.1022 26.6238 44.574 27.6948C43.8658 29.1303 44.2054 30.3265 44.6988 31.3661C45.0993 32.2092 45.4418 32.4684 47.3921 34.6359C48.2048 35.5388 48.2715 35.6698 48.9536 36.4445C51.9836 39.8852 55.1239 42.5683 55.1239 42.5683C58.7228 45.6415 61.8428 47.5954 64.272 48.8315C69.4062 51.4462 72.2041 52.1925 75.2979 53.0071C77.228 53.514 77.6343 53.5938 80.4147 54.0381C82.4783 54.3685 83.8859 54.1577 84.2748 53.7077C84.5447 53.3973 84.2545 52.7792 83.5812 52.5086C81.9965 51.8735 80.7166 51.6912 80.1535 51.5573C78.4992 51.1642 77.5443 51.1528 74.0325 49.8512C70.6978 48.6151 68.0044 47.3704 66.681 46.5359C65.4271 45.744 62.2433 43.642 58.9521 40.2014C58.4761 39.7029 56.3284 37.4614 56.6128 37.1395C56.816 36.9088 58.0988 37.8373 60.5832 39.2273C61.8109 39.9137 63.5058 40.7283 66.8957 42.3603C70.3292 44.0123 72.0009 44.7614 72.9935 45.2143C78.9694 47.9457 82.7569 47.2422 83.7031 47.1739C85.935 47.0087 79.3003 45.6928 76.5402 44.3114C74.1051 43.0923 72.7004 42.554 70.9735 41.4404C66.4952 38.5466 60.6035 34.0919 59.0246 33.1634C54.674 30.6114 53.6495 33.2431 54.7698 35.5758C55.7102 37.5354 58.2758 41.372 59.0246 43.7417C59.9563 46.6868 59.5558 47.6068 58.1742 48.766C56.1426 50.4693 53.5567 49.9196 53.3506 49.8797C50.5034 49.3385 48.9652 46.9204 48.1032 45.5646C46.9394 43.736 46.6317 42.0812 46.4024 40.8308C46.0571 38.9652 45.8626 37.9142 46.4721 37.0028C47.1541 35.986 49.1916 36.2138 51.2 34.7869C52.5757 33.8099 52.892 33.2802 53.5625 32.2121C54.6508 30.4832 53.6699 27.7289 53.0662 27.1792C52.7643 26.903 52.8369 26.7378 50.7501 25.1855C48.0248 23.1547 46.9713 22.3173 45.5491 21.1381C44.2199 20.0359 43.5117 18.4608 42.5365 16.4727C42.3566 16.1081 42.1709 15.9486 40.5862 12.1348C39.106 8.57455 39.0973 9.47174 39.0973 8.36378C39.0973 6.17064 38.8593 4.11991 37.7971 2.79548C37.1818 2.0293 34.7177 0.488405 32.808 0.38302C31.0782 0.28618 29.3774 1.08084 28.292 1.98373C26.5012 3.47336 26.1239 5.6608 24.6989 8.88501C23.2942 12.0636 22.4815 14.6669 21.814 16.9113C21.3148 18.5918 21.2422 18.8966 19.0713 27.1194C18.1251 30.7082 17.7246 34.5647 17.179 38.2788C17.0658 39.045 16.6624 40.0675 17.3676 41.11C17.742 41.6625 17.7217 41.6739 20.4412 43.0354C22.3161 43.9753 22.8153 44.3626 23.3725 44.7044C24.5073 45.3994 24.9427 45.8979 24.4115 46.3507C23.7817 46.8862 21.3641 46.476 20.1567 46.2824C18.6795 46.0431 18.2644 45.8637 16.1138 45.3766C15.5246 45.2428 13.7513 44.9351 13.2782 44.0323C13.3189 43.2177 13.3711 41.8135 13.3479 40.0647C13.2434 31.9985 11.6878 29.6572 13.0635 25.251C13.9806 22.3372 15.4898 20.7166 15.159 20.4887Z" stroke="#789776" stroke-width="0.75"/>
</svg>
