<svg width="95" height="44" viewBox="0 0 95 44" fill="none" xmlns="http://www.w3.org/2000/svg">
<path d="M35.0643 35.2971C27.4006 32.8313 17.1056 32.7415 8.89286 34.2221C6.46585 34.622 2.28649 33.8686 2.0178 32.6169C2.0178 31.9563 2.8268 31.4145 3.6358 31.4145C4.89458 31.4145 5.72694 31.3565 6.43081 31.3942C7.31282 31.4406 8.08386 31.4232 8.71471 31.1769C9.39813 30.9103 10.1224 29.8528 10.6131 29.4181C10.6423 29.3921 10.873 29.0443 11.279 28.9922C12.2311 28.8734 12.5757 29.2819 12.6341 29.3225C13.3526 29.8383 13.7206 30.1512 14.4507 30.2642C16.2177 30.5337 23.0373 28.1403 28.3031 28.6039C31.0631 28.8473 31.0426 29.5949 34.3692 30.609C39.6262 32.2142 44.8833 28.1954 50.1403 29.4065C51.218 29.6557 53.8991 29.45 54.9272 29.4123L51.6941 31.9013C50.999 32.2895 50.3477 32.6053 49.3196 32.9646C48.4493 33.2689 47.3745 33.5354 45.6076 33.9092C44.9329 34.0512 43.7939 34.2801 40.7536 34.7582C37.7862 35.2247 36.583 35.5781 35.7097 35.4188C33.6887 35.0508 33.7354 34.9146 30.6658 34.1903C29.1209 33.8281 27.8913 33.718 26.2879 33.9063C26.0396 33.9353 24.7867 34.2714 22.2925 34.9436C21.1184 35.2594 19.9268 35.5086 18.7732 35.8882C17.8182 36.204 17.3859 36.3952 16.5857 36.4532C16.1242 36.488 15.5109 36.4126 14.3018 36.2649C12.9788 36.1026 12.3158 36.0215 12.0179 35.8882C11.1184 35.4854 10.8292 34.9407 10.21 35.0392C9.87126 35.0943 9.65514 35.3029 9.35432 35.6042C8.36716 36.5923 8.08678 36.9226 7.47054 37.3891C6.98572 37.757 6.58852 37.957 4.69014 37.7744C3.83732 37.6933 3.5073 37.6064 2.97867 37.7744C2.30986 37.9859 1.8484 38.4322 1.45704 38.8117C0.79115 39.4579 0.455283 39.7824 0.504933 40.0403C0.700612 41.0631 6.50382 40.7443 12.1084 39.9852C15.362 39.5448 15.1488 39.6491 17.7276 39.3796C19.2785 39.2174 21.9333 39.0377 28.3849 39.6636C34.007 40.2083 33.5894 40.4981 37.5205 40.7965C41.6852 41.1123 40.9755 40.6951 48.2712 40.8921C52.0446 40.9935 55.8296 40.6169 59.5943 40.8921C60.1375 40.9327 61.5043 41.0428 63.1136 40.5154C64.0482 40.2083 64.5359 39.8577 65.7772 39.0986C69.3899 36.8878 69.4513 37.2819 70.345 36.4561C72.6201 34.3554 71.6183 32.3793 73.1049 31.6405C74.8427 30.777 80.6546 36.5169 87.5998 39.0609C90.7394 40.2112 94.3026 40.7299 94.469 39.5912C94.837 38.1453 91.8551 37.6006 89.9655 36.572C89.6442 36.3981 86.747 35.3232 85.5496 34.6336C81.7061 32.4228 77.9794 28.3837 77.5617 28.1085C76.855 27.642 76.0927 27.9085 75.6546 28.3953C75.1844 28.9169 75.0471 30.3308 76.0752 30.722C77.0536 31.0958 78.6686 29.2153 79.0045 28.4272C79.2411 27.8738 80.7218 25.9962 79.5915 23.7941C79.1973 23.0292 79.282 23.2146 77.8655 20.9691C77.0448 19.6681 76.3292 18.3672 76.1686 18.0021C75.491 16.4722 75.456 16.5736 75.2895 16.3505C74.2469 14.9713 72.4507 14.2383 70.8269 14.4585C70.4676 14.5077 68.6656 14.7859 67.3076 16.3476C67.0067 16.6924 66.3379 17.5472 66.0692 18.8018C65.7772 20.1752 66.1802 21.0097 67.4974 24.6547C68.8438 28.3808 69.0716 29.3167 69.2089 29.9397C69.7112 32.2258 69.3899 32.2316 69.7784 33.1501C70.3041 34.3844 71.2503 35.2247 76.154 37.6817C80.1348 39.6752 79.612 39.6201 83.0671 41.3673C85.6635 42.6828 86.4958 42.7929 88.143 43.155C90.6781 43.7143 93.5432 43.552 93.6629 42.9667C93.7155 42.7088 93.2307 42.4133 92.9007 42.2105C91.5952 41.4079 90.4094 41.3209 89.872 41.1529C86.6857 40.162 87.3866 40.3764 85.1377 39.1942C84.0951 38.6466 83.1985 38.2322 77.9619 34.2801C77.845 34.1903 77.6056 33.9729 77.2814 33.6832C77.2814 33.6832 77.1324 33.5499 76.9864 33.4137C76.4986 32.9675 74.8164 31.287 74.536 30.9741C73.3882 29.6905 74.0804 27.0944 74.2498 22.102C74.3082 20.4186 74.244 20.2505 74.3462 14.9279C74.3958 12.3028 74.4279 11.4393 74.9157 10.3035C75.2311 9.56753 75.64 8.95328 75.7714 7.84934C75.824 7.40892 75.9496 6.35713 75.4852 5.29955C75.3596 5.0156 75.0267 4.35497 72.439 2.65705C70.7801 1.5676 69.9536 1.02579 69.0132 0.767912C67.658 0.399933 66.5132 0.489748 65.3975 0.57957C64.2146 0.675186 63.5049 0.730242 62.6375 1.14458C62.2199 1.34451 61.0517 1.97036 60.2602 3.31479C59.606 4.42452 59.5534 5.44443 59.4979 6.52519C59.4629 7.21479 59.4132 8.36219 59.8776 9.7356C60.155 10.5556 60.6369 11.9782 61.9716 12.7577C62.6112 13.1285 63.6743 13.4849 63.9693 13.1343C64.3227 12.7142 63.6977 11.138 62.5412 10.8685C61.9278 10.7236 61.2152 10.9641 60.8297 11.4335C59.9798 12.4737 60.5201 14.896 62.1615 15.5856C63.5488 16.168 65.1376 15.2698 65.8735 14.1687C66.6709 12.975 66.6621 11.2481 65.7772 10.2977C65.1901 9.66604 64.1446 9.30966 63.7795 9.63707C63.3618 10.0108 63.8817 11.2278 63.9693 11.4306C64.1854 11.9319 64.4658 12.2506 64.5885 12.3781C64.5885 12.3781 64.9068 12.7142 65.3011 12.9402C66.3321 13.5313 68.7971 12.9923 70.345 11.335C70.7626 10.8888 71.6125 9.97898 71.2971 9.25751C71.0868 8.77942 70.418 8.51285 69.8689 8.59687C69.0482 8.72436 68.6685 9.61099 68.5371 9.91812C68.3006 10.4715 68.3181 10.8888 68.4962 12.833C68.6832 14.8554 68.7386 15.1741 68.6306 15.771C68.4553 16.7562 68.0348 17.4052 67.7748 17.8485C67.363 18.5468 67.366 18.7004 65.3975 25.211C65.2836 25.5906 64.7433 27.3696 64.0657 29.7426C63.4903 31.7535 63.1574 32.9936 63.21 34.651C63.2187 34.9088 63.3151 37.4789 63.9722 37.5774C64.387 37.6412 64.9594 36.7024 65.1142 35.8795C65.2777 34.9958 64.9652 34.2279 64.6381 33.4253C64.571 33.2602 64.3548 32.7473 63.9547 32.1128C63.762 31.8085 63.026 30.6843 61.5949 29.5543C60.745 28.885 60.3215 28.5518 59.5972 28.3258C59.3811 28.2591 58.2304 27.9201 56.8372 28.3258C55.707 28.6561 55.0148 29.3022 54.5533 29.7426C53.794 30.4699 52.0562 31.6463 51.4867 32.0027" stroke="#789776"/>
</svg>
