<svg width="84" height="34" viewBox="0 0 84 34" fill="none" xmlns="http://www.w3.org/2000/svg">
<path d="M31.6934 27.2077C33.4379 27.2219 36.185 27.2928 39.1498 27.4858C41.7737 27.6561 43.6787 27.8689 45.87 28.1102C49.0554 28.4621 51.4588 28.797 54.0598 29.288C56.4574 29.7421 59.6056 29.9578 61.4561 31.2179C61.8657 31.4961 62.2209 31.8593 61.8285 31.9331C61.6022 31.9757 60.7342 31.9644 60.3045 31.9331M52.1549 15.9942C53.6559 15.5827 55.409 15.1485 56.2397 14.876C57.2939 14.5326 57.5574 14.4191 59.6457 13.7209C61.4647 13.1107 60.1155 13.5818 62.5389 12.7957C64.4954 12.1628 65.475 12.2082 65.9677 12.299C67.0362 12.4977 67.3198 13.1902 67.4373 14.0672C67.4917 14.4844 67.6235 14.7511 67.4831 16.3916C67.3084 18.4492 67.4459 19.0736 67.5404 19.8938C67.6893 21.1539 67.6722 21.117 67.7495 21.9287C67.8326 22.7717 67.8326 23.6742 67.6206 24.3554C67.4058 25.0393 67.1737 25.5928 67.0133 25.9731C66.5292 27.1197 66.3401 27.2985 66.2198 27.9598C66.1425 28.3883 66.0537 28.9219 66.3144 29.4867C66.4003 29.674 66.6438 30.2076 67.1995 30.3637C67.4717 30.4403 68.5888 30.4431 68.7292 30.4062M25.2682 32.6285C38.0556 32.2794 48.007 33.3238 55.0395 33.2302C58.4454 33.1848 61.9975 33.3636 62.0863 32.9066C62.2381 32.1063 52.4299 29.2767 42.3008 29.1149C30.5218 28.9276 26.8952 28.4139 22.2833 27.6816C21.8966 27.6192 20.4357 27.2133 19.1094 27.9115C17.8948 28.5501 16.875 30.0486 17.2417 31.0079C17.7602 32.3645 20.9771 32.4752 23.2143 32.024C25.0591 31.6522 25.6119 31.0249 29.4676 28.604C34.1683 25.6524 36.5173 24.1765 37.5858 23.5635C39.6311 22.3942 40.9201 21.7499 41.599 20.189C41.7365 19.8739 42.6045 17.8731 41.4586 16.3518C40.6537 15.2847 38.9264 14.544 37.6316 15.2875C36.4514 15.9659 35.9902 17.6744 36.5116 18.7075C37.0444 19.7661 37.9085 20.3743 42.1481 21.3563C42.603 21.4617 43.7139 21.6719 44.7852 21.8791C45.5615 22.0295 47.3486 21.9657 48.4773 21.4803C49.096 21.2136 50.2397 20.4646 50.671 19.8512C52.0002 17.961 51.8598 15.9687 52.5616 15.1485C53.2434 14.3481 54.1056 14.1523 55.5952 13.5307C57.2939 12.8184 57.7178 12.912 60.5423 12.0521C62.98 11.3113 64.5154 10.6784 64.8821 10.5252C66.2027 9.97741 67.6808 9.634 69.0357 8.9642C70.3477 8.31427 71.2328 7.95099 72.1151 6.73344C72.4474 6.27366 72.4875 5.19517 72.4531 4.97664C72.37 4.45726 71.4591 3.83003 71.101 3.75056C70.6227 3.64555 69.6086 3.37027 68.9326 3.86694C68.0216 4.53673 67.6263 5.16112 67.1136 6.45531C66.3287 8.43348 67.6292 10.2754 68.2794 12.79C68.9813 15.5004 68.7149 15.3642 68.944 18.5684C69.1016 20.7907 69.1818 21.9004 69.4568 23.0072C69.7404 24.1397 69.9781 24.5881 69.9695 25.5502C69.961 26.4329 69.7547 26.6741 69.1761 28.6948C68.4141 31.3485 68.4657 31.9956 68.755 32.532C68.838 32.6881 69.0586 33.2727 69.7461 33.3863C70.3964 33.4941 71.0323 33.4686 71.2271 33.4544C74.2606 33.2699 76.5466 33.2699 81.1184 33.4998C81.3189 33.5111 83.5676 33.0627 83.4988 32.3447C83.4415 31.7572 81.8145 31.3343 79.2994 30.4034C77.151 29.6087 75.057 28.8027 74.2119 26.9834C73.8768 26.2626 73.8539 25.6297 73.8396 25.0876C73.7508 21.8635 73.7078 20.2543 73.9799 16.7208C74.57 9.05502 73.5073 8.90744 73.7508 5.40804C73.8195 4.40618 73.576 3.80732 72.7252 2.60963C71.5365 0.937977 71.1927 1.08273 70.9292 0.946496C69.3164 0.112087 68.818 0.671199 68.0933 0.841486C63.9282 1.82915 59.1329 3.04387 55.6697 4.13655C48.1818 6.42407 45.1482 7.82611 42.5758 9.83266C40.2784 11.6264 38.6256 13.1873 35.0162 14.6404C33.2144 15.367 31.5616 15.7785 31.0775 15.8325C27.6887 16.2128 25.9643 15.1655 23.7987 16.1333C22.6271 16.6555 21.5672 17.5268 20.2065 19.1843C18.9547 20.7084 19.0578 21.4917 17.6599 23.6543C17.0842 24.5483 16.093 26.0355 14.1967 26.7876C12.8818 27.3098 11.7246 27.2389 11.2233 27.2048C10.1834 27.131 8.7225 27.026 8.3186 26.2001C7.79725 25.1302 9.1522 23.0669 10.9769 22.3857C12.4264 21.8465 14.1594 22.1842 15.3167 23.2513C16.3737 24.2305 16.7289 25.5956 16.6344 26.7082C16.4769 28.57 15.0589 29.6995 14.0563 30.4999C12.1285 32.0353 10.0545 32.3816 9.26105 32.4752C6.98373 32.7449 2.15409 32.5036 0.827805 29.4583C-0.464109 26.4953 2.2744 22.5049 5.41109 20.9297C9.16079 19.0452 14.0993 20.294 16.1904 23.2173C16.4425 23.572 17.4737 25.011 17.4508 26.9267C17.4222 29.2767 15.8266 30.2927 16.1675 31.3315C16.7576 33.1166 22.3377 32.708 25.2682 32.6285Z" stroke="#789776"/>
</svg>
