<svg width="78" height="85" viewBox="0 0 78 85" fill="none" xmlns="http://www.w3.org/2000/svg">
<path d="M44.1391 40.2284C44.2049 43.7229 44.6971 47.197 44.6971 47.197C45.0032 49.3443 45.4067 51.288 44.4166 52.1027C43.9645 52.4751 43.6727 52.2423 42.2506 52.6701C41.5638 52.8766 40.4594 53.2113 39.5237 53.9503C38.1216 55.0589 37.6666 56.6301 37.495 57.2207C37.2746 57.986 36.6051 60.2933 37.9156 62.4115C38.8799 63.9711 40.385 64.5647 40.9916 64.7567C41.9101 65.0477 42.5968 64.9924 43.9273 64.8993C49.1093 64.5385 47.6386 64.7509 49.59 64.5443C50.1022 64.489 52.3484 64.2475 55.8135 63.6918C56.0596 63.6511 58.9181 63.1855 62.5263 62.1991C63.5307 61.9256 65.505 61.3612 66.2318 59.9238C66.3262 59.7347 66.5437 59.2924 66.372 58.9287C66.1202 58.3962 65.1445 58.2566 64.4835 58.501C63.5049 58.8676 63.1587 60.11 62.9441 60.9189C62.7123 61.7947 62.3747 63.6452 63.3647 67.3899C64.0972 70.157 64.4549 69.7991 64.7639 71.7253C65.2075 74.4982 65.3622 74.6651 65.3622 77.1654C65.3622 78.0595 65.3622 78.7733 65.0415 80.044C64.9273 80.4964 64.821 81.0398 64.8354 81.453C64.8525 81.9738 65.0644 82.0778 65.6023 82.2466C66.2375 82.4473 66.6884 82.3616 67.9965 82.104C69.2067 81.9506 69.6492 81.8522 70.6307 81.989C71.7753 82.1461 71.7743 82.1511 73.3652 82.3164C75.3723 82.5249 77.1251 82.7703 77.3511 82.104C77.5343 81.5628 76.6373 80.7259 75.5341 80.1836C74.8455 79.8452 74.4748 79.8479 73.3652 79.3092C71.1575 78.2373 69.9745 77.1722 69.8 76.8405C68.9444 75.2198 69.0331 73.6748 69.1018 73.0725C68.8814 66.1359 68.767 61.2913 68.8214 59.3506C68.8271 59.1789 68.8414 58.7134 68.6812 58.1431C68.1461 56.2315 66.229 55.2335 65.5336 54.8727C61.2101 52.6235 52.294 54.5642 49.2438 55.3004C44.4538 56.4555 41.8442 57.0869 38.5479 58.9258C34.253 61.3233 32.0212 62.5716 29.5289 64.9691C28.5961 65.8682 27.3113 67.2328 25.1252 67.9544C23.3369 68.5451 22.633 68.1494 20.65 68.3094C15.3765 68.7342 14.5724 72.0046 8.97558 72.6448C8.32032 72.7204 7.30455 72.8601 5.2701 73.1423C2.28282 73.5555 1.62183 73.6777 1.07531 74.28C0.245509 75.1936 0.334226 76.4942 0.44582 78.1178C0.531661 79.3573 0.691889 81.717 2.40299 83.0234C2.88371 83.3901 3.30433 83.5355 4.07976 83.8061C5.92821 84.4463 7.89972 84.519 7.99414 84.1611C8.07426 83.8614 6.71795 83.6898 5.89673 82.4561C5.20714 81.4202 5.06408 79.8927 5.54765 78.8307C6.29161 77.1954 8.43479 76.8376 11.2819 76.3429C14.5953 75.7668 17.8802 75.0307 21.2108 74.5651C28.4272 73.5555 33.8066 71.1259 35.2631 70.4422C40.3306 68.0621 43.6412 65.3154 46.0305 63.3339C48.7574 61.0731 50.1909 59.4524 51.3441 57.7881C52.1538 56.6184 52.7032 54.8523 53.3728 52.5973C54.1196 50.0863 53.988 48.9632 54.2569 46.3881C54.4229 44.814 54.297 45.2825 54.5316 43.9644C54.6032 43.5687 54.3085 45.4338 54.6346 43.3447C54.7491 42.6085 55.576 40.4176 55.9308 39.4341C56.134 38.8667 56.2227 38.4623 56.1397 38.1189C56.0281 37.6534 55.7163 37.0365 55.2842 36.6787C55.164 36.5797 54.9294 36.3062 54.6203 36.0909C53.9393 35.6196 54.2569 35.8436 52.6488 34.4644C49.9877 32.1804 49.4184 30.7459 47.9877 30.839C45.73 30.9845 43.5267 33.8592 42.8829 37.8774C42.9144 38.2179 43.0146 38.6078 43.3036 38.8027C43.9731 39.2537 45.2865 38.4128 45.8902 37.8774C47.6185 36.3528 46.9547 34.383 48.0563 29.4162C48.4998 27.4144 48.58 27.8654 49.5242 24.2254C50.3969 20.8589 50.8347 19.1772 50.9921 17.7543C51.3326 14.6847 51.8047 10.4482 49.942 7.16034C49.7045 6.74135 48.9634 5.51057 48.7545 3.74733C48.62 2.61839 48.414 0.473979 48.8375 0.377961C49.158 0.30522 49.8876 1.68439 51.6216 5.59495C53.1381 9.01087 53.9221 10.713 53.9994 11.2106C54.5717 14.9756 53.9164 15.8194 54.2083 19.3867C54.2455 19.858 54.6976 20.9899 54.5774 22.4767C54.5316 23.047 54.4658 23.8821 53.9966 24.7899C53.5502 25.6569 53.8134 25.1099 52.7376 26.6375C52.5544 26.8964 51.9249 27.6384 51.819 28.5782C51.7332 29.3376 52.0279 29.8905 52.3198 30.1203C52.7948 30.4986 54.1339 29.8963 54.9065 28.9827C56.5403 27.0507 55.536 23.8791 55.3957 23.4369C54.8235 21.63 53.739 20.4981 52.8091 19.5263C51.3555 18.0104 50.5801 17.3004 49.384 16.896C47.919 16.3985 45.6957 17.1171 45.8616 17.0444C46.2823 16.8582 47.2237 14.705 47.6786 14.6294C49.1122 14.3937 49.4441 19.5118 50.1423 19.02C50.5514 18.732 49.9591 14.9436 49.5929 12.6305C49.1265 9.69173 49.2867 9.42986 48.8232 7.93721C48.4741 6.81118 48.0935 6.02558 47.7731 5.37673C47.1436 4.09066 46.0734 2.3827 45.7586 2.45836C45.2035 2.5922 46.1106 6.83446 46.2365 8.07687C46.4425 10.134 46.7286 11.4928 46.7258 13.9078C46.7229 15.4906 46.5999 16.4072 45.9561 16.9658C45.318 17.5187 44.8115 17.1666 43.8587 17.606C42.1361 18.4003 41.5524 20.5883 41.3406 21.3739C41.086 22.3225 40.6997 23.7686 41.4093 25.2845C42.1647 26.8994 43.6612 27.5249 43.9273 27.6297C45.5497 28.2756 46.3424 27.4726 46.9347 27.9847C48.3224 29.2009 44.016 33.6497 44.1391 40.2284Z" stroke="#789776" stroke-width="0.75"/>
</svg>
