<svg width="32" height="101" viewBox="0 0 32 101" fill="none" xmlns="http://www.w3.org/2000/svg">
<path d="M22.3407 75.3326C22.5942 76.2904 22.8214 77.5937 22.7311 79.1263C22.6728 80.1307 22.5301 80.3484 22.3757 81.82C22.2038 83.4513 22.2213 84.6907 22.2329 85.7212C22.2504 87.0941 22.2679 88.3684 22.5184 90.0113C22.8825 92.4002 23.2875 92.6004 23.1244 93.8776C23.0253 94.6381 22.8534 95.9675 21.8776 96.998C21.4086 97.4914 20.7036 97.9762 20.0628 99.0908C19.7802 99.5842 19.7715 99.7468 19.8122 99.8716C20.054 100.58 22.1659 100.76 23.7623 100.049C24.1352 99.8832 25.2159 99.4014 25.6062 98.3506C25.8364 97.7323 25.7228 97.207 25.647 96.7135C25.647 96.7135 25.3761 94.9574 25.7169 92.1738C25.8422 91.1578 25.9471 91.4336 26.8909 87.9881C27.3337 86.3743 27.5551 85.5673 27.6745 84.8678C27.96 83.1726 27.8493 82.2641 27.8522 80.2236C27.858 77.4747 27.8609 76.1018 28.1377 74.7637C28.6416 72.3167 28.63 72.5228 29.769 68.6884C29.9962 67.9221 30.8206 66.2473 31.074 64.8453C31.441 62.8309 31.5459 61.5102 31.1439 59.4667C30.873 58.0792 30.771 57.0546 30.4506 56.3928C29.9612 55.3769 29.4107 54.2651 28.2455 53.226C27.9629 52.9735 27.456 52.5265 26.6782 52.1375C26.0257 51.8095 24.4177 51.0055 22.5854 51.5337C22.2883 51.6208 20.0569 52.2652 19.6666 54.1578C19.6433 54.2652 19.3869 55.612 20.2346 56.535C21.6008 58.0212 24.4294 56.8746 24.6479 56.7846C26.2296 56.1199 27.054 54.8776 27.6716 53.911C28.0008 53.4002 28.7407 51.8617 28.9825 48.5905C29.233 45.2205 29.1718 44.6429 29.3728 42.9506C29.4048 42.6836 29.9408 40.9884 30.1214 40.5385C30.972 38.3935 31.1381 37.3572 31.1905 36.9915C31.4673 34.9857 31.4585 32.4546 31.476 31.7783C31.5546 28.6347 31.441 26.9193 31.1206 24.6871C31.1206 24.6871 29.9088 19.1721 27.96 12.525C27.96 12.525 27.0598 9.45693 25.1489 4.68787C24.2313 2.40059 23.7477 0.43839 23.4331 0.502249C22.9496 0.600939 22.6932 4.14217 22.9 5.9273C23.2671 9.10861 23.9313 9.9707 24.7149 13.6948C25.3237 16.5945 25.2829 18.0197 25.3383 20.7686C27.3686 23.4564 27.1909 24.1443 27.456 24.9339C27.4386 25.2793 27.6395 25.7785 27.6687 26.8844C27.6832 27.4011 27.8464 29.1079 27.0802 31.0904C26.486 32.6288 25.548 33.6795 23.9808 34.1672C22.4252 34.6519 21.9504 34.3675 20.3744 33.9785C18.9995 33.6389 17.8139 30.6927 17.776 27.1892C17.7498 24.8236 17.3624 24.2982 18.0615 22.5769C18.4635 21.5842 19.7714 20.6147 21.7494 20.22C23.6254 19.8426 25.1198 20.7482 25.4344 21.0356C28.4814 23.8163 28.1785 31.2123 25.6616 33.2442C24.0216 34.5678 23.4302 34.5387 20.9483 34.1266C20.5143 34.054 19.4714 33.6767 18.9966 32.6752C17.7935 30.1267 18.0178 29.5752 17.8838 28.0571C16.9196 20.9282 19.0432 23.5899 18.7228 19.0154C18.4897 15.6831 20.7007 11.9938 20.7007 11.9938C21.5309 6.85906 22.4951 2.93758 22.0815 2.77503C21.5571 2.56894 19.451 7.42508 18.2101 10.1507C17.3245 12.0925 16.0806 15.2884 15.2213 20.7192C13.992 28.4635 13.7385 33.0555 15.6291 38.3325C16.6108 41.0755 16.838 41.926 17.8838 45.1886C18.2567 46.3583 18.9237 47.2378 17.8139 53.0605C16.8584 58.0618 16.1301 59.397 15.7485 60.828C15.2854 62.5667 18.9121 63.5014 19.92 62.9209C20.5114 62.5812 20.7852 61.545 20.488 60.7932C19.7656 58.9587 15.5621 58.6452 12.6578 59.1619C12.6578 59.1619 6.53755 60.2504 1.41644 69.0251C1.00279 69.7334 0.0968113 71.2863 0.702722 72.4938C0.769722 72.6273 0.833837 72.7173 0.877532 72.7753C1.6757 73.8696 3.40604 74.0409 4.47512 74.0554C5.7889 74.0728 7.84256 73.8755 11.6645 72.3545C13.8085 71.5011 14.8572 70.8857 17.2866 70.2268C19.8122 69.5418 20.5521 69.6956 20.9163 70.0846C21.6678 70.8857 20.4881 72.3312 21.3445 73.9132C21.8718 74.8885 22.9991 75.5909 23.4797 75.3326C24.0332 75.0336 23.2292 73.7361 23.5496 71.4314C23.7565 69.9453 24.2051 69.6579 24.6886 67.1761C25.0528 65.3039 24.9013 64.9295 24.6886 64.764C24.1876 64.3722 23.2933 65.0862 21.9853 65.5448C19.6899 66.3489 18.6674 65.4752 15.5796 65.5448C14.2163 65.5768 12.0082 65.6261 9.74187 66.7495C7.42309 67.8989 7.04439 69.1819 3.83423 71.0744C2.68067 71.7536 1.68444 72.2064 1.05814 72.4706" stroke="#789776"/>
</svg>
