<svg width="93" height="72" viewBox="0 0 93 72" fill="none" xmlns="http://www.w3.org/2000/svg">
<path d="M74.2231 14.0261C77.1482 10.9009 77.2782 10.606 79.1425 8.49842C79.7784 7.78145 80.0501 7.42585 81.6369 5.50909C82.3509 4.64466 85.3222 0.967259 84.4377 0.400615C83.7932 -0.00991293 78.0702 4.62154 76.4458 6.59323C73.0669 10.6869 70.0233 13.7688 69.3759 14.399C65.2166 18.461 65.1183 19.1548 62.332 21.3346C60.2654 22.9507 58.9849 23.9337 56.9269 24.616C53.2995 25.8187 50.0073 25.174 48.802 24.8762C45.7353 24.1245 46.6313 22.8756 42.8131 21.8811C40.9228 21.3896 39.651 22.0603 36.8242 21.5457C33.7055 20.9762 32.5811 20.8952 29.5057 20.0915C23.8059 18.6026 24.0313 19.2994 18.9067 17.2698C11.5651 14.3615 12.5738 13.8237 10.2355 13.7399C9.2123 13.7023 8.83655 14.2747 6.16004 14.1388C4.22059 14.0406 3.53266 13.9683 2.87943 14.2892C1.69148 14.8703 0.110427 16.2551 0.413918 16.8131C0.604684 17.1629 1.89959 17.0472 2.87943 17.0501C4.35064 17.053 5.82184 17.2612 7.29016 17.3363C8.94058 17.4231 10.1054 17.8394 13.9121 19.8082C21.1005 23.5261 19.4125 22.4997 21.8636 23.6908C28.497 26.9201 28.2831 26.9693 32.1013 28.6808C35.8878 30.3749 38.7666 31.3955 43.2322 32.682C43.2322 32.682 47.4551 33.6013 55.5829 34.5207C57.1466 34.697 58.5513 34.3588 58.5889 34.2171C58.6583 33.9512 57.427 33.7285 55.9673 33.5291C54.5539 33.3354 52.9237 33.1243 50.6635 32.7803C48.7645 32.4912 47.6921 32.2368 45.5937 31.7366C43.3739 31.2076 42.7582 30.9618 42.1657 30.3952C41.1165 29.3949 40.8824 28.1228 40.8245 27.7846C40.5297 26.0557 41.2726 24.7345 41.4951 24.3558C41.7119 23.9828 42.923 22.014 45.2237 21.7452C47.9205 21.4301 49.727 23.7284 49.9206 23.9828C50.886 25.252 51.019 26.5935 51.0392 29.8719C51.0652 34.4571 50.8398 37.9842 50.8167 38.3716C50.6924 40.3115 50.6606 42.9452 50.5941 48.2127C50.5941 48.2127 50.36 54.0641 50.6692 60.2163C50.6953 60.7598 50.7588 61.8555 51.1924 63.1998C51.3774 63.7751 52.0104 65.6832 53.5047 67.227C56.1639 69.9764 60.1064 69.5052 60.0139 70.1962C59.9879 70.3899 59.4676 70.9652 58.6294 71.1964C57.5397 71.4971 56.4153 71.3323 54.9962 71.3092C54.34 71.2976 54.2678 71.2369 53.7157 71.2167C52.3601 71.1618 51.6561 71.0908 50.44 71.0908C49.5273 71.0908 48.8434 70.5583 48.8434 70.5583C48.8434 70.5583 48.2198 69.8771 48.1864 69.3173C48.0419 66.8975 48.3574 66.0275 48.3112 64.7005C48.291 64.1079 48.3425 63.8619 46.9435 59.8983C45.5504 55.9549 45.3885 55.4114 45.2526 54.5787C44.9781 52.8701 45.2324 52.4365 45.2526 49.956C45.2671 48.2676 45.296 44.9082 44.3075 41.306C44.0618 40.404 43.3797 38.652 42.0212 35.1423C40.6425 31.5834 40.8563 29.2156 41.1194 28.8253C42.0674 27.4232 46.3972 31.5371 56.979 33.7517C60.7972 34.5496 62.8985 34.8445 65.1299 33.85C67.341 32.8641 68.2428 31.2509 70.1996 28.4322C71.6448 26.3477 75.5295 20.7478 80.0906 16.2551C87.0015 9.44668 88.3282 8.12837 88.3282 8.12837C88.941 7.47788 90.4526 5.76639 91.9181 3.53161C92.3892 2.81174 92.6118 0.77645 92.0163 0.449762C91.0596 -0.0764075 88.8774 4.36712 83.6169 8.99857C79.3969 12.7165 75.7868 15.8937 71.3413 18.1458C70.6794 18.4812 68.8787 19.363 67.9625 21.2768C67.3699 22.5142 66.9451 24.6102 67.9625 25.8013C69.2805 27.3422 71.8703 25.8967 75.2549 25.4544C76.0845 25.3445 78.1887 24.3356 78.3853 23.2167C78.4893 22.6269 78.5095 22.3234 78.2234 21.9244C77.9199 21.4994 76.7984 21.5688 76.0354 22.1731C74.7549 23.1878 72.694 25.4081 72.4252 27.2006C72.2518 28.3657 72.2576 29.3024 72.6102 29.8285C73.2866 30.8375 76.3706 30.7276 76.9516 30.6496C78.443 30.4501 79.4865 29.71 80.0819 29.3313C81.1225 28.6721 81.7323 27.9291 82.1688 27.3914C83.3192 25.9719 83.7614 24.6651 83.8596 24.3587C84.1689 23.4017 84.4117 22.653 84.1574 21.7249C83.8886 20.7391 83.2238 20.1435 82.9636 19.9354C82.0243 19.1808 80.9375 19.1143 80.5299 19.0912C76.7608 18.8657 72.405 21.1785 71.3847 20.9559C70.7979 20.8172 69.1591 19.4352 74.2231 14.0261Z" stroke="#789776" stroke-width="0.75"/>
</svg>
