<svg width="15" height="15" viewBox="0 0 15 15" fill="none" xmlns="http://www.w3.org/2000/svg">
<path d="M13.8133 11.3867C13.8133 11.6267 13.76 11.8733 13.6467 12.1133C13.5333 12.3533 13.3867 12.58 13.1933 12.7933C12.8667 13.1533 12.5067 13.4133 12.1 13.58C11.7 13.7467 11.2667 13.8333 10.8 13.8333C10.12 13.8333 9.39333 13.6733 8.62667 13.3467C7.86 13.02 7.09333 12.58 6.33333 12.0267C5.56667 11.4667 4.84 10.8467 4.14667 10.16C3.46 9.46667 2.84 8.74 2.28667 7.98C1.74 7.22 1.3 6.46 0.98 5.70667C0.66 4.94667 0.5 4.22 0.5 3.52667C0.5 3.07333 0.58 2.64 0.74 2.24C0.9 1.83333 1.15333 1.46 1.50667 1.12667C1.93333 0.706667 2.4 0.5 2.89333 0.5C3.08 0.5 3.26667 0.54 3.43333 0.62C3.60667 0.7 3.76 0.82 3.88 0.993333L5.42667 3.17333C5.54667 3.34 5.63333 3.49333 5.69333 3.64C5.75333 3.78 5.78667 3.92 5.78667 4.04667C5.78667 4.20667 5.74 4.36667 5.64667 4.52C5.56 4.67333 5.43333 4.83333 5.27333 4.99333L4.76667 5.52C4.69333 5.59333 4.66 5.68 4.66 5.78667C4.66 5.84 4.66667 5.88667 4.68 5.94C4.7 5.99333 4.72 6.03333 4.73333 6.07333C4.85333 6.29333 5.06 6.58 5.35333 6.92667C5.65333 7.27333 5.97333 7.62667 6.32 7.98C6.68 8.33333 7.02667 8.66 7.38 8.96C7.72667 9.25333 8.01333 9.45333 8.24 9.57333C8.27333 9.58667 8.31333 9.60667 8.36 9.62667C8.41333 9.64667 8.46667 9.65333 8.52667 9.65333C8.64 9.65333 8.72667 9.61333 8.8 9.54L9.30667 9.04C9.47333 8.87333 9.63333 8.74667 9.78667 8.66667C9.94 8.57333 10.0933 8.52667 10.26 8.52667C10.3867 8.52667 10.52 8.55333 10.6667 8.61333C10.8133 8.67333 10.9667 8.76 11.1333 8.87333L13.34 10.44C13.5133 10.56 13.6333 10.7 13.7067 10.8667C13.7733 11.0333 13.8133 11.2 13.8133 11.3867Z" stroke="#98958B" stroke-miterlimit="10"/>
</svg>
