<svg width="42" height="41" viewBox="0 0 42 41" fill="none" xmlns="http://www.w3.org/2000/svg">
<path d="M36.4349 17.6858C35.8914 17.3503 35.1236 17.2473 34.4325 17.3645L33.0889 16.0207C31.923 14.8547 30.3934 14.2707 28.8639 14.2707C27.9809 14.2707 27.0979 14.4667 26.2836 14.8567C27.3464 12.6338 26.9585 9.89166 25.1177 8.05074L23.774 6.70693C23.8912 6.01583 23.7882 5.24794 23.4528 4.70435L20.5573 0L17.684 4.66191C17.3446 5.21358 17.2435 5.99966 17.3688 6.69885L16.0191 8.04872C14.1783 9.88964 13.7904 12.6318 14.8532 14.8547C14.0389 14.4647 13.1559 14.2686 12.2729 14.2686C10.7434 14.2686 9.2138 14.8527 8.04793 16.0186L6.69819 17.3685C5.99907 17.2412 5.21307 17.3422 4.66146 17.6837L0 20.5573L4.70389 23.4571C5.24742 23.7925 6.01524 23.8956 6.70627 23.7784L8.04995 25.1222C9.21582 26.2882 10.7454 26.8722 12.275 26.8722C13.158 26.8722 14.0409 26.6762 14.8552 26.2862C13.7924 28.509 14.1804 31.2512 16.0211 33.0921L17.3648 34.4359C17.2476 35.127 17.3506 35.8949 17.6861 36.4385L20.5856 41.1429L23.4588 36.4809C23.7983 35.9293 23.8993 35.1432 23.774 34.444L25.1238 33.0941C26.9645 31.2532 27.3525 28.511 26.2896 26.2882C27.1039 26.6782 27.9869 26.8742 28.8699 26.8742C30.3995 26.8742 31.9291 26.2902 33.0949 25.1242L34.4447 23.7743C35.1438 23.9017 35.9298 23.8006 36.4814 23.4591L41.1429 20.5856L36.4349 17.6858ZM16.4656 8.49733L17.583 7.37985C17.6153 7.44653 17.6456 7.51726 17.684 7.5799L18.5468 8.9803L17.7952 9.73C16.1282 11.3971 15.6513 13.8059 16.3686 15.8974C16.2878 15.8206 16.205 15.7479 16.1201 15.6751C15.3301 14.7193 14.8997 13.5311 14.8997 12.2762C14.8997 10.8475 15.4553 9.5057 16.4656 8.49733ZM13.6348 20.1572C13.5217 20.1693 13.4105 20.1794 13.2974 20.1935C13.2832 20.1956 13.2671 20.1976 13.2509 20.1996C12.4225 20.3027 11.5637 20.143 10.9656 19.7752L9.52901 18.8901L10.1736 18.2455C11.1839 17.2351 12.5255 16.6794 13.952 16.6794C15.3786 16.6794 16.7222 17.2351 17.7305 18.2455L18.8176 19.3327C17.1001 18.7022 15.128 18.975 13.6348 20.1572ZM18.8196 21.8122L17.7325 22.8994C16.7222 23.9097 15.3806 24.4654 13.9541 24.4654C12.5275 24.4654 11.1839 23.9097 10.1756 22.8994L9.5472 22.2709L10.998 21.3777C11.5981 21.0079 12.4568 20.8483 13.2893 20.9493L13.3014 20.9513C13.4146 20.9655 13.5257 20.9736 13.6389 20.9877C15.128 22.1678 17.1001 22.4427 18.8196 21.8122ZM8.49448 16.4672C9.50476 15.4569 10.8464 14.9011 12.2729 14.9011C13.5277 14.9011 14.7158 15.3316 15.6715 16.1217C15.7423 16.2066 15.817 16.2894 15.8938 16.3702C15.2654 16.156 14.6087 16.0469 13.952 16.0469C12.4225 16.0469 10.8929 16.6309 9.72703 17.7969L8.97537 18.5486L7.57512 17.6858C7.51248 17.6474 7.44378 17.6171 7.37508 17.5847L8.49448 16.4672ZM12.275 26.2417C10.8484 26.2417 9.50476 25.686 8.4965 24.6756L7.39327 23.5723C7.47005 23.5359 7.54885 23.5015 7.61957 23.4571L8.99356 22.6104L9.72905 23.3459C10.8949 24.5119 12.4245 25.0959 13.9541 25.0959C14.6107 25.0959 15.2674 24.9868 15.8958 24.7726C15.819 24.8534 15.7463 24.9363 15.6736 25.0212C14.7178 25.8113 13.5297 26.2417 12.275 26.2417ZM17.684 33.5246C17.6396 33.5953 17.6052 33.6741 17.5689 33.7509L16.4656 32.6475C14.5016 30.6834 14.3905 27.5613 16.1262 25.4637C16.209 25.395 16.2898 25.3223 16.3686 25.2475C15.6534 27.339 16.1282 29.7457 17.7952 31.4149L18.5307 32.1504L17.684 33.5246ZM19.7672 30.1438L18.8721 31.5967L18.2437 30.9683C17.2334 29.9579 16.6778 28.6161 16.6778 27.1894C16.6778 25.7628 17.2334 24.419 18.2437 23.4106L19.3308 22.3234C18.7024 24.0411 18.9752 26.0113 20.1552 27.5047C20.1673 27.6178 20.1774 27.731 20.1916 27.8442C20.1916 27.8482 20.1916 27.8523 20.1936 27.8563C20.2946 28.6868 20.135 29.5457 19.7672 30.1438ZM20.1976 13.2542C20.1956 13.2704 20.1936 13.2866 20.1916 13.3007C20.1774 13.4139 20.1693 13.525 20.1552 13.6382C18.9732 15.1315 18.6984 17.1038 19.3288 18.8214L18.2417 17.7343C16.1585 15.6509 16.1585 12.26 18.2417 10.1766L18.8863 9.53197L19.7713 10.9687C20.141 11.5669 20.3007 12.4257 20.1976 13.2542ZM28.8639 14.9011C30.2904 14.9011 31.6341 15.4569 32.6423 16.4672L33.7455 17.5706C33.6688 17.607 33.59 17.6413 33.5192 17.6858L32.1453 18.5325L31.4098 17.7969C30.2439 16.6309 28.7143 16.0469 27.1848 16.0469C26.5281 16.0469 25.8714 16.156 25.243 16.3702C25.3198 16.2894 25.3925 16.2066 25.4653 16.1217C26.421 15.3316 27.6091 14.9011 28.8639 14.9011ZM27.5 20.9877C27.6131 20.9756 27.7263 20.9655 27.8394 20.9513C27.8536 20.9493 27.8697 20.9473 27.8859 20.9453C28.7164 20.8402 29.5751 20.9998 30.1752 21.3696L31.6098 22.2547L30.9652 22.8994C29.955 23.9097 28.6133 24.4654 27.1868 24.4654C25.7603 24.4654 24.4166 23.9097 23.4083 22.8994L22.3212 21.8122C24.0367 22.4427 26.0068 22.1678 27.5 20.9877ZM22.3192 19.3307L23.4063 18.2435C24.4166 17.2331 25.7582 16.6774 27.1848 16.6774C28.6113 16.6774 29.955 17.2331 30.9632 18.2435L31.5916 18.872L30.1388 19.7672C29.5407 20.137 28.68 20.2946 27.8515 20.1915C27.8475 20.1915 27.8435 20.1895 27.8394 20.1895C27.7263 20.1754 27.6131 20.1653 27.5 20.1531C26.0068 18.975 24.0367 18.7022 22.3192 19.3307ZM23.4548 7.62032C23.4992 7.54959 23.5336 7.47078 23.57 7.39399L24.6732 8.49733C25.6835 9.50772 26.2391 10.8495 26.2391 12.2762C26.2391 13.5311 25.8087 14.7193 25.0187 15.6751C24.9338 15.7458 24.851 15.8206 24.7702 15.8974C25.4855 13.8059 25.0106 11.3992 23.3437 9.73L22.6082 8.99444L23.4548 7.62032ZM21.3736 10.997L22.2667 9.54611L22.8951 10.1746C24.9783 12.258 24.9783 15.6488 22.8951 17.7322L21.808 18.8194C22.4364 17.0997 22.1636 15.1295 20.9816 13.6361C20.9695 13.523 20.9594 13.4118 20.9452 13.2987L20.9432 13.2866C20.8442 12.456 21.0038 11.5972 21.3736 10.997ZM21.3675 30.1782C20.9978 29.58 20.8381 28.7192 20.9432 27.8886C20.9452 27.8725 20.9473 27.8563 20.9493 27.8422C20.9634 27.729 20.9735 27.6158 20.9856 27.5027C22.1657 26.0093 22.4384 24.0391 21.81 22.3214L22.8971 23.4086C23.9074 24.419 24.463 25.7608 24.463 27.1874C24.463 28.6141 23.9074 29.9579 22.8971 30.9663L22.2525 31.6109L21.3675 30.1782ZM24.6732 32.6475L23.5558 33.765C23.5235 33.6983 23.4932 33.6276 23.4548 33.565L22.592 32.1646L23.3437 31.4129C25.0106 29.7457 25.4875 27.337 24.7702 25.2455C24.849 25.3202 24.9298 25.393 25.0126 25.4617C26.7483 27.5613 26.6372 30.6834 24.6732 32.6475ZM32.6443 24.6756C31.6341 25.686 30.2924 26.2417 28.8659 26.2417C27.6111 26.2417 26.423 25.8113 25.4673 25.0212C25.3966 24.9363 25.3218 24.8534 25.245 24.7726C25.8734 24.9868 26.5301 25.0959 27.1868 25.0959C28.7163 25.0959 30.2459 24.5119 31.4118 23.3459L32.1634 22.5942L33.5637 23.4571C33.6263 23.4955 33.695 23.5258 33.7637 23.5581L32.6443 24.6756Z" fill="#789776"/>
</svg>
