<svg width="47" height="47" viewBox="0 0 47 47" fill="none" xmlns="http://www.w3.org/2000/svg">
<path d="M41.6218 20.2035C41.0009 19.8203 40.1238 19.7026 39.3344 19.8365L37.7994 18.3014C36.4676 16.9694 34.7203 16.3023 32.9729 16.3023C31.9643 16.3023 30.9556 16.5262 30.0253 16.9717C31.2395 14.4324 30.7963 11.2999 28.6935 9.19686L27.1585 7.66174C27.2924 6.87225 27.1747 5.99504 26.7915 5.37407L23.4838 0L20.2016 5.32559C19.8138 5.9558 19.6984 6.85378 19.8415 7.65251L18.2996 9.19455C16.1968 11.2975 15.7536 14.4301 16.9677 16.9694C16.0375 16.5239 15.0288 16.3 14.0201 16.3C12.2728 16.3 10.5255 16.9671 9.19364 18.2991L7.65175 19.8411C6.85311 19.6957 5.95521 19.8111 5.32507 20.2012L0 23.4838L5.37354 26.7965C5.99445 27.1797 6.87157 27.2974 7.66099 27.1635L9.19595 28.6986C10.5278 30.0306 12.2751 30.6977 14.0224 30.6977C15.0311 30.6977 16.0398 30.4738 16.97 30.0283C15.7559 32.5676 16.1991 35.7001 18.3019 37.8031L19.8369 39.3383C19.703 40.1278 19.8207 41.005 20.2039 41.6259L23.5162 47L26.7984 41.6744C27.1862 41.0442 27.3016 40.1462 27.1585 39.3475L28.7004 37.8055C30.8032 35.7025 31.2464 32.5699 30.0323 30.0306C30.9625 30.4761 31.9712 30.7001 32.9799 30.7001C34.7272 30.7001 36.4745 30.0329 37.8064 28.7009L39.3482 27.1589C40.1469 27.3043 41.0448 27.1889 41.6749 26.7988L47 23.5162L41.6218 20.2035ZM18.8097 9.70702L20.0861 8.43045C20.1231 8.50663 20.1577 8.58743 20.2016 8.65899L21.1872 10.2587L20.3285 11.1152C18.4242 13.0196 17.8795 15.7713 18.6989 18.1606C18.6066 18.0728 18.5119 17.9897 18.415 17.9066C17.5125 16.8147 17.0208 15.4574 17.0208 14.0238C17.0208 12.3917 17.6556 10.8589 18.8097 9.70702ZM15.5759 23.0268C15.4466 23.0406 15.3197 23.0522 15.1904 23.0683C15.1742 23.0706 15.1558 23.0729 15.1373 23.0752C14.1909 23.193 13.2099 23.0106 12.5267 22.5905L10.8856 21.5794L11.6219 20.843C12.776 19.6888 14.3087 19.0539 15.9383 19.0539C17.5679 19.0539 19.1028 19.6888 20.2546 20.843L21.4965 22.0849C19.5345 21.3647 17.2817 21.6763 15.5759 23.0268ZM21.4988 24.9174L20.2569 26.1593C19.1028 27.3136 17.5702 27.9484 15.9406 27.9484C14.311 27.9484 12.776 27.3136 11.6242 26.1593L10.9063 25.4414L12.5636 24.4211C13.2492 23.9986 14.2302 23.8163 15.1812 23.9317L15.195 23.934C15.3243 23.9501 15.4512 23.9594 15.5805 23.9755C17.2817 25.3237 19.5345 25.6376 21.4988 24.9174ZM9.70376 18.8115C10.8579 17.6573 12.3905 17.0225 14.0201 17.0225C15.4535 17.0225 16.8108 17.5142 17.9026 18.4168C17.9834 18.5138 18.0688 18.6084 18.1565 18.7007C17.4386 18.456 16.6884 18.3314 15.9383 18.3314C14.1909 18.3314 12.4436 18.9985 11.1118 20.3305L10.2531 21.1892L8.65352 20.2035C8.58197 20.1597 8.50349 20.125 8.42501 20.0881L9.70376 18.8115ZM14.0224 29.9775C12.3928 29.9775 10.8579 29.3427 9.70607 28.1885L8.44578 26.928C8.53349 26.8865 8.62351 26.8472 8.7043 26.7965L10.2739 25.8292L11.1141 26.6695C12.4459 28.0015 14.1933 28.6686 15.9406 28.6686C16.6907 28.6686 17.4409 28.544 18.1588 28.2993C18.0711 28.3916 17.988 28.4862 17.9049 28.5832C16.8131 29.4858 15.4558 29.9775 14.0224 29.9775ZM20.2016 38.2971C20.1508 38.3779 20.1115 38.468 20.07 38.5557L18.8097 37.2953C16.5661 35.0515 16.4392 31.4849 18.4219 29.0888C18.5166 29.0103 18.6089 28.9272 18.6989 28.8417C17.8818 31.231 18.4242 33.9804 20.3285 35.8871L21.1687 36.7274L20.2016 38.2971ZM22.5813 34.4351L21.5588 36.0949L20.8409 35.377C19.6868 34.2227 19.0521 32.6899 19.0521 31.0602C19.0521 29.4304 19.6868 27.8953 20.8409 26.7434L22.0828 25.5014C21.3649 27.4636 21.6765 29.7143 23.0245 31.4203C23.0384 31.5496 23.0499 31.6788 23.0661 31.8081C23.0661 31.8127 23.0661 31.8173 23.0684 31.822C23.1838 32.7707 23.0014 33.7518 22.5813 34.4351ZM23.073 15.1411C23.0707 15.1596 23.0684 15.178 23.0661 15.1942C23.0499 15.3235 23.0407 15.4504 23.0245 15.5797C21.6742 17.2857 21.3603 19.5387 22.0804 21.5009L20.8386 20.2589C18.4588 17.8789 18.4588 14.0054 20.8386 11.6253L21.5749 10.8889L22.5859 12.5303C23.0083 13.2136 23.1907 14.1946 23.073 15.1411ZM32.9729 17.0225C34.6025 17.0225 36.1375 17.6573 37.2893 18.8115L38.5496 20.072C38.4619 20.1135 38.3719 20.1528 38.2911 20.2035L36.7215 21.1708L35.8813 20.3305C34.5495 18.9985 32.8021 18.3314 31.0548 18.3314C30.3046 18.3314 29.5545 18.456 28.8366 18.7007C28.9243 18.6084 29.0074 18.5138 29.0905 18.4168C30.1823 17.5142 31.5395 17.0225 32.9729 17.0225ZM31.4149 23.9755C31.5442 23.9617 31.6734 23.9501 31.8027 23.934C31.8188 23.9317 31.8373 23.9294 31.8558 23.9271C32.8044 23.807 33.7854 23.9894 34.471 24.4118L36.1098 25.4229L35.3735 26.1593C34.2194 27.3136 32.6867 27.9484 31.0571 27.9484C29.4275 27.9484 27.8925 27.3136 26.7407 26.1593L25.4989 24.9174C27.4586 25.6376 29.7091 25.3237 31.4149 23.9755ZM25.4966 22.0826L26.7384 20.8407C27.8925 19.6864 29.4252 19.0516 31.0548 19.0516C32.6844 19.0516 34.2194 19.6864 35.3712 20.8407L36.089 21.5586L34.4294 22.5812C33.7462 23.0037 32.7629 23.1837 31.8165 23.066C31.8119 23.066 31.8073 23.0637 31.8027 23.0637C31.6734 23.0475 31.5442 23.036 31.4149 23.0222C29.7091 21.6763 27.4586 21.3647 25.4966 22.0826ZM26.7938 8.70516C26.8446 8.62436 26.8839 8.53433 26.9254 8.44661L28.1857 9.70702C29.3398 10.8612 29.9746 12.3941 29.9746 14.0238C29.9746 15.4574 29.4829 16.8147 28.5804 17.9066C28.4834 17.9874 28.3888 18.0728 28.2965 18.1606C29.1136 15.7713 28.5712 13.022 26.6669 11.1152L25.8267 10.2749L26.7938 8.70516ZM24.4164 12.5626L25.4366 10.9051L26.1545 11.623C28.5342 14.003 28.5342 17.8766 26.1545 20.2566L24.9126 21.4986C25.6305 19.5341 25.3189 17.2834 23.9686 15.5774C23.9547 15.4481 23.9432 15.3212 23.927 15.1919L23.9247 15.178C23.8116 14.2293 23.994 13.2482 24.4164 12.5626ZM24.4094 34.4744C23.987 33.7911 23.8047 32.8077 23.9247 31.8589C23.927 31.8404 23.9293 31.822 23.9316 31.8058C23.9478 31.6765 23.9593 31.5473 23.9732 31.418C25.3212 29.712 25.6328 27.4613 24.9149 25.4991L26.1568 26.7411C27.3109 27.8953 27.9456 29.4281 27.9456 31.0579C27.9456 32.6876 27.3109 34.2227 26.1568 35.3747L25.4204 36.111L24.4094 34.4744ZM28.1857 37.2953L26.9092 38.5719C26.8723 38.4957 26.8377 38.4149 26.7938 38.3433L25.8082 36.7436L26.6669 35.8848C28.5712 33.9804 29.1159 31.2287 28.2965 28.8394C28.3865 28.9249 28.4788 29.008 28.5735 29.0864C30.5562 31.4849 30.4293 35.0515 28.1857 37.2953ZM37.2916 28.1885C36.1375 29.3427 34.6049 29.9775 32.9752 29.9775C31.5418 29.9775 30.1846 29.4858 29.0928 28.5832C29.012 28.4862 28.9266 28.3916 28.8389 28.2993C29.5568 28.544 30.3069 28.6686 31.0571 28.6686C32.8044 28.6686 34.5518 28.0015 35.8836 26.6695L36.7423 25.8108L38.3419 26.7965C38.4134 26.8403 38.4919 26.875 38.5704 26.9119L37.2916 28.1885Z" fill="#FEFBF7"/>
</svg>
