<svg width="22" height="13" viewBox="0 0 22 13" fill="none" xmlns="http://www.w3.org/2000/svg">
<path d="M9.2168 2.83496L9.21582 2.81543C9.16443 1.86305 8.87818 1.29831 8.58301 0.892578C8.53332 0.824288 8.48331 0.762613 8.44141 0.709961H11.8086C11.8126 0.751204 11.8164 0.804335 11.8164 0.871094V5.5625C11.8165 6.18411 12.125 6.94922 12.8916 6.94922C13.5322 6.94908 13.9842 6.52194 14.4893 6.00879L14.5146 5.98145C15.4153 4.96615 16.1668 3.69727 16.6865 2.70508C16.9486 2.20466 17.1562 1.76508 17.2988 1.4502C17.3702 1.29261 17.4261 1.16544 17.4639 1.07715C17.4826 1.03323 17.4969 0.998475 17.5068 0.974609C17.5117 0.962836 17.5159 0.953778 17.5186 0.947266C17.519 0.946298 17.5192 0.945183 17.5195 0.944336C17.5645 0.840253 17.6062 0.79182 17.6377 0.767578C17.6598 0.750666 17.7208 0.710028 17.8838 0.709961H20.2295C20.2348 0.709962 20.24 0.710875 20.2451 0.710938L20.2432 0.72168C20.1923 0.957649 20.0041 1.39063 19.6934 1.96777C19.3948 2.52222 19.0199 3.144 18.6484 3.73145C18.2778 4.31753 17.9153 4.86227 17.6455 5.26074C17.5108 5.4597 17.3998 5.6223 17.3223 5.73438C17.2836 5.79034 17.2529 5.83397 17.2324 5.86328C17.2223 5.87779 17.2141 5.88916 17.209 5.89648C17.2066 5.89994 17.2043 5.90259 17.2031 5.9043L17.2021 5.90625L17.1895 5.9248L17.1777 5.94336C17.0751 6.11037 16.8802 6.40909 16.8516 6.7666C16.8191 7.17153 16.9957 7.50281 17.2041 7.7793L17.2031 7.78027C17.206 7.78427 17.21 7.78795 17.2129 7.79199C17.2153 7.79514 17.2173 7.79863 17.2197 7.80176V7.80078C17.3935 8.0378 17.7086 8.34715 17.9785 8.61426C18.2873 8.91986 18.6047 9.23473 18.8535 9.53125L18.8594 9.53809L18.8643 9.54395C19.3632 10.1105 19.7883 10.6198 20.1113 11.0615C20.4384 11.5087 20.6218 11.8371 20.6934 12.0547C20.7022 12.0862 20.7064 12.1125 20.71 12.1338C20.6747 12.1398 20.6261 12.1465 20.5625 12.1465H18.2188C18.1022 12.1465 18.0337 12.1252 17.9688 12.0908C17.8881 12.0481 17.7813 11.967 17.6123 11.7959C17.4407 11.6221 17.249 11.4025 16.9766 11.0977C16.7109 10.8004 16.3877 10.4446 15.9785 10.0312V10.0303L15.9688 10.0215L15.4717 9.55566C14.3747 8.57127 13.7089 8.29013 13.1396 8.29004C12.8886 8.29004 12.4185 8.31113 12.1006 8.70996C11.9564 8.89087 11.8905 9.09318 11.8574 9.26562C11.8244 9.43751 11.8154 9.62416 11.8154 9.81152V11.9355C11.8154 11.9869 11.81 12.0222 11.8076 12.0459C11.7727 12.0594 11.7129 12.0793 11.6162 12.0967C11.4467 12.1272 11.2015 12.1475 10.8516 12.1475C8.65229 12.1473 6.12304 10.7861 4.28516 8.12109L4.28125 8.11426L3.77148 7.37207C2.63905 5.66832 1.8919 4.17647 1.41797 3.02051C1.147 2.35956 0.966806 1.81106 0.855469 1.39844C0.758814 1.04021 0.725352 0.815833 0.71582 0.71582C0.740085 0.71388 0.769109 0.710949 0.803711 0.710938H3.14844C3.24793 0.710953 3.29651 0.72244 3.31543 0.728516C3.32779 0.732496 3.3277 0.734026 3.3291 0.735352C3.34523 0.750357 3.38729 0.800588 3.45215 0.957031L3.52441 1.15039C4.11516 2.88769 4.90876 4.51859 5.66504 5.72559C6.04181 6.32686 6.42179 6.84344 6.77637 7.21875C6.95287 7.40554 7.13942 7.57473 7.33105 7.70215C7.50934 7.82068 7.76747 7.954 8.07129 7.9541C8.19198 7.9541 8.37326 7.94182 8.56055 7.85645C8.76753 7.76206 8.92215 7.6066 9.02441 7.41992C9.19262 7.11269 9.2168 6.71558 9.2168 6.34082V2.83496Z" fill="#FEFBF7" stroke="#FEFBF7" stroke-width="1.42"/>
</svg>
