<svg width="437" height="549" viewBox="0 0 437 549" fill="none" xmlns="http://www.w3.org/2000/svg">
<g clip-path="url(#clip0_816_6106)">
<path opacity="0.1" d="M474.782 337.34C471.42 337.242 468.033 337.195 464.671 337.072C441.482 336.141 418.628 333.1 396.18 327.054C378.852 322.388 362.622 315.249 347.416 305.741C346.532 305.196 345.443 304.779 345.066 303.516C347.92 301.763 350.594 299.807 353.075 297.481C359.88 291.095 365.723 283.959 369.962 275.617C374.226 267.224 377.248 258.339 379.388 249.19C381.289 241.027 381.758 232.743 379.799 224.471C378.963 220.947 377.681 217.567 376.309 214.226C375.649 212.606 375.449 211.035 375.798 209.295C377.356 201.401 377.149 193.491 376.01 185.573C375.004 178.651 373.346 171.873 371.931 165.03C370.136 156.31 368.073 147.629 367.107 138.739C366.37 132.007 366.374 125.272 366.813 118.534C366.955 116.259 367.135 113.944 366.344 111.737C365.488 109.339 364.08 108.809 361.875 110.06C359.186 111.595 357.306 113.905 355.76 116.545C353.885 119.75 351.972 122.942 350.058 126.134C347.181 130.967 343.882 135.585 342.03 140.975C341.917 141.321 341.598 141.488 341.1 141.453C341.021 141.018 340.878 140.572 340.837 140.099C339.822 126.352 341.351 112.938 345.937 99.9038C347.21 96.2805 348.853 92.7958 350.254 89.2229C350.998 87.3404 351.73 85.4196 350.966 83.3658C348.611 82.8154 348.125 82.7412 346.813 83.6552C344.852 85.0199 342.981 86.4736 341.624 88.5638C338.618 93.1928 335.536 97.7967 332.274 102.248C329.291 106.34 326.719 110.635 324.684 115.285C323.093 118.948 321.667 122.674 320.591 127.23C316.026 116.632 312.894 106.436 311.332 95.7852C310.617 90.9066 310.043 85.989 309.417 81.0972C309.27 79.8838 308.958 78.7351 308.313 77.6904C306.702 75.0274 304.297 74.4261 301.531 75.9355C299.339 77.1224 297.75 78.9326 296.585 81.0601C291.102 91.044 287.04 101.519 285.41 112.851C285.348 113.273 285.428 113.835 284.458 114.044C283.323 112.108 282.162 110.069 280.951 108.055C276.968 101.468 272.935 94.932 269.691 87.9319C268.27 84.8718 266.849 81.8372 265.415 78.7899C264.743 77.3619 263.664 76.2682 262.559 75.1236C260.67 73.1522 257.272 73.5273 255.88 76.2694C254.906 78.2042 254.085 80.1894 253.738 82.3638C251.595 95.6026 252.746 108.518 257.475 121.108C257.89 122.205 258.726 123.185 258.503 124.72C255.004 122.731 251.595 120.857 248.249 118.868C243.801 116.245 239.162 113.891 235.12 110.678C228.999 105.814 222.916 100.912 218.193 94.5324C216.791 92.6352 215.4 90.6229 213.386 89.1889C211.321 87.7297 209.584 87.9685 208.24 90.0969C207.923 90.597 207.607 91.1481 207.456 91.7113C206.552 94.9621 205.943 98.2498 206.459 101.685C207.041 105.619 207.368 109.579 207.746 113.539C207.827 114.408 208.203 115.39 207.427 116.276C202.878 113.832 198.078 112.438 192.989 111.927C188.437 111.464 183.885 111.053 179.321 110.808C174.041 110.515 168.772 109.903 163.479 109.546C157.368 109.143 153.35 113.151 154.788 119.585C155.481 122.636 156.123 125.713 156.931 128.725C159.51 138.271 162.025 147.806 163.033 157.68C164.54 172.447 169.554 185.982 177.593 198.44C177.992 199.064 179.03 199.507 178.396 200.532C168.605 197.783 163.836 197.488 154.898 199.143C149.446 200.155 144.085 201.588 138.906 203.583C128.561 207.559 118.165 211.356 107.313 213.737C104.032 214.457 100.778 215.381 97.5363 216.318C95.8006 216.812 94.1169 217.46 92.6011 218.477C90.5759 219.829 90.3885 220.686 91.944 222.455C93.1395 223.817 94.3731 225.139 95.7338 226.308C98.9301 229.066 101.745 232.208 104.509 235.376C108.944 240.428 112.742 245.994 116.286 251.714C121.621 260.327 128.114 268.026 135.129 275.301C136.967 277.196 139.071 278.796 141.302 280.267C143.572 281.776 146.146 282.875 148.125 284.859C147.552 285.411 146.926 285.376 146.338 285.456C141.382 286.018 136.687 287.499 132.173 289.566C129.214 290.911 126.191 292.089 123.117 293.165C119.238 294.514 115.489 296.092 112.269 298.729C108.221 302.047 108.754 306.287 113.52 308.64C116.134 309.931 118.962 310.568 121.739 311.282C126.512 312.523 131.298 313.701 136.072 314.967C137.16 315.256 138.387 315.377 139.531 316.534C136.227 317.893 133.372 319.339 130.633 321.027C124.517 324.816 118.698 329.101 112.325 332.482C111.904 332.701 111.484 332.972 111.128 333.281C109.524 334.643 109.84 336.457 111.888 337.085C112.797 337.375 113.795 337.472 114.74 337.467C122.83 337.413 130.836 338.344 138.829 339.543C146.849 340.742 154.89 341.072 162.948 339.894C163.51 339.814 164.11 339.619 164.662 340.038C164.386 341.088 163.455 341.437 162.652 341.94C156.613 345.728 151.217 350.331 146.246 355.353C142.19 359.451 138.442 363.905 134.938 368.498C131.726 372.694 129.27 377.409 127.775 382.542C126.996 385.23 126.627 387.967 127.063 390.764C127.617 394.237 129.552 395.186 132.726 393.546C133.351 393.224 133.949 392.799 134.496 392.349C137.577 389.854 140.605 387.308 143.712 384.864C152.864 377.622 163.337 373.62 174.952 373.113C184.727 372.693 194.369 371.225 204.09 370.371C209.124 369.936 214.116 369.055 219.11 368.275C221.574 367.892 223.987 367.254 226.757 366.665C226.625 368.34 226.529 369.618 226.421 370.909C226.011 375.845 226.011 380.778 227.237 385.629C229.181 393.453 232.731 400.503 237.633 406.856C239.022 408.663 240.832 410.175 242.806 411.315C245.793 413.051 247.781 412.07 248.569 408.679C248.682 408.205 248.769 407.732 248.831 407.259C249.175 404.675 250.379 402.56 252.056 400.558C254.546 397.58 257.639 395.226 260.091 392.261C263.406 388.218 267.48 385.028 271.888 382.322C282.54 375.801 292.933 368.872 303.521 362.262C311.547 357.237 318.841 351.436 324.387 343.701C326.899 340.186 329.579 336.786 331.873 333.106C335.575 327.132 338.56 320.905 339.853 313.946C340.04 312.961 339.996 311.824 340.86 310.873C341.937 311.481 343.013 312.013 344.026 312.659C352.04 317.795 360.421 322.251 369.17 326.028C384.963 332.837 401.484 337.086 418.357 340.157C439.285 343.961 460.406 345.413 481.635 345.421C483.386 345.425 485.176 345.594 486.962 344.997C485.905 343.214 484.333 343.209 482.748 343.191C478.045 343.138 473.354 343.124 468.663 342.982C444.76 342.234 421.152 339.388 397.95 333.333C383.694 329.597 369.967 324.554 356.998 317.514C354.242 316.007 351.372 314.641 348.729 312.482C350.222 312.181 351.384 311.932 352.725 311.657C366.017 319.373 380.258 325.077 395.181 329.142C418.896 335.604 443.08 338.664 467.597 339.434C471.419 339.555 475.266 339.6 479.893 339.704C477.134 337.405 477.121 337.392 474.782 337.34ZM98.1432 220.072C107.351 221.15 110.47 222.711 120.329 223.126C129.534 222.888 143.531 218.972 146.866 217.912C151.224 216.527 164.786 214.368 168.837 213.451C172.653 212.608 185.112 211.834 192.736 215.796C196.67 217.834 200.465 220.166 204.234 222.473C209.914 225.933 215.921 228.574 222.258 230.548C224.319 231.19 226.355 231.934 228.518 232.677C228.2 235.362 226.256 237.634 227.203 240.428C222.334 243.06 221.268 246.989 223.043 251.85C220.044 255.265 220.292 258.689 222.929 262.036C223.533 262.813 223.409 263.529 223.452 264.36C223.596 267.58 224.874 270.066 228 271.507C230.139 272.48 232.316 273.415 233.81 275.554C234.556 276.624 236.195 277.076 237.617 277.899C236.526 279.413 234.586 279.909 233.173 281.104C231.812 282.249 230.27 283.241 228.702 284.079C211.253 293.383 192.625 294.576 173.541 291.606C164.306 290.17 155.915 286.161 147.839 281.525C140.315 277.205 134.418 271.164 128.8 264.661C123.041 257.993 118.657 250.399 113.623 243.229C109.4 237.218 104.758 231.579 99.3648 226.571C97.3488 224.703 95.4599 222.706 93.2762 220.544C95.0465 219.321 96.6343 219.901 98.1432 220.072ZM208.21 129.436C208.339 137.142 208.557 144.886 209.656 152.51C211.604 166.112 216.779 178.431 225.473 189.149C233.575 199.127 243.43 206.797 255.518 211.464C255.723 211.54 255.903 211.718 256.211 211.921C255.695 213.623 253.563 213.928 253.073 215.682C248.2 215.055 245.17 217.345 243.288 221.738C238.099 221.688 235.354 224.846 233.832 229.57C232.748 230.022 231.651 230.488 230.427 231.005C223.947 228.406 217.049 226.664 210.706 223.412C202.198 219.033 194.323 213.705 187.617 206.914C179.473 198.674 174.054 188.63 170.075 177.799C167.781 171.536 166.419 165.05 165.696 158.459C164.57 148.24 162.194 138.309 159.383 128.457C158.485 125.33 157.754 122.164 157.098 118.972C156.115 114.133 158.376 111.259 163.325 111.86C173.735 113.137 184.252 113.019 194.65 114.411C199.254 115.026 203.48 116.641 208.016 118.918C208.072 122.484 208.141 125.96 208.21 129.436ZM286.662 241.149C288.871 238.224 288.255 235.3 286.297 232.32C288.222 228.68 287.821 225.308 284.522 222.475C283.957 221.992 283.546 221.457 283.465 220.665C283.009 216.527 280.28 215.045 276.508 214.821C276.15 214.798 275.792 214.723 275.459 214.673C273.383 210.888 270.09 209.307 264.684 211.916C258.636 211.295 254.413 207.776 250.633 203.348C248.293 200.599 246.093 197.786 244.059 194.806C241.805 191.481 240.202 187.885 239.211 184.005C238.233 180.163 237.319 176.282 236.418 172.414C235.242 167.461 233.161 162.884 230.889 158.345C225.091 146.732 219.243 135.118 214.504 123.001C211.279 114.748 209.779 106.09 209.146 97.275C208.981 95.052 208.893 92.7009 210.467 90.6224C212.46 90.5356 213.426 91.9494 214.187 93.4153C216.007 96.9463 217.789 100.49 219.431 104.099C221.912 109.582 224.139 115.194 227.755 120.045C233.314 127.506 239.839 133.94 247.293 139.59C254.401 144.973 262.533 148.165 270.425 151.908C279.226 156.094 286.809 161.921 293.758 168.647C295.826 170.643 297.155 173.282 298.778 175.651C303.632 182.745 307.467 190.381 309.911 198.6C312.135 206.142 312.263 213.771 308.85 221.175C308.18 222.623 307.125 223.766 306.352 225.137C302.173 232.622 296.529 238.735 289.293 243.347C288.478 243.862 287.688 244.403 286.631 245.111C286.227 243.618 285.684 242.445 286.662 241.149ZM302.482 313.803C291.064 320.379 278.933 324.85 265.617 325.25C253.631 325.618 242.093 323.682 231.569 317.537C225.429 313.951 222.078 308.473 221.518 301.382C221.149 296.643 223.188 293.041 227.047 290.35C233.53 285.831 240.813 282.995 248.226 280.491C254.835 278.259 261.431 276.015 267.29 272.023C271.276 269.306 274.839 266.118 278.478 262.982C282.944 259.137 287.502 255.51 292.753 252.697C298.833 249.459 304.774 249.109 311.089 251.901C317.007 254.504 321.768 258.301 324.979 263.947C326.5 266.623 326.821 269.305 325.609 272.226C323.475 277.336 322.058 282.698 320.692 288.06C320.115 290.287 319.577 292.552 319.768 294.826C319.971 297.061 319.404 298.815 317.866 300.395C317.027 301.243 316.29 302.218 315.515 303.129C311.973 307.684 307.401 310.992 302.482 313.803ZM146.665 372.579C147.833 370.912 149.295 369.435 150.552 367.831C158.044 358.207 167.647 351.513 178.702 346.511C191.211 340.862 204.277 339.198 217.813 339.526C226.109 339.726 234.419 340.195 242.722 339.412C246.797 339.021 250.872 338.527 254.894 337.804C263.705 336.2 271.519 332.339 278.74 327.177C279.899 326.341 281.096 325.542 282.319 324.795C282.574 324.64 282.97 324.702 283.481 324.648C283.24 327.359 281.627 329.399 280.462 331.552C279.272 333.756 277.774 335.835 276.161 337.773C271.359 343.523 265.747 348.293 259.338 352.274C252.064 356.772 244.192 359.483 236.036 361.735C223.12 365.303 209.981 367.606 196.618 368.722C188.71 369.388 180.817 370.349 172.883 370.913C161.372 371.725 151.259 376.211 142.195 383.21C141.635 383.647 141.036 384.072 140.451 384.484C140.056 384.755 139.635 384.974 139.036 385.322C140.839 380.444 143.874 376.581 146.665 372.579ZM321.192 255.672C317.47 252.521 313.457 250.151 308.734 248.705C302.308 246.744 295.861 245.703 288.582 246.865C290.747 245.218 292.427 243.804 294.235 242.593C300.413 238.485 304.473 232.534 308.314 226.418C309.404 224.7 310.649 223.083 311.419 221.15C312.883 217.538 313.529 213.828 313.688 209.917C313.946 202.873 312.187 196.3 309.662 189.884C304.807 177.448 299.16 165.348 292.978 153.506C290.319 148.407 288.963 142.97 287.988 137.377C284.776 118.887 288.279 101.526 296.694 84.9576C297.783 82.8049 298.935 80.7158 300.703 79.007C301.848 77.9021 302.992 76.6949 304.758 77.2994C306.41 77.8662 306.444 79.4508 306.643 80.894C307.107 84.2785 306.996 87.6276 306.016 90.9044C304.822 94.9363 303.68 98.9936 302.256 102.95C297.807 115.28 297.526 127.896 299.176 140.72C300.759 152.943 305.199 164.205 310.381 175.26C315.988 187.245 322.666 198.663 328.427 210.57C331.695 217.315 334.006 224.409 335.998 231.594C337.885 238.397 337.855 245.107 334.617 251.616C332.592 255.69 330.786 259.879 328.852 264.017C328.776 264.196 328.482 264.261 327.935 264.635C326.026 261.27 324.106 258.123 321.192 255.672ZM339.518 237.801C337.793 225.336 333.02 213.947 327.276 202.895C321.791 192.328 316.089 181.877 311.075 171.064C305.286 158.594 301.399 145.693 300.728 131.855C300.3 122.987 300.959 114.306 303.702 105.806C305.111 101.453 306.405 97.0882 307.738 92.7105C307.838 92.3777 307.888 91.994 308.488 91.9526C309.034 96.3336 309.81 100.688 310.816 105.015C313.56 116.683 317.987 127.728 323.255 138.437C326.587 145.245 330.149 151.924 333.697 158.616C337.956 166.621 341.27 175.014 343.615 183.744C345.79 191.823 346.65 200.075 345.657 208.451C344.676 216.584 343.605 224.705 341.831 232.715C341.407 234.66 341.059 236.63 340.02 238.501C339.763 238.145 339.545 237.98 339.518 237.801ZM281.163 220.396C281.35 222.031 282.149 223.254 283.318 224.411C285.489 226.56 285.611 227.926 284.168 230.771C283.7 231.706 283.487 232.538 283.926 233.507C283.978 233.609 284.017 233.724 284.081 233.839C285.477 236.822 285.324 239.418 282.278 241.133C282.643 247.521 282.682 247.611 277.254 250.961C271.967 254.247 266.396 257.1 261.302 260.704C256.297 264.244 251.794 268.383 246.93 272.062C245.874 272.847 244.868 273.709 243.786 274.443C240.321 276.735 236.113 276.105 233.578 272.782C232.896 271.878 232.229 271.294 231.166 270.826C226.119 268.679 225.436 267.494 225.639 262.125C222.307 257.835 222.238 256.902 225.093 252.811C224.772 249.949 223.491 246.825 225.609 243.785C226.514 243.282 227.547 242.702 228.795 241.98C228.938 237.314 229.49 232.723 235.056 231.544C236.124 230.465 236.233 229.2 236.662 228.098C237.545 225.87 239.084 224.418 241.396 224.189C243.274 223.988 244.484 223.151 245.473 221.663C247.147 219.124 249.157 217.222 252.598 217.882C253.443 218.057 254.104 217.466 254.689 216.747C256.975 214 259.858 212.963 263.34 214.07C264.582 214.46 265.527 214.276 266.712 213.644C269.351 212.238 271.334 212.701 272.918 215.108C273.82 216.484 274.833 217.105 276.443 217.071C277.759 217.052 279.039 217.48 280.116 217.986C280.797 218.736 281.069 219.54 281.163 220.396ZM256.877 368.352C258.674 364.969 260.651 361.687 263.154 358.722C268.897 351.945 276.015 346.86 283.494 342.26C289.113 338.793 294.899 335.594 300.595 332.255C307.183 328.4 312.987 323.617 318.019 317.891C320.319 315.259 322.08 312.247 323.982 309.323C324.629 308.31 325.199 307.272 326.344 306.346C330.097 307.899 334.001 306.678 337.821 306.313C338.681 307.114 338.302 307.985 338.23 308.778C337.518 317.102 334.399 324.569 330.115 331.645C327.605 335.773 324.493 339.432 321.701 343.357C317.78 348.885 312.806 353.447 307.086 357.119C295.57 364.513 284.221 372.124 272.511 379.226C266.841 382.667 261.724 386.757 257.379 391.866C254.864 394.844 251.822 397.351 249.028 400.74C248.724 388.817 251.585 378.271 256.877 368.352ZM364.575 198.872C369.901 205.746 374.157 213.214 376.768 221.598C379.497 230.377 379.375 239.209 377.388 247.999C375.088 258.21 371.739 268.119 366.596 277.296C365.076 280.013 363.48 282.705 361.396 285.067C357.647 289.291 354.244 293.807 349.905 297.497C344.446 302.113 338.131 304.407 331.142 304.941C327.093 305.256 324.321 303.148 322.921 299.296C322.299 297.561 321.971 295.76 322.192 293.97C322.792 288.893 324.353 284.156 327.655 280.101C331.237 275.712 335.204 271.755 339.544 268.091C343.387 264.85 347.179 261.432 350.393 257.568C358.014 248.379 363.458 238.229 364.828 225.953C365.903 216.259 365.281 207.022 361.81 197.94C361.473 197.047 361.238 196.128 360.849 194.929C362.924 195.889 363.572 197.573 364.575 198.872ZM275.222 326.594C274.651 327.275 274.473 327.608 274.193 327.763C266.725 332.095 258.83 335.113 250.183 336.192C240.348 337.418 230.494 337.531 220.614 337.237C211.806 336.962 203.001 337.019 194.358 338.916C181.873 341.663 170.396 346.808 160.263 354.656C155.807 358.104 151.763 362.086 148.463 366.73C146.446 369.564 144.017 372.069 142.064 374.993C139.438 378.904 137.466 383.132 135.301 387.271C134.162 389.424 132.83 391.386 130.15 392.064C128.967 390.741 129.087 389.181 129.207 387.647C129.578 382.597 131.561 378.126 134.096 373.845C137.846 367.461 142.765 361.953 147.914 356.776C159.002 345.601 172.061 337.496 187.144 332.716C194.022 330.547 200.926 328.505 208.09 327.382C215.969 326.154 223.562 323.853 230.39 319.55C244.629 327.235 259.436 328.719 275.222 326.594ZM245.978 361.353C249.5 360.363 252.713 358.916 255.887 357.2C264.567 352.516 272.192 346.56 278.236 338.759C282.071 333.806 284.786 329.907 286.581 323.52C299.683 318.687 311.984 312.375 320.69 300.24C321.633 302.216 323.286 303.166 323.87 304.914C317.377 317.383 307.299 326.15 295.115 332.781C287.404 336.974 279.822 341.371 272.845 346.723C268.555 350.029 264.329 353.425 261.066 357.8C253.082 368.538 247.927 380.399 247.255 393.949C247 399.114 246.988 404.29 246.094 409.509C244.576 410.067 243.575 409.203 242.536 408.428C239.97 406.524 238.181 403.99 236.48 401.34C230.038 391.225 227.056 380.338 228.925 368.328C229.037 367.624 229.225 366.921 229.437 365.884C235.078 364.399 240.528 362.876 245.978 361.353ZM228.48 318.294C224.875 320.651 221.315 321.756 217.767 322.822C203.641 327.098 189.367 327.516 174.948 324.483C165.979 322.599 157.325 319.703 148.708 316.641C139.86 313.478 130.863 310.929 121.714 308.841C120.217 308.504 118.745 308.064 117.285 307.432C124.977 307.163 132.328 304.979 139.85 303.88C149.352 302.503 158.785 302.736 168.202 304.835C175.367 306.435 182.382 308.546 189.422 310.607C193.914 311.926 198.47 313.079 203.113 313.835C208.895 314.777 214.607 314.633 220.287 313.134C221.091 312.913 221.921 312.793 222.993 312.558C224.755 314.683 226.222 316.695 228.48 318.294ZM220.398 307.395C217.656 308.572 214.808 308.931 211.998 309.329C205.127 310.31 198.3 309.833 191.557 308.27C186.759 307.157 181.985 305.916 177.212 304.675C170.326 302.869 163.417 301.268 156.296 300.857C147.206 300.328 138.292 301.702 129.446 303.728C125.45 304.63 121.428 305.354 117.3 305.464C115.626 305.511 113.952 305.481 112.327 305.093C111.217 303.003 111.976 301.542 113.606 300.332C115.656 298.827 117.835 297.601 120.195 296.656C125.896 294.391 131.585 292.087 137.286 289.822C141.699 288.061 146.335 287.386 151.023 286.915C152.722 286.74 154.043 287.589 155.439 288.234C161.576 291.079 167.926 293.296 174.616 294.348C187.01 296.266 199.341 295.808 211.597 293.189C215.019 292.456 218.323 291.327 221.55 289.969C222.506 289.568 223.372 288.925 224.74 288.982C219.168 294.122 217.959 300.25 220.398 307.395ZM336.453 253.358C341.869 242.722 345.007 231.51 346.596 219.731C348.21 207.773 349.236 195.818 348.957 183.768C348.891 180.752 349.489 177.809 350.011 174.893C351.276 174.694 351.23 175.717 351.437 176.253C354.598 184.57 357.937 192.809 360.779 201.243C364.555 212.509 364.061 223.439 359.131 234.25C356.274 240.502 352.828 246.373 348.292 251.572C344.022 256.476 339.894 261.494 335.65 266.423C332.906 269.632 330.842 273.336 327.918 276.393C327.345 276.997 326.825 277.651 326.291 278.293C328.547 269.514 332.378 261.353 336.453 253.358ZM364.42 125.397C364.087 137.911 366.526 150.04 369.169 162.168C370.896 170.032 372.776 177.87 374.018 185.839C375.022 192.301 375.119 198.78 374.666 205.275C374.595 206.323 374.357 207.359 374.134 208.715C372.594 207.471 372.112 205.799 371.147 204.487C368.11 200.336 365.238 196.044 362.01 192.034C357.753 186.726 355.332 180.77 354.148 174.13C352.662 165.894 351.777 157.668 353.627 149.428C355.126 142.723 357.701 136.371 360.827 130.284C361.84 128.311 362.275 125.97 364.107 124.223C364.25 124.746 364.431 125.077 364.42 125.397ZM293.288 164.163C288.89 158.818 283.348 154.756 277.895 150.605C270.261 144.803 261.247 141.602 252.702 137.517C245.438 134.04 239.164 129.228 233.588 123.556C229.875 119.779 227.015 115.294 224.792 110.449C223.5 107.618 222.182 104.788 220.541 101.256C222.582 102.996 224.083 104.177 225.457 105.487C231.981 111.64 239.418 116.458 247.173 120.854C257.388 126.643 267.743 132.239 277.528 138.772C282.389 142.032 286.22 146.434 289.057 151.481C292.474 157.534 295.408 163.872 298.545 170.08C298.418 170.157 298.265 170.235 298.137 170.312C296.542 168.25 294.959 166.174 293.288 164.163ZM225.986 154.178C229.142 161.652 231.328 169.386 233.106 177.249C235.538 187.922 240.404 197.291 248.83 205.632C246.779 204.518 245.409 203.898 244.152 203.061C242.767 202.123 241.521 200.966 240.161 199.95C226.139 189.554 217.671 175.526 213.229 158.844C212.317 155.449 211.865 151.975 211.63 148.513C211.048 139.748 210.505 130.971 210.538 122.177C210.536 121.819 210.623 121.474 210.673 121.116C215.178 132.468 221.277 143.006 225.986 154.178ZM109.813 215.322C118.29 213.413 126.507 210.713 134.568 207.528C141.405 204.835 148.359 202.538 155.624 201.21C163.592 199.738 171.414 199.903 179.06 202.97C180.981 203.753 182.622 204.69 183.96 206.421C185.491 208.395 187.505 210.007 189.625 212.08C187.411 211.516 184.991 211.414 182.741 211.261C171.795 210.219 155.426 211.546 152.093 212.439C148.157 213.493 144.199 214.536 140.244 215.962C138.101 216.74 135.971 217.556 133.802 218.283C128.124 220.165 122.3 220.859 116.354 220.365C111.086 219.932 106.852 218.622 101.597 218.073C101.583 217.831 101.556 217.601 101.529 217.345C104.286 216.667 107.03 215.95 109.813 215.322ZM283.417 140.736C279.192 136.757 274.066 134.048 269.283 130.864C267.59 129.748 265.758 128.824 264.027 127.772C262.553 126.872 261.499 125.651 260.838 124.005C255.261 110.422 253.656 96.3973 256.139 81.9427C256.375 80.5484 256.981 79.1906 257.511 77.8587C257.877 76.9494 258.474 76.1156 259.586 76.0972C260.787 76.0911 261.124 77.0607 261.461 77.9792C262.472 80.8114 263.088 83.7606 263.563 86.7233C264.342 91.5887 265.019 96.4803 265.938 101.307C268.091 112.67 272.464 123.103 279.4 132.436C281.524 135.301 283.227 138.462 285.198 141.608C284.227 141.639 283.828 141.142 283.417 140.736ZM347.929 175.044C347.483 175.34 347.368 175.251 347.289 174.894C345.746 167.974 344.241 161.042 342.659 154.136C341.144 147.574 343.414 141.735 346.351 136.199C349.757 129.753 354.136 123.864 357.593 117.418C358.669 115.406 360.258 113.724 362.014 112.207C362.472 111.795 362.956 111.486 363.864 111.648C364.906 112.908 364.505 114.443 364.192 115.915C363.294 120.29 361.526 124.338 359.552 128.335C355.377 136.741 351.471 145.26 350.714 154.785C350.27 160.424 350.529 166.071 351.697 172.085C349.075 171.702 348.38 173.354 347.929 175.044ZM191.139 329.27C186.815 330.788 182.653 331.831 178.726 333.538C167.975 338.207 156.708 339.312 145.174 338.169C137.95 337.452 130.836 335.954 122.948 335.521C144.024 328.001 174.875 325.199 191.139 329.27ZM335.051 153.369C332.737 145.61 331.265 137.668 331.952 129.498C332.723 120.139 335.247 111.32 340.254 103.281C340.508 102.871 340.813 102.486 341.105 102.114C341.702 101.382 342.337 100.663 343.366 99.4696C343.13 100.736 343.057 101.452 342.856 102.143C338.028 117.99 337.279 134.059 339.982 150.366C341.34 158.577 343.592 166.579 345.422 174.673C346.128 177.839 346.937 181.004 346.813 184.29C346.802 184.712 346.997 185.26 346.18 185.622C343.593 174.439 338.302 164.267 335.051 153.369ZM237.187 281.161C244.655 277.007 251.184 271.542 257.777 266.167C265.159 260.148 273.327 255.365 281.959 251.372C286.04 249.485 290.381 248.62 294.893 248.712C294.946 249.223 294.705 249.492 294.373 249.622C287.562 252.34 281.987 256.893 276.683 261.764C269.164 268.665 260.898 274.215 251.046 277.231C245.534 278.92 240.215 281.107 234.592 283.679C235.172 282.04 236.256 281.664 237.187 281.161ZM125.618 332.721C123.193 333.398 120.73 334.011 118.266 334.522C116.44 334.902 114.576 335.321 112.658 335.049C112.694 334.755 112.668 334.551 112.732 334.512C119.756 331.064 125.956 326.291 132.607 322.244C134.849 320.878 137.221 319.69 139.592 318.528C141.721 317.482 143.829 317.331 146.185 318.213C151.678 320.243 157.272 321.991 162.841 323.842C150.147 325.823 137.883 329.272 125.618 332.721ZM323.268 133.389C322.739 132.28 322.758 131.053 322.816 129.838C322.97 127.422 323.264 125.043 324.096 122.764C326.554 115.965 329.55 109.496 333.955 103.658C337.193 99.3603 340.045 94.7576 343 90.231C344.496 87.9485 345.539 86.8696 348.674 85.1156C349.102 86.4042 348.673 87.4033 347.975 88.3654C345.094 92.3548 342.469 96.5218 339.665 100.562C336.316 105.384 333.671 110.651 332.218 116.435C329.788 126.084 328.559 135.803 329.415 145.908C327.362 141.74 325.283 137.571 323.268 133.389ZM265.949 85.9316C266.192 85.892 266.423 86.1975 266.566 86.5163C270.612 95.6595 275.959 104.08 281.14 112.591C283.511 116.49 285.104 120.457 284.616 125.163C284.372 127.388 284.78 129.673 284.896 132.408C274.318 118.275 266.359 103.631 265.949 85.9316Z" fill="#98958B"/>
<path opacity="0.1" d="M218.795 120.157C220.114 120.725 220.376 122.027 220.944 123.021C227.868 134.987 235.798 146.245 244.517 156.936C248.234 161.48 252.383 165.664 256.227 170.105C262.732 177.638 269.187 185.223 274.139 193.939C277.195 199.304 279.677 204.89 280.59 211.058C280.802 212.489 280.962 213.919 280.676 215.365C280.526 216.107 280.261 216.734 279.304 217.033C278.993 203.5 272.05 192.838 264.278 182.602C259.35 176.122 253.837 170.104 248.387 164.023C237.063 151.364 227.599 137.391 219.637 122.389C219.275 121.701 218.825 121.051 218.795 120.157Z" fill="#98958B"/>
<path opacity="0.1" d="M230.65 295.37C245.511 307.512 261.459 317.068 281.201 318.911C281.181 317.441 280.199 317.791 279.675 317.73C269.878 316.476 260.888 312.943 252.365 308.091C251.839 307.8 251.352 307.444 250.89 307.063C250.235 306.543 249.619 305.983 249.04 305.335C257.23 309.856 265.659 313.673 274.896 315.415C284.222 317.17 293.515 317.493 302.662 314.188C295.498 320.397 286.832 320.39 278.191 320.025C271.901 319.75 265.948 317.774 260.134 315.324C250.989 311.485 242.655 306.364 234.994 300.102C234.069 299.34 233.222 298.475 232.386 297.597C231.744 296.885 231.216 296.108 230.65 295.37Z" fill="#98958B"/>
<path opacity="0.1" d="M274.183 358.937C277.899 358.266 281.654 357.736 285.33 356.899C297.165 354.219 308.222 349.677 318.245 342.763C322.143 340.085 325.513 336.885 328.344 333.101C329.411 331.664 330.682 330.354 331.941 329.057C329.539 334.334 325.803 338.596 321.464 342.338C320.192 343.443 318.893 344.523 317.878 345.858C311.644 354.031 303.259 358.904 293.547 361.65C285.417 363.954 277.104 365.261 268.791 366.696C266.186 367.144 263.581 367.541 260.669 368.016C261.123 366.786 262.018 366.91 262.695 366.766C271.53 364.88 280.378 363.11 289.186 361.148C297.369 359.33 304.957 356.109 311.602 350.887C312.264 350.372 312.862 349.768 313.447 349.178C313.841 348.779 314.274 348.368 314.256 347.435C301.599 354.082 288.561 358.851 274.183 358.937Z" fill="#98958B"/>
<path opacity="0.1" d="M343.161 205.449C343.223 205.104 343.388 204.758 343.348 204.413C342.513 196.008 341.231 187.72 337.983 179.825C334.321 170.936 329.945 162.382 325.428 153.893C319.028 141.912 313.113 129.698 308.766 116.799C307.001 111.542 305.607 106.194 304.85 100.69C304.638 99.2082 304.413 97.714 305.096 96.2024C305.187 96.6237 305.33 97.0447 305.383 97.479C307.417 110.3 312.027 122.291 317.404 134.022C322.005 144.069 327.307 153.769 332.264 163.636C335.35 169.767 338.079 176.054 340.323 182.523C343.059 190.42 344.136 198.632 343.987 206.979C343.499 206.598 343.101 206.153 343.161 205.449Z" fill="#98958B"/>
<path opacity="0.1" d="M177.192 359.058C185.948 356.739 194.813 355.876 203.719 355.46C211.91 355.073 220.101 354.968 228.279 354.671C238.489 354.299 248.372 352.409 257.705 348.093C264.221 345.082 269.874 340.887 274.64 335.507C276.559 333.338 277.887 330.762 279.434 328.326C279.891 327.608 280.245 326.865 280.945 326.388C277.745 335.53 271.298 341.915 263.195 346.838C253.715 352.612 243.274 355.221 232.351 356.03C226.346 356.47 220.313 356.475 214.294 356.518C202.715 356.577 191.178 357.364 179.683 358.726C178.839 358.807 178.022 358.939 177.192 359.058Z" fill="#98958B"/>
<path opacity="0.1" d="M247.697 214.331C243.142 213.306 239.832 210.946 236.321 209.021C226.042 203.347 217.07 195.916 208.531 187.971C204.062 183.828 199.949 179.273 195.849 174.731C192.161 170.647 188.434 166.576 185.05 162.235C178.721 154.088 172.977 145.554 167.705 136.698C167.177 135.794 166.52 134.864 166.474 133.318C168.561 136.553 170.455 139.522 172.387 142.451C178.066 151.05 184.065 159.429 190.865 167.178C194.413 171.224 198.139 175.141 201.903 178.995C207.364 184.578 212.735 190.251 218.868 195.102C224.13 199.267 229.53 203.266 235.312 206.7C239.337 209.108 243.274 211.605 247.697 214.331Z" fill="#98958B"/>
<path opacity="0.1" d="M121.492 220.122C123.871 220.365 126.274 220.481 128.615 220.891C151.205 224.84 173.268 230.48 193.847 241.009C198.652 243.477 203.318 246.162 207.933 248.951C209.048 249.622 209.961 250.653 211.347 251.822C204.054 247.756 197.109 244.06 189.91 240.926C182.647 237.755 175.372 234.623 167.819 232.156C160.163 229.639 152.344 227.672 144.526 225.782C136.848 223.929 129.146 222.23 121.318 221.017C121.393 220.71 121.455 220.416 121.492 220.122Z" fill="#98958B"/>
<path opacity="0.1" d="M139.585 269.516C141.656 269.736 143.158 271.019 144.836 271.841C159.135 278.824 174.136 283.17 190.103 283.971C203.999 284.654 216.735 280.96 228.533 273.743C229.323 273.253 229.997 272.521 231.191 273.525C229.666 275.245 227.741 276.188 225.892 277.181C211.873 284.819 196.982 287.169 181.212 284.834C166.529 282.659 152.854 277.769 140.137 270.165C139.92 270.077 139.816 269.822 139.585 269.516Z" fill="#98958B"/>
<path opacity="0.1" d="M122.296 247.519C131.136 251.769 139.772 256.147 148.75 259.846C164.593 266.348 181.009 270.086 198.138 270.536C203.442 270.675 208.72 270.508 213.996 269.982C215.286 269.861 216.576 269.816 218.403 269.692C217.349 270.86 216.351 270.788 215.496 270.933C201.908 273.149 188.395 272.234 174.949 269.605C160.467 266.765 146.905 261.351 133.885 254.515C130.284 252.629 126.582 250.897 123.323 248.409C122.989 248.129 122.642 247.812 122.296 247.519Z" fill="#98958B"/>
<path opacity="0.1" d="M135.607 304.287C139.263 304.422 142.605 305.721 145.973 306.97C155.666 310.537 165.22 314.451 175.065 317.634C183.232 320.277 191.536 322.139 200.102 322.76C208.144 323.346 215.975 322.577 223.539 319.612C224.546 319.211 225.58 318.912 226.92 318.458C226.173 319.88 224.908 319.976 223.939 320.415C213.789 324.966 203.182 325.198 192.413 323.617C182.475 322.147 173.027 318.948 163.729 315.315C156.238 312.4 148.797 309.358 141.318 306.38C139.423 305.648 137.515 304.98 135.607 304.287Z" fill="#98958B"/>
<path opacity="0.1" d="M246.813 143.518C249.684 145.088 251.513 147.84 253.736 150.167C258.117 154.759 262.245 159.607 266.308 164.469C273.264 172.779 279.418 181.618 283.687 191.667C287.27 200.071 288.209 208.834 287.22 217.849C286.939 220.445 286.287 222.954 284.855 225.427C284.03 223.949 284.573 222.783 284.798 221.632C287.19 209.606 285.56 198.176 279.882 187.315C275.042 178.023 269.043 169.516 262.191 161.588C257.01 155.595 251.931 149.55 246.813 143.518Z" fill="#98958B"/>
<path opacity="0.1" d="M341.675 230.021C341.074 222.433 339.172 215.157 336.694 207.975C333.698 199.312 329.503 191.217 325.079 183.226C319.971 173.999 314.302 165.081 309.627 155.596C308.259 152.817 306.864 150.038 306.452 146.883C308.532 151.282 310.586 155.681 313.074 159.873C318.321 168.755 323.593 177.61 328.738 186.543C333.934 195.527 338.021 204.99 340.717 215.035C341.682 218.659 342.224 222.325 342.384 226.069C342.442 227.397 342.333 228.689 341.675 230.021Z" fill="#98958B"/>
<path opacity="0.1" d="M107.502 238.75C127.941 256.923 150.328 271.021 176.835 278.645C175.611 279.213 174.958 278.922 174.279 278.734C161.046 275.069 148.343 270.201 136.624 262.847C127.213 256.939 118.463 250.261 110.258 242.826C109.128 241.809 107.922 240.844 107.502 238.75Z" fill="#98958B"/>
<path opacity="0.1" d="M276.538 329.299C269.677 337.309 261.424 342.847 251.159 344.969C241.558 346.961 231.808 347.406 222.029 347.009C211.087 346.553 200.154 345.548 189.087 345.655C189.802 345.523 190.491 345.315 191.194 345.274C200.098 344.577 209.009 345.03 217.906 345.394C228.043 345.815 238.126 345.572 248.176 344C257.486 342.56 265.478 338.442 272.579 332.399C273.865 331.332 275.227 330.341 276.538 329.299Z" fill="#98958B"/>
<path opacity="0.1" d="M117.22 229.422C145.123 235.07 172.007 244.008 198.301 254.853C193.567 253.931 189.048 252.357 184.516 250.769C163.095 243.222 141.474 236.341 119.639 230.138C118.82 229.913 118.026 229.661 117.22 229.422Z" fill="#98958B"/>
<path opacity="0.1" d="M214.423 218.168C208.394 216.396 202.644 214.112 197.614 210.252C193.688 207.256 189.953 204.016 186.573 200.442C182.628 196.257 179.205 191.622 175.986 186.833C171.697 180.426 168.046 173.684 164.854 166.683C164.466 165.816 164.206 164.897 163.765 163.698C165.365 164.24 165.551 165.542 166.041 166.46C170.507 174.975 175.38 183.232 181.144 190.948C185.61 196.919 190.507 202.531 196.346 207.217C201.03 210.989 206.285 213.902 211.705 216.494C212.345 216.798 213.011 217.101 213.627 217.456C213.947 217.621 214.166 217.939 214.423 218.168Z" fill="#98958B"/>
<path opacity="0.1" d="M303.051 169.177C310.937 181.943 316.754 194.924 316.613 209.942C316.548 217.304 315.037 224.303 311.479 230.724C307.667 237.607 302.172 242.875 295.097 246.4C294.791 246.555 294.407 246.556 293.756 246.675C295.381 244.494 297.729 243.69 299.549 242.211C307.949 235.394 313.133 226.767 314.599 216.011C315.955 206.112 314.194 196.586 311.028 187.247C309.095 181.544 306.524 176.125 303.277 171.029C303.02 170.647 302.698 170.278 303.051 169.177Z" fill="#98958B"/>
<path opacity="0.1" d="M254.193 139.506C258.169 142.323 261.892 145.474 265.284 149.086C269.062 153.106 272.84 157.099 276.198 161.466C281.022 167.768 285.185 174.482 288.353 181.764C291.068 188.013 292.38 194.575 292.734 201.36C292.777 202.267 293.012 203.237 292.276 204.442C292 202.795 291.712 201.467 291.564 200.101C290.529 189.971 286.687 180.852 281.492 172.226C277.587 165.741 273.121 159.718 267.968 154.159C264.306 150.203 260.719 146.17 256.739 142.535C255.789 141.619 255.042 140.498 254.193 139.506Z" fill="#98958B"/>
<path opacity="0.1" d="M284.69 233.199C283.6 232.476 283.572 231.99 283.864 231.567C284.422 230.798 284.98 229.977 285.706 229.347C293.442 222.662 296.106 213.727 296.786 204.023C297.275 197.132 296.41 190.324 294.293 183.728C293.072 179.874 291.736 176.059 290.451 172.142C290.733 172.32 291.04 172.395 291.118 172.574C295.574 181.868 298.818 191.488 298.922 201.942C298.998 209.316 297.321 216.277 293.711 222.673C291.874 225.916 289.294 228.677 286.417 231.069C285.705 231.66 284.889 232.099 284.69 233.199Z" fill="#98958B"/>
<path opacity="0.1" d="M206.193 97.4328C209.178 108.831 214.52 119.003 219.991 129.097C225.474 139.255 232.422 148.422 240.227 157.7C236.536 155.724 234.629 152.769 232.431 150.211C221.709 137.817 214.236 123.477 208.191 108.363C207.026 105.455 206.231 102.43 205.768 99.3265C205.676 98.8029 205.366 98.2166 206.193 97.4328Z" fill="#98958B"/>
<path opacity="0.1" d="M160.956 355.6C165.606 352.65 170.676 351.794 175.771 350.988C188.784 348.941 201.896 348.823 215.011 349.217C219.817 349.372 224.625 349.705 229.432 349.987C229.866 350.011 230.402 349.855 230.841 350.721C227.492 350.687 224.323 350.703 221.153 350.617C208.141 350.274 195.17 350.557 182.217 351.85C175.612 352.51 169.086 353.425 162.705 355.298C162.131 355.467 161.531 355.508 160.956 355.6Z" fill="#98958B"/>
<path opacity="0.1" d="M159.687 246.639C149.619 244.684 98.3507 226.003 93.7582 222.627C97.1211 222.955 156.84 244.711 159.687 246.639Z" fill="#98958B"/>
<path opacity="0.1" d="M330.919 309.073C330.173 313.166 328.721 316.586 326.897 319.816C320.892 330.429 311.608 336.854 300.149 340.337C293.347 342.404 286.428 343.972 279.47 345.426C277.031 345.937 274.619 346.524 272.141 346.869C273.719 345.481 275.698 345.049 277.612 344.528C284.122 342.808 290.644 341.101 297.192 339.47C305.029 337.513 312.131 334.09 318.2 328.781C323.137 324.436 326.791 319.101 329.034 312.853C329.437 311.675 329.558 310.294 330.919 309.073Z" fill="#98958B"/>
<path opacity="0.1" d="M157.345 130.003C156.8 130.939 157.583 131.612 157.919 132.3C164.634 145.993 172.28 159.156 181.505 171.315C186.279 177.592 191.396 183.624 197.305 189.549C192.366 185.906 188.663 181.631 184.846 177.445C180.001 172.115 175.589 166.476 171.749 160.386C166.248 151.659 160.975 142.803 157.207 133.148C156.793 132.076 155.995 131.083 156.321 129.752C156.705 129.904 157.038 130.03 157.371 130.156L157.345 130.003Z" fill="#98958B"/>
<path opacity="0.1" d="M301.836 224.562C302.879 221.144 303.722 218.52 304.501 215.883C306.21 210.097 306.321 204.307 304.796 198.449C302.684 190.254 299.182 182.616 295.54 175.043C293.525 170.861 291.293 166.796 289.023 162.718C290.485 163.758 291.349 165.223 292.264 166.663C298.113 175.938 302.662 185.807 306.025 196.257C309.076 205.712 307.012 214.503 303.056 223.124C302.917 223.444 302.611 223.676 301.836 224.562Z" fill="#98958B"/>
<path opacity="0.1" d="M336.469 307.217C336.478 311.55 335.232 315.275 333.461 318.811C329.184 327.32 322.749 333.717 314.337 338.182C307.377 341.872 299.951 344.21 292.304 345.872C291.882 345.964 291.449 346.171 290.82 345.573C292.3 345.131 293.64 344.728 294.967 344.338C302.802 341.972 310.521 339.262 317.309 334.562C326.275 328.357 332.739 320.259 335.112 309.333C335.275 308.68 335.233 307.875 336.469 307.217Z" fill="#98958B"/>
<path opacity="0.1" d="M142.327 253.361C153.715 258.505 164.995 262.397 176.928 264.24C188.887 266.084 200.877 266.33 213.576 265.396C212.254 266.707 211.141 266.597 210.17 266.679C187.431 268.711 165.56 265.576 144.957 255.354C144.163 254.949 143.038 254.98 142.327 253.361Z" fill="#98958B"/>
<path opacity="0.1" d="M226.403 211.589C221.44 210.719 216.879 208.595 212.319 206.471C203.364 202.312 195.741 196.216 188.958 189.221C181.955 181.984 176.111 173.758 170.814 164.979C172.119 165.356 172.483 166.402 173.075 167.268C178.289 174.744 183.923 181.949 190.219 188.512C194.524 193.001 199.388 196.977 204.582 200.516C211.404 205.108 218.821 208.407 226.403 211.589Z" fill="#98958B"/>
<path opacity="0.1" d="M152.641 213.139C165.722 211.897 201.965 226.462 213.012 237.422C194.635 225.003 174.288 217.528 152.641 213.139Z" fill="#98958B"/>
<path opacity="0.1" d="M227.044 118.709C228.919 120.591 229.966 122.899 231.166 125.078C237.397 136.46 244.608 147.133 253.029 157.021C256.681 161.297 260.447 165.483 264.34 169.54C265.548 170.786 266.552 172.238 267.556 173.664C250.032 158.302 236.571 139.915 227.044 118.709Z" fill="#98958B"/>
<path opacity="0.1" d="M299.225 107.863C299.403 107.708 299.594 107.567 300.014 107.22C300.656 107.932 300.751 108.864 300.921 109.694C303.138 121.019 307.486 131.554 312.905 141.674C315.731 146.964 318.506 152.28 321.319 157.608C320.54 157.675 320.243 157.025 319.933 156.541C313.752 147.345 308.514 137.633 304.232 127.417C302.084 122.29 300.6 116.955 299.818 111.451C299.738 110.863 299.493 110.315 299.337 109.754C299.295 109.127 299.266 108.489 299.225 107.863Z" fill="#98958B"/>
<path opacity="0.1" d="M359.182 148.827C359.535 150.423 360.003 152.005 360.228 153.627C361.646 163.576 364.813 173.017 368.49 182.303C370.173 186.538 371.741 190.837 373.194 195.149C373.843 197.063 374.237 199.106 374.541 201.111C374.792 202.733 374.749 204.395 373.888 205.881C372.621 205.568 373.307 204.875 373.343 204.402C373.595 201.065 372.569 197.964 371.48 194.928C369.004 188.026 366.35 181.202 363.823 174.326C360.816 166.162 359.354 157.645 359.182 148.827Z" fill="#98958B"/>
<path opacity="0.1" d="M222.572 252.608C217.431 249.35 213.217 244.975 208.101 241.716C203.049 238.495 197.896 235.505 192.527 232.861C187.069 230.18 181.056 228.958 175.586 226.34C184.872 227.954 193.655 230.977 201.731 235.793C207.795 239.404 213.719 243.26 219.149 247.82C220.689 249.116 221.834 250.682 222.572 252.608Z" fill="#98958B"/>
<path opacity="0.1" d="M141.45 375.254C145.177 371.643 149 369.477 153.145 367.833C157.648 366.059 162.307 364.898 167.07 364.145C175.754 362.772 184.465 361.705 193.27 361.494C193.691 361.479 194.126 361.503 194.589 361.961C190.591 362.53 186.607 363.139 182.596 363.696C176.274 364.559 169.952 365.345 163.709 366.642C157.07 368.03 150.703 370.043 145.022 373.881C144.334 374.344 143.569 374.706 142.817 375.081C142.613 375.184 142.344 375.147 141.45 375.254Z" fill="#98958B"/>
<path opacity="0.1" d="M188.997 196.94C196.327 203.306 204.264 208.57 212.812 212.987C221.32 217.391 230.294 220.247 240.22 221.96C239.151 222.86 238.371 222.749 237.604 222.702C231.506 222.311 225.821 220.295 220.288 217.972C213.423 215.093 206.938 211.521 200.743 207.297C197.037 204.772 193.712 201.862 190.285 199.004C189.72 198.521 188.785 198.156 188.997 196.94Z" fill="#98958B"/>
<path opacity="0.1" d="M260.043 196.772C257.397 194.152 254.624 191.661 252.13 188.888C248.274 184.613 244.546 180.235 240.893 175.781C235.634 169.379 230.705 162.719 227.088 155.223C226.223 153.425 225.268 151.641 225.027 149.495C225.36 149.698 225.655 149.76 225.732 149.939C230.114 159.668 236.471 168.071 243.247 176.203C247.941 181.816 252.608 187.428 257.327 193.015C258.33 194.186 258.849 195.717 260.043 196.772Z" fill="#98958B"/>
<path opacity="0.1" d="M316.979 299.775C315.44 298.633 315.165 297.42 314.649 296.4C312.881 292.971 310.654 289.928 307.829 287.233C301.677 281.372 294.486 277.102 287.154 273.024C284.13 271.352 281.092 269.693 277.596 268.267C279.075 267.594 280.038 268.42 280.922 268.812C288.134 272.06 295.054 275.782 301.658 280.209C305.39 282.708 308.804 285.451 311.633 288.913C314.102 291.943 316.062 295.256 316.979 299.775Z" fill="#98958B"/>
<path opacity="0.1" d="M226.486 306.101C241.822 318.382 258.54 326.208 279.012 323.101C278.493 324.139 277.559 323.901 276.831 324.096C265.829 327.04 255.666 324.05 245.701 319.704C240.155 317.291 235.242 313.853 230.444 310.247C228.943 309.117 227.797 307.5 226.486 306.101Z" fill="#98958B"/>
<path opacity="0.1" d="M124.988 304.558C126.864 303.999 128.58 304.629 130.269 305.107C135.466 306.614 140.587 308.326 145.619 310.333C153.88 313.601 162.165 316.792 170.437 320.022C171.103 320.274 171.871 320.347 172.26 321.444C156.018 316.836 140.925 309.577 124.988 304.558Z" fill="#98958B"/>
<path opacity="0.1" d="M246.959 172.222C251.048 174.489 253.559 178.375 256.465 181.836C262.727 189.281 268.404 197.138 273.15 205.651C274.504 208.06 275.718 210.559 276.205 213.304C276.297 213.853 276.223 214.416 276.227 215.081C275.855 214.865 275.535 214.803 275.483 214.65C271.765 204.764 265.881 196.167 259.5 187.892C255.923 183.258 252.334 178.611 248.719 173.99C248.217 173.341 247.55 172.807 246.959 172.222Z" fill="#98958B"/>
<path opacity="0.1" d="M297.642 362.626C295.226 365.041 292.436 366.883 289.556 368.585C284.778 371.382 279.87 373.899 274.717 375.919C267.191 378.846 259.962 382.321 253.185 386.726C252.803 386.984 252.306 387.101 251.668 387.36C252.045 386.233 252.836 385.846 253.549 385.331C259.076 381.443 264.964 378.244 271.214 375.707C280.372 372.005 289.091 367.462 297.642 362.626Z" fill="#98958B"/>
<path opacity="0.1" d="M268.777 212.741C264.916 210.141 262.419 206.549 259.324 203.587C257.603 201.934 255.907 200.23 254.173 198.591C247.932 192.641 241.69 186.691 236.568 179.688C234.728 177.18 232.964 174.62 232.002 171.583C234.124 174.064 235.609 177.009 237.73 179.49C241.085 183.397 244.441 187.278 248.178 190.85C254.42 196.8 260.827 202.608 266.331 209.277C267.154 210.296 267.85 211.417 268.777 212.741Z" fill="#98958B"/>
<path opacity="0.1" d="M251.785 281.983C263.33 287.791 275.973 291.05 287.329 297.28C292.686 300.218 297.903 303.323 302.195 307.774C294.298 303.009 286.578 297.936 278.06 294.311C272.002 291.722 265.905 289.171 259.847 286.582C256.978 285.369 254.21 283.978 251.785 281.983Z" fill="#98958B"/>
<path opacity="0.1" d="M218.884 183.139C217.951 183.029 217.475 182.456 217.089 181.947C205.422 167.091 193.194 152.698 180.865 138.408C194.802 152.204 207.517 167.004 218.884 183.139Z" fill="#98958B"/>
<path opacity="0.1" d="M368.742 191.683C361.016 185.459 352.959 156.552 354.849 141.206C355.391 142.251 355.384 143.44 355.428 144.603C355.688 150.506 356.434 156.33 357.639 162.101C359.67 171.919 362.989 181.257 367.967 190C368.25 190.509 368.47 191.083 368.742 191.683Z" fill="#98958B"/>
<path opacity="0.1" d="M179.588 118.554C187.665 123.395 209.194 149.818 211.143 158.742C202.008 144.282 191.753 130.672 179.588 118.554Z" fill="#98958B"/>
<path opacity="0.1" d="M174.088 334.216C166.838 335.991 159.568 336.5 152.204 335.95C142.73 335.244 133.329 333.822 123.193 333.758C124.327 332.947 125.107 333.007 125.822 332.953C126.653 332.884 127.509 332.842 128.352 332.837C134.499 332.768 140.611 333.376 146.723 333.882C154.893 334.569 163.037 335.077 171.226 334.281C172.171 334.2 173.13 334.233 174.088 334.216Z" fill="#98958B"/>
<path opacity="0.1" d="M233.754 274.841C233.122 276.301 232.052 277.022 230.944 277.782C221.213 284.426 210.342 287.983 198.771 289.55C193.637 290.241 188.487 290.458 183.283 289.935C183.738 288.859 184.622 289.405 185.299 289.312C186.129 289.192 186.986 289.226 187.829 289.222C196.814 289.189 205.535 287.573 213.98 284.616C219.887 282.554 225.523 279.918 230.629 276.199C231.419 275.607 232.18 274.632 233.754 274.841Z" fill="#98958B"/>
<path opacity="0.1" d="M260.612 99.7255C264.967 114.235 271.477 127.903 280.538 140.331C273.86 136.441 260.934 110.447 260.012 99.9203C259.985 99.5626 260.086 99.4854 260.612 99.7255Z" fill="#98958B"/>
<path opacity="0.1" d="M159.059 110.21C161.618 110.759 163.784 111.988 165.735 113.563C172.164 118.808 178.238 124.388 183.752 130.61C187.12 134.427 190.373 138.283 193.334 142.409C182.235 131.346 172.281 119.076 159.059 110.21Z" fill="#98958B"/>
<path opacity="0.1" d="M242.179 247.729C243.545 244.859 244.989 242.347 249.438 242.682C245.782 245.065 243.097 247.392 243.592 251.594C241.878 251.475 242.674 249.592 241.484 249.279C238.313 251.532 237.748 253.567 239.225 257.496C240.06 258.296 241.384 257.37 242.426 258.63C240.886 259.979 238.317 260.005 237.588 262.386C236.909 264.613 237.328 266.605 238.412 268.517C237.316 269.161 236.827 268.525 236.504 267.926C235.253 265.542 234.895 263.154 236.711 260.831C237.067 260.369 237.396 259.856 237.663 259.484C235.71 252.388 236.958 249.072 242.179 247.729Z" fill="#98958B"/>
<path opacity="0.1" d="M343.161 205.45C343.101 206.153 343.499 206.598 343.987 207.005C343.695 210.022 344.477 212.983 344.441 215.974C344.424 217.534 344.521 219.105 344.03 220.603C343.2 220.722 343.287 220.172 343.285 219.712C343.171 212.402 341.486 205.394 338.615 198.712C335.912 192.425 332.992 186.228 330.175 180.005C329.877 179.355 329.58 178.705 329.205 177.876C330.651 178.265 330.875 179.554 331.327 180.434C335.315 188.095 339.367 195.743 342.259 203.92C342.479 204.443 342.864 204.927 343.161 205.45Z" fill="#98958B"/>
<path opacity="0.1" d="M320.431 284.779C320.997 277.913 319.636 271.683 315.837 266.143C312.322 261.01 307.688 257.059 302.445 253.775C301.829 253.395 301.214 253.014 300.637 252.596C300.277 252.342 299.982 251.973 299.749 251.539C304.617 253.636 309.09 256.259 312.816 260.151C314.898 262.339 316.916 264.514 318.45 267.126C320.951 271.382 322.112 275.99 322.034 280.898C322.003 282.266 322.164 283.799 320.431 284.779Z" fill="#98958B"/>
<path opacity="0.1" d="M162.796 307.651C167.315 309.123 171.834 310.621 176.366 312.081C185.186 314.937 194.181 317.001 203.5 317.273C206.862 317.371 210.222 317.085 213.569 316.966C213.229 317.875 212.333 317.599 211.682 317.691C201.133 319.227 190.875 317.669 180.763 314.679C175.476 313.108 170.291 311.255 165.168 309.211C164.31 308.87 163.465 308.44 162.632 308.048C162.682 307.92 162.746 307.779 162.796 307.651Z" fill="#98958B"/>
<path opacity="0.1" d="M183.945 216.456C199.321 221.555 213.441 228.793 224.596 240.878C221.034 239.056 218.246 236.194 215.192 233.705C212.099 231.203 208.689 229.226 205.318 227.16C201.843 225.044 198.23 223.196 194.553 221.464C191.017 219.795 187.481 218.125 183.945 216.456Z" fill="#98958B"/>
<path opacity="0.1" d="M313.973 183.398C321.836 196.547 323.874 217.791 315.258 229.938C316.98 226.785 317.516 224.137 318.129 221.488C318.791 218.558 319.39 215.616 319.54 212.586C319.666 209.684 319.498 206.822 319.062 203.949C318.045 197.397 316.466 190.977 314.261 184.725C314.106 184.317 313.72 183.91 313.973 183.398Z" fill="#98958B"/>
<path opacity="0.1" d="M257.994 352.066C257.844 352.732 257.423 352.925 256.977 353.145C246.078 358.785 234.632 362.435 222.263 362.855C216.986 363.048 211.722 363.407 205.844 363.718C206.913 362.844 207.732 362.916 208.447 362.862C214.311 362.333 220.175 361.882 226.038 361.303C234.456 360.48 242.6 358.496 250.393 355.198C252.892 354.137 255.418 353.127 257.994 352.066Z" fill="#98958B"/>
<path opacity="0.1" d="M284.183 254.085C289.272 254.622 293.41 256.582 297.498 258.772C300.689 260.481 303.525 262.703 306.424 264.785C312.338 269.036 316.634 274.51 317.927 282.53C316.693 281.13 316.393 279.815 315.952 278.616C314.047 273.449 310.398 269.736 306.126 266.524C302.303 263.655 298.543 260.696 294.212 258.52C291.752 257.28 289.242 256.194 286.605 255.364C285.888 255.137 285.006 255.18 284.183 254.085Z" fill="#98958B"/>
<path opacity="0.1" d="M157.358 130.143C157.566 128.366 156.345 127.081 155.737 125.589C154.961 123.676 153.878 121.866 153.688 119.695C161.046 134.15 169.64 147.846 178.044 161.683C175.398 159.217 173.581 156.121 171.648 153.14C167.076 146.121 162.618 139.037 158.707 131.606C158.359 130.956 158.011 130.357 157.332 130.016L157.358 130.143Z" fill="#98958B"/>
<path opacity="0.1" d="M222.08 291.643C223.272 292.237 223.263 293.043 223.535 293.668C224.634 296.231 226.217 298.408 228.208 300.379C233.385 305.529 239.678 308.961 246.034 312.302C248.443 313.568 250.865 314.77 253.211 316.151C247.836 314.824 242.992 312.318 238.237 309.62C236.058 308.378 233.879 307.137 231.789 305.754C228.108 303.358 225.306 300.1 223.139 296.328C222.366 295.028 221.758 293.562 222.08 291.643Z" fill="#98958B"/>
<path opacity="0.1" d="M292.503 130.812C287.955 120.994 287.595 97.9783 291.839 90.5568C291.414 94.9427 290.605 99.305 290.513 103.715C290.408 108.265 290.457 112.84 290.966 117.388C291.474 121.858 291.982 126.329 292.503 130.812Z" fill="#98958B"/>
<path opacity="0.1" d="M359.989 285.281C363.794 279.434 364.543 273.513 362.94 267.271C361.87 263.059 360.112 259.106 357.92 255.334C356.966 253.703 356.025 252.059 354.903 250.135C357.199 251.644 358.181 253.761 359.43 255.633C361.928 259.352 363.802 263.369 364.846 267.76C366.074 272.891 365.472 277.789 363.145 282.505C362.576 283.696 361.968 284.824 359.989 285.281Z" fill="#98958B"/>
<path opacity="0.1" d="M318.928 298.398C318.677 296.776 318.502 295.128 318.149 293.532C317.103 288.86 314.463 284.975 311.645 281.245C307.399 275.669 302.34 270.965 296.137 267.597C295.727 267.369 295.342 267.065 294.97 266.773C294.495 266.404 294.058 265.998 293.519 265.54C295.68 265.593 297.093 267.017 298.695 267.942C306.963 272.744 312.631 279.749 317.07 288.213C318.735 291.438 319.528 294.137 318.928 298.398Z" fill="#98958B"/>
<path opacity="0.1" d="M362.26 236.563C372.844 244.446 376.425 262.64 368.836 270.692C373.614 257.772 370.287 246.721 362.26 236.563Z" fill="#98958B"/>
<path opacity="0.1" d="M287.433 103.769C286.134 119.725 290.568 134.669 295.333 149.534C289.746 139.019 283.67 115.252 287.433 103.769Z" fill="#98958B"/>
<path opacity="0.1" d="M304.002 248.399C310.561 246.321 316.141 242.893 320.51 237.529C324.816 232.254 325.793 225.693 327.614 219.459C328.302 234.102 316.654 248.156 304.002 248.399Z" fill="#98958B"/>
<path opacity="0.1" d="M353.693 293.697C356.333 287.69 358.286 282.095 357.488 275.887C356.716 269.808 354.145 264.389 351.509 258.856C354.87 261.267 358.528 269.338 359.161 275.61C359.913 282.943 358.03 289.573 353.693 293.697Z" fill="#98958B"/>
<path opacity="0.1" d="M242.418 289.853C253.959 299.955 266.551 308.045 281.499 312.007C265.664 309.583 253.236 301.07 242.418 289.853Z" fill="#98958B"/>
<path opacity="0.1" d="M375.768 249.045C375.957 238.295 371.85 229.983 366.2 222.203C365.042 220.624 363.45 219.303 362.889 217.044C371.856 223.58 379.153 241.027 375.768 249.045Z" fill="#98958B"/>
<path opacity="0.1" d="M248.517 380.934C249.174 379.474 250.218 378.779 251.327 378.045C255.377 375.391 259.764 373.426 264.383 372.023C270.381 370.203 276.431 368.613 282.624 367.521C282.553 368.646 281.517 368.459 280.93 368.641C276.208 370.097 271.448 371.386 266.739 372.854C260.869 374.673 255.181 376.951 250.009 380.352C249.64 380.597 249.155 380.701 248.517 380.934Z" fill="#98958B"/>
<path opacity="0.1" d="M298.094 287.972C287.748 281.647 277.439 275.131 264.836 272.319C266.39 271.314 267.517 271.768 268.592 271.993C272.839 272.917 276.873 274.443 280.73 276.43C286.907 279.645 292.893 283.155 298.094 287.972Z" fill="#98958B"/>
<path opacity="0.1" d="M341.956 302.984C342.173 300.35 342.62 297.843 341.892 295.367C341.19 293.019 340.309 290.723 339.245 287.61C342.372 291.697 343.644 295.55 343.579 300.394C345.002 298.675 344.956 297.154 344.922 295.646C344.796 290.969 343.216 286.708 340.92 282.707C339.914 280.948 338.794 279.254 337.712 277.521C341.999 281.104 346.17 289.71 346.3 295.102C346.348 296.955 345.948 298.695 345.112 300.31C344.467 301.553 342.459 301.32 341.956 302.984Z" fill="#98958B"/>
<path opacity="0.1" d="M312.076 305.705C303.604 295.843 292.151 290.61 280.826 285.299C280.95 284.43 281.31 284.939 281.477 285.002C283.384 285.695 285.33 286.325 287.188 287.146C294.002 290.128 300.475 293.737 306.465 298.142C308.48 299.652 311.464 303.395 312.076 305.705Z" fill="#98958B"/>
<path opacity="0.1" d="M178.321 113.103C180.825 112.834 182.749 114.23 184.506 115.512C193.011 121.719 199.888 129.467 205.905 138.882C204.328 137.88 203.569 136.976 202.784 136.022C197.962 130.078 193.126 124.147 187.158 119.256C184.373 116.957 181.652 114.645 178.321 113.103Z" fill="#98958B"/>
<path opacity="0.1" d="M268.351 302.553C256.939 297.92 242.674 287.461 239.727 280.779C244.731 284.767 248.653 289.361 253.604 292.838C258.426 296.213 263.54 299.088 268.351 302.553Z" fill="#98958B"/>
<path opacity="0.1" d="M189.079 329.091C177.522 333.47 161.885 334.597 150.459 332.137C156.938 332.015 163.42 332.481 169.91 331.988C176.388 331.507 182.759 330.338 189.079 329.091Z" fill="#98958B"/>
<path opacity="0.1" d="M354.272 173.569C359.75 185.172 368.07 195.341 372.3 207.896C370.981 207.353 370.937 206.267 370.601 205.451C368.349 199.992 364.875 195.23 362.088 190.081C360.036 186.295 357.947 182.523 355.947 178.711C355.108 177.144 354.333 175.512 354.272 173.569Z" fill="#98958B"/>
<path opacity="0.1" d="M260.58 111.215C255.824 100.836 253.048 90.0762 253.961 78.5946C255.187 78.4861 255.063 79.2536 255.053 79.7777C254.851 90.2588 257.393 100.253 260.396 110.168C260.487 110.487 260.515 110.845 260.58 111.215Z" fill="#98958B"/>
<path opacity="0.1" d="M181.161 148.848C190.213 159.589 199.405 170.266 209.005 180.607C206.605 178.639 204.167 176.785 202.148 174.329C199.255 170.829 195.979 167.637 192.972 164.227C188.717 159.38 184.602 154.416 181.161 148.848Z" fill="#98958B"/>
<path opacity="0.1" d="M348.555 298.682C349.155 296.021 350.356 293.446 350.073 290.648C349.426 284.006 347.643 277.688 343.475 272.342C342.394 270.941 341.784 269.117 340.105 268.167C342.938 269.775 344.677 272.412 346.428 274.985C349.299 279.226 350.819 284.011 351.445 289.056C351.936 292.62 351.174 295.934 348.555 298.682Z" fill="#98958B"/>
<path opacity="0.1" d="M304.855 277.905C295.569 271.588 286.018 265.744 275.328 262.028C286.841 264.245 296.152 270.511 304.855 277.905Z" fill="#98958B"/>
<path opacity="0.1" d="M353.35 284.05C351.399 279.88 350.2 275.388 347.943 271.322C345.673 267.244 342.919 263.5 340.381 259.615C348.273 265.876 351.921 274.395 353.35 284.05Z" fill="#98958B"/>
<path opacity="0.1" d="M297.884 349.844C287.616 353.897 277.069 355.816 266.03 353.994C269.425 353.158 272.904 353.601 276.354 353.43C280.085 353.258 283.789 352.779 287.44 352.07C290.939 351.413 294.411 350.603 297.884 349.844Z" fill="#98958B"/>
<path opacity="0.1" d="M232.563 244.314C232.371 241.708 232.741 239.073 234.622 237.019C235.347 236.235 236.481 235.476 238.198 236.438C234.604 238.501 233.904 241.572 234.701 244.981C233.727 246.967 231.067 246.622 230.362 248.773C229.72 250.706 230.19 252.544 230.519 254.523C226.687 252.409 227.623 247.994 232.563 244.314Z" fill="#98958B"/>
<path opacity="0.1" d="M331.003 219.864C334.687 230.606 327.985 242.105 318.874 247.557C320.919 244.927 323.964 243.16 325.688 240.289C327.538 237.237 329.568 234.262 330.291 230.654C330.977 227.264 330.972 223.852 331.003 219.864Z" fill="#98958B"/>
<path opacity="0.1" d="M334.574 266.099C336.954 266.649 337.917 267.705 338.856 268.786C342.597 273.126 345.293 278.032 346.804 283.572C347.312 285.422 348.138 287.182 348.034 289.214C346.059 285.352 345.078 281.05 342.899 277.291C340.682 273.442 337.993 269.941 334.574 266.099Z" fill="#98958B"/>
<path opacity="0.1" d="M282.596 241.095C284.195 238.787 286.849 237.955 288.577 236.029C290.433 233.975 292.186 231.87 293.964 229.765C295.667 227.763 296.972 225.494 298.708 222.686C297.287 229.697 287.874 241.005 282.596 241.095Z" fill="#98958B"/>
<path opacity="0.1" d="M353.346 245.516C355.955 245.886 357.918 247.321 359.487 249.281C363.642 254.487 365.679 260.573 366.888 267.034C365.717 265.596 365.248 263.834 364.626 262.125C363.006 257.698 360.927 253.555 357.995 249.838C356.644 248.119 354.798 247.055 353.346 245.516Z" fill="#98958B"/>
<path opacity="0.1" d="M269.054 249.816C264.409 251.144 264.409 251.144 262.219 255.232C260.675 255.84 258.991 256.411 257.99 258.142C257.167 259.59 257.828 261.465 256.595 262.865C254.946 260.164 255.808 256.338 258.562 254.969C260.449 254.014 261.835 252.69 263.195 251.163C265.114 248.993 266.544 248.73 269.054 249.816Z" fill="#98958B"/>
<path opacity="0.1" d="M323.37 287.154C333.385 303.807 332.777 299.951 338.116 304.295C336.802 304.825 335.828 304.293 334.803 303.813C332.369 302.65 330.455 300.806 328.924 298.705C326.401 295.216 324.337 291.443 323.37 287.154Z" fill="#98958B"/>
<path opacity="0.1" d="M298.636 120.275C301.514 128.44 306.127 135.83 309.376 143.827C304.776 136.45 299.946 129.177 298.636 120.275Z" fill="#98958B"/>
<path opacity="0.1" d="M273.104 234.446C269.417 235.603 268.922 238.8 268.247 241.82C266.628 242.684 264.861 242.054 263.267 242.663C261.57 243.323 260.914 244.912 259.796 246.221C259.202 242.633 261.047 241.051 266.782 240.242C267.943 237.399 268.551 233.754 273.104 234.446Z" fill="#98958B"/>
<path opacity="0.1" d="M299.225 107.863C299.254 108.501 299.295 109.127 299.324 109.766C298.107 111.715 299.333 113.997 298.5 116.097C297.326 111.4 297.556 93.8507 298.84 87.5433C299.827 88.0368 299.282 88.8958 299.272 89.5732C299.147 95.0951 298.971 100.643 298.82 106.165C298.797 106.753 298.788 107.379 299.225 107.863Z" fill="#98958B"/>
<path opacity="0.1" d="M336.133 240.862C336.208 248.159 327.794 257.455 320.703 257.862C327.111 253.675 329.325 254.393 336.133 240.862Z" fill="#98958B"/>
<path opacity="0.1" d="M314.7 253.521C323.193 249.772 330.966 245.259 333.754 235.48C332.983 244.712 322.404 252.958 314.7 253.521Z" fill="#98958B"/>
<path opacity="0.1" d="M375.145 229.583C372.054 222.403 367.932 216.008 362.702 210.322C370.034 214.707 372.769 222.093 375.145 229.583Z" fill="#98958B"/>
<path opacity="0.1" d="M194.823 116.01C201.609 121.049 207.645 129.134 208.259 134.32C205.979 130.919 204.059 127.849 201.923 124.946C199.723 121.953 197.318 119.141 194.823 116.01Z" fill="#98958B"/>
<path opacity="0.1" d="M325.292 278.147C330.879 280.93 335.789 288.944 336.679 295.675C334.76 292.732 333.605 289.351 331.699 286.396C329.805 283.479 327.173 281.153 325.292 278.147Z" fill="#98958B"/>
<path opacity="0.1" d="M267.521 224.621C267.136 221.926 267.227 219.651 270.363 218.05C269.099 220.791 268.421 223.172 270.171 225.515C267.535 227.407 264.028 226.402 262.381 229.376C262.838 226.242 263.284 225.844 267.521 224.621Z" fill="#98958B"/>
<path opacity="0.1" d="M363.211 204.9C367.193 206.35 373.125 214.308 375.436 221.325C371.599 215.696 368.283 209.642 363.211 204.9Z" fill="#98958B"/>
<path opacity="0.1" d="M305.08 312.233C298.121 308.472 291.441 304.199 284.444 300.528C291.909 303.392 298.894 307.127 305.08 312.233Z" fill="#98958B"/>
<path opacity="0.1" d="M157.207 113.031C160.448 114.535 162.838 116.9 165.202 119.444C167.554 121.976 169.969 124.469 172.797 127.701C166.537 123.131 162.533 117.336 157.207 113.031Z" fill="#98958B"/>
<path opacity="0.1" d="M268.763 134.422C263.97 129.475 260.189 122.349 258.504 115.086C260.067 118.311 261.54 121.601 263.218 124.762C264.96 128.038 266.906 131.211 268.763 134.422Z" fill="#98958B"/>
<path opacity="0.1" d="M253.482 228.552C248.429 230.111 248.429 230.111 245.961 234.993C244.993 233.043 245.175 231.112 246.471 229.597C247.995 227.826 250.268 227.38 253.482 228.552Z" fill="#98958B"/>
<path opacity="0.1" d="M247.304 267.986C245.555 265.771 245.736 263.61 246.748 261.509C247.823 259.267 249.302 258.646 251.834 258.991C248.234 262.242 248.234 262.242 247.304 267.986Z" fill="#98958B"/>
<path opacity="0.1" d="M361.649 143.945C359.997 138.24 359.725 132.375 359.243 125.668C360.637 128.319 361.956 139.01 361.649 143.945Z" fill="#98958B"/>
<path opacity="0.1" d="M321.113 288.303C322.082 290.305 322.182 292.285 323.212 293.839C324.242 295.419 325.273 296.998 326.548 298.973C321.843 296.07 320.062 292.603 321.113 288.303Z" fill="#98958B"/>
</g>
<defs>
<clipPath id="clip0_816_6106">
<rect width="377.192" height="398.917" fill="white" transform="matrix(-0.70351 0.710686 0.710686 0.70351 265.358 0)"/>
</clipPath>
</defs>
</svg>
