<svg width="189" height="192" viewBox="0 0 189 192" fill="none" xmlns="http://www.w3.org/2000/svg">
<g opacity="0.2">
<path d="M192.337 200.765C190.401 199.082 190.98 199.685 189.105 197.936C188.459 196.743 187.149 196.149 186.509 194.949C186.458 194.852 186.359 194.796 186.277 194.72C185.261 193.71 184.398 192.573 183.443 191.51C182.821 190.819 182.217 190.109 181.639 189.384C180.84 188.393 180.028 187.402 179.26 186.378C178.624 185.526 177.938 184.702 177.296 183.844C176.565 182.88 175.866 181.895 175.123 180.956C174.305 179.922 173.579 178.826 172.798 177.765C171.67 176.221 170.579 174.637 169.488 173.066C168.763 172.02 168.063 170.948 167.338 169.902C166.625 168.881 165.894 167.879 165.176 166.864C164.583 166.028 163.991 165.18 163.398 164.344C162.535 163.133 161.683 161.908 160.789 160.717C160.059 159.752 159.26 158.835 158.499 157.892C158.033 157.31 157.58 156.714 157.151 156.105C156.78 155.586 156.321 155.122 155.907 154.649C155.272 153.921 154.656 153.174 154.021 152.447C153.009 151.269 151.8 150.289 150.813 149.11C149.398 147.409 147.664 146.05 146.108 144.5C145.575 143.966 145.047 143.4 144.434 142.964C143.058 141.975 141.909 140.719 140.563 139.698C139.787 139.109 139.127 138.371 138.303 137.898C137.266 137.3 136.493 136.406 135.505 135.744C134.686 135.201 133.891 134.558 133.109 133.939C132.276 133.273 131.449 132.601 130.519 132.065C129.969 131.75 129.523 131.272 128.967 130.926C127.88 130.257 126.915 129.381 125.822 128.718C124.278 127.771 122.766 126.791 121.216 125.851C119.211 124.633 117.193 123.453 115.103 122.39C114.859 122.261 114.701 121.991 114.341 121.937C114.367 122.639 114.399 123.284 114.418 123.93C114.493 126.228 114.09 128.474 113.556 130.734C113.04 132.912 112.131 134.933 111.035 136.878C110.457 137.902 109.898 138.981 109.007 139.812C108.638 140.158 108.551 140.655 108.182 141.013C107.402 141.775 106.541 142.412 105.623 143.095C105.247 143.889 105.369 144.79 105.242 145.657C104.65 149.439 103.492 153.049 101.549 156.42C100.13 158.876 98.3606 161.079 96.284 162.995C94.7295 164.426 93.0369 165.704 91.2119 166.796C88.3449 168.517 85.2601 169.617 82.1311 170.638C80.8634 171.056 79.5828 171.425 78.3341 171.873C75.54 172.874 72.7135 173.759 69.9961 174.967C69.6564 175.118 69.3293 175.281 68.9959 175.438C68.36 175.743 67.7056 176.056 66.9595 175.927C66.0479 175.421 65.7596 174.598 65.7916 173.557C65.8244 172.578 66.0937 171.672 66.5621 170.804C67.9003 168.334 69.2698 165.881 70.5832 163.4C71.6897 161.305 72.7152 159.172 73.8218 157.089C74.4117 155.977 75.0201 154.871 75.7911 153.866C75.9135 153.709 75.9924 153.549 75.9275 153.292C75.543 153.315 75.2481 153.581 74.9145 153.726C72.7588 154.657 70.5387 155.369 68.2728 155.878C65.357 156.532 62.4122 156.814 59.465 156.872C56.3812 156.925 53.3316 156.703 50.3277 156.118C48.1261 155.689 46.0269 154.975 43.9153 154.273C40.994 153.297 38.1571 152.091 35.1153 151.446C34.4373 151.306 33.888 151.015 33.7186 150.278C33.6406 149.959 33.6247 149.637 33.801 149.309C34.1538 148.653 34.5193 148.021 34.9407 147.405C35.8021 146.152 36.9641 145.155 37.8382 143.939C38.6573 142.795 39.6333 141.809 40.5652 140.77C41.0679 140.205 41.3644 139.509 41.9171 138.978C42.4206 138.488 42.9489 137.995 43.2455 137.312C43.3606 137.05 43.6377 136.853 43.8463 136.629C44.797 135.607 45.7539 134.579 46.7721 133.485C46.43 133.412 46.2057 133.339 45.9635 133.322C43.908 133.202 41.9842 132.639 40.0838 131.95C38.0277 131.202 36.1603 130.125 34.3172 128.997C33.5612 128.538 32.8782 127.938 32.1588 127.414C30.2073 126.025 28.5809 124.287 26.8257 122.686C25.9231 121.869 25.3336 120.741 24.3334 120.079C24.2692 119.883 24.2366 119.742 24.1669 119.616C23.4318 118.228 24.2835 117.225 25.2325 116.608C26.2308 115.964 27.2989 115.458 28.367 114.952C30.5402 113.926 32.7135 112.9 34.8613 111.813C37.0215 110.725 39.1757 109.657 41.5278 109.093C41.6206 109.069 41.7001 108.958 41.8046 108.871C41.3781 107.895 40.9455 106.925 40.5253 105.954C39.9331 104.577 39.3592 103.18 38.767 101.803C38.143 100.359 37.4819 98.9298 36.895 97.4714C36.4865 96.4379 36.072 95.4234 35.3981 94.524C34.8439 93.7855 34.8484 93.6297 34.9467 92.404C35.9901 90.7796 37.6588 90.1446 39.2462 89.4584C41.6985 88.4093 44.1509 87.3727 46.5142 86.1298C47.5571 85.5882 48.5173 84.8586 49.5601 84.3171C51.0721 83.5358 52.5774 82.7239 54.2839 82.1364C53.8345 81.3356 53.4166 80.5765 53.0049 79.8232C52.1879 78.3225 51.5375 76.731 50.8562 75.1599C49.9648 73.0974 49.5743 70.8742 48.8623 68.7574C48.7339 68.3668 48.7418 67.9555 48.7808 67.5487C48.8298 66.9297 49.1035 66.4217 49.6959 66.1124C50.1958 65.8522 50.709 65.6784 51.2345 65.5038C52.7373 65.0219 54.2753 64.9174 55.812 64.701C56.4998 64.6038 57.2022 64.7049 57.8856 64.7761C58.1839 64.808 58.4694 64.8158 58.7546 64.7863C58.8496 64.3948 58.6165 64.0789 58.5815 63.7138C58.4207 62.0619 58.9638 61.2266 60.4546 60.7827C61.5867 60.4474 62.7705 60.3081 63.9284 60.0708C64.752 59.9032 65.5691 59.7174 66.4916 59.5191C65.4447 57.9886 63.9369 56.8778 63.7049 54.9625C63.7105 54.3398 64.0908 53.9312 64.5026 53.5643C66.2671 52.6124 68.1692 52.3306 70.0522 51.9939C71.6193 51.7196 73.1801 51.4396 74.7547 51.2831C76.0381 51.1628 77.341 51.1346 78.6202 51.2074C80.5826 51.3265 82.522 51.6088 84.3782 52.232C85.2254 52.5174 86.0604 52.8284 86.8832 53.165C87.0952 53.2519 87.2759 53.322 87.542 53.25C86.4968 50.7486 86.0638 48.0426 85.4269 45.4172C85.0826 44.0127 84.664 42.625 84.2826 41.2352C84.1664 40.819 84.0377 40.4035 83.9709 39.9719C83.8571 39.2132 83.9671 38.491 84.6381 37.9966C86.015 37.3479 87.2978 37.7441 88.4944 38.2077C91.3489 39.3189 94.1732 40.5003 97.0823 41.5024C98.6335 42.0382 100.185 42.5988 101.724 43.1602C103.568 43.8339 105.334 44.6556 106.996 45.6887C108.264 46.4779 109.502 47.2999 110.697 48.193C111.392 48.7053 112.061 49.2316 112.682 49.823C113.033 50.1629 113.114 50.743 113.694 50.9511C114.223 49.4134 114.572 47.843 114.784 46.2434C115.025 44.474 115.068 42.7041 115.086 40.9232C115.111 38.115 115.192 35.2973 115.304 32.484C115.343 31.573 115.407 30.6108 116.443 30.0136C116.806 30.2533 117.095 30.5472 117.354 30.9735C118.031 32.1341 118.72 33.3188 119.575 34.3381C120.286 35.1855 120.935 36.0988 121.805 36.8121C122.695 37.543 123.437 38.4819 124.381 39.1286C125.813 40.1195 127.018 41.3543 128.266 42.543C129.345 43.5737 130.289 44.7494 131.288 45.8658C132.117 46.7995 132.873 47.7997 133.616 48.7883C134.705 50.2229 135.635 51.7791 136.398 53.4386C136.893 54.5043 137.389 55.5823 137.792 56.697C138.618 58.9938 139.048 61.3889 139.199 63.8691C139.552 63.7671 139.666 63.3931 139.98 63.2436C140.191 63.1937 140.396 63.1876 140.59 63.344C141.272 63.882 141.782 64.5671 142.2 65.3263C143.403 67.5071 144.161 69.8638 144.746 72.2932C145.033 73.4958 145.288 74.6941 145.475 75.9275C145.856 78.4375 145.977 80.9756 145.633 83.5352C145.191 86.8164 144.002 89.856 142.433 92.8125C141.642 94.2911 140.789 95.7237 139.811 97.0642C138.778 98.4889 137.701 99.9224 136.386 101.121C133.682 103.573 130.941 105.965 127.676 107.66C124.918 109.101 122.056 110.162 119.047 110.778C118.093 110.972 117.138 111.029 116.214 111.115C115.9 111.277 115.728 111.487 115.682 111.825C115.579 112.628 115.433 113.427 115.305 114.231C115.089 115.508 114.594 116.72 114.241 117.979C114.128 118.366 113.921 118.751 114.062 119.154C115.879 120.122 117.689 121.084 119.481 122.09C121.148 123.03 122.755 124.073 124.434 124.999C125.364 125.51 126.21 126.175 127.097 126.769C128.104 127.437 129.116 128.086 130.135 128.74C130.673 129.094 131.167 129.506 131.68 129.886C132.394 130.416 133.12 130.958 133.857 131.449C134.72 132.019 135.381 132.857 136.359 133.266C136.428 133.293 136.478 133.352 136.522 133.405C137.377 134.337 138.458 135.013 139.471 135.737C140.666 136.592 141.597 137.769 142.92 138.449C143.014 138.499 143.089 138.582 143.165 138.665C145.467 140.898 148.149 142.723 150.334 145.069C151.609 146.442 152.994 147.697 154.269 149.059C154.803 149.63 155.251 150.27 156.064 150.905C155.257 149.722 154.619 148.708 153.907 147.749C152.635 146.045 151.437 144.287 150.306 142.482C149.049 140.472 147.749 138.484 146.677 136.351C145.059 133.131 143.849 129.787 143.282 126.168C142.975 124.182 142.699 122.201 142.59 120.179C142.542 119.223 142.432 118.272 142.471 117.311C142.615 113.96 142.839 110.624 143.361 107.282C144.028 103.004 145.062 98.81 146.45 94.688C147.484 91.6018 148.654 88.5694 149.962 85.5788C150.773 83.7131 151.616 81.8642 152.527 80.0423C153.571 77.9635 154.66 75.9008 155.804 73.8658C156.638 72.3783 157.41 70.8697 158.237 69.3764C159.564 66.982 160.947 64.6154 162.068 62.115C162.879 60.3115 163.486 58.4519 164.086 56.5863C164.452 55.4629 164.899 54.3534 165.247 53.2248C165.427 52.6416 165.864 52.298 166.195 51.9297C166.603 51.8057 166.865 51.9021 166.974 52.2254C167.122 52.7082 167.264 53.1975 167.331 53.7038C167.528 55.2291 167.718 56.7487 167.853 58.2777C167.981 59.7388 168.3 61.1572 168.552 62.5859C168.936 64.8033 169.339 67.0133 169.841 69.2049C170.297 71.1815 170.821 73.1353 171.363 75.0818C172.151 77.8974 172.983 80.704 173.857 83.4895C174.436 85.3094 174.965 87.1571 175.203 89.0783C175.326 90.0915 175.48 91.1091 175.485 92.1481C175.481 93.4863 175.533 94.815 175.516 96.1539C175.488 99.2174 175.031 102.251 174.325 105.261C173.709 107.887 172.762 110.427 171.71 112.929C170.966 114.71 170.322 116.522 169.665 118.335C168.556 121.376 167.616 124.463 166.682 127.556C166.053 129.653 165.555 131.774 165.088 133.912C164.591 136.157 164.287 138.421 163.964 140.681C163.854 141.416 163.844 142.157 163.815 142.893C163.726 145.002 163.582 147.12 163.71 149.222C163.96 153.283 164.432 157.306 165.697 161.157C166.114 162.421 166.525 163.691 167.053 164.91C167.378 165.656 167.832 166.35 168.299 167.02C169.485 168.741 170.732 170.421 171.868 172.183C172.967 173.885 174.262 175.45 175.391 177.131C176.161 178.28 177.042 179.347 177.793 180.516C178.431 181.505 179.302 182.317 179.971 183.286C180.677 184.314 181.512 185.228 182.262 186.223C182.728 186.842 183.237 187.453 183.746 188.051C184.318 188.72 184.995 189.326 185.408 190.129C185.439 190.196 185.502 190.242 185.558 190.282C186.491 191.029 187.043 192.135 187.97 192.889C188.527 193.347 188.808 194.04 189.365 194.51C189.879 194.94 190.454 195.354 190.716 196.029C192.647 197.83 192.294 197.522 194.225 199.323C194.27 199.729 194.361 200.538 194.361 200.538C191.597 198.121 190.609 196.987 188.146 194.247C188.102 194.194 188.021 194.155 187.995 194.094C187.771 193.479 187.252 193.118 186.801 192.722C186.338 192.314 186.108 191.718 185.644 191.323C184.936 190.712 184.437 189.901 183.815 189.21C183.388 188.738 182.917 188.287 182.564 187.748C181.832 186.647 180.915 185.693 180.147 184.632C179.744 184.083 179.285 183.582 178.882 183.046C178.221 182.171 177.584 181.269 176.929 180.387C176.318 179.559 175.658 178.758 175.059 177.916C174.315 176.878 173.614 175.806 172.895 174.754C171.949 173.379 171.004 172.004 170.051 170.636C169.118 169.298 168.167 167.967 167.215 166.636C166.477 165.591 165.74 164.547 164.99 163.515C164.114 162.304 163.245 161.099 162.338 159.908C161.664 159.034 160.966 158.173 160.292 157.299C159.361 156.085 158.343 154.939 157.417 153.718C156.888 153.028 156.212 152.484 155.714 151.785C154.895 150.639 153.897 149.66 152.912 148.692C149.901 145.723 146.755 142.899 143.663 140.016C143.507 139.87 143.368 139.667 143.175 139.585C142.457 139.273 141.936 138.726 141.415 138.19C140.863 137.614 140.09 137.336 139.538 136.759C138.684 135.877 137.61 135.269 136.671 134.492C136.101 134.022 135.53 133.502 134.899 133.11C133.556 132.288 132.378 131.263 131.084 130.376C130.027 129.649 128.97 128.922 127.92 128.188C127.457 127.867 127.018 127.495 126.531 127.201C125.65 126.675 124.775 126.13 123.895 125.604C122.77 124.924 121.658 124.244 120.527 123.571C119.49 122.961 118.441 122.364 117.398 121.761C117.305 121.71 117.255 121.738 117.244 121.813C117.167 122.173 117.43 122.418 117.47 122.665C118.626 123.336 119.737 123.954 120.818 124.63C121.993 125.357 123.155 126.109 124.318 126.86C125.237 127.459 126.192 128.018 127.081 128.649C128.181 129.43 129.301 130.203 130.402 130.983C131.678 131.89 132.941 132.81 134.186 133.75C135.213 134.523 136.319 135.222 137.217 136.158C137.292 136.24 137.361 136.33 137.461 136.373C138.627 136.895 139.292 138.081 140.458 138.602C142.121 140.252 144.102 141.533 145.752 143.196C147.786 145.24 150.064 147.02 151.938 149.223C152.749 150.177 153.683 151.023 154.53 151.949C155.209 152.693 155.819 153.484 156.504 154.221C157.465 155.265 158.248 156.463 159.172 157.546C159.499 157.925 159.745 158.365 160.072 158.743C160.814 159.608 161.531 160.498 162.199 161.417C163.245 162.848 164.248 164.312 165.275 165.763C166.013 166.808 166.763 167.84 167.494 168.891C168.383 170.176 169.198 171.515 170.137 172.759C171.358 174.379 172.426 176.101 173.648 177.721C174.517 178.876 175.343 180.09 176.2 181.258C177.063 182.433 177.963 183.58 178.857 184.734C180.103 186.34 181.387 187.906 182.651 189.492C183.117 190.086 183.669 190.601 184.128 191.189C184.94 192.23 185.765 193.269 186.718 194.183C186.85 194.306 187.025 194.408 187.101 194.565C187.425 195.236 187.994 195.694 188.533 196.159C189.084 196.637 189.414 197.289 189.941 197.78C191.433 199.147 191.667 199.294 193.146 200.674L192.337 200.765ZM111.915 85.1418C111.884 85.2121 111.724 85.3088 111.942 85.3394C111.922 85.2721 111.897 85.2113 111.877 85.144C111.969 85.0327 111.974 84.9267 111.88 84.8265C112.013 83.9162 112.121 83.0074 112.266 82.0963C112.662 79.6954 113.014 77.2909 113.752 74.9379C114.723 71.8305 116.112 68.8661 117.208 65.8009C117.984 63.6199 118.599 61.4236 119.065 59.1866C119.395 57.5861 119.539 55.972 119.695 54.357C119.873 52.4546 119.846 50.5705 119.708 48.7056C119.547 46.5122 118.972 44.4246 118.199 42.3861C117.33 40.0981 116.504 37.789 116.135 35.328C116.109 35.1678 116.009 35.0742 115.89 34.9879C115.945 34.9162 116.012 34.8561 115.912 34.775C115.801 34.8563 115.883 34.9199 115.927 34.9857C115.729 36.7587 115.91 38.5153 115.761 40.2853C115.651 41.4992 115.714 42.7152 115.659 43.9445C115.544 46.4966 115 48.9811 114.314 51.4554C113.806 53.3091 113.343 55.1789 112.935 57.0516C112.238 60.2796 111.796 63.5234 111.571 66.7978C111.416 69.0537 111.316 71.3 111.254 73.544C111.18 76.4671 111.237 79.3886 111.486 82.2924C111.544 83.0232 111.614 83.7534 111.672 84.4843C111.686 84.6452 111.786 84.7388 111.905 84.825C111.794 84.9312 111.808 85.0424 111.915 85.1418ZM139.226 68.5473C139.109 68.685 138.875 68.7986 139.057 69.0304C138.897 69.152 138.855 69.3225 138.795 69.5128C137.912 72.1855 136.48 74.5676 134.598 76.6654C132.108 79.4281 129.55 82.114 127.017 84.8357C126.808 85.0598 126.562 85.2612 126.416 85.5188C125.691 86.726 124.753 87.7965 123.996 88.9868C123.38 89.9509 122.671 90.8895 122.06 91.847C121.353 92.9722 120.633 94.0981 119.988 95.2569C119.361 96.3834 118.734 97.51 118.101 98.6431C119.072 97.776 120.006 96.9111 120.971 96.0879C121.199 95.8939 121.369 95.6098 121.622 95.4516C122.732 94.7629 123.633 93.8066 124.68 93.0345C125.757 92.2419 126.696 91.2585 127.767 90.4601C128.253 90.1012 128.633 89.6055 129.139 89.3139C130.002 88.8266 130.488 87.9014 131.371 87.469C132.585 86.077 133.974 84.8613 135.012 83.3056C135.928 81.9315 136.707 80.5283 137.242 78.984C138.091 76.5498 138.597 74.0551 138.942 71.5452C139.051 70.7359 139.339 69.8723 139.039 69.0502C139.167 68.9118 139.34 68.7894 139.182 68.5686C139.225 68.4976 139.299 68.4309 139.192 68.3564C139.1 68.4304 139.163 68.4889 139.226 68.5473ZM67.8294 118.777C67.8982 118.829 67.9733 118.887 68.0526 118.764C67.965 118.694 67.8975 118.767 67.836 118.82C67.742 118.732 67.6493 118.769 67.5381 118.813C65.6599 119.585 63.8136 120.436 62.0247 121.427C59.5944 122.78 57.3912 124.48 55.2323 126.245C54.6171 126.743 54.1026 127.359 53.4745 127.807C52.3415 128.621 51.4094 129.648 50.402 130.592C49.0442 131.849 47.8185 133.267 46.58 134.648C45.4274 135.937 44.2309 137.184 43.1474 138.55C41.8864 140.144 40.682 141.803 39.2018 143.217C38.9562 143.456 38.6734 143.696 38.4862 144.174C40.6876 142.879 42.9246 142.011 45.0852 140.96C47.2212 139.924 49.1796 138.55 50.9182 136.934C52.7674 135.211 54.3843 133.247 55.945 131.256C55.9878 131.197 56.0367 131.132 56.0795 131.074C56.8124 129.997 57.4892 128.892 58.2722 127.85C58.9267 126.983 59.7128 126.226 60.3484 125.33C61.2714 124.036 62.6896 123.204 63.7127 121.992C64.522 121.651 65.0038 120.881 65.7121 120.385C66.4265 119.882 67.2161 119.448 67.8294 118.777ZM163.533 155.742C163.736 155.5 163.633 155.232 163.587 155.004C163.257 153.207 163.095 151.381 163.087 149.539C163.068 147.207 162.974 144.891 163.147 142.553C163.255 141.078 163.4 139.613 163.614 138.151C163.81 136.807 164.075 135.466 164.345 134.118C164.763 132.02 165.237 129.926 165.884 127.871C166.88 124.687 167.782 121.478 168.976 118.357C169.906 115.937 170.71 113.474 171.696 111.082C172.857 108.286 173.663 105.419 174.208 102.48C174.618 100.29 174.737 98.0862 174.893 95.8801C174.914 95.5552 174.972 95.2157 174.808 94.9144C174.813 94.8456 174.998 94.7474 174.775 94.7234C174.8 94.7841 174.819 94.8515 174.845 94.9122C174.759 95.0293 174.649 95.1479 174.594 95.2694C174.177 96.259 173.785 97.2595 173.355 98.2374C172.483 100.231 171.505 102.188 170.371 104.048C169.451 105.565 168.568 107.118 167.498 108.557C166.574 109.801 165.813 111.172 164.965 112.474C163.915 114.092 162.934 115.738 162.066 117.464C160.79 119.992 159.751 122.594 159.042 125.318C158.423 127.707 158.17 130.119 158.054 132.546C157.958 134.587 158.167 136.603 158.449 138.59C158.933 141.972 159.788 145.268 160.823 148.499C161.35 150.147 161.926 151.781 162.546 153.393C162.846 154.19 163.085 155.028 163.577 155.733C163.522 155.805 163.46 155.883 163.585 155.951C163.653 155.866 163.59 155.807 163.533 155.742ZM164.847 56.9391C164.638 57.0761 164.622 57.3073 164.543 57.5174C164.013 59.0177 163.49 60.5115 162.842 61.9754C161.951 63.9641 160.949 65.8972 159.871 67.7975C158.732 69.7886 157.643 71.8016 156.548 73.8212C155.63 75.5129 154.724 77.2038 153.861 78.9232C152.98 80.6748 152.137 82.4366 151.313 84.216C149.845 87.378 148.571 90.6094 147.447 93.8941C146.545 96.5244 145.742 99.1862 145.114 101.9C144.563 104.279 144.111 106.677 143.815 109.084C143.599 110.877 143.432 112.679 143.26 114.476C143.226 114.851 143.274 115.228 143.285 115.694C143.605 115.388 143.614 115.077 143.698 114.81C144.106 113.579 144.509 112.354 145.079 111.174C146.068 109.105 147.194 107.102 148.445 105.179C149.599 103.399 150.84 101.675 152.093 99.9637C152.931 98.8245 153.694 97.6401 154.469 96.4548C155.897 94.2784 157.182 92.0296 158.342 89.7137C160.51 85.3833 162.298 80.9201 163.389 76.2248C164.301 72.2621 164.704 68.2676 164.809 64.2536C164.858 62.4398 164.832 60.6179 164.774 58.8042C164.755 58.183 165.084 57.566 164.816 56.9596C164.859 56.8886 164.939 56.8154 164.826 56.7474C164.722 56.8097 164.791 56.874 164.847 56.9391ZM93.1485 136.79C93.217 136.818 93.3118 136.967 93.3467 136.754C93.2787 136.776 93.2169 136.805 93.1489 136.828C93.0493 136.796 92.9495 136.753 92.8501 136.746C91.2848 136.616 89.7737 136.339 88.3819 135.619C86.99 134.9 85.8561 133.928 84.9483 132.639C84.135 131.474 83.6368 130.184 83.3115 128.81C83.1032 127.926 82.9938 126.999 83.1015 126.065C83.3667 123.654 84.2546 121.429 85.4415 119.298C86.117 118.081 86.8051 116.876 87.4869 115.666C87.3807 115.603 87.318 115.545 87.2621 115.542C85.3615 115.394 83.4396 115.572 81.5283 115.586C80.8022 115.586 80.0657 115.773 79.3278 115.824C77.5975 115.934 75.8885 116.285 74.2054 116.734C72.4233 117.214 70.7627 118.017 69.1342 118.923C67.5736 119.794 66.1389 120.82 64.7928 122.014C64.2028 122.535 63.6886 123.188 63.0413 123.581C61.8144 124.321 61.1699 125.542 60.3934 126.603C59.6046 127.677 58.8471 128.78 58.0896 129.883C57.6436 130.526 57.1666 131.164 56.7267 131.8C55.9142 132.975 55.1202 134.143 54.1323 135.179C53.482 135.865 52.8256 136.558 52.1815 137.25C51.3105 138.186 50.2443 138.866 49.1908 139.57C47.6383 140.609 45.9014 141.254 44.241 142.069C42.4816 142.927 40.6335 143.604 38.9377 144.595C38.3333 144.943 37.7292 145.315 37.1816 145.752C36.228 146.512 35.6379 147.6 34.9223 148.557C34.5982 148.993 34.2195 149.551 34.3878 150.188C34.6907 150.643 35.1456 150.809 35.6559 150.94C37.8647 151.462 39.9832 152.231 42.1017 153C43.7093 153.589 45.3534 154.113 46.9851 154.637C51.0144 155.921 55.2195 156.248 59.4766 156.23C61.8658 156.218 64.2588 155.987 66.6432 155.54C69.5849 154.984 72.4496 154.184 75.2162 152.936C76.3092 152.441 77.4089 151.989 77.8855 150.735C77.9216 150.633 78.0325 150.564 78.1123 150.479C78.6703 149.867 79.1281 149.161 79.5738 148.493C80.331 147.365 81.251 146.377 82.0836 145.331C83.3139 143.77 84.7824 142.419 86.3889 141.209C87.7246 140.202 89.0796 139.262 90.4973 138.38C91.3536 137.8 92.3302 137.443 93.1485 136.79ZM112.938 96.9544C110.881 87.6494 110.257 78.327 110.719 68.8589C110.642 68.627 110.399 68.5358 110.303 68.3485C109.587 66.9663 108.6 65.7994 107.459 64.7599C106.575 63.9602 105.783 63.0368 104.801 62.3674C103.495 61.4686 102.114 60.6861 100.685 59.9564C98.0577 58.6014 95.2679 57.7352 92.3818 57.1362C89.0914 56.4556 85.7035 56.509 82.3288 56.6362C80.8649 56.6989 79.3903 56.924 77.935 57.204C74.9621 57.7553 72.0484 58.6079 69.1348 59.4606C67.1428 60.0403 65.1506 60.6075 63.106 60.9165C62.2015 61.0578 61.2846 61.1997 60.4071 61.5385C59.5171 61.878 59.2547 62.2858 59.2713 63.237C59.2803 63.4916 59.3327 63.7373 59.4037 63.9882C59.8636 65.7468 60.1625 67.5398 60.4489 69.3337C60.9144 72.1685 61.4356 74.9937 61.9135 77.8278C62.2586 79.8732 62.7584 81.8783 63.2829 83.8694C63.9884 86.5218 64.7248 89.1662 66.0481 91.5576C67.0739 93.4255 68.0751 95.3072 69.4091 96.9823C70.0006 97.731 70.5923 98.4922 71.1716 99.2541C71.9524 100.278 72.8191 101.222 73.7043 102.146C74.8217 103.311 76.178 104.182 77.4916 105.124C78.5611 105.888 79.6798 106.599 80.8466 107.17C83.9226 108.672 87.1623 109.823 90.6272 110.568C91.004 109.836 91.3742 109.073 91.7881 108.339C93.0422 106.11 93.823 103.736 94.3856 101.282C94.8003 99.4771 95.1031 97.6543 95.7417 95.8985C96.2601 94.4984 96.8972 93.172 97.9837 92.0802C99.1254 90.9291 100.497 90.3865 102.028 90.214C102.933 90.1101 103.731 90.4482 104.547 90.7416C106.616 91.4891 108.453 92.6114 110.192 93.9013C111.281 94.6825 111.982 95.8292 112.938 96.9544ZM57.5927 123.609C61.9679 120.204 66.9041 118.16 72.0384 116.633C77.2468 115.077 82.5483 114.654 87.8652 115.07C88.627 113.799 89.3827 112.534 90.1751 111.217C89.7642 111.105 89.453 111.024 89.1419 110.943C87.1255 110.429 85.1571 109.762 83.2371 108.981C81.4231 108.249 79.7126 107.331 78.0505 106.298C76.6447 105.43 75.3983 104.39 74.0906 103.417C73.2959 102.824 72.6421 102.054 71.9881 101.271C71.2146 100.341 70.4534 99.4091 69.6799 98.4783C68.4536 97.0021 67.3873 95.4044 66.4259 93.7567C64.674 90.7562 63.4159 87.5145 62.6336 84.0763C62.4052 83.0631 62.1026 82.0669 61.8567 81.1481C61.5941 80.9647 61.4087 81.038 61.2285 81.0177C60.6634 80.983 60.1318 81.1766 59.5867 81.2715C57.9516 81.5684 56.323 81.8962 54.7724 82.5428C52.3506 83.5465 50.0301 84.7308 47.774 86.1229C45.5672 87.4871 43.1641 88.4959 40.7667 89.4608C39.531 89.9579 38.2955 90.4798 37.1486 91.1583C36.4395 91.5804 35.4563 91.9068 35.4318 93.0658C35.5096 93.3723 35.6248 93.689 35.8331 94.0064C36.2181 94.5994 36.6277 95.1661 36.902 95.8405C38.1067 98.7493 39.3301 101.651 40.5842 104.532C42.0229 107.831 43.548 111.088 45.5418 114.08C46.2675 115.176 47.0674 116.242 48.0205 117.143C49.0866 118.15 50.122 119.189 51.3537 120.03C52.5605 120.848 53.7244 121.724 55.0041 122.413C55.8529 122.848 56.6837 123.34 57.5927 123.609ZM165.39 162.669C165.168 161.662 164.706 160.812 164.355 159.918C163.493 157.711 162.569 155.532 161.744 153.31C160.683 150.474 159.745 147.592 158.993 144.65C158.273 141.799 157.683 138.91 157.471 135.954C157.288 133.457 157.323 130.928 157.723 128.421C158.199 125.431 159.105 122.533 160.303 119.71C161.724 116.358 163.621 113.264 165.635 110.231C166.557 108.838 167.473 107.439 168.37 106.035C169.877 103.685 171.222 101.271 172.43 98.7657C173.103 97.3625 173.758 95.9293 174.188 94.4598C174.757 92.5402 174.661 90.567 174.404 88.6283C174.161 86.8256 173.633 85.0898 173.093 83.3672C172.109 80.2336 171.205 77.0765 170.327 73.9055C169.487 70.869 168.832 67.7966 168.246 64.689C167.575 61.1819 167.058 57.6594 166.727 54.0884C166.692 53.6612 166.668 53.1834 166.265 52.6474C166.079 53.2871 165.879 53.7284 165.829 54.1858C165.694 55.4758 165.571 56.7651 165.554 58.0543C165.511 60.9071 165.648 63.7553 165.462 66.6105C165.377 67.9348 165.299 69.2651 165.127 70.5822C164.818 72.9531 164.378 75.3131 163.758 77.6527C163.174 79.8782 162.466 82.0614 161.621 84.2029C160.697 86.5421 159.673 88.8375 158.475 91.0561C157.666 92.5545 156.863 94.0588 155.923 95.4841C155.349 96.3524 154.894 97.2944 154.276 98.1217C153.628 98.9944 153.098 99.9409 152.431 100.784C151.911 101.431 151.428 102.101 150.976 102.775C150.084 104.098 149.155 105.398 148.32 106.761C146.674 109.473 145.184 112.232 144.274 115.261C143.651 117.34 143.208 119.389 143.418 121.567C143.593 123.429 143.806 125.265 144.149 127.099C144.676 129.893 145.555 132.56 146.811 135.061C147.668 136.771 148.549 138.479 149.609 140.084C151.08 142.292 152.445 144.588 153.965 146.756C155.213 148.523 156.479 150.283 157.795 152.003C159.042 153.634 160.129 155.386 161.24 157.111C162.218 158.64 163.351 160.053 164.434 161.494C164.724 161.888 164.873 162.42 165.39 162.669ZM107.039 129.543C107.774 128.703 108.282 128.056 108.79 127.41C109.929 125.96 110.799 124.383 111.638 122.765C112.847 120.434 113.633 117.978 114.264 115.464C115.061 112.304 115.498 109.154 115.227 105.934C115.035 103.724 114.608 101.603 113.668 99.6427C112.767 97.7675 111.631 96.0431 110.07 94.6492C109.588 94.2237 109.05 93.8701 108.549 93.4769C106.997 92.2753 105.214 91.5854 103.341 91.0938C101.586 90.6263 99.7999 91.3243 98.5561 92.7865C97.4654 94.0591 96.7302 95.4908 96.2322 97.0577C95.7463 98.5866 95.4281 100.137 95.0417 101.684C94.6378 103.339 94.1777 104.966 93.5 106.55C92.1687 109.654 90.2193 112.428 88.5321 115.335C87.3382 117.386 86.1004 119.395 85.1 121.552C84.2695 123.351 83.8117 125.189 83.8578 127.128C83.9071 129.365 84.7104 131.309 86.0567 132.971C87.2079 134.389 88.7874 135.247 90.5857 135.681C93.2303 136.325 95.8649 136.062 98.4925 135.151C101.887 133.971 104.7 131.88 107.039 129.543ZM116.456 30.6289C116.216 30.8113 116.112 30.9607 116.108 31.1663C116.108 31.7202 116.059 32.2894 116.133 32.8264C116.503 35.474 117.337 37.9507 118.567 40.2793C119.923 42.8492 121.118 45.4786 121.387 48.4869C121.593 50.8457 121.532 53.1892 121.104 55.5485C120.613 58.2787 119.761 60.9186 118.84 63.5562C117.787 66.5628 116.484 69.4723 115.356 72.446C114.886 73.6939 114.36 74.9389 114.032 76.2093C113.217 79.3759 112.644 82.584 112.487 85.8233C112.35 88.6008 112.56 91.3451 113.098 94.051C113.459 95.8653 113.938 97.6414 114.466 99.402C114.801 100.527 115.167 101.644 115.515 102.756C115.688 102.721 115.718 102.625 115.754 102.511C116.329 100.635 117.197 98.8839 118.153 97.1527C119.151 95.3381 120.242 93.5738 121.328 91.8037C122.413 90.0337 123.611 88.3315 124.79 86.6243C125.596 85.4683 126.49 84.332 127.496 83.301C129.454 81.2858 131.311 79.1771 133.263 77.156C134.711 75.6629 135.94 74.0274 136.926 72.2135C138.204 69.8718 138.965 67.393 138.725 64.7687C138.633 63.7847 138.592 62.7977 138.438 61.8174C138.037 59.2152 137.297 56.7516 136.179 54.4039C135.251 52.468 134.213 50.6258 132.923 48.9294C132.299 48.1017 131.657 47.3062 131.009 46.5048C130.053 45.3423 129.073 44.2185 128.006 43.1622C126.52 41.7015 124.959 40.32 123.325 39.0176C121.891 37.8774 120.568 36.6061 119.441 35.1364C119.057 34.6304 118.679 34.1178 118.326 33.5789C117.695 32.6334 117.094 31.6425 116.456 30.6289ZM96.7819 136.486C95.5649 137.567 94.8198 138.669 94.1502 139.855C93.6143 140.795 93.2655 141.812 92.8169 142.785C91.5318 145.575 90.3962 148.418 88.8429 151.081C88.2032 152.171 87.5947 153.278 86.7299 154.22C85.8285 155.213 84.9397 156.219 84.0132 157.189C82.9702 158.284 81.7763 159.202 80.5881 160.076C79.129 161.153 77.7142 162.295 76.211 163.306C75.0158 164.112 73.8711 164.99 72.7139 165.856C71.9381 166.425 71.125 166.971 70.4246 167.623C69.54 168.448 68.6745 169.327 67.9528 170.291C66.9557 171.614 66.0588 173.018 66.7298 174.789C66.93 174.939 67.0575 175.242 67.5418 175.263C67.8877 175.118 68.3633 174.909 68.839 174.713C70.062 174.179 71.2657 173.59 72.508 173.124C74.3128 172.456 76.1496 171.867 77.9675 171.26C80.008 170.578 82.0425 169.915 84.0767 169.227C85.4803 168.751 86.8648 168.232 88.2044 167.586C89.9329 166.748 91.6046 165.821 93.1556 164.645C94.3127 163.767 95.4824 162.9 96.4949 161.85C97.4275 160.873 98.3475 159.885 99.1483 158.773C100.029 157.563 100.872 156.342 101.559 155.025C103.668 150.947 104.706 146.622 104.887 142.125C104.969 139.973 104.84 137.834 104.643 135.705C104.558 134.826 104.492 133.903 104.086 133.018C101.776 134.656 99.262 135.709 96.7819 136.486ZM140.205 63.9458C140.142 64.4412 140.054 64.8386 140.033 65.2505C139.922 67.5722 139.799 69.8946 139.489 72.2157C139.11 75.0388 138.688 77.8458 137.675 80.5575C136.922 82.5877 135.906 84.4719 134.428 86.1099C133.496 87.1489 132.401 87.9861 131.318 88.8475C129.946 89.9315 128.485 90.8839 127.113 91.9679C126.129 92.7487 125.138 93.536 124.154 94.3293C123.545 94.82 122.936 95.3232 122.346 95.8314C121.412 96.6341 120.446 97.3951 119.58 98.2746C119.077 98.7777 118.686 99.386 118.245 99.9351C117.511 100.85 116.919 101.825 116.478 102.891C116.067 103.874 115.606 104.86 115.941 105.973C116.057 106.339 115.987 106.779 115.991 107.189C115.991 108.285 115.984 109.386 115.984 110.507C117.777 110.455 119.504 110.047 121.212 109.584C122.815 109.146 124.385 108.616 125.897 107.872C127.62 107.029 129.291 106.076 130.855 104.937C131.698 104.32 132.498 103.663 133.304 102.998C134.374 102.113 135.394 101.193 136.389 100.225C137.199 99.4421 137.872 98.5306 138.582 97.6542C139.433 96.6014 140.228 95.5083 140.898 94.3605C142.025 92.4448 142.99 90.4517 143.774 88.3636C144.751 85.7785 145.175 83.1332 145.202 80.437C145.234 77.7342 144.734 75.1255 144.128 72.5293C143.634 70.4057 142.966 68.3547 142.057 66.399C141.631 65.4848 141.168 64.5852 140.205 63.9458ZM56.9403 124.108C53.6769 122.493 50.6842 120.662 48.1624 118.199C45.6342 115.718 43.7895 112.741 42.2959 109.526C41.955 109.565 41.6817 109.544 41.4468 109.633C39.9946 110.199 38.5169 110.704 37.1218 111.385C33.8071 113.021 30.5113 114.687 27.1647 116.244C26.4608 116.572 25.7887 116.967 25.1985 117.475C24.3316 118.218 24.4783 119.143 25.3649 119.637C27.9125 121.053 30.5873 122.194 33.4319 122.963C36.3761 123.764 39.1746 124.86 41.7617 126.485C43.2052 127.388 44.618 128.324 46.0308 129.26C46.9935 129.9 47.9325 130.64 49.1695 130.821C51.6519 128.557 54.0836 126.196 56.9403 124.108ZM110.821 67.9691C111.095 62.4016 112.073 57.097 113.513 51.9763C113.066 50.8953 112.259 50.2777 111.532 49.5869C110.986 49.0656 110.361 48.655 109.76 48.2055C108.822 47.5024 107.846 46.8265 106.846 46.2266C104.16 44.62 101.207 43.5396 98.2112 42.58C96.4052 42.0035 94.6354 41.3377 92.8837 40.6272C91.6744 40.1395 90.4468 39.684 88.9946 39.1174C90.0431 40.2185 90.9708 41.0591 91.7879 42.0059C92.8125 43.1955 93.7754 44.4136 94.7138 45.6705C95.9294 47.2967 96.9415 49.0409 97.9351 50.8048C99.3213 53.2796 100.621 55.8094 102.217 58.1596C103.132 59.4927 104.083 60.7737 105.28 61.8534C106.245 62.7291 107.229 63.5851 108.133 64.5142C108.729 65.1196 109.215 65.8311 109.737 66.503C110.083 66.9491 110.399 67.4031 110.821 67.9691ZM68.7558 168.246C68.9667 168.233 69.0521 168.103 69.1564 167.991C70.0149 167.044 71.0997 166.369 72.0966 165.588C73.2042 164.725 74.3684 163.927 75.495 163.094C76.2952 162.499 77.0764 161.861 77.8955 161.283C79.0162 160.481 80.0424 159.555 81.0815 158.665C81.764 158.083 82.2642 157.294 83.066 156.835C83.2202 156.745 83.3859 156.579 83.44 156.42C83.6689 155.784 84.2046 155.398 84.6089 154.913C84.8294 154.651 85.1125 154.435 85.283 154.138C86.0631 152.835 86.937 151.594 87.7483 150.307C88.9744 148.36 90.0945 146.364 91.1521 144.334C91.8025 143.094 92.3156 141.775 93.0035 140.558C93.7583 139.206 94.5253 137.841 95.6231 136.649C95.5051 136.637 95.4677 136.627 95.4431 136.641C93.5213 137.397 91.6885 138.347 89.9068 139.43C87.9279 140.638 86.1817 142.124 84.4483 143.646C82.9423 144.975 81.9316 146.753 80.5197 148.169C80.4707 148.222 80.4092 148.275 80.3789 148.345C79.6913 149.588 78.766 150.67 77.9532 151.82C77.0732 153.067 76.2183 154.338 75.438 155.63C74.3714 157.405 73.4672 159.27 72.5504 161.123C71.8946 162.444 71.2576 163.783 70.4895 165.049C69.8802 166.081 69.3397 167.165 68.7558 168.246ZM102.088 59.972C102.141 59.7261 102.139 59.5645 102.039 59.4585C101.386 58.7881 100.967 57.9543 100.518 57.1535C98.5938 53.7214 96.9039 50.1509 94.7577 46.8441C93.735 45.2624 92.5891 43.7627 91.3573 42.3553C90.4334 41.2966 89.3436 40.3785 88.2846 39.4524C87.4011 38.6776 86.3718 38.1978 85.0844 38.5113C84.9433 38.6628 84.7961 38.821 84.6673 38.9594C84.5437 39.5704 84.748 40.0934 84.8716 40.615C85.4295 42.8219 86.1482 44.9819 86.5701 47.2344C87.0249 49.6653 87.7271 52.0192 88.6025 54.313C88.8389 54.9398 89.0448 55.5996 89.4599 56.11C92.9615 56.2365 99.0825 58.1044 102.088 59.972ZM49.38 67.295C49.6141 69.4093 50.2626 71.3931 50.9236 73.3761C51.9244 76.3655 53.2031 79.2201 54.932 81.8176C57.1586 81.1243 59.3613 80.5195 61.7627 80.4941C60.6898 75.4553 59.952 70.4213 59.097 65.4504C55.9888 64.9767 53.0473 65.5572 50.1712 66.4449C49.9136 66.7217 49.7051 66.9458 49.38 67.295ZM105.566 142.426C106.452 141.689 107.222 141.176 107.853 140.46C108.16 140.105 108.286 139.681 108.592 139.339C109.812 138.003 110.658 136.427 111.404 134.821C113.193 130.999 114.036 127.009 113.78 122.867C113.765 122.619 113.694 122.368 113.648 122.116C113.601 121.863 113.679 121.579 113.508 121.309C111.292 125.742 108.398 129.543 104.646 132.63C105.686 135.779 105.454 139.01 105.566 142.426ZM26.0823 120.54C26.2726 120.915 26.3375 121.172 26.5008 121.349C27.4798 122.349 28.5694 123.242 29.401 124.374C29.6719 124.738 30.1379 124.791 30.4638 125.082C31.1783 125.724 31.9174 126.34 32.6995 126.921C33.8946 127.815 35.1203 128.662 36.4253 129.387C39.4349 131.061 42.5951 132.322 46.1176 132.653C46.5959 132.693 47.0558 132.752 47.4333 132.661C47.8504 132.213 48.2062 131.831 48.6478 131.357C47.8266 131.169 47.171 130.804 46.5708 130.404C45.0079 129.365 43.4633 128.294 41.8699 127.3C40.2141 126.273 38.5034 125.342 36.6469 124.694C34.7219 124.019 32.7609 123.458 30.8298 122.802C29.2165 122.257 27.6878 121.508 26.0823 120.54ZM87.8419 53.9975C87.0878 53.7128 86.3585 53.4142 85.6172 53.1661C82.6584 52.1669 79.5816 51.7225 76.4171 51.7749C75.7904 51.7813 75.1576 51.8067 74.5319 51.9001C73.0324 52.1143 71.5395 52.3716 70.0527 52.6099C69.458 52.7078 68.8694 52.799 68.1648 53.0652C68.3827 53.1206 68.4451 53.1542 68.501 53.1571C71.2515 53.2725 73.5781 54.3469 75.6505 56.0089C76.0512 56.3334 76.4634 56.5702 76.9558 56.7585C78.3787 56.3498 79.8481 56.2183 81.3109 56.0561C83.2944 55.8379 85.2805 55.856 87.2613 55.9553C87.6773 55.9739 88.1186 56.0284 88.6125 55.7997C88.2464 55.2367 88.0786 54.6493 87.8419 53.9975ZM67.4568 59.2498C70.0543 58.4223 72.6535 57.7565 75.2525 57.0658C75.155 56.6671 74.9045 56.4581 74.6616 56.3792C74.1943 56.2143 73.9048 55.8458 73.5234 55.5886C72.373 54.811 71.1985 54.0972 69.7626 53.8906C68.2335 53.6709 66.7004 53.6444 65.1578 53.8923C64.8814 54.1515 64.5799 54.3874 64.3671 54.7922C64.7352 56.6744 66.0153 57.9545 67.4568 59.2498ZM117.804 99.3268C117.972 99.3105 118.064 99.2117 118.068 99.0434C117.901 99.0596 117.827 99.1636 117.804 99.3268Z" fill="#FEFBF7"/>
<path d="M166.124 62.5735C166.793 61.8551 167.296 61.3146 167.799 60.7742C167.481 61.8325 166.939 62.7177 166.171 63.4669C166.088 63.8453 166.055 64.1958 166.233 64.6208C166.771 63.8791 167.204 63.1126 167.924 62.5902C168.051 62.8689 167.905 63.1017 167.771 63.3338C167.484 63.8177 167.273 64.3843 166.887 64.7747C165.825 65.8527 166.136 67.0912 166.071 68.4955C167.128 67.5733 168.057 66.7647 169.003 65.9363C168.946 66.9044 167.971 68.0022 166.03 69.2822C165.798 71.9349 165.474 74.6617 165.076 77.4675C167.044 76.3353 168.522 74.722 170.453 73.6293C170.565 74.189 170.226 74.4271 169.961 74.6359C168.509 75.7808 167.107 76.9974 165.529 77.9508C165.165 78.1655 164.882 78.4438 164.807 78.9027C164.386 81.3302 163.836 83.7469 163.198 86.1439C163.504 86.3061 163.7 86.1076 163.916 85.9889C166.556 84.5363 169.102 82.9213 171.358 80.8757C171.708 80.5622 172.083 80.2348 172.584 80.0741C172.737 80.4135 172.503 80.5893 172.337 80.7673C171.055 82.1821 169.522 83.2759 167.951 84.3222C166.386 85.3743 164.776 86.3481 162.996 86.9775C162.301 89.2721 161.624 91.5221 160.887 93.9374C161.835 93.7376 162.664 93.5759 163.482 93.3776C167.028 92.5118 170.332 91.0009 173.458 89.0401C174.056 88.662 174.056 88.6495 174.657 88.5949C174.55 88.9996 174.223 89.1748 173.908 89.3865C170.163 91.926 166.135 93.6732 161.75 94.4957C161.496 94.5421 161.235 94.5825 160.988 94.6596C160.685 94.7462 160.691 94.7645 160.395 95.5228C163.097 95.137 165.659 94.3987 168.156 93.4277C170.634 92.4641 172.833 90.957 175.165 89.6598C175.004 90.211 174.554 90.4807 174.147 90.7664C169.971 93.6677 165.423 95.5082 160.445 96.0364C160.37 96.0409 160.302 96.0761 160.129 96.1238C159.402 98.3021 158.663 100.531 157.864 102.937C160.626 102.449 163.197 101.952 165.727 101.172C168.257 100.392 170.64 99.2539 173.023 98.0533C172.749 98.5365 172.368 98.8829 171.911 99.1592C169.15 100.88 166.132 101.87 163.043 102.621C161.303 103.043 159.537 103.317 157.697 103.57C157.114 105.341 156.631 107.144 156.174 109.082C158.886 108.484 161.441 107.715 163.95 106.706C166.459 105.697 168.803 104.374 171.07 102.844C170.926 103.239 170.674 103.509 170.354 103.727C170.039 103.939 169.757 104.192 169.449 104.41C165.556 107.095 161.285 108.751 156.72 109.566C156.503 109.61 156.286 109.629 156.019 109.676C155.848 110.489 155.683 111.283 155.5 112.172C160.031 111.583 164.064 109.792 168.059 107.854C166.307 109.422 164.213 110.35 162.088 111.211C159.95 112.074 157.74 112.61 155.495 112.819C155.045 114.185 154.48 118.706 154.489 120.734C154.734 120.937 154.973 120.73 155.196 120.654C156.761 120.144 158.325 119.608 159.845 118.957C160.296 118.762 160.747 118.58 161.355 118.556C160.329 119.507 159.154 119.926 157.998 120.362C156.842 120.799 155.654 121.144 154.387 121.562C154.269 124.432 154.307 127.311 154.537 130.235C155.9 129.992 156.945 129.033 158.426 128.826C157.24 129.911 155.923 130.407 154.688 131.004C154.629 131.269 154.663 131.485 154.77 131.696C154.876 131.696 155.007 131.732 155.093 131.689C156.038 131.241 156.938 130.664 158.052 130.423C157.574 130.987 157.019 131.306 156.47 131.619C155.946 131.918 155.415 132.199 154.885 132.492C154.893 134.409 156.197 140.673 157.013 142.678C157.656 142.415 158.072 141.855 158.613 141.424C158.679 141.719 158.52 141.953 158.398 142.171C158.252 142.429 158.018 142.642 157.822 142.878C157.632 143.107 157.43 143.337 157.222 143.586C159.396 151.155 163.003 158.003 166.689 164.828C166.106 164.825 165.885 164.446 165.657 164.049C164.108 161.435 162.7 158.731 161.342 156.011C160.321 153.963 159.385 151.871 158.567 149.729C158.382 149.236 158.105 148.892 157.643 148.608C155.762 147.458 153.967 146.19 152.368 144.661C151.841 144.157 151.369 143.631 151.032 142.886C152.141 143.809 153.267 144.601 154.313 145.49C155.322 146.345 156.453 147.055 157.504 147.814C157.615 147.745 157.652 147.73 157.676 147.704C157.701 147.678 157.719 147.633 157.713 147.615C156.947 145.14 156.107 142.682 155.515 140.172C152.355 138.419 149.551 136.297 147.029 133.796C146.489 133.256 146.085 132.608 145.595 132.04C145.488 131.915 145.486 131.704 145.502 131.485C146.903 133.063 148.457 134.451 150.122 135.733C151.737 136.981 153.395 138.145 155.169 139.234C155.211 139.064 155.229 139.031 155.223 139.001C154.809 136.891 154.778 136.936 152.965 135.762C151.64 134.896 150.333 133.984 149.136 132.942C148.535 132.418 147.896 131.933 147.326 131.401C146.278 130.424 145.225 129.429 144.546 128.107C147.595 131.086 150.901 133.726 154.595 136.051C154.084 133.063 153.742 130.146 153.617 127.209C150.421 125.608 147.741 123.441 145.318 120.947C144.64 120.253 144.012 119.506 143.506 118.665C143.392 118.473 143.303 118.292 143.424 118.023C143.918 118.311 144.276 118.719 144.628 119.121C146.281 121.045 148.119 122.758 150.165 124.273C151.066 124.941 152.022 125.512 152.935 126.155C153.116 126.287 153.31 126.381 153.557 126.317C153.641 125.988 153.618 125.659 153.54 125.316C150.961 123.908 148.689 122.096 146.636 119.997C145.707 119.044 144.796 118.072 144.04 116.959C143.913 116.768 143.812 116.599 143.883 116.284C144.414 116.607 144.835 117.011 145.181 117.445C146.465 119.073 148.062 120.378 149.554 121.795C150.714 122.889 152.064 123.717 153.49 124.69C153.676 123.571 153.547 122.552 153.673 121.561C153.114 120.953 152.391 120.673 151.772 120.256C149.946 119.021 148.132 117.772 146.601 116.184C145.904 115.46 145.188 114.743 144.682 113.852C144.574 113.654 144.461 113.474 144.57 113.231C144.822 113.047 144.967 113.207 145.105 113.385C145.936 114.481 146.829 115.51 147.851 116.439C149.324 117.776 150.944 118.917 152.595 120.014C152.913 120.225 153.159 120.565 153.694 120.67C153.931 117.948 154.194 115.287 154.68 112.675C152.344 110.73 149.966 108.906 148.416 106.266C148.321 106.104 148.17 105.889 148.421 105.581C149.29 106.121 149.599 107.16 150.314 107.814C151.06 108.498 151.542 109.44 152.38 110.025C153.205 110.598 153.958 111.275 154.803 111.977C155.379 108.993 156.124 106.166 156.993 103.382C155.73 101.945 154.154 100.819 153.469 98.9621C153.87 98.7078 154.064 98.8642 154.197 99.099C154.767 100.123 155.65 100.885 156.325 101.822C156.526 102.109 156.759 102.4 157.244 102.495C158.098 99.9298 158.951 97.3768 159.804 94.8238C159.366 93.8853 158.257 93.5533 157.986 92.5364C157.966 92.4567 158.058 92.3454 158.112 92.199C158.973 92.5458 159.342 93.3826 159.944 93.9814C160.232 93.6592 160.31 93.3496 160.324 92.9442C159.406 92.4825 158.716 91.7521 158.194 90.5635C159.31 91.0009 159.791 91.8683 160.524 92.5277C161.209 90.4826 161.833 88.491 162.32 86.4951C161.883 85.7184 161.139 85.1717 161.171 84.118C162.022 84.1977 161.958 85.1227 162.594 85.4705C162.732 84.9581 162.888 84.4758 163 83.9898C164.667 76.9505 165.583 69.8628 165.399 62.6978C165.326 59.9575 165.339 57.212 165.539 54.4554C165.587 53.8114 165.823 53.2185 166.034 52.6146C166.106 52.3987 166.24 52.2163 166.501 52.2256C166.771 52.502 166.488 52.7306 166.41 52.9406C166.03 53.9778 165.83 55.0229 165.898 56.1205C166.005 57.9688 166.038 59.8215 166.108 61.672C166.079 61.8791 166.1 62.0957 166.124 62.5735Z" fill="#FEFBF7"/>
<path d="M103.878 148.302C103.28 149.234 102.813 150.215 102.171 151.106C101.321 152.272 100.414 153.372 99.3945 154.392C98.0558 155.742 96.6538 156.983 95.0695 158.031C92.4371 159.763 89.5689 160.967 86.656 162.056C86.5694 162.086 86.4637 162.074 86.3396 162.081C86.5214 161.684 86.9065 161.686 87.197 161.563C89.6509 160.526 92.0541 159.393 94.3233 157.95C96.907 156.308 99.1008 154.228 100.987 151.849C103.05 149.254 104.371 146.323 104.657 143.018C104.673 142.799 104.727 142.578 104.755 142.358C104.778 142.183 104.795 142.001 104.817 141.801C105.066 141.86 104.994 142.039 104.995 142.151C105.018 145.83 104.431 149.409 102.674 152.783C101.471 155.096 99.7467 156.986 97.7973 158.703C94.704 161.421 91.0649 163.101 87.3627 164.686C83.2216 166.464 79.1061 168.303 74.9714 170.1C74.3039 170.389 73.6561 170.77 72.8667 170.711C74.4291 169.926 75.9852 169.124 77.5666 168.37C81.5015 166.485 85.5067 164.777 89.5118 163.057C92.2498 161.879 94.8545 160.441 97.1429 158.499C100.385 155.746 102.894 152.483 103.878 148.302Z" fill="#FEFBF7"/>
<path d="M79.2866 112.29C76.9147 111.554 74.6548 110.861 72.4073 110.155C66.5052 108.305 60.6032 106.467 54.713 104.579C50.0308 103.079 45.5423 101.144 41.3209 98.6835C39.5474 97.6446 37.8531 96.4827 36.3299 95.0867C36.2046 94.9697 36.0852 94.8338 35.8655 94.6042C36.9107 94.8654 37.5446 95.5182 38.2573 96.0107C42.9216 99.2413 48.0472 101.561 53.4217 103.387C59.9296 105.593 66.4856 107.659 73.0053 109.815C74.9356 110.446 76.8421 111.166 78.7543 111.842C78.9349 111.9 79.1213 111.926 79.2866 112.29Z" fill="#FEFBF7"/>
<path d="M61.2415 63.6347C61.4444 63.4922 61.5878 63.5646 61.6943 63.6516C63.1148 64.7676 64.718 65.6118 66.2784 66.502C69.7489 68.4981 73.1586 70.5848 76.5561 72.697C79.0043 74.2187 81.422 75.7857 83.8032 77.4046C85.8906 78.8233 87.9415 80.2938 89.9801 81.7774C93.6507 84.4393 96.8501 87.6199 100.111 90.7472C100.136 90.7706 100.143 90.8137 100.168 90.8495C99.8581 90.8553 99.7373 90.6076 99.5618 90.4439C97.7682 88.7096 95.7971 87.166 93.8873 85.5691C92.4535 84.3792 90.9705 83.2172 89.4083 82.1779C87.8523 81.132 86.3634 80.0013 84.8196 78.9423C83.1569 77.797 81.4945 76.6641 79.7953 75.5707C77.5214 74.1134 75.2354 72.6816 72.9372 71.2629C70.5516 69.7872 68.1414 68.3379 65.7374 66.882C64.4075 66.0838 63.1446 65.1885 61.8878 64.2866C61.6254 64.1156 61.3628 63.9322 61.2415 63.6347Z" fill="#FEFBF7"/>
<path d="M125.155 86.4593C125.198 85.8469 125.528 85.4039 125.797 84.9646C127.851 81.5868 128.792 77.9208 129.16 74.09C129.561 69.9709 129.163 65.9307 128.307 61.9678C127.066 56.2666 125.416 50.6895 123.376 45.2539C122.929 44.0608 122.29 42.9602 121.904 41.7261C122.176 41.6351 122.222 41.8378 122.285 41.9709C125.619 48.8476 127.815 56.1408 129.269 63.7026C130.125 68.1448 130.218 72.6513 129.349 77.1967C128.92 79.4442 128.318 81.6522 127.086 83.6552C126.5 84.5989 125.965 85.5894 125.155 86.4593Z" fill="#FEFBF7"/>
<path d="M89.4591 135.501C87.4827 135.838 85.7537 136.097 84.038 136.442C78.0115 137.655 72.0053 139.011 66.0054 140.384C61.1695 141.489 56.3141 142.502 51.5178 143.816C49.9334 144.246 48.3683 144.732 46.7719 145.201C46.7791 144.728 47.1714 144.835 47.3816 144.76C51.1351 143.446 54.9473 142.397 58.7981 141.469C65.8373 139.772 72.8895 138.136 79.9749 136.691C82.6753 136.144 85.3887 135.645 88.1235 135.401C88.4831 135.367 88.8484 135.277 89.4591 135.501Z" fill="#FEFBF7"/>
<path d="M84.8085 68.3132C86.7097 69.2398 88.3363 70.4993 90.0053 71.6755C90.949 72.3349 91.7832 73.1497 92.7331 73.8026C94.0205 74.6842 95.149 75.749 96.3507 76.7226C98.1721 78.2006 99.9204 79.7697 101.467 81.5556C101.586 81.6915 101.693 81.8406 101.825 81.9633C103.587 83.6187 105.116 85.4864 106.639 87.373C108.187 89.2831 109.575 91.2894 110.767 93.4438C111.014 93.8828 111.249 94.3351 111.465 94.7945C111.573 95.0181 111.688 95.2599 111.524 95.5862C111.156 95.3654 111.034 94.9688 110.85 94.6502C109.418 92.0874 107.734 89.707 105.89 87.4477C104.657 85.9417 103.338 84.5153 102.019 83.0764C99.9143 80.7702 97.6083 78.6931 95.284 76.6357C94.0499 75.5459 92.7665 74.4839 91.4343 73.4868C90.515 72.8012 89.5831 72.1038 88.7003 71.3663C87.8677 70.6756 86.9742 70.0754 86.111 69.4176C85.6728 69.0579 85.2467 68.6728 84.8085 68.3132Z" fill="#FEFBF7"/>
<path d="M115.392 111.121C112.757 103.42 107.639 98.4739 99.7437 96.6125C99.7462 96.2701 99.9458 96.3702 100.057 96.351C100.206 96.3297 100.349 96.3523 100.498 96.3807C102.618 96.7082 104.629 97.3409 106.422 98.4595C107.803 99.3165 109.135 100.251 110.277 101.415C112.681 103.866 114.659 106.585 115.479 110.046C115.499 110.15 115.562 110.246 115.639 110.428C118.625 107.207 120.763 103.489 122.985 99.6284C122.328 102.524 118.465 108.953 115.392 111.121Z" fill="#FEFBF7"/>
<path d="M55.1862 103.001C55.6677 102.785 55.8739 102.916 56.073 102.966C64.5179 105.243 72.8785 107.749 81.0767 110.719C83.3318 111.53 85.5141 112.495 87.6357 113.588C88.1412 113.85 88.6286 114.157 89.0975 114.484C88.4513 114.398 87.8473 114.204 87.2674 113.946C82.8772 111.943 78.2512 110.508 73.6919 108.926C68.0613 106.973 62.2923 105.407 56.6438 103.523C56.2079 103.375 55.7842 103.214 55.1862 103.001Z" fill="#FEFBF7"/>
<path d="M68.4989 168.684C69.2485 167.967 70.0132 167.485 70.7655 167.005C74.5578 164.593 78.5025 162.484 82.6255 160.763C85.3268 159.637 88.028 158.498 90.5254 156.911C92.9303 155.385 95.1462 153.622 96.9722 151.421C98.0567 150.117 99.1098 148.771 100.031 147.34C100.459 146.68 100.955 146.059 101.463 145.449C101.207 146.405 100.645 147.21 100.095 147.99C99.0066 149.537 97.8997 151.067 96.6551 152.492C93.7733 155.79 90.2534 158.123 86.323 159.851C82.9178 161.343 79.4614 162.701 76.1647 164.454C73.8435 165.688 71.535 166.959 69.3469 168.428C69.1126 168.579 68.9285 168.777 68.4989 168.684Z" fill="#FEFBF7"/>
<path d="M125.048 54.8269C126.847 59.8543 127.755 65.072 127.473 70.5102C127.335 73.226 127.185 75.9301 126.693 78.6236C125.838 83.3181 124.054 87.676 121.442 91.7287C121.381 91.8195 121.282 91.8877 121.067 92.0811C121.407 91.3636 121.674 90.7875 121.947 90.2172C122.244 89.6081 122.548 89.0048 122.846 88.3957C125.037 83.8515 126.288 79.0959 126.619 74.1341C126.837 70.8283 127.018 67.5248 126.703 64.2386C126.479 61.9241 126.125 59.6361 125.597 57.3833C125.39 56.5368 125.225 55.6815 125.048 54.8269Z" fill="#FEFBF7"/>
<path d="M47.5726 139.524C48.3835 139.308 49.0213 139.164 49.6399 138.965C51.8545 138.26 53.9988 137.366 56.1366 136.441C59.7881 134.86 63.4203 133.223 67.1677 131.903C70.8595 130.606 74.637 129.757 78.4606 129.161C78.9812 129.08 79.5149 129.061 80.0567 129.221C78.9482 129.468 77.8401 129.752 76.7312 129.962C71.4719 130.967 66.4257 132.738 61.4765 134.858C58.4056 136.169 55.3541 137.546 52.2255 138.692C51.2054 139.071 50.1787 139.418 49.1133 139.631C48.6551 139.734 48.1908 139.855 47.5726 139.524Z" fill="#FEFBF7"/>
<path d="M120.787 36.2649C121.455 36.5797 121.71 37.1867 122.05 37.6642C124.004 40.3848 125.846 43.1868 127.35 46.2019C130.58 52.7104 132.096 59.6387 131.496 67.0917C131.414 68.1233 131.407 69.1629 131.189 70.2151C130.84 70.1239 130.986 69.8538 130.991 69.6856C131.014 68.4272 131.043 67.1623 131.104 65.9018C131.355 60.5106 130.281 55.4102 128.502 50.4639C127.279 47.0586 125.495 43.9545 123.6 40.9192C122.678 39.4561 121.805 37.9651 120.754 36.5905C120.729 36.5547 120.771 36.4588 120.787 36.2649Z" fill="#FEFBF7"/>
<path d="M100.766 87.3273C100.524 87.236 100.443 87.2345 100.393 87.1878C98.8307 85.6325 97.0483 84.3265 95.3761 82.902C94.2863 81.9717 93.129 81.1012 91.9903 80.2235C90.7076 79.2361 89.4066 78.2685 88.0689 77.3528C85.9999 75.9269 83.8941 74.5405 81.6665 73.3479C77.542 71.1358 73.3992 68.9435 69.2809 66.7248C68.8129 66.4727 68.2899 66.2922 67.8126 65.7733C70.111 66.6633 72.145 67.7368 74.2155 68.7584C77.708 70.4794 81.1703 72.2705 84.4744 74.3197C86.3106 75.4547 88.0919 76.6613 89.8367 77.9322C92.1944 79.6519 94.4727 81.4695 96.6776 83.3785C97.9617 84.4901 99.2947 85.5366 100.401 86.8267C100.489 86.9334 100.559 87.0474 100.766 87.3273Z" fill="#FEFBF7"/>
<path d="M106.884 130.486C106.707 130.764 106.586 130.971 106.433 131.222C107.773 133.407 108.122 135.838 107.847 138.424C107.683 139.946 107.445 140.781 106.7 141.884C106.893 140.808 107.094 139.975 107.184 139.123C107.274 138.272 107.271 137.419 107.255 136.568C107.239 135.679 107.118 134.803 106.854 133.954C106.61 133.159 106.371 132.359 106.009 131.627C105.519 131.601 105.325 132.01 105.023 132.196C103.55 133.137 101.942 133.556 100.269 133.768C96.2532 134.27 92.4981 133.611 89.0634 131.626C87.5209 130.728 86.199 129.582 85.0851 128.173C85.6792 128.592 86.2856 128.998 86.8613 129.436C91.1735 132.781 96.0763 133.982 101.605 132.873C103.506 132.505 105.196 131.595 106.884 130.486Z" fill="#FEFBF7"/>
<path d="M96.6911 94.6331C96.5105 95.1166 96.2244 95.0465 95.9887 95.0481C95.0957 95.0638 94.2374 94.866 93.3913 94.6427C88.0043 93.2835 82.8893 91.2925 78.204 88.3616C75.9364 86.9477 73.8339 85.3311 71.7923 83.6115C69.9888 82.1015 68.2406 80.5448 66.5475 78.9288C66.2088 78.6006 65.8642 78.2914 65.5684 77.9172C66.9164 79.1867 68.4971 80.1937 69.839 81.4698C71.0178 82.5939 72.313 83.5805 73.5958 84.5678C77.1497 87.2799 81.0267 89.4938 85.1957 91.2052C88.0499 92.379 90.9641 93.3751 93.9929 94.0845C94.8575 94.3005 95.7523 94.4464 96.6911 94.6331Z" fill="#FEFBF7"/>
<path d="M82.7063 144.965C82.3345 145.591 81.7359 145.907 81.1748 146.258C78.2898 148.087 75.1692 149.375 71.9975 150.53C67.1627 152.288 62.1946 153.22 57.1312 153.374C54.463 153.459 51.8223 153.225 49.2167 152.789C48.8622 152.729 48.5019 152.701 48.1946 152.415C60.3911 154.038 71.8383 151.292 82.7063 144.965Z" fill="#FEFBF7"/>
<path d="M128.585 82.7487C128.879 81.8162 129.517 81.1307 129.918 80.3225C131.843 76.4542 132.662 72.3907 132.833 68.1792C133.077 62.1273 132.101 56.3164 130.233 50.6834C130.143 50.4149 129.979 50.1509 130.05 49.8354C130.33 49.8623 130.363 50.103 130.434 50.3042C132.014 54.5975 133.247 58.9864 133.423 63.6688C133.571 67.5375 133.47 71.3838 132.469 75.203C131.903 77.3593 131.106 79.4111 129.867 81.2965C129.512 81.8405 129.095 82.2887 128.585 82.7487Z" fill="#FEFBF7"/>
<path d="M37.164 90.9711C38.0746 90.8359 38.9073 90.9479 39.7341 91.0914C44.1412 91.8051 48.4648 92.8348 52.6629 94.2889C57.4652 95.9496 62.1158 97.9242 66.6271 100.212C66.8829 100.34 67.1567 100.411 67.2719 100.727C63.1463 99.0946 59.1244 97.3002 54.9629 95.7941C49.3189 93.7544 43.495 92.2854 37.5396 91.2722C37.4152 91.2423 37.248 91.271 37.164 90.9711Z" fill="#FEFBF7"/>
<path d="M66.7283 137.583C56.1225 140.708 45.3742 143.293 34.9289 147.466C35.0541 146.991 35.3825 146.941 35.6109 146.821C37.6475 145.728 39.8059 144.995 41.9641 144.237C49.9787 141.442 58.1698 139.465 66.3934 137.616C66.5111 137.59 66.6166 137.59 66.7283 137.583Z" fill="#FEFBF7"/>
<path d="M91.1118 99.5171C89.7514 99.3304 88.5741 98.884 87.379 98.5071C82.5115 96.9675 77.9651 94.7683 73.6614 92.1069C71.8875 91.0057 70.1867 89.8006 68.5836 88.4529C66.6862 86.8677 65.0715 85.0543 63.5608 83.1166C63.1895 82.6473 62.6276 82.3199 62.5204 81.6174C62.819 81.6991 62.9825 81.9009 63.146 82.0902C63.9565 83.006 64.7487 83.9416 65.5715 84.8443C66.7208 86.1007 67.9439 87.2906 69.2829 88.3181C70.7657 89.4553 72.3036 90.5208 73.8903 91.5088C78.044 94.0795 82.3976 96.2342 87.0062 97.9012C88.1645 98.3175 89.329 98.7273 90.4995 99.1305C90.6989 99.2058 90.9226 99.2423 91.1118 99.5171Z" fill="#FEFBF7"/>
<path d="M120.694 52.1357C121.259 52.7491 121.687 54.3915 122.373 57.5805C124.139 65.7648 123.651 73.9781 121.582 82.23C121.638 81.7163 121.682 81.1909 121.751 80.6764C122.095 78.0544 122.513 75.4403 122.726 72.8074C123.076 68.517 122.813 64.2944 122.146 60.1022C121.76 57.6359 121.304 55.1799 120.676 52.7716C120.63 52.5689 120.547 52.3561 120.694 52.1357Z" fill="#FEFBF7"/>
<path d="M59.7184 66.6773C60.5694 68.3675 61.4724 69.7501 62.529 71.0181C63.1265 71.735 63.6751 72.5045 64.34 73.1615C66.2345 75.039 68.1904 76.8632 70.3418 78.4522C73.0372 80.4381 75.8483 82.2494 78.8298 83.802C80.0148 84.4161 81.1695 85.0755 82.3363 85.7217C82.4611 85.7889 82.5432 85.9146 82.7814 86.1368C80.8381 85.3559 79.166 84.4473 77.4881 83.5701C75.7353 82.6475 73.9701 81.7257 72.345 80.603C70.9824 79.6638 69.5893 78.7574 68.3731 77.6231C67.9218 77.2022 67.3789 76.9047 66.9155 76.5093C65.2933 75.1192 63.8553 73.5691 62.5027 71.9146C61.5653 70.7701 60.6833 69.5914 60.0042 68.2702C59.7945 67.8413 59.554 67.4328 59.7184 66.6773Z" fill="#FEFBF7"/>
<path d="M70.0772 72.2334C72.3739 73.5153 74.4673 74.915 76.5605 76.2897C78.4911 77.5498 80.4033 78.8295 82.2424 80.213C83.9938 81.5271 85.8002 82.7696 87.5823 84.0508C89.1267 85.1596 90.6713 86.2807 92.228 87.3763C93.7345 88.4251 95.2592 89.4417 96.7656 90.4781C96.9406 90.5921 97.1401 90.6922 97.1926 90.9378C96.5177 91.0087 96.1455 90.4649 95.6771 90.1755C93.9347 89.1033 92.2531 87.9281 90.5533 86.785C89.0034 85.7449 87.4412 84.7056 85.9158 83.6269C84.6528 82.7316 83.4387 81.7712 82.188 80.8627C80.9936 79.9945 79.775 79.1774 78.5684 78.3222C77.5431 77.5994 76.5238 76.8576 75.4861 76.1355C74.0421 75.1327 72.5857 74.1307 71.1234 73.1477C70.7734 72.9072 70.4662 72.6207 70.0772 72.2334Z" fill="#FEFBF7"/>
<path d="M42.2869 106.299C43.349 106.403 43.8645 107.007 44.4645 107.407C48.3334 109.957 52.4693 111.968 56.9273 113.37C60.6879 114.551 64.5315 115.38 68.4879 115.759C68.9041 115.803 69.3146 115.89 69.7012 116.067C64.7929 116.017 60.0615 115.136 55.4837 113.562C50.7191 111.924 46.3991 109.531 42.2869 106.299Z" fill="#FEFBF7"/>
<path d="M117.389 93.2084C116.271 91.4517 115.244 82.084 115.533 76.7764C115.782 72.2431 116.703 67.3769 117.614 66.1087C116.678 70.7268 116.038 75.2525 116.144 79.8083C116.243 84.3208 116.8 88.7686 117.389 93.2084Z" fill="#FEFBF7"/>
<path d="M37.3022 149.218C48.7828 150.741 60.165 150.078 71.5095 145.97C69.8602 147.264 62.9795 149.207 57.2517 149.873C50.526 150.655 43.8367 150.807 37.3022 149.218Z" fill="#FEFBF7"/>
<path d="M83.9315 125.702C83.3952 126.039 83.0279 125.943 82.6618 125.959C77.1949 126.155 71.7832 126.846 66.5788 128.9C62.9815 130.323 59.6131 132.243 56.2825 134.21C56.2981 133.929 56.5636 133.807 56.7731 133.657C56.9886 133.501 57.1981 133.352 57.4262 133.208C60.8542 131.073 64.3963 129.143 68.1486 127.705C70.8007 126.693 73.5448 126.162 76.3158 125.803C78.2746 125.549 80.2279 125.351 82.1964 125.414C82.7182 125.445 83.2644 125.437 83.9315 125.702Z" fill="#FEFBF7"/>
<path d="M85.2673 120.268C91.8961 126.623 99.6628 129.251 109.077 126.561C107.875 127.286 106.596 127.742 105.246 127.984C102.267 128.517 99.3478 128.256 96.4918 127.537C93.8971 126.889 91.5026 125.825 89.314 124.301C87.9071 123.321 86.7517 122.083 85.4982 120.951C85.3165 120.794 85.122 120.6 85.2673 120.268Z" fill="#FEFBF7"/>
<path d="M35.7865 92.2868C39.6633 92.186 60.3123 98.8796 62.899 101.058C54.0442 97.6362 44.9786 94.7929 35.7865 92.2868Z" fill="#FEFBF7"/>
<path d="M112.956 95.3198C112.546 95.2073 112.524 94.9288 112.44 94.6913C111.422 91.8977 109.886 89.4082 108.196 87.0211C106.822 85.0755 105.331 83.23 103.717 81.4788C102.882 80.5769 101.979 79.7474 101.168 78.8316C99.6352 77.0943 97.9181 75.5419 96.3114 73.8836C98.2409 75.5726 100.434 76.9663 102.057 79.0091C102.485 79.5434 103.054 79.9512 103.531 80.4453C106.738 83.7312 109.539 87.3397 111.671 91.454C112.268 92.6497 112.84 93.8718 112.956 95.3198Z" fill="#FEFBF7"/>
<path d="M106.468 68.5143C103.132 65.2793 99.7218 62.1357 95.4006 60.1599C91.1292 58.206 86.6365 56.9806 81.9034 56.4414C82.06 56.0215 82.3223 56.18 82.4962 56.1946C88.3696 56.6286 93.7862 58.3712 98.7637 61.3405C100.381 62.3079 101.901 63.418 103.219 64.7329C104.38 65.9017 105.663 66.976 106.468 68.5143Z" fill="#FEFBF7"/>
<path d="M85.0444 118.219C80.2267 118.195 75.6867 119.145 71.2665 120.835C66.8711 122.511 62.7672 124.742 59.0077 127.8C58.8768 127.185 59.3584 126.944 59.6539 126.715C60.571 125.994 61.5068 125.291 62.4871 124.666C67.2093 121.657 72.2512 119.488 77.6839 118.422C79.8892 117.991 82.097 117.785 84.3147 117.92C84.5197 117.926 84.7549 117.862 85.0444 118.219Z" fill="#FEFBF7"/>
<path d="M119.697 95.3965C118.87 92.9379 118.488 90.4028 118.323 87.8237C117.846 80.5083 117.952 73.1706 118.405 65.812C118.41 65.6686 118.446 65.5171 118.492 65.1907C118.713 65.5322 118.66 65.7781 118.662 65.9896C118.601 70.107 118.435 74.2246 118.505 78.3404C118.584 82.7109 118.725 87.0777 119.287 91.3944C119.402 92.265 119.579 93.1319 119.719 94.0011C119.799 94.4693 119.909 94.9295 119.697 95.3965Z" fill="#FEFBF7"/>
<path d="M70.5708 58.6733C71.2826 58.5251 71.9231 58.6549 72.5568 58.7291C76.067 59.1729 79.4037 60.1808 82.6683 61.4046C86.1012 62.6992 89.2788 64.4693 92.2983 66.5227C93.0235 67.0144 93.6748 67.5604 94.2588 68.1912C91.7611 66.7476 89.3549 65.1678 86.7536 63.8983C81.9502 61.5469 76.9 59.876 71.5311 59.1137C71.0527 59.049 71.059 59.0548 70.5708 58.6733Z" fill="#FEFBF7"/>
<path d="M95.3159 99.3918C95.8328 99.0253 96.1685 99.0924 96.491 99.0857C100.343 99.0621 103.876 100.009 107.02 102.13C110.046 104.164 112.328 106.858 113.946 110.127C114.531 111.311 114.923 112.55 114.926 113.931C114.56 113.947 114.644 113.643 114.624 113.489C114.25 111.172 113.019 109.299 111.727 107.466C110.567 105.831 109.094 104.482 107.53 103.269C105.227 101.477 102.596 100.303 99.6503 99.8309C98.6375 99.6734 97.6248 99.5283 96.5888 99.509C96.2351 99.4989 95.881 99.4515 95.3159 99.3918Z" fill="#FEFBF7"/>
<path d="M74.7032 97.0495C73.3079 96.5103 72.1201 95.6853 70.9266 94.904C69.2021 93.7874 67.5385 92.5676 66.095 91.0861C65.618 90.5921 65.1166 90.1367 64.7131 89.5637C64.4356 89.1573 64.0101 88.8343 63.6159 88.5281C60.6307 86.174 57.2997 84.4934 53.5143 83.7288C53.4086 83.704 53.3029 83.6792 53.2032 83.6353C53.1782 83.6244 53.1591 83.582 53.046 83.4519C53.4244 83.4606 53.7218 83.443 54.0075 83.4758C56.877 83.8655 59.4867 84.8489 61.8864 86.4355C63.2049 87.3088 64.2781 88.408 65.3268 89.546C66.834 91.173 68.5795 92.506 70.3313 93.8325C71.5074 94.7204 72.763 95.5104 73.9939 96.3143C74.2752 96.5028 74.5501 96.6855 74.7032 97.0495Z" fill="#FEFBF7"/>
<path d="M67.358 143.497C67.7943 143.091 68.1229 143.053 68.4324 142.972C72.9006 141.734 77.3688 140.496 81.837 139.257C85.6245 138.209 89.4187 137.204 93.2659 136.507C93.7863 136.414 94.3431 136.243 94.7929 136.503C94.8631 136.679 94.8327 136.737 94.7336 136.755C92.081 137.138 89.475 137.811 86.8753 138.489C81.4901 139.882 76.1052 141.312 70.7201 142.717C69.6801 142.979 68.6335 143.197 67.358 143.497Z" fill="#FEFBF7"/>
<path d="M84.8476 71.2658C81.705 69.2945 78.7484 67.3121 75.5298 65.7621C71.1449 63.6533 66.5851 61.9966 61.6765 61.3312C61.1857 61.2672 60.6886 61.1973 60.2136 60.8896C60.6203 60.6414 60.9444 60.7714 61.2549 60.8027C65.2476 61.1183 68.9949 62.2386 72.6167 63.7833C75.3907 64.9678 77.9513 66.4949 80.4939 68.0665C81.5371 68.7073 82.5621 69.3803 83.5625 70.0796C83.9877 70.3777 84.346 70.7981 84.8476 71.2658Z" fill="#FEFBF7"/>
<path d="M139.522 96.6971C140.353 94.8985 140.891 93.0364 141.299 91.1386C142.598 85.0735 142.285 79.1671 140.484 73.3995C140.31 72.8311 140.075 72.2664 140.086 71.6246C143.704 76.1196 143.355 92.4408 139.522 96.6971Z" fill="#FEFBF7"/>
<path d="M110.791 62.767C110.3 62.6281 110.258 62.1955 110.099 61.9002C108.92 59.6947 107.685 57.5359 106.125 55.589C105.175 54.408 104.114 53.3204 103.213 52.1117C102.363 50.9745 101.2 50.1355 100.404 48.964C100.247 48.7308 100.003 48.5525 99.7897 48.3537C98.0279 46.6859 96.2662 45.0305 94.5043 43.3627C94.3288 43.199 94.1716 43.0156 93.9771 42.8219C94.3844 42.6612 94.5796 42.917 94.7926 43.1033C97.2174 45.2667 99.6608 47.4227 101.914 49.7702C103.653 51.5885 105.331 53.485 106.818 55.5233C108.45 57.7333 109.83 60.0887 110.791 62.767Z" fill="#FEFBF7"/>
<path d="M79.593 59.2617C85.0441 59.7718 97.2315 65.2492 103.705 74.3116C102.716 73.5121 101.769 72.654 100.927 71.6965C99.8528 70.473 98.6925 69.3416 97.3608 68.4069C96.5668 67.8507 95.8521 67.1842 95.0641 66.609C92.3123 64.6081 89.3236 63.0379 86.2255 61.6607C84.0872 60.6992 81.8945 59.859 79.593 59.2617Z" fill="#FEFBF7"/>
<path d="M65.4158 90.872C66.0135 91.0729 66.088 91.6219 66.4204 91.9443C68.1454 93.6392 69.9069 95.2822 71.9258 96.6487C75.5635 99.107 79.5407 100.886 83.6276 102.497C83.721 102.535 83.8271 102.584 83.8292 102.771C82.1326 102.467 80.5567 101.871 79.0048 101.21C76.275 100.041 73.6424 98.6924 71.2043 97.0087C69.5915 95.8979 68.1133 94.6298 66.7699 93.217C65.8723 92.2815 65.6124 91.7932 65.4158 90.872Z" fill="#FEFBF7"/>
<path d="M54.0119 122.964C45.8153 120.809 37.4014 119.769 28.7413 119.484C32.2277 118.243 50.6801 120.767 54.0119 122.964Z" fill="#FEFBF7"/>
<path d="M91.9798 61.909C93.0534 62.0137 93.9402 62.5707 94.8329 63.0963C96.6682 64.1694 98.4119 65.3659 100.119 66.6267C102.146 68.1236 103.847 69.9317 105.506 71.7733C107.679 74.1938 109.491 76.8779 110.65 79.9856C110.753 80.253 110.843 80.5336 110.92 80.8149C110.94 80.8697 110.903 80.9464 110.898 81.0275C110.537 80.912 110.453 80.5876 110.319 80.2909C109.371 78.2894 108.35 76.342 107.033 74.5735C106.126 73.359 105.225 72.1502 104.146 71.0825C103.556 70.4956 103.016 69.8686 102.438 69.2686C101.227 68.0284 99.8324 66.9978 98.4561 65.9475C96.9109 64.7642 95.2683 63.7357 93.5831 62.7657C93.0526 62.4675 92.5101 62.1948 91.9798 61.909Z" fill="#FEFBF7"/>
<path d="M110.972 54.3849C109.961 53.3069 108.937 52.2421 107.957 51.1437C106.512 49.5256 104.933 48.0647 103.206 46.7491C101.26 45.2537 99.1867 43.9585 97.0888 42.702C95.9463 42.0171 94.7734 41.39 93.5942 40.757C93.276 40.583 92.9519 40.4405 92.7128 40.1438C94.3237 40.0739 100.644 44.0033 103.008 45.7165C106.259 48.0736 108.806 51.0876 110.972 54.3849Z" fill="#FEFBF7"/>
<path d="M75.0638 103.517C74.0777 103.519 73.6524 102.668 72.8914 102.29C72.0929 101.89 71.4099 101.277 70.6661 100.78C69.9536 100.3 69.2226 99.8399 68.4917 99.3795C67.7234 98.9089 66.9553 98.4508 66.1748 97.9934C65.4317 97.5586 64.6764 97.1371 63.915 96.7221C63.1162 96.2968 62.3176 95.884 61.5129 95.4903C60.7333 95.1074 59.9476 94.7436 59.1621 94.3923C58.3391 94.0182 57.5101 93.6632 56.6872 93.3016C55.9017 92.9503 55.1101 92.6055 54.2933 92.2373C54.5761 92.009 54.7765 92.1837 54.9571 92.2414C59.4035 93.8057 63.7043 95.6523 67.7205 98.1068C69.4694 99.1721 71.1817 100.302 72.8573 101.471C73.664 102.051 74.3304 102.833 75.0638 103.517Z" fill="#FEFBF7"/>
<path d="M136.885 84.2413C137.39 88.8993 136.583 93.4052 134.576 97.7524C132.938 101.299 130.838 104.5 127.78 107.03C128.64 105.59 129.906 104.456 130.835 103.056C131.775 101.643 132.684 100.213 133.444 98.6917C134.191 97.2088 134.826 95.6829 135.361 94.1132C135.908 92.5053 136.281 90.8706 136.493 89.1956C136.704 87.5456 136.649 85.8928 136.885 84.2413Z" fill="#FEFBF7"/>
<path d="M94.9269 98.4011C94.4911 98.819 94.0926 98.6935 93.7074 98.6418C90.8242 98.2289 88.0851 97.3968 85.4543 96.2472C81.4828 94.4994 77.6633 92.4627 74.0936 90.0191C73.4497 89.5785 72.7014 89.2374 72.2102 88.5824C72.4622 88.3745 72.6253 88.5389 72.7879 88.6537C77.9656 92.314 83.587 95.1454 89.6517 97.123C90.8222 97.5011 92.0593 97.7198 93.2599 98.0152C93.8196 98.1312 94.3732 98.2661 94.9269 98.4011Z" fill="#FEFBF7"/>
<path d="M53.1575 126.094C52.7148 126.469 52.243 126.448 51.7842 126.488C48.4299 126.757 45.1557 126.411 41.9217 125.758C38.4762 125.068 35.1029 124.175 31.7712 123.111C31.3291 122.969 30.8809 122.847 30.4744 122.554C30.8068 122.31 31.0574 122.531 31.3065 122.603C35.6382 123.751 39.994 124.834 44.4449 125.539C46.801 125.915 49.1799 126.115 51.5871 126.058C52.1082 126.039 52.636 126.076 53.1575 126.094Z" fill="#FEFBF7"/>
<path d="M108.2 140.174C110.073 136.035 110.562 132.022 109.386 127.772C110.661 129.109 110.882 131.679 110.235 136.15C110.57 136.105 110.586 135.824 110.676 135.6C111.648 133.071 111.862 130.512 111.393 127.92C111.26 127.168 111.023 126.429 111.008 125.652C111.293 125.61 111.357 125.793 111.408 125.952C112.553 129.593 112.506 133.194 110.54 136.729C110.43 136.922 110.34 137.183 110.173 137.286C109.698 137.558 109.604 138.036 109.385 138.46C109.106 139 109.02 139.671 108.2 140.174Z" fill="#FEFBF7"/>
<path d="M60.5554 119.963C59.924 120.075 59.4013 119.932 58.8792 119.838C55.7157 119.286 52.7995 118.116 50.0281 116.589C48.0931 115.523 46.2496 114.32 44.663 112.791C43.9418 112.093 43.288 111.324 42.7694 110.447C42.6746 110.284 42.5922 110.134 42.6956 109.947C42.8748 109.893 42.9692 110.005 43.0572 110.112C45.5181 113.256 48.8102 115.306 52.3466 117.017C54.6668 118.136 57.0714 119.05 59.6329 119.57C59.9313 119.626 60.2786 119.618 60.5554 119.963Z" fill="#FEFBF7"/>
<path d="M65.0064 92.9592C62.7433 91.9807 60.542 90.986 58.2981 90.0622C55.138 88.7639 51.8877 87.7261 48.5051 87.0695C47.7527 86.9215 47.0005 86.786 46.2186 86.7829C46.0573 86.7801 45.8346 86.8432 45.7438 86.4877C46.3431 86.2591 46.9575 86.2659 47.5538 86.3299C48.4235 86.4273 49.2937 86.562 50.1581 86.7406C54.866 87.7349 59.2536 89.5012 63.4056 91.8354C63.9551 92.151 64.5599 92.4197 65.0064 92.9592Z" fill="#FEFBF7"/>
<path d="M113.092 120.667C113.084 120.008 112.818 119.489 112.539 118.996C111.507 117.172 110.065 115.753 108.419 114.489C105.478 112.213 102.004 111.076 98.5302 109.926C98.3061 109.853 98.0028 109.902 97.8436 109.544C98.4278 109.646 98.9557 109.708 99.4658 109.84C102.358 110.582 105.197 111.483 107.703 113.12C109.683 114.414 111.425 115.952 112.707 117.972C113.08 118.566 113.317 119.204 113.449 119.893C113.502 120.201 113.468 120.477 113.092 120.667Z" fill="#FEFBF7"/>
<path d="M89.905 112.71C91.0555 112.393 92.1323 112.695 93.1839 112.975C98.6783 114.408 104.124 115.968 108.613 119.576C106.575 118.758 104.75 117.523 102.712 116.693C100.661 115.851 98.5506 115.199 96.4459 114.516C94.2978 113.829 92.1136 113.257 89.905 112.71Z" fill="#FEFBF7"/>
<path d="M114.504 116.811C113.173 113.271 110.724 110.643 107.95 108.326C105.163 105.985 101.83 104.634 98.182 103.961C98.2122 103.891 98.2424 103.821 98.2726 103.751C98.3655 103.739 98.4642 103.696 98.5513 103.716C101.409 104.193 104.146 104.926 106.565 106.58C109.122 108.325 111.292 110.448 113.027 113C113.784 114.137 114.382 115.382 114.504 116.811Z" fill="#FEFBF7"/>
<path d="M102.795 134.201C102.919 135.289 102.762 136.252 102.599 137.196C101.992 140.669 100.618 143.834 98.477 146.726C97.1436 148.537 95.5841 150.137 94.0182 151.719C92.6918 153.055 91.1956 154.209 89.6806 155.346C89.5082 155.481 89.2853 155.544 89.0445 155.664C89.3904 154.952 90.0579 154.663 90.5752 154.271C92.8657 152.503 94.8169 150.394 96.7241 148.244C98.1163 146.686 99.2395 144.95 100.175 143.088C101.335 140.771 102.04 138.337 102.303 135.787C102.348 135.348 102.436 134.901 102.518 134.46C102.53 134.422 102.617 134.379 102.795 134.201Z" fill="#FEFBF7"/>
<path d="M44.2205 115.706C36.5933 115.216 35.3232 114.29 25.1989 117.025C25.1832 116.727 25.4249 116.694 25.6226 116.607C27.753 115.614 29.9874 115.039 32.2747 114.771C36.0994 114.325 39.8578 114.629 43.5532 115.416C43.7834 115.458 44.0809 115.428 44.2205 115.706Z" fill="#FEFBF7"/>
<path d="M127.894 91.0428C127.583 96.6029 123.295 105.756 119.741 107.861C119.744 107.568 119.979 107.405 120.132 107.228C122.787 104.236 124.587 100.779 125.88 97.0593C126.5 95.2852 127.101 93.5059 127.541 91.6865C127.588 91.4969 127.56 91.237 127.894 91.0428Z" fill="#FEFBF7"/>
<path d="M106.501 122.963C102.191 123.756 98.1277 123.239 94.3156 121.333C91.2396 119.793 88.4689 117.799 87.9215 116.55C93.3677 120.904 99.2861 123.63 106.501 122.963Z" fill="#FEFBF7"/>
<path d="M68.239 118.466C67.7217 118.821 67.1582 118.935 66.5819 119.001C63.7062 119.334 60.922 118.953 58.1783 118.302C55.3288 117.626 52.6488 116.567 50.1564 115.067C50.0377 114.993 49.9495 114.874 49.8053 114.739C50.1199 114.565 50.2954 114.729 50.5014 114.835C54.4209 116.89 58.6106 118.115 63.0887 118.475C64.2252 118.563 65.3613 118.613 66.5085 118.538C67.0914 118.504 67.6622 118.494 68.239 118.466Z" fill="#FEFBF7"/>
<path d="M58.9554 111.618C65.8994 113.873 73.0659 114.919 80.464 115.012C80.2101 115.058 79.9503 115.136 79.696 115.145C77.2584 115.259 74.8255 115.231 72.4087 114.971C68.3829 114.552 64.4465 113.798 60.6649 112.45C60.0731 112.242 59.4323 112.1 58.9554 111.618Z" fill="#FEFBF7"/>
<path d="M88.2153 119.052C89.2787 119.269 89.8831 120.054 90.6458 120.568C93.8719 122.777 97.4719 123.993 101.392 124.412C103.809 124.672 106.235 124.671 108.675 124.226C108.774 124.208 108.897 124.163 108.949 124.297C103.791 125.862 93.8834 124.942 88.2153 119.052Z" fill="#FEFBF7"/>
<path d="M65.7173 135.26C69.5516 132.828 81.5392 130.106 84.2245 131.022C82.7678 131.203 81.5401 131.326 80.3131 131.511C79.0613 131.698 77.8222 131.922 76.5711 132.171C75.3633 132.411 74.162 132.682 72.9736 132.99C71.7481 133.312 70.5293 133.678 69.3168 134.062C68.1044 134.445 66.9172 134.865 65.7173 135.26Z" fill="#FEFBF7"/>
<path d="M111.576 109.087C109.482 106.581 106.834 105.009 104.015 103.697C101.19 102.378 98.1861 101.73 95.0079 102.137C94.8848 101.666 95.1699 101.636 95.3616 101.581C96.2027 101.344 97.0466 101.356 97.8912 101.43C100.984 101.681 103.751 102.81 106.373 104.309C108.171 105.334 109.737 106.646 111.15 108.149C111.407 108.426 111.407 108.426 111.576 109.087Z" fill="#FEFBF7"/>
<path d="M135.614 60.7457C136.036 61.3864 136.088 62.124 136.17 62.8411C136.547 66.1113 136.701 69.3948 135.912 72.6974C135.568 74.1372 135.036 75.4886 134.218 76.7326C134.059 76.9787 133.932 77.2788 133.553 77.2579C133.32 76.9669 133.629 76.7741 133.739 76.5933C134.964 74.5717 135.449 72.3517 135.716 70.0762C136.011 67.5439 135.865 65.0317 135.714 62.5136C135.67 61.9312 135.645 61.3413 135.614 60.7457Z" fill="#FEFBF7"/>
<path d="M138.221 77.7542C138.827 78.0976 138.844 78.495 138.959 78.8242C139.388 80.0744 139.57 81.3892 139.697 82.7136C140.153 87.5846 139.373 92.3241 137.525 96.9534C137.501 97.0171 137.458 97.0881 137.409 97.1408C137.39 97.1606 137.341 97.1636 137.186 97.204C138.306 94.0249 139.01 90.8397 139.253 87.5575C139.49 84.2571 138.971 81.0765 138.221 77.7542Z" fill="#FEFBF7"/>
<path d="M84.792 120.15C77.5752 120.388 70.9233 122.89 64.4284 126.13C64.4869 125.802 64.7218 125.714 64.9439 125.588C69.9165 122.789 75.198 120.979 80.7437 120.056C82.0883 119.832 83.4587 119.706 84.792 120.15Z" fill="#FEFBF7"/>
<path d="M99.1401 131.986C98.5097 132.185 98.1248 132.158 97.7399 132.131C95.052 131.962 92.6228 131.074 90.3136 129.83C89.003 129.124 87.8268 128.236 86.718 127.276C85.8597 126.525 85.0807 125.651 84.5232 124.626C84.2698 124.156 84.0037 123.662 84.1197 122.946C87.4827 128.531 92.5628 131.251 99.1401 131.986Z" fill="#FEFBF7"/>
<path d="M111.47 99.0387C110.16 97.7792 108.79 96.8095 107.28 96.041C105.726 95.2441 104.076 94.7018 102.347 94.3944C100.656 94.0972 98.9402 94.3304 97.2163 94.4333C97.7506 93.9348 98.3758 93.7916 99.0264 93.7092C100.86 93.4628 102.625 93.7182 104.35 94.2437C106.884 95.0194 109.126 96.2855 111.044 98.0873C111.32 98.3446 111.314 98.3512 111.47 99.0387Z" fill="#FEFBF7"/>
<path d="M65.1213 145.836C62.3104 147.61 46.7023 150.082 42.6349 148.775C50.1662 148.99 57.5834 147.856 65.1213 145.836Z" fill="#FEFBF7"/>
<path d="M59.1932 64.236C59.4724 64.2632 59.5676 64.4502 59.6938 64.6292C60.8114 66.3097 62.0945 67.8501 63.4821 69.316C65.1459 71.0765 67.0052 72.6143 68.7791 74.2565C69.1991 74.6482 69.6192 75.0399 69.9902 75.4842C67.2211 73.5273 64.5375 71.4785 62.2873 68.9012C61.2879 67.7605 60.3194 66.6118 59.5289 65.3222C59.3266 64.9986 59.0439 64.6858 59.1932 64.236Z" fill="#FEFBF7"/>
<path d="M38.5056 100.737C42.6295 103.944 47.1672 106.454 52.0278 108.442C48.1382 107.84 39.9184 103.346 38.5056 100.737Z" fill="#FEFBF7"/>
<path d="M104.897 96.3859C110.265 97.8533 115.106 103.498 115.5 107.516C114.865 106.739 114.743 105.851 114.282 105.163C113.809 104.439 113.397 103.674 112.886 102.977C112.357 102.249 111.815 101.523 111.145 100.922C110.499 100.345 109.866 99.7544 109.245 99.1507C108.618 98.5411 107.881 98.0997 107.132 97.659C106.389 97.2242 105.64 96.8083 104.897 96.3859Z" fill="#FEFBF7"/>
<path d="M102.759 54.3452C103.739 54.8778 104.239 55.7376 104.824 56.4927C106.266 58.329 107.719 60.1521 108.92 62.1706C109.831 63.6964 110.618 65.2793 110.973 67.062C111.052 67.443 111.192 67.8327 111.067 68.2321C110.758 68.3251 110.718 68.1284 110.679 67.9566C109.827 64.4928 107.915 61.6022 105.954 58.7519C104.951 57.2752 103.868 55.8592 102.759 54.3452Z" fill="#FEFBF7"/>
<path d="M97.8153 136.997C97.3358 142.326 91.0342 150.76 87.1762 152.889C92.0327 148.452 95.838 143.343 97.8153 136.997Z" fill="#FEFBF7"/>
<path d="M122.75 109.371C123.312 108.616 124.027 108.125 124.641 107.503C126.416 105.697 127.677 103.573 128.751 101.323C129.631 99.4962 130.386 97.6142 130.979 95.6796C131.051 95.4511 131.005 95.1488 131.369 94.9714C131.363 95.5073 131.225 95.995 131.082 96.4768C130.179 99.5757 128.958 102.563 127.15 105.286C126.173 106.764 124.983 108.093 123.441 109.031C123.225 109.162 122.984 109.258 122.75 109.371Z" fill="#FEFBF7"/>
<path d="M144.041 84.4464C144.042 82.2932 143.965 80.3873 143.647 78.5146C143.316 76.5929 142.873 74.7027 142.3 72.8514C141.734 71.0432 140.853 69.3721 140.193 67.4638C140.823 67.7062 140.934 68.2036 141.124 68.5905C142.723 71.8055 143.661 75.253 144.141 78.8522C144.344 80.3585 144.348 81.8766 144.315 83.397C144.299 83.678 144.321 83.9691 144.041 84.4464Z" fill="#FEFBF7"/>
<path d="M49.6134 84.987C49.9691 84.6174 50.2561 84.7621 50.5172 84.8087C51.897 85.025 53.2108 85.4506 54.4883 85.953C57.0371 86.9644 59.5374 88.0782 61.8983 89.4803C62.2418 89.69 62.5546 89.9202 62.782 90.2799C58.5036 88.2829 54.2261 86.3606 49.6134 84.987Z" fill="#FEFBF7"/>
<path d="M91.4116 110.866C94.9914 109.688 103.539 111.678 106.384 114.775C104.185 113.388 101.816 112.397 99.2833 111.746C96.7195 111.09 94.0693 111.031 91.4116 110.866Z" fill="#FEFBF7"/>
<path d="M104.683 49.5385C105.546 50.1714 106.336 50.8833 107.015 51.7012C107.977 52.8569 109.007 53.965 109.877 55.207C110.728 56.419 111.536 57.6523 112.042 59.0714C112.356 59.9421 112.365 60.122 112.137 60.8695C112.02 60.8951 111.908 60.8644 111.882 60.7416C111.385 58.5569 110.174 56.7629 108.926 54.9961C107.589 53.0976 106.062 51.3784 104.683 49.5385Z" fill="#FEFBF7"/>
<path d="M91.8539 127.421C92.4132 127.487 92.8072 127.756 93.2435 127.929C95.7305 128.894 98.3127 129.492 101.032 129.554C103.558 129.608 105.954 129.06 108.193 127.712C108.415 127.575 108.656 127.479 108.97 127.33C108.581 128.075 107.92 128.345 107.322 128.673C105.631 129.608 103.805 129.985 101.949 130.028C98.4126 130.115 95.132 129.222 92.0491 127.677C91.9866 127.63 91.9547 127.551 91.8539 127.421Z" fill="#FEFBF7"/>
<path d="M112.389 122.327C112.009 121.616 111.542 120.947 111.033 120.324C110.831 120.075 110.605 119.827 110.361 119.624C107.919 117.617 105.265 115.989 102.226 114.976C101.747 114.811 101.298 114.577 100.836 114.368C100.78 114.34 100.754 114.255 100.628 114.075C103.001 114.936 105.31 115.614 107.413 116.789C108.937 117.644 110.27 118.74 111.5 119.96C112.027 120.489 112.35 121.123 112.575 121.825C112.633 121.977 112.716 122.164 112.389 122.327Z" fill="#FEFBF7"/>
<path d="M87.7139 56.1016C86.9943 56.1072 86.6185 55.7937 86.2129 55.5877C83.5543 54.191 80.8288 52.9289 77.8677 52.2346C76.9533 52.0216 76.0212 51.9031 75.0949 51.7406C75.1589 51.3573 75.433 51.4529 75.619 51.4418C76.3944 51.4266 77.159 51.549 77.9115 51.7094C81.2638 52.4239 84.3071 53.8225 87.1749 55.6112C87.3248 55.7018 87.4381 55.8443 87.7139 56.1016Z" fill="#FEFBF7"/>
<path d="M116.58 106.676C118.966 102.916 121.216 99.2383 122.673 95.1289C122.993 95.3651 122.871 95.5841 122.83 95.7796C122.44 97.5838 121.633 99.2447 120.775 100.871C119.796 102.742 118.673 104.515 117.313 106.14C117.172 106.317 117.05 106.511 116.58 106.676Z" fill="#FEFBF7"/>
<path d="M114.058 87.0997C114.389 89.5256 114.694 91.8659 115.036 94.204C115.384 96.5604 116.117 98.8067 117.015 100.987C116.589 101.193 116.543 100.941 116.448 100.766C115.77 99.4808 115.277 98.1101 114.982 96.6653C114.379 93.7516 114.049 90.7843 113.892 87.7942C113.884 87.6018 113.794 87.3831 114.058 87.0997Z" fill="#FEFBF7"/>
<path d="M77.7561 107.719C81.6366 109.112 85.3246 110.485 88.7097 112.51C89.0345 112.702 89.3842 112.905 89.476 113.348C89.1255 113.624 88.8559 113.372 88.6498 113.254C85.2764 111.166 81.5749 109.694 77.9887 107.998C77.9638 107.987 77.951 107.95 77.7561 107.719Z" fill="#FEFBF7"/>
<path d="M110.92 74.2631C108.163 69.0972 110.045 70.4346 102.096 62.5044C105.878 64.5812 110.446 70.2678 110.92 74.2631Z" fill="#FEFBF7"/>
<path d="M137.481 67.1033C137.545 61.6603 136.619 56.426 134.888 51.3643C136.64 53.7861 138.217 61.7695 137.481 67.1033Z" fill="#FEFBF7"/>
<path d="M131.308 99.1378C133.42 94.7412 133.822 90.0921 134.018 85.2872C135.223 87.6926 133.412 96.8519 131.308 99.1378Z" fill="#FEFBF7"/>
<path d="M49.7406 69.5185C53.032 72.0596 56.6098 74.1547 60.5393 76.0982C58.2192 76.0492 51.0236 71.6128 49.7406 69.5185Z" fill="#FEFBF7"/>
<path d="M107.136 110.07C105.088 108.972 103.307 107.791 101.337 106.938C99.2545 106.029 97.0835 105.518 94.7692 105.526C94.4652 105.525 94.1129 105.652 93.8109 105.272C94.3476 104.997 94.8444 105.03 95.3407 105.025C97.481 105.003 99.4363 105.633 101.338 106.471C103.121 107.261 104.752 108.314 106.371 109.369C106.609 109.529 106.797 109.754 107.136 110.07Z" fill="#FEFBF7"/>
<path d="M112.847 54.0446C110.331 50.4444 107.891 47.076 104.438 44.4697C106.712 44.8703 112.257 51.3194 112.847 54.0446Z" fill="#FEFBF7"/>
<path d="M75.7133 144.751C78.1431 143.828 80.5729 142.904 82.9453 141.841C85.3425 140.777 87.6379 139.494 90.127 138.318C88.2602 140.185 78.5418 144.52 75.7133 144.751Z" fill="#FEFBF7"/>
<path d="M79.1783 54.9911C77.3108 54.4556 75.5674 53.9251 73.8185 53.451C72.0944 52.9878 70.2938 52.8963 68.5249 52.8589C68.4578 52.4025 68.706 52.4001 68.9228 52.3684C70.1872 52.2306 71.4352 52.2867 72.6605 52.5432C74.7379 52.9791 76.7431 53.6184 78.6215 54.5826C78.7776 54.6666 78.9093 54.7894 79.1783 54.9911Z" fill="#FEFBF7"/>
<path d="M103.649 121.422C99.1831 121.565 95.2997 119.961 91.6504 117.64C91.8527 117.423 92.0088 117.507 92.1462 117.586C95.6297 119.506 99.3181 120.866 103.338 121.354C103.444 121.366 103.543 121.398 103.649 121.422Z" fill="#FEFBF7"/>
<path d="M130.71 105.389C131.981 103.533 133.315 101.735 134.298 99.7083C135.263 97.7143 135.973 95.6295 136.798 93.3449C136.449 97.1081 133.437 103.253 130.71 105.389Z" fill="#FEFBF7"/>
<path d="M48.8367 124.131C44.2039 123.836 39.6357 123.207 35.191 121.954C36.7247 122.031 38.2115 122.359 39.7096 122.586C41.2264 122.819 42.7374 123.096 44.2602 123.31C45.7955 123.535 47.3364 123.705 48.8838 123.905C48.8661 123.987 48.8545 124.062 48.8367 124.131Z" fill="#FEFBF7"/>
<path d="M92.3543 107.804C90.3733 108.209 84.5428 106.143 82.4633 104.375C83.6413 104.859 84.6634 105.271 85.6857 105.695C86.7828 106.152 87.9041 106.558 89.0556 106.881C90.1571 107.183 91.3246 107.275 92.3543 107.804Z" fill="#FEFBF7"/>
<path d="M34.1597 113.742C37.5124 112.745 43.3676 113.59 45.556 115.077C45.3165 115.309 45.0851 115.143 44.8795 115.074C41.4527 113.835 37.8677 113.458 34.1597 113.742Z" fill="#FEFBF7"/>
<path d="M121.665 67.5819C121.243 64.1097 120.907 60.6322 120.199 57.2144C120.651 57.1437 120.641 57.3933 120.68 57.5403C121.424 60.8191 121.814 64.1626 121.665 67.5819Z" fill="#FEFBF7"/>
<path d="M52.9351 127.667C49.0079 128.35 45.185 128.354 41.5618 126.76C43.4577 127.039 45.3182 127.481 47.2437 127.628C49.1381 127.769 51.0416 127.612 52.9351 127.667Z" fill="#FEFBF7"/>
<path d="M120.045 109.843C121.48 108.743 122.748 107.721 123.701 106.306C124.599 104.964 125.303 103.502 126.349 102.1C126.387 102.702 126.093 103.081 125.898 103.454C125.327 104.559 124.762 105.67 124.06 106.69C123.259 107.84 122.321 108.886 121.118 109.661C120.816 109.847 120.526 110.008 120.045 109.843Z" fill="#FEFBF7"/>
<path d="M61.0123 74.283C58.9615 71.7679 56.05 70.4168 53.4496 68.6306C55.1932 69.2612 56.7788 70.1747 58.3216 71.1342C59.3211 71.7591 60.26 72.5119 60.9352 73.5227C61.0551 73.696 61.1134 73.9101 61.1901 74.1046C61.1349 74.1638 61.0798 74.223 61.0123 74.283Z" fill="#FEFBF7"/>
<path d="M37.9646 99.0913C38.8046 99.3339 44.6551 103.315 45.47 104.063C42.7824 102.786 40.3846 101.361 38.1941 99.6249C38.0376 99.5036 37.8437 99.3597 37.9646 99.0913Z" fill="#FEFBF7"/>
<path d="M79.472 148.727C76.4728 150.942 73.059 152.155 69.5303 153.075C70.2816 152.52 71.1993 152.415 72.0212 152.061C72.8493 151.713 73.6966 151.419 74.5183 151.053C75.3771 150.672 76.2044 150.249 77.0315 149.813C77.8279 149.398 78.599 148.948 79.3826 148.509C79.4207 148.581 79.4463 148.654 79.472 148.727Z" fill="#FEFBF7"/>
<path d="M59.2354 80.0892C57.4772 79.8517 55.9179 79.0985 54.3526 78.3643C53.3486 77.8954 52.5099 77.2362 51.7568 76.4599C51.6187 76.3188 51.4003 76.2012 51.5384 75.8011C52.1667 75.9566 52.4402 76.5561 52.909 76.8703C53.384 77.1904 53.8592 77.5229 54.3587 77.8042C54.8893 78.1023 55.4504 78.355 56.0055 78.6144C56.5231 78.8635 57.0471 79.1184 57.5646 79.3551C58.1196 79.6144 58.6744 79.8489 59.2354 80.0892Z" fill="#FEFBF7"/>
<path d="M100.416 107.965C98.0385 107.361 95.6778 107.128 93.3408 106.795C93.2974 106.792 93.2775 106.675 93.2457 106.608C93.2617 106.364 93.4598 106.328 93.6396 106.311C93.9684 106.297 94.3095 106.283 94.6327 106.326C96.4846 106.564 98.2948 106.959 100.045 107.57C100.176 107.619 100.313 107.673 100.416 107.965Z" fill="#FEFBF7"/>
<path d="M101.321 134.231C101.825 135.994 100.891 139.729 99.3341 142.094C99.3826 141.425 99.786 140.853 99.9716 140.226C100.163 139.579 100.392 138.943 100.54 138.293C100.7 137.605 100.773 136.897 100.927 136.203C101.05 135.567 100.962 134.894 101.321 134.231Z" fill="#FEFBF7"/>
<path d="M59.9936 69.025C58.8738 68.1897 57.6198 67.5614 56.3658 66.9332C55.1181 66.3108 53.7558 65.9876 52.4357 65.5437C54.6543 65.3369 58.3589 67.0819 59.9936 69.025Z" fill="#FEFBF7"/>
<path d="M85.1023 132.268C82.28 132.443 79.5172 132.957 76.5208 133.672C77.3014 132.971 78.0533 133.045 78.7153 132.849C79.4331 132.645 80.164 132.501 80.8888 132.377C81.5828 132.261 82.277 132.169 82.9779 132.121C83.6973 132.066 84.4166 131.998 85.1023 132.268Z" fill="#FEFBF7"/>
<path d="M60.7984 72.2101C60.6875 72.2789 60.6631 72.3177 60.6321 72.3133C60.5638 72.3111 60.4708 72.3105 60.4269 72.2695C59.1161 70.9978 57.6646 69.9024 56.1274 68.9116C57.9471 69.6491 59.6934 70.4782 60.7984 72.2101Z" fill="#FEFBF7"/>
<path d="M50.7277 74.3577C50.9329 74.4014 51.0693 74.3933 51.1383 74.4576C52.5165 75.657 54.0781 76.6214 55.4745 77.7886C53.613 77.184 51.8619 75.9198 50.7277 74.3577Z" fill="#FEFBF7"/>
<path d="M84.9756 55.9224C83.1209 55.3984 81.6001 54.2137 79.7703 53.6882C81.1784 53.6727 83.9711 54.8624 84.9756 55.9224Z" fill="#FEFBF7"/>
<path d="M108.658 134.962C108.47 133.15 107.906 131.479 106.931 129.72C108.262 130.593 109.059 133.133 108.658 134.962Z" fill="#FEFBF7"/>
<path d="M104.465 91.0146C103.663 90.8072 103.444 90.0864 102.986 89.6471C102.497 89.1786 101.996 88.7233 101.419 88.1854C102.393 88.2334 103.798 89.568 104.465 91.0146Z" fill="#FEFBF7"/>
</g>
</svg>
