<svg width="513" height="455" viewBox="0 0 513 455" fill="none" xmlns="http://www.w3.org/2000/svg">
<g opacity="0.7" clip-path="url(#clip0_3902_4794)">
<g opacity="0.2">
<path d="M445.394 328.736C437.277 324.394 429.182 320.012 421.029 315.736C413.736 311.921 406.401 308.152 399.028 304.484C394.197 302.085 389.301 299.772 384.328 297.661C377.085 294.606 369.617 292.211 362.008 290.227C354.169 288.186 346.357 286.001 338.67 283.433C333.551 281.712 328.532 279.715 323.552 277.618C318.92 275.678 314.461 273.364 309.963 271.15C306.678 269.521 303.622 267.478 300.492 265.568C299.633 265.04 298.914 264.258 298.208 263.517C294.364 259.432 290.796 255.133 288.488 249.946C283.873 239.57 281.338 228.777 281.721 217.351C282.066 207.282 283.395 197.392 286.197 187.708C287.302 183.888 288.616 180.132 290.321 176.522C290.846 175.418 291.223 174.265 291.782 173.162C294.911 167.044 299.054 161.68 303.754 156.695C305.607 154.739 307.571 152.896 309.561 151.068C313.214 147.753 317.483 145.373 321.765 143C326.718 140.267 331.861 137.883 336.688 134.905C339.958 132.879 343.28 130.916 346.016 128.122C347.551 126.548 348.729 124.706 350.013 122.957C350.564 122.215 350.806 121.338 351.007 120.472C351.302 119.152 350.415 118.329 349.119 118.745C348.572 118.913 348.067 119.226 347.563 119.505C345.366 120.73 343.139 121.851 340.803 122.79C336.835 124.377 332.717 125.288 328.482 125.907C315.056 127.869 301.974 131.192 289.35 136.147C282.276 138.927 275.515 142.403 269.698 147.45C266.3 150.4 262.995 153.436 260.101 156.892C257.395 160.138 255.277 163.676 253.757 167.614C250.604 175.726 249.428 184.113 250.1 192.756C250.648 199.638 252.704 206.1 255.74 212.302C258.588 218.121 262.183 223.412 266.155 228.493C271.004 234.67 276.37 240.384 281.297 246.483C284.336 250.226 287.134 254.151 289.918 258.102C290.092 258.355 290.23 258.641 290.533 259.228C288.234 258.023 286.47 256.609 284.609 255.369C281.931 253.588 279.326 251.707 276.706 249.854C273.45 247.543 270.214 245.225 266.978 242.908C263.06 240.091 259.17 237.254 255.259 234.423C251.918 232.013 248.583 229.623 245.219 227.253C242.745 225.514 240.255 223.803 237.758 222.105C234.518 219.89 231.278 217.675 228.023 215.487C224.868 213.372 221.682 211.309 218.533 209.215C215.051 206.901 211.584 204.56 208.095 202.259C206.114 200.952 204.113 199.651 202.125 198.357C199.432 196.603 196.74 194.849 194.055 193.081C193.835 192.942 193.651 192.77 193.36 192.539C193.217 191.255 193.061 189.93 192.931 188.654C193.299 188.021 193.91 187.958 194.451 187.769C203.957 184.505 211.746 178.86 217.976 170.989C220.489 167.81 222.896 164.537 224.737 160.933C229.11 152.382 231.584 143.354 231.175 133.67C230.954 128.591 229.615 123.766 227.598 119.123C225.257 113.742 222.462 108.616 218.806 103.972C217.814 102.707 216.723 101.526 215.539 100.451C214.914 99.8778 214.18 99.4708 213.437 99.1112C212.5 98.6614 212.215 98.7654 211.501 99.6436C211.35 99.8216 211.318 100.1 210.947 100.139C210.823 99.8607 210.705 99.5687 210.588 99.2768C207.818 91.4596 203.043 84.9917 197.008 79.4128C193.557 76.2257 189.8 73.4629 185.851 70.8899C182.121 68.4562 178.227 66.3501 174.223 64.4443C168.436 61.6907 163.146 58.1999 158.698 53.5357C158.188 53.0084 157.659 52.576 156.866 52.4329C155.836 52.8741 155.619 53.8008 155.7 54.788C155.78 55.8093 155.983 56.829 156.234 57.8235C157.428 62.6906 158.636 67.5651 159.877 72.4411C161.096 77.2 161.903 82.0097 161.81 86.9313C161.803 87.2589 161.817 87.5806 161.783 87.8934C161.771 88.009 161.691 88.1218 161.638 88.2493C160.934 88.2603 160.469 87.776 159.995 87.3732C158.794 86.3588 157.415 85.6989 155.978 85.1116C153.244 83.9978 150.517 82.9047 147.706 81.9925C144.444 80.9518 141.128 80.1957 137.755 79.8266C129.9 78.9796 122.032 78.0912 114.245 76.7757C113.241 76.6032 112.206 76.5181 111.183 76.4745C110.357 76.453 109.502 76.4849 108.682 76.6413C105.919 77.1863 105.032 78.9452 106.257 81.4568C106.823 82.6081 107.5 83.7163 108.179 84.7905C109.881 87.5136 111.463 90.3273 112.912 93.19C114.457 96.2275 116.177 99.1701 118.13 101.945C117.848 102.295 117.535 102.261 117.224 102.193C108.616 100.563 100.318 101.774 92.2328 104.9C89.4749 105.971 86.7601 107.153 84.0453 108.336C82.5072 109.001 81.0388 109.793 79.7739 110.941C78.2601 112.318 78.0953 113.466 79.2119 115.166C80.0018 116.355 81.048 117.301 82.2156 118.123C83.2111 118.814 84.1917 119.532 85.2392 120.287C84.6751 121.022 83.9281 121.236 83.2598 121.528C81.3364 122.416 79.3625 123.207 77.4257 124.088C76.6596 124.431 75.8994 124.795 75.2105 125.25C73.4105 126.451 72.911 128.076 73.6855 130.111C73.9561 130.819 74.323 131.511 74.6498 132.181C74.2187 132.518 73.7592 132.56 73.3204 132.596C69.278 133.025 65.6192 134.556 62.0437 136.378C61.3592 136.732 60.6998 137.134 60.1311 137.656C58.8662 138.805 58.5619 139.858 59.1639 141.448C59.3171 141.864 59.5324 142.263 59.7478 142.661C63.6883 149.784 68.3057 156.409 74.2076 162.071C74.4376 162.286 74.6602 162.514 74.8561 162.727C74.6462 163.326 74.126 163.509 73.7305 163.813C71.304 165.609 68.9487 167.497 66.8012 169.639C63.3697 173.059 59.5626 175.992 55.6769 178.846C53.6533 180.324 51.591 181.746 49.7099 183.408C48.7871 184.222 48.0172 185.139 47.4045 186.213C46.6083 187.586 46.8378 188.778 47.779 189.945C47.8176 190.002 47.8636 190.045 47.9096 190.088C53.5771 195.637 57.8921 202.304 62.859 208.425C63.5863 209.317 64.3626 210.183 65.0825 211.088C65.4329 211.527 65.9239 211.869 66.0848 212.586C65.3632 213.006 64.6491 213.413 63.9483 213.827C61.0739 215.549 58.4386 217.596 55.8345 219.712C52.1046 222.757 48.348 225.788 44.5988 228.805C43.4389 229.732 42.3251 230.703 41.3492 231.802C39.3841 233.993 39.6772 236.424 42.1443 238.018C46.3604 240.739 50.5692 243.474 55.0947 245.668C62.0378 249.011 69.2779 251.314 77.0129 251.937C78.9463 252.101 80.8765 252.02 82.7902 251.842C83.6752 251.756 84.5661 251.692 85.4645 251.614C85.7408 252.186 85.3438 252.524 85.1381 252.864C82.7762 256.999 80.8964 261.366 78.8149 265.657C77.1965 269.017 75.6181 272.4 73.8394 275.672C72.7947 277.588 72.0111 279.631 71.3624 281.714C71.2117 282.207 71.101 282.721 71.0867 283.219C71.0171 284.699 71.7816 285.681 73.2244 285.975C73.7864 286.094 74.372 286.14 74.9532 286.13C78.695 286.023 82.3945 286.591 86.0938 287.001C88.9021 287.319 91.7251 287.61 94.5348 287.893C100.855 288.518 107.135 288.02 113.352 286.912C121 285.55 128.335 283.212 135.244 279.626C137.99 278.199 140.588 276.533 143.071 274.699C143.523 274.356 143.911 273.908 144.498 273.762C144.893 274.121 144.611 274.471 144.494 274.807C143.006 279.13 142.011 283.569 141.138 288.041C139.95 294.152 138.199 300.144 136.781 306.198C136.33 308.112 136.128 309.989 136.743 311.901C136.943 312.517 137.176 313.135 137.586 313.624C138.886 315.182 140.019 315.217 141.288 314.438C141.668 314.194 142.053 313.971 142.407 313.679C147.397 309.588 153.031 306.446 158.49 303.051C162.47 300.563 166.596 298.314 170.442 295.594C175.091 292.308 179.091 288.366 182.418 283.719C189.478 273.847 192.116 262.886 190.876 250.891C190.692 249.114 190.405 247.332 190.18 245.567C190.778 244.834 191.341 244.134 191.89 243.426C194.145 240.523 195.341 237.138 196.375 233.698C198.661 226.048 198.659 218.37 196.629 210.666C196.023 208.358 195.119 206.147 193.909 204.08C193.508 203.387 193.291 202.708 193.359 201.891C193.474 200.489 193.512 199.097 193.598 197.714C194.203 197.63 194.565 197.953 194.937 198.194C198.207 200.356 201.462 202.544 204.724 204.719C207.834 206.791 210.93 208.857 214.04 210.929C217.461 213.227 220.868 215.517 224.29 217.815C227.113 219.711 229.964 221.588 232.765 223.525C236.636 226.177 240.484 228.868 244.325 231.573C248.312 234.394 252.283 237.241 256.255 240.088C260.219 242.948 264.148 245.841 268.12 248.689C271.415 251.056 274.719 253.376 278.036 255.704C280.929 257.726 283.85 259.729 286.771 261.732C288.199 262.715 289.654 263.679 291.111 264.609C298.798 269.568 306.64 274.281 314.897 278.212C325.357 283.208 336.176 287.303 347.358 290.43C354.292 292.372 361.257 294.226 368.167 296.276C375.137 298.342 381.943 300.893 388.512 304.029C393.166 306.242 397.748 308.555 402.381 310.809C406.839 312.966 411.097 315.518 415.629 317.542C416.146 317.776 416.631 318.097 417.378 318.512C411.18 317.1 405.256 315.823 399.484 313.862C390.492 310.815 381.549 307.585 372.416 304.983C364.43 302.702 356.3 301.092 348.006 300.438C338.527 299.686 329.114 300.296 319.722 301.686C305.895 303.741 292.2 306.533 278.774 310.415C268.136 313.487 257.386 316.131 246.682 318.974C243.51 319.816 240.32 320.596 237.137 321.396C235.203 321.894 233.31 322.538 231.498 323.383C230.696 323.759 229.86 324.133 229.347 324.965C229.499 325.887 230.161 326.236 230.878 326.547C233.247 327.563 235.648 328.458 238.08 329.265C243.935 331.202 249.784 333.118 255.5 335.432C259.793 337.165 264.048 338.966 268.296 340.779C276.207 344.17 284.272 347.157 292.795 348.689C295.602 349.197 298.421 349.277 301.243 349.096C310.313 348.54 318.986 346.211 327.591 343.407C337.034 340.319 345.993 336.089 355.065 332.096C362.432 328.851 369.915 325.897 377.71 323.831C387.329 321.276 397.067 319.607 407.061 319.807C412.925 319.934 418.699 320.727 424.337 322.456C425.025 322.663 425.669 322.95 426.298 323.264C432.022 326.192 437.752 329.142 443.349 332.331C443.534 331.998 443.726 331.651 443.911 331.317C443.563 331.159 443.199 331.027 442.865 330.842C433.605 325.918 424.404 320.888 415.069 316.097C406.537 311.717 398.041 307.304 389.367 303.211C381.135 299.329 372.631 296.22 363.849 293.865C349.365 289.989 334.919 286.013 321.18 279.88C315.595 277.395 310.092 274.729 304.783 271.681C299.147 268.435 293.643 264.983 288.257 261.351C284.516 258.842 280.791 256.306 277.109 253.724C272.949 250.807 268.839 247.831 264.716 244.848C259.917 241.385 255.16 237.876 250.353 234.426C246.07 231.354 241.751 228.314 237.424 225.322C233.514 222.614 229.547 219.979 225.616 217.311C221.306 214.381 217.01 211.459 212.685 208.556C209.596 206.477 206.435 204.498 203.383 202.353C202.063 201.429 200.676 200.625 199.363 199.688C198.455 199.027 197.471 198.378 197.46 197.045C197.949 196.95 198.229 197.262 198.57 197.434C200.281 198.347 201.824 199.499 203.439 200.551C207.081 202.954 210.781 205.284 214.437 207.694C219.148 210.812 223.851 213.977 228.548 217.122C232.707 219.915 236.908 222.663 241.029 225.523C246.305 229.198 251.508 232.972 256.747 236.713C263.597 241.61 270.46 246.513 277.302 251.423C284.158 256.34 291.16 261.024 298.317 265.462C305.101 269.659 312.076 273.542 319.363 276.831C324.766 279.268 330.233 281.496 335.82 283.476C343.769 286.294 351.885 288.56 360.028 290.683C370.826 293.493 381.34 297.069 391.419 301.871C399.783 305.862 408.034 310.086 416.25 314.344C425.162 318.952 433.998 323.728 442.864 328.451C443.539 328.808 444.191 329.238 444.851 329.622C445.024 329.404 445.209 329.07 445.394 328.736ZM149.8 196.661C149.427 196.926 149.101 196.884 148.786 196.885C145.12 196.824 141.479 196.498 137.844 196.002C130.515 194.993 123.56 192.743 117.128 189.108C113.551 187.09 110.298 184.554 107.137 181.912C101.833 177.471 97.1308 172.509 93.4599 166.6C89.048 159.478 85.3562 151.97 81.8245 144.394C79.676 139.8 77.8283 135.042 75.2338 130.655C75.0111 130.27 74.8239 129.852 74.6915 129.43C74.2794 128.032 74.6061 127.096 75.8164 126.267C76.612 125.713 77.5026 125.334 78.3992 124.976C82.1173 123.495 85.6825 121.754 89.1808 119.82C92.3293 118.075 95.5106 116.366 98.6963 114.712C106.136 110.862 114.07 108.419 122.348 107.337C133.623 105.857 144.517 107.236 154.808 112.347C157.35 113.617 159.725 115.125 161.952 116.901C163.881 118.459 165.564 120.177 165.717 122.861C165.73 123.183 165.861 123.482 165.93 123.799C168.896 136.646 173.381 148.956 179.088 160.827C179.791 162.298 180.535 163.758 181.391 165.488C179.324 164.116 177.664 162.672 175.709 161.728C171.738 159.824 167.543 158.702 163.163 158.229C161.109 157.998 159.237 158.478 157.461 159.605C155.024 161.168 153.437 163.307 152.615 166.08C151.874 168.583 151.684 171.13 151.738 173.708C151.785 175.827 151.92 177.944 152.035 180.067C152.306 185.749 151.497 191.302 149.8 196.661ZM166.055 239.785C165.785 240.491 165.285 240.701 164.908 241.034C159.628 245.523 155.205 250.731 151.898 256.855C151.156 258.224 150.664 259.679 149.943 261.042C148.495 263.781 147.463 266.681 146.418 269.574C145.985 270.765 145.342 271.735 144.353 272.513C141.046 275.077 137.58 277.396 133.811 279.251C123.916 284.13 113.406 286.593 102.409 287.163C97.7736 287.403 93.1653 286.838 88.5734 286.369C83.9134 285.897 79.2856 285.147 74.5638 285.164C72.377 285.173 71.8114 284.336 72.3518 282.228C72.7652 280.538 73.4544 278.948 74.2104 277.395C74.8391 276.103 75.7112 275.034 76.7376 274.032C78.7815 272.077 80.956 270.263 83.2789 268.654C88.516 265.031 92.8566 260.475 96.7491 255.531C100.094 251.26 102.44 246.366 104.189 241.228C105.242 238.13 106.357 235.049 108.009 232.195C109.623 229.409 111.164 226.598 112.752 223.796C113.033 223.289 113.367 222.812 113.734 222.37C117.035 218.336 121.051 215.153 125.686 212.836C132.003 209.689 138.764 207.819 145.679 206.521C146.03 206.454 146.427 206.273 146.8 206.672C146.198 208.921 145.562 211.203 144.999 213.508C144.192 216.76 143.669 220.065 143.984 223.433C144.576 229.763 147.658 234.561 153.095 237.819C156.414 239.798 160.075 240.309 163.875 239.938C164.556 239.844 165.236 239.593 166.055 239.785ZM99.5022 231.075C98.9687 231.25 98.3369 231.005 97.72 230.89C93.5473 230.042 89.5416 228.642 85.7015 226.88C80.4672 224.485 75.7894 221.211 71.8 217.011C67.5881 212.582 63.6516 207.939 59.9003 203.121C56.3316 198.508 53.0606 193.641 48.7482 189.645C47.4795 188.471 47.6028 187.335 48.7222 185.914C50.3168 183.919 52.3983 182.525 54.4279 181.067C59.2337 177.624 63.8569 173.975 68.1179 169.845C72.8766 165.259 78.2484 161.519 84.4771 159.161C85.3662 158.816 86.2509 158.417 87.3242 158.401C88.2599 160.019 89.2029 161.623 90.1178 163.247C92.5402 167.504 95.1892 171.572 98.505 175.225C103.536 180.788 109.288 185.494 115.601 189.5C120.019 192.298 124.902 194.132 129.939 195.528C135.294 197.014 140.773 197.677 146.303 197.933C147.258 197.974 148.226 197.865 149.33 198.233C148.62 200.649 147.918 203.016 147.224 205.371C128.218 208.237 112.443 216.89 99.5022 231.075ZM230.975 325.397C231.118 324.761 231.581 324.65 231.978 324.469C233.434 323.794 234.936 323.195 236.496 322.804C240.053 321.896 243.617 321.01 247.16 320.095C255.07 318.041 263.01 316.09 270.879 313.891C280.981 311.062 291.095 308.276 301.389 306.234C304.737 305.577 308.075 304.845 311.449 304.395C319.728 303.312 327.996 303.603 336.254 304.795C339.37 305.249 342.455 305.824 345.47 306.745C350.494 308.291 355.486 309.959 360.581 311.283C367.799 313.155 374.982 315.182 382.437 315.807C388.074 316.28 393.73 316.623 399.37 317.027C403.471 317.311 407.581 317.548 411.573 318.626C411.89 318.715 412.311 318.617 412.421 319.079C403.431 318.423 394.461 317.761 385.503 317.14C378.227 316.632 370.969 316.849 363.731 317.723C358.203 318.375 352.854 319.808 347.715 321.932C341.359 324.551 335.725 328.355 330.275 332.489C322.552 338.329 314.286 343.292 305.103 346.542C301.412 347.846 297.652 348.397 293.715 347.785C287.966 346.884 282.481 345.1 277.035 343.18C271.703 341.307 266.617 338.802 261.377 336.7C258.092 335.385 254.875 333.916 251.557 332.722C246.55 330.924 241.466 329.328 236.415 327.61C234.591 326.965 232.733 326.319 230.975 325.397ZM156.777 53.4129C157.106 53.543 157.242 53.5488 157.334 53.6347C157.716 53.9857 158.076 54.3427 158.437 54.6996C162.003 58.2468 165.938 61.3178 170.409 63.6739C172.126 64.5737 173.891 65.3252 175.617 66.2116C182.679 69.8121 189.36 74.0043 195.319 79.2794C200.719 84.0524 205.221 89.5318 208.248 96.1302C209.636 99.1679 210.953 102.271 211.488 105.587C212.437 111.4 211.03 116.867 208.435 121.989C205.646 127.493 202.529 132.832 199.493 138.216C198.443 140.077 197.602 142.036 196.863 143.999C195.106 148.679 193.403 153.389 191.997 158.193C190.485 163.375 189.143 168.599 188.742 174.013C188.732 174.095 188.585 174.17 188.43 174.294C186.658 171.444 184.844 168.641 183.155 165.769C180.448 161.144 178.206 156.342 176.641 151.199C174.89 145.448 174.263 139.621 174.967 133.66C175.414 129.894 175.942 126.139 176.423 122.374C177.967 110.3 177.577 98.4105 173.564 86.7283C171.564 80.8909 169.113 75.3622 165.331 70.4736C164.314 69.1597 163.375 67.767 162.45 66.3818C160.471 63.4351 158.87 60.279 157.379 57.0798C156.873 55.9788 156.402 54.8452 156.777 53.4129ZM186.874 221.557C184.511 225.569 181.837 229.164 178.352 232.083C173.866 235.861 168.837 238.448 162.872 238.788C156.674 239.139 151.744 236.825 148.121 231.711C146.42 229.302 145.936 226.679 146.433 223.831C146.765 221.973 147.408 220.183 148.397 218.62C150.975 214.535 154.301 211.179 158.704 209.03C159.925 208.433 161.15 207.891 162.346 207.245C163.297 206.725 164.225 206.123 165.125 205.505C166.216 204.766 166.541 203.707 166.252 202.465C166.125 201.906 165.951 201.339 165.693 200.829C165.007 199.454 164.328 198.066 163.523 196.747C159.757 190.664 157.2 184.099 155.713 177.115C154.928 173.399 154.355 169.679 154.731 165.822C154.99 163.244 156.249 161.603 158.399 160.369C159.806 159.562 161.3 159.29 162.848 159.363C170.123 159.714 176.443 162.292 181.72 167.381C186.767 172.255 189.558 178.304 191.09 185.016C192.5 191.225 192.643 197.516 192.006 203.829C191.392 210.101 189.771 216.078 186.874 221.557ZM349.959 119.717C349.968 120.803 349.566 121.749 348.976 122.592C348.162 123.746 347.321 124.885 346.448 125.989C344.32 128.631 341.594 130.557 338.643 132.167C333.362 135.05 327.767 137.114 321.992 138.781C315.503 140.663 309.153 142.989 302.901 145.578C296.225 148.334 290.211 152.067 285.283 157.432C283.549 159.333 281.895 161.278 280.352 163.336C278.178 166.25 276.406 169.385 274.995 172.686C273.032 177.234 271.838 182.034 271.184 186.959C269.2 202 271.544 216.473 277.147 230.45C281.366 241.007 286.947 250.836 293.671 259.99C293.781 260.138 293.855 260.319 293.963 260.501C293.307 260.521 293.032 260.072 292.679 259.702C291.718 258.664 290.977 257.45 290.145 256.308C287.367 252.535 284.688 248.677 281.686 245.058C277.051 239.471 272.155 234.104 267.62 228.432C262.689 222.279 258.443 215.738 255.302 208.465C253.074 203.321 251.715 197.996 251.268 192.444C250.592 184.06 251.737 175.917 254.77 168.054C256.22 164.303 258.178 160.834 260.76 157.781C268.284 148.9 277.411 142.163 288.227 137.794C301.185 132.552 314.637 129.19 328.414 127.038C331.467 126.567 334.512 126.143 337.478 125.169C341.15 123.96 344.686 122.43 348.028 120.461C348.63 120.131 349.172 119.594 349.959 119.717ZM183.222 229.374C184.581 231.488 185.336 233.809 186.133 236.117C188.301 242.344 189.891 248.67 190.025 255.323C190.239 266.051 187.164 275.723 180.714 284.275C177.196 288.921 172.918 292.796 167.996 295.914C164.633 298.046 161.18 300.057 157.797 302.161C152.338 305.556 146.725 308.692 141.74 312.804C141.493 312.998 141.219 313.178 140.952 313.344C139.705 314.083 139.015 313.91 138.277 312.629C137.609 311.473 137.416 310.215 137.636 308.906C138.255 305.113 140.153 301.908 142.418 298.923C144.192 296.574 146.224 294.419 148.143 292.185C150.724 289.166 153.068 285.946 155.662 282.934C158.335 279.844 160.527 276.488 162.388 272.878C162.953 271.795 163.498 270.719 163.916 269.555C165.502 265.182 166.527 260.689 167.091 256.081C167.7 251.236 168.512 246.434 170.102 241.802C170.867 239.573 171.985 237.68 174.21 236.47C177.28 234.804 179.956 232.589 182.254 229.954C182.45 229.696 182.678 229.473 183.222 229.374ZM192.928 187.117C192.755 186.829 192.65 186.736 192.628 186.619C192.072 183.781 191.302 180.981 190.207 178.297C189.984 177.755 189.81 177.187 189.89 176.603C190.22 173.803 190.549 171.036 191.896 168.45C193.673 165.055 196.058 162.137 198.596 159.321C202.038 155.506 205.88 152.069 208.9 147.88C210.933 145.063 212.712 142.106 213.884 138.795C216.09 132.549 216.485 126.137 215.922 119.596C215.442 114.008 214.321 108.536 213.112 103.067C212.899 102.128 212.665 101.196 212.724 100.147C213.646 100.309 214.302 100.794 214.92 101.347C215.875 102.207 216.75 103.146 217.555 104.151C221.518 109.122 224.551 114.607 226.96 120.462C229.066 125.573 230.296 130.879 230.136 136.426C229.915 144.854 227.693 152.766 223.891 160.255C222.407 163.184 220.484 165.835 218.547 168.478C215.573 172.553 212.154 176.172 208.144 179.219C203.562 182.699 198.536 185.374 192.928 187.117ZM88.7133 246.383C87.956 246.678 87.3909 246.47 86.8423 246.358C85.3239 246.074 83.8705 245.548 82.4318 244.995C79.1986 243.743 75.9566 242.54 72.651 241.545C67.9485 240.142 63.1251 239.493 58.2355 239.278C53.2095 239.057 48.2734 238.327 43.4507 236.858C43.0799 236.74 42.7003 236.669 42.3592 236.497C41.3224 235.975 40.927 234.988 41.3484 233.913C41.5791 233.308 41.9165 232.762 42.4068 232.318C43.3222 231.517 44.1989 230.659 45.147 229.894C49.2664 226.524 53.4259 223.176 57.5454 219.806C59.9806 217.805 62.4738 215.889 65.1866 214.269C65.7822 213.919 66.3302 213.403 67.2866 213.566C71.2216 218.243 75.727 222.52 81.1608 225.689C86.5545 228.836 92.445 230.74 98.7636 232.218C94.8901 236.877 91.7877 241.718 88.7133 246.383ZM281.423 231.93C280.979 231.597 280.906 231.068 280.749 230.597C279.088 225.785 277.391 221.006 275.821 216.157C273.532 209.077 272.283 201.789 272.059 194.354C271.808 186.432 273.556 178.903 276.785 171.724C278.511 167.917 280.704 164.369 283.424 161.131C288.146 155.477 293.716 150.939 300.473 147.88C309.056 143.982 317.954 141.027 326.97 138.365C327.136 138.317 327.229 138.369 327.25 138.52C327.176 138.968 326.717 139.01 326.416 139.174C324.506 140.227 322.589 141.293 320.64 142.29C314.328 145.491 308.811 149.745 303.921 154.851C300.096 158.856 296.529 163.055 293.576 167.753C290.156 173.168 287.747 179.057 285.808 185.136C283.355 192.868 281.815 200.809 281.116 208.902C280.479 216.348 280.279 223.793 281.501 231.223C281.532 231.45 281.672 231.702 281.423 231.93ZM164.518 117.625C164.172 117.556 164.008 117.569 163.929 117.49C160.547 114.272 156.56 111.957 152.39 109.908C150.309 108.876 148.477 107.459 146.715 105.977C142.632 102.544 138.913 98.738 135.315 94.8069C129.457 88.4362 122.921 82.9112 115.345 78.6945C115.105 78.5613 114.767 78.4786 114.759 78.0205C115.48 78.1058 116.173 78.1764 116.866 78.281C122.755 79.2424 128.682 79.9798 134.623 80.5335C137.624 80.8184 140.613 81.219 143.557 81.8909C147.637 82.8094 151.538 84.2735 155.371 85.8919C157.707 86.8727 160.056 88.018 161.833 90.1021C161.707 99.3331 162.528 108.495 164.518 117.625ZM170.339 238.478C168.61 242.039 167.618 245.433 167.02 248.905C165.956 254.981 164.405 260.927 162.496 266.796C161.397 270.165 160.149 273.486 158.426 276.562C156.468 280.031 154.171 283.295 151.642 286.377C148.783 289.835 145.897 293.278 143.005 296.701C141.711 298.217 140.55 299.807 139.294 301.379C140.857 295.318 142.072 289.221 143.403 283.136C144.533 277.917 146.344 272.919 148.25 267.938C149.557 264.509 151.032 261.156 152.68 257.899C155.926 251.445 160.582 246.069 166.139 241.489C167.324 240.454 168.499 239.342 170.339 238.478ZM158.03 61.0698C158.495 61.0487 158.545 61.3377 158.652 61.554C160.448 65.2718 162.742 68.6896 165.156 72.017C167.17 74.7739 168.939 77.6912 170.211 80.8743C173.175 88.3103 174.568 96.062 174.714 104.048C174.824 109.989 174.056 115.845 173.336 121.71C172.718 126.76 172.462 131.818 173.012 136.903C173.342 139.896 173.584 142.892 174.038 145.883C173.741 145.474 173.527 145.041 173.355 144.597C171.956 140.855 170.632 137.103 169.511 133.27C167.542 126.525 165.925 119.714 164.654 112.814C163.173 104.875 162.728 96.8626 162.865 88.8071C162.953 83.3592 162.332 78.0246 160.97 72.7678C160.113 69.4658 159.255 66.1637 158.411 62.8691C158.286 62.2763 158.168 61.6701 158.03 61.0698ZM306.51 347.496C311.035 345.537 315.385 343.482 319.549 341.008C323.909 338.4 328.096 335.538 332.315 332.712C341.38 326.622 351.078 322.225 361.98 320.347C372.895 318.475 383.798 317.853 394.812 318.828C395.248 318.86 395.8 318.713 396.191 319.331C395.49 319.431 394.919 319.516 394.342 319.58C388.389 320.276 382.544 321.503 376.766 323.046C368.293 325.329 360.175 328.577 352.206 332.186C343.589 336.082 334.955 339.882 325.942 342.825C320.24 344.672 314.494 346.286 308.578 347.229C307.883 347.35 307.204 347.41 306.51 347.496ZM122.61 106.173C119.969 103.034 117.77 99.7913 115.866 96.3627C113.188 91.528 110.706 86.5923 107.733 81.9432C107.489 81.5639 107.295 81.1594 107.121 80.7489C106.406 79.0789 106.874 78.2038 108.691 77.885C110.274 77.6109 111.738 78.0558 113.144 78.7305C116.451 80.3197 119.589 82.2159 122.494 84.4369C126.252 87.3228 129.822 90.4534 133.028 93.958C136.305 97.5543 139.596 101.158 142.901 104.735C143.842 105.745 144.882 106.671 146.096 107.85C138.214 105.854 130.524 105.151 122.61 106.173ZM86.9067 157.454C82.7507 158.466 79.3044 160.464 75.8326 162.256C69.9429 156.793 63.8042 148.661 60.4616 141.94C60.3487 141.703 60.2284 141.479 60.157 141.23C59.711 139.989 59.9236 139.164 60.9635 138.327C61.353 138.002 61.8079 137.748 62.2628 137.494C64.7905 136.051 67.4921 135.019 70.274 134.188C71.928 133.691 73.6341 133.415 75.5108 133.304C79.1943 141.331 82.7473 149.373 86.9067 157.454ZM76.8605 272.425C76.7878 272.368 76.7284 272.317 76.6483 272.273C77.653 270.335 78.7852 268.449 79.6489 266.45C81.8556 261.305 84.396 256.344 87.1648 251.475C88.5011 249.127 89.7113 246.692 91.193 244.459C93.4563 241.037 95.8323 237.695 98.3211 234.433C102.641 228.749 107.73 223.945 113.573 219.89C113.862 219.683 114.141 219.401 114.591 219.407C114.522 219.595 114.492 219.806 114.371 219.93C111.76 222.689 109.593 225.78 107.531 228.964C105.081 232.754 103.173 236.826 101.56 241.027C100.145 244.745 98.6023 248.409 96.738 251.93C93.5152 257.996 89.135 263.001 83.5797 267.041C81.5072 268.545 79.4659 270.118 77.6205 271.904C77.4131 272.121 77.1272 272.259 76.8605 272.425ZM212.885 108.891C213.391 109.364 213.426 109.679 213.481 109.989C214.498 115.648 214.974 121.338 214.477 127.083C214.147 130.826 213.04 134.366 211.28 137.7C209.534 141.007 207.535 144.14 205.238 147.089C203.199 149.728 201.292 152.475 199.253 155.114C196.615 158.52 193.971 161.905 191.85 165.667C191.702 165.934 191.661 166.418 191.035 166.35C191.186 165.701 191.314 165.091 191.471 164.463C192.766 159.23 194.404 154.101 196.178 149.012C197.858 144.219 199.832 139.556 202.423 135.164C204.544 131.558 206.478 127.849 208.532 124.207C209.892 121.785 210.822 119.194 211.611 116.543C212.348 114.142 212.746 111.693 212.885 108.891ZM145.258 219.811C145.129 218.501 145.371 217.309 145.599 216.11C146.608 210.858 148.191 205.768 149.84 200.714C152.447 192.737 153.917 184.67 153.038 176.243C152.824 174.205 152.823 172.128 153.054 170.075C153.099 169.646 152.957 169.148 153.557 168.853C153.597 169.189 153.631 169.505 153.652 169.813C154.338 178.935 156.83 187.506 161.453 195.443C162.389 197.061 163.332 198.665 164.191 200.328C164.771 201.453 165.385 202.613 165.145 203.928C164.417 204.799 163.54 205.342 162.632 205.816C161.319 206.484 159.98 207.137 158.622 207.729C155.448 209.11 152.681 211.048 150.274 213.501C148.376 215.415 146.596 217.43 145.258 219.811ZM400.658 315.49C400.669 315.566 400.672 315.655 400.682 315.73C399.913 315.67 399.151 315.597 398.381 315.537C384.315 314.371 370.568 311.497 356.931 307.951C346.767 305.318 336.507 303.33 326.026 302.686C325.706 302.665 325.233 302.857 325.01 302.315C325.354 302.261 325.664 302.206 325.98 302.171C339.529 300.556 352.917 301.433 366.186 304.635C371.623 305.94 376.937 307.594 382.232 309.377C388.368 311.435 394.507 313.459 400.658 315.49ZM183.766 228.297C184.319 227.521 184.712 226.622 185.396 226.112C187.253 224.715 188.34 222.753 189.508 220.835C191.852 216.952 193.658 212.876 193.984 208.258C194.009 207.992 194.033 207.761 194.396 207.736C194.485 207.89 194.616 208.032 194.676 208.205C194.825 208.567 194.96 208.921 195.075 209.281C197.266 216.097 197.553 223.009 196.217 230.016C195.567 233.424 194.356 236.679 192.964 239.851C192.269 241.42 191.307 242.841 189.808 244.192C188.081 238.68 186.812 233.161 183.766 228.297ZM87.8635 247.569C86.7886 250.359 86.67 250.415 84.1708 250.705C79.199 251.299 74.309 250.77 69.4482 249.716C65.3051 248.815 61.329 247.361 57.4593 245.653C55.2864 244.692 53.1223 243.685 51.0826 242.484C49.4761 241.542 47.9421 240.499 46.3429 239.543C45.803 239.226 45.2215 238.921 44.985 238.215C45.5586 238.061 45.9741 238.414 46.4264 238.542C50.7907 239.705 55.2462 240.168 59.7385 240.407C65.6081 240.712 71.2639 242.032 76.7972 243.983C80.4055 245.25 83.8941 246.922 87.8635 247.569ZM85.345 109.266C85.5982 108.935 85.6514 108.807 85.7492 108.757C91.1416 106.302 96.6262 104.09 102.505 103.056C107.626 102.16 112.756 102.351 117.862 103.088C118.344 103.163 118.919 103.133 119.261 103.619C119.88 104.486 120.702 105.238 121.155 106.309C120.797 106.39 120.555 106.448 120.3 106.498C114.138 107.602 108.102 109.142 102.368 111.74C101.505 112.133 100.745 111.992 99.9681 111.631C99.2043 111.277 98.4848 110.843 97.7047 110.55C93.7953 109.134 89.7696 108.525 85.345 109.266ZM86.7568 119.785C85.7822 119.245 84.9649 118.861 84.2276 118.366C82.747 117.353 81.2812 116.313 80.2093 114.847C79.1434 113.401 79.452 112.246 81.0849 111.441C81.5384 111.221 82.0319 111.024 82.5224 110.894C86.3596 109.828 90.2243 109.562 94.1036 110.561C95.9958 111.051 97.8926 111.597 99.7145 112.938C95.2024 115.096 91.0553 117.509 86.7568 119.785Z" fill="#98958B"/>
<path d="M81.065 128.321C84.4165 129.359 87.7808 129.775 91.1451 130.192C98.4031 131.109 105.682 131.863 112.929 132.862C121.508 134.04 129.986 135.843 138.262 138.354C142.431 139.618 146.527 141.138 150.42 143.121C151.904 143.874 153.472 144.446 154.948 145.247C160.263 148.158 165.077 151.752 169.593 155.79C170.646 156.723 171.687 157.649 172.872 158.69C172.73 157.687 172.067 157.214 171.549 156.7C168.78 153.857 165.781 151.269 162.56 148.926C158.735 146.16 154.601 143.921 150.368 141.923C142.163 138.055 133.443 135.682 124.57 133.87C116.509 132.228 108.357 131.287 100.186 130.474C94.0624 129.872 87.9301 129.317 81.8493 128.354C81.5853 128.295 81.3244 128.325 81.065 128.321Z" fill="#98958B"/>
<path d="M182.274 165.752C181.448 164.125 180.679 162.459 179.768 160.89C176.413 155.104 172.016 150.224 166.852 146C163.656 143.391 160.285 141.034 156.635 139.15C148.758 135.099 140.669 131.557 131.926 129.729C129.285 129.173 126.605 128.908 123.916 128.657C121.099 128.387 118.296 128.124 115.483 127.909C114.727 127.856 113.947 127.72 112.76 128.004C115.077 128.294 116.96 128.518 118.855 128.783C123.366 129.399 127.914 129.757 132.36 130.773C135.866 131.564 139.231 132.766 142.617 133.963C145.652 135.035 148.583 136.328 151.462 137.714C155.037 139.451 158.544 141.343 161.843 143.608C165.189 145.916 168.278 148.466 171.114 151.347C174.827 155.132 177.807 159.454 180.631 163.899C181.08 164.601 181.43 165.354 182.274 165.752Z" fill="#98958B"/>
<path d="M158.142 54.0652C160.801 58.8718 163.563 63.3343 166.859 67.4643C172.782 74.883 179.294 81.7733 186.134 88.3566C190.839 92.9019 195.261 97.7084 199.108 103.016C201.689 106.576 203.677 110.453 205.155 114.587C205.308 115.004 205.482 115.414 205.656 115.824C205.668 115.866 205.742 115.89 206.047 116.094C205.894 115.52 205.808 115.141 205.701 114.767C203.63 108.176 200.214 102.374 195.758 97.0942C191.576 92.1408 186.886 87.6918 182.333 83.0915C175.558 76.2651 169.032 69.2102 163.514 61.2827C162.084 59.2338 160.718 57.133 159.295 55.0708C159.056 54.7463 158.955 54.2365 158.142 54.0652Z" fill="#98958B"/>
<path d="M186.986 238.074C186.728 236.901 186.464 235.708 186.219 234.577C191.11 231.042 193.191 225.966 194.666 220.502C192.67 225.677 190.441 230.706 185.638 234.081C185.954 236.786 186.289 239.519 186.582 242.265C187.558 251.461 186.574 260.477 183.661 269.227C182.415 272.986 180.631 276.552 178.485 279.951C175.584 284.555 172.105 288.595 168.078 292.208C168 292.287 167.986 292.436 167.858 292.731C169.142 291.925 170.092 290.968 171.06 290.04C172.085 289.072 173.129 288.133 174.102 287.102C177.602 283.37 180.417 279.173 182.561 274.55C185.683 267.783 187.279 260.623 187.751 253.19C188.028 248.755 187.895 244.336 187.139 239.938C187.036 239.305 187.022 238.669 186.96 238.025L186.986 238.074Z" fill="#98958B"/>
<path d="M97.0987 122.883C99.1013 122.544 101.117 122.213 103.127 121.862C111.689 120.396 120.259 120.173 128.841 121.598C132.769 122.257 136.576 123.355 140.333 124.669C143.928 125.929 147.372 127.524 150.699 129.299C156.973 132.62 162.593 136.869 166.998 142.556C167.231 142.86 167.485 143.158 167.746 143.442C167.825 143.52 167.969 143.513 168.117 143.56C168.22 143.059 167.857 142.77 167.618 142.446C164.49 138.234 160.723 134.733 156.366 131.794C154.288 130.381 152.165 129.047 149.938 127.9C136.293 120.842 121.91 118.139 106.666 120.578C104.96 120.854 103.239 121.156 101.53 121.5C100.021 121.798 98.5227 122.171 97.0123 122.503C97.0481 122.628 97.0838 122.752 97.0987 122.883Z" fill="#98958B"/>
<path d="M76.2371 188.131C77.5334 188.657 78.8134 189.245 80.1274 189.676C81.0572 189.983 81.8924 190.428 82.7556 190.854C86.0352 192.463 89.3975 193.89 92.8043 195.238C97.3397 197.036 101.931 198.639 106.564 200.073C114.744 202.601 123.065 204.403 131.689 204.368C135.085 204.348 138.493 204.213 141.94 203.663C141.567 203.108 141.099 203.354 140.716 203.352C137.702 203.374 134.678 203.477 131.659 203.444C123.574 203.359 115.727 201.836 108.016 199.499C103.43 198.109 98.884 196.549 94.3606 194.949C91.9507 194.101 89.6279 192.971 87.2489 192.036C84.2115 190.841 81.3352 189.229 78.1839 188.303C77.5625 188.133 76.9456 188.017 76.2371 188.131Z" fill="#98958B"/>
<path d="M76.3136 125.339C76.9871 125.729 77.6438 125.709 78.2399 125.831C87.0613 127.579 95.9552 127.781 104.905 127.315C110.293 127.039 115.708 126.969 121.094 127.075C126.896 127.186 132.562 128.267 138.157 129.728C139.394 130.048 140.616 130.393 141.893 130.735C141.302 129.849 140.288 129.915 139.486 129.662C133.349 127.761 127.156 126.213 120.657 126.1C115.25 126 109.859 125.995 104.469 126.306C95.7852 126.796 87.1284 126.482 78.5137 125.337C78.011 125.267 77.501 125.212 76.9761 125.182C76.819 125.182 76.6382 125.257 76.3136 125.339Z" fill="#98958B"/>
<path d="M89.9367 118.424C92.1206 118.483 94.0977 117.939 96.0703 117.34C102.224 115.464 108.44 113.884 114.842 113.07C122.165 112.139 129.313 112.908 136.32 115.065C139.611 116.086 142.853 117.29 146.24 118.452C145.283 117.66 144.295 117.112 143.273 116.72C139.698 115.331 136.107 113.969 132.391 112.991C126.079 111.342 119.71 111.215 113.283 112.136C107.096 113.034 101.053 114.553 95.1504 116.638C93.9989 117.047 92.8236 117.372 91.6662 117.76C91.0971 117.968 90.5132 118.203 89.9367 118.424Z" fill="#98958B"/>
<path d="M196.787 144.481C197.355 143.33 197.567 142.348 197.774 141.346C198.846 136.2 198.392 131.132 197.014 126.093C195.28 119.775 192.551 113.9 188.943 108.445C183.768 100.621 178.578 92.8236 173.376 85.0189C173.1 84.6041 172.93 84.0913 172.3 83.8117C172.233 84.2461 172.468 84.5157 172.64 84.8031C176.849 91.7252 181.108 98.5879 185.696 105.266C188.907 109.926 191.901 114.726 194.013 120.015C196.082 125.193 197.565 130.482 197.607 136.106C197.661 138.841 197.07 141.514 196.787 144.481Z" fill="#98958B"/>
<path d="M147.96 175.452C147.272 175.088 146.851 175.344 146.451 175.436C136.919 177.865 127.382 177.534 117.851 175.427C114.217 174.616 110.67 173.523 107.23 172.14C100.351 169.373 94.3844 165.246 89.3189 159.838C89.0963 159.61 88.9166 159.336 88.5475 159.341C88.3759 159.682 88.6044 159.931 88.8004 160.144C91.1336 162.798 93.6697 165.181 96.582 167.232C105.636 173.629 115.833 176.612 126.71 177.738C132.173 178.305 137.607 178.072 143.001 177.031C144.641 176.718 146.232 176.24 147.96 175.452Z" fill="#98958B"/>
<path d="M162.671 101.089C162.67 100.146 162.285 99.7058 161.997 99.2494C159.771 95.8345 156.961 93.0026 153.676 90.5536C150.351 88.0824 146.708 86.1852 143.035 84.3414C139.141 82.3925 135.004 81.0412 130.736 80.0192C127.144 79.1625 116.119 77.3607 112.952 77.1234C113.673 77.6801 114.439 77.6513 115.102 77.8093C120.035 78.9212 125.04 79.6536 129.956 80.8604C134.642 82.0095 139.131 83.6081 143.467 85.7671C146.35 87.2084 149.131 88.8025 151.811 90.5493C154.83 92.502 157.545 94.8447 159.831 97.6474C160.728 98.7377 161.605 99.7998 162.671 101.089Z" fill="#98958B"/>
<path d="M95.2413 149.406C96.6302 150.647 98.2183 150.899 99.6021 151.457C106.221 154.062 113.022 156.087 119.822 158.146C126.015 160.008 132.222 161.844 138.578 163.098C143.063 163.979 147.574 164.595 152.165 164.278C153.069 164.221 154.037 164.269 154.932 163.631C154.408 163.253 153.968 163.323 153.537 163.346C145.892 163.662 138.469 162.287 131.111 160.355C122.373 158.077 113.745 155.475 105.098 152.846C101.86 151.854 98.7013 150.626 95.2413 149.406Z" fill="#98958B"/>
<path d="M167.868 239.691C165.445 239.814 163.355 240.906 161.388 242.189C157.608 244.631 154.205 247.56 150.866 250.56C143.06 257.558 134.79 263.915 125.679 269.142C122.556 270.936 119.389 272.618 116.241 274.363C115.688 274.667 115.058 274.859 114.496 275.559C115.066 275.631 115.403 275.434 115.758 275.264C128.368 269.045 140.136 261.574 150.543 252.056C152.526 250.242 154.555 248.47 156.656 246.79C160.109 243.993 163.606 241.272 167.868 239.691Z" fill="#98958B"/>
<path d="M136.259 232.361C133.225 232.703 130.479 233.973 127.711 235.125C117.501 239.377 108.645 245.688 100.482 253.046C96.9019 256.262 93.3026 259.449 89.5994 262.509C89.3447 262.717 88.8348 262.818 88.9065 263.381C90.2803 262.886 91.3379 261.955 92.4534 261.107C95.6664 258.648 98.6777 255.955 101.708 253.29C109.055 246.805 116.949 241.096 125.833 236.876C128.908 235.422 132.089 234.185 135.228 232.836C135.563 232.672 135.911 232.517 136.259 232.361Z" fill="#98958B"/>
<path d="M176.974 83.471C179.472 86.2691 181.952 89.0049 184.389 91.7867C187.693 95.555 190.828 99.4391 193.687 103.571C196.519 107.654 198.89 112.004 200.48 116.724C202.239 121.957 203.255 127.302 202.057 132.832C202.006 133.083 202.015 133.349 202.018 133.595C202.02 133.718 202.076 133.837 202.112 133.961C203.123 132.987 203.233 131.687 203.349 130.407C203.67 126.711 203.202 123.084 202.281 119.52C200.663 113.214 197.679 107.546 193.906 102.262C189.16 95.6174 183.584 89.6824 177.886 83.8719C177.664 83.6439 177.42 83.4217 176.974 83.471Z" fill="#98958B"/>
<path d="M130.207 210.596C128.892 210.356 127.831 210.57 126.753 210.688C117.14 211.816 107.69 210.887 98.3766 208.325C94.3653 207.218 90.2963 206.341 86.3707 204.985C83.2266 203.888 80.0973 202.764 77.0449 201.439C75.5557 200.788 74.0547 200.095 72.2279 199.833C73.1316 200.596 74.1871 200.518 75.0045 201.058C75.8086 201.591 76.7103 201.916 77.6106 202.276C79.6929 203.116 81.7323 204.002 83.8368 204.802C88.0933 206.411 92.4473 207.656 96.8457 208.82C102.413 210.301 108.027 211.633 113.812 211.995C118.773 212.302 123.696 212.047 128.594 211.272C129.108 211.226 129.637 211.153 130.207 210.596Z" fill="#98958B"/>
<path d="M132.19 167.444C131.019 167.196 129.855 166.935 128.682 166.721C122.811 165.63 117.078 164.04 111.457 162.059C105.137 159.829 99.0805 156.995 93.4328 153.394C88.9556 150.546 84.6486 147.39 80.9457 143.523C80.6904 143.259 80.3922 143.042 79.9961 142.717C79.8767 143.437 80.2788 143.782 80.5787 144.122C82.4355 146.251 84.6137 148.052 86.8067 149.826C91.5889 153.698 96.9734 156.578 102.432 159.324C106.379 161.303 110.567 162.752 114.801 164.087C120.134 165.769 125.579 166.903 131.108 167.664C131.448 167.713 131.811 167.687 132.159 167.689C132.162 167.62 132.18 167.525 132.19 167.444Z" fill="#98958B"/>
<path d="M152.15 169.784C151.656 169.353 151.184 169.702 150.735 169.819C142.718 171.971 134.559 172.806 126.284 172.337C120.293 172 114.483 170.769 108.854 168.677C104.205 166.956 99.6537 165.061 95.4036 162.496C95.2567 162.414 95.0655 162.413 94.4827 162.3C106.008 169.561 118.093 173.45 131.379 173.346C140.707 173.3 149.739 171.71 152.15 169.784Z" fill="#98958B"/>
<path d="M55.9807 189.222C57.6892 189.855 59.2907 190.271 60.8006 190.916C62.9216 191.813 65.0573 192.682 67.1532 193.687C70.8094 195.435 74.4138 197.276 78.0715 198.989C81.0929 200.402 84.129 201.788 87.2406 203.007C94.3493 205.831 101.635 208.02 109.296 208.776C110.187 208.869 111.084 208.982 111.975 209.075C112.228 209.093 112.481 209.076 112.837 209.064C112.543 208.587 112.11 208.644 111.73 208.573C107.245 207.849 102.721 207.226 98.3641 205.892C95.1267 204.901 91.8759 203.901 88.7479 202.586C86.1435 201.492 83.4917 200.545 80.8947 199.437C79.1905 198.702 77.4744 197.925 75.8368 197.07C72.9829 195.575 70.0462 194.261 67.1612 192.854C64.0552 191.342 60.8531 190.003 57.4632 189.223C57.1518 189.155 56.8389 189.122 56.5261 189.088C56.4104 189.076 56.2845 189.146 55.9807 189.222Z" fill="#98958B"/>
<path d="M210.882 111.497C210.72 110.309 210.583 109.203 210.336 108.106C209.387 103.741 207.127 100.011 204.678 96.3676C200.501 90.1438 195.244 84.9259 189.589 80.0464C185.515 76.5323 181.312 73.1902 176.986 70.0069C176.416 69.5864 175.99 69.0012 175.333 68.7068C175.051 68.5855 174.785 68.4034 174.416 68.4081C178.817 72.0865 183.254 75.7323 187.604 79.47C194.335 85.2425 200.617 91.4467 205.393 99.0146C207.703 102.686 209.631 106.512 210.336 110.846C210.368 111.038 210.443 111.219 210.504 111.393C210.53 111.407 210.599 111.41 210.882 111.497Z" fill="#98958B"/>
<path d="M114.207 266.918C114.978 266.787 115.591 266.342 116.241 265.987C128.221 259.488 139.767 252.26 150.851 244.323C153.507 242.427 156.106 240.447 159.191 239.226C158.897 238.592 158.458 238.942 158.155 239.018C156.486 239.384 155.048 240.245 153.669 241.191C150.706 243.23 147.763 245.298 144.8 247.337C135.277 253.907 125.477 260.061 115.456 265.831C115.014 266.092 114.605 266.389 114.183 266.678C114.149 266.677 114.192 266.788 114.207 266.918Z" fill="#98958B"/>
<path d="M52.0436 194.089C57.0632 199.611 62.9341 204.069 69.4195 207.734C77.6123 212.38 86.488 215.101 95.9188 216.979C95.1484 215.976 94.216 216.052 93.4463 215.835C88.8343 214.552 84.2252 213.202 79.7314 211.548C76.1661 210.235 72.8552 208.4 69.5295 206.591C63.7459 203.455 58.6507 199.392 53.8383 194.944C53.5623 194.687 53.2655 194.435 52.9614 194.197C52.7626 194.051 52.5208 193.952 52.3072 193.834C52.2213 193.926 52.1428 194.005 52.0436 194.089Z" fill="#98958B"/>
<path d="M180.333 247.996C179.637 248.622 179.774 249.257 179.696 249.807C178.965 254.968 177.511 259.92 175.712 264.803C173.549 270.689 170.563 276.17 167.231 281.425C163.138 287.864 158.296 293.765 152.685 298.978C152.365 299.272 151.939 299.472 151.829 300.144C153.928 298.655 155.741 296.99 157.382 295.195C160.69 291.62 163.7 287.826 166.52 283.841C169.494 279.609 171.948 275.088 174.207 270.478C177.342 264.066 179.461 257.284 180.215 250.129C180.29 249.49 180.29 248.862 180.333 247.996Z" fill="#98958B"/>
<path d="M104.593 138.675C106.232 139.811 108.166 140.289 110.042 140.841C115.933 142.554 121.867 144.098 127.744 145.837C132.649 147.283 137.5 148.89 142.343 150.544C145.366 151.575 148.38 152.687 151.306 153.925C153.635 154.919 156.014 155.854 158.295 156.996C155.732 155.418 153.16 153.888 150.368 152.69C140.692 148.547 130.628 145.639 120.509 142.926C116.253 141.788 111.932 140.894 107.71 139.601C106.664 139.283 105.632 138.972 104.593 138.675Z" fill="#98958B"/>
<path d="M148.361 204.012C147.902 203.549 147.572 203.61 147.28 203.727C143.941 205.122 140.407 205.327 136.88 205.361C128.404 205.444 119.962 204.9 111.72 202.704C108.072 201.729 104.526 200.444 100.978 199.193C100.13 198.898 99.2243 198.832 98.4232 198.388C99.532 199.63 101.141 199.876 102.545 200.428C105.811 201.715 109.098 202.996 112.526 203.832C121.953 206.126 131.497 206.792 141.156 206.021C143.617 205.832 146.03 205.32 148.361 204.012Z" fill="#98958B"/>
<path d="M194.456 150.482C194.465 149.615 194.509 148.749 194.484 147.881C194.302 141.376 192.908 135.107 190.471 129.114C187.705 122.329 184.577 115.692 181.107 109.232C179.677 106.554 177.881 104.128 176.246 101.599C176.118 101.388 175.956 101.176 175.553 101.18C176.018 102.45 176.822 103.488 177.527 104.577C181.126 110.237 183.846 116.351 186.642 122.42C187.987 125.347 189.297 128.272 190.392 131.304C192.327 136.722 193.512 142.299 193.937 148.049C193.982 148.754 194.048 149.454 194.128 150.161C194.137 150.271 194.208 150.362 194.251 150.474C194.306 150.469 194.374 150.472 194.456 150.482Z" fill="#98958B"/>
<path d="M153.26 288.653C170.761 272.791 175.382 246.98 174.026 237.084C173.473 237.232 173.68 237.678 173.678 238.026C173.541 246.081 172.048 253.908 169.611 261.579C167.749 267.457 164.932 272.823 161.699 277.993C160.006 280.701 157.776 283.025 155.711 285.458C154.885 286.413 153.9 287.246 153.26 288.653Z" fill="#98958B"/>
<path d="M96.8744 188.839C95.3906 187.58 93.4969 187.124 91.6906 186.541C86.3325 184.81 80.9447 183.132 75.3651 182.273C68.4213 181.198 61.5351 181.342 54.7217 183.149C52.8765 183.645 50.9286 183.821 49.0705 184.781C49.6092 185.289 50.0996 185.002 50.5339 184.911C53.4346 184.338 56.3204 183.634 59.2361 183.191C67.1589 181.964 74.9845 182.708 82.709 184.704C87.1015 185.847 91.4526 187.16 95.8273 188.398C96.1788 188.488 96.5185 188.694 96.8744 188.839Z" fill="#98958B"/>
<path d="M74.352 130.167C75.5674 131.311 76.7635 132.428 78.2483 133.181C79.2109 133.68 80.1648 134.226 81.1112 134.786C84.4592 136.711 87.9212 138.369 91.5325 139.725C94.7598 140.955 97.9027 142.401 101.152 143.591C105.229 145.083 109.367 146.435 113.552 147.638C116.501 148.488 119.43 149.343 122.491 149.993C122.216 149.387 121.657 149.356 121.178 149.213C116.081 147.766 111.011 146.177 106.001 144.447C102.984 143.403 100.062 142.062 97.0622 140.958C93.2744 139.574 89.5634 137.988 85.8673 136.375C83.2851 135.24 80.8759 133.73 78.3853 132.367C77.0355 131.654 75.7004 130.914 74.352 130.167Z" fill="#98958B"/>
<path d="M88.7171 286.675C95.3101 286.84 101.508 285.041 107.653 283.055C117.372 279.91 131.157 271.759 135.816 266.472C135.351 266.302 135.083 266.659 134.787 266.879C132.701 268.375 130.648 269.907 128.549 271.396C117.207 279.452 104.576 284.229 90.8768 286.337C90.1549 286.443 89.433 286.549 88.7171 286.675Z" fill="#98958B"/>
<path d="M68.016 179.159C69.1372 179.624 70.0341 179.58 70.9059 179.644C77.7677 180.237 84.4597 181.609 90.9171 184.001C93.9174 185.106 96.8482 186.399 99.7258 187.82C103.413 189.637 107.049 191.547 110.676 193.505C112.031 194.239 113.615 194.437 114.992 195.479C114.812 194.734 114.294 194.691 113.934 194.491C109.995 192.308 106.087 190.072 102.102 188.003C92.1019 182.808 81.5916 179.321 70.2085 179.014C69.5739 178.993 68.9304 178.863 68.016 179.159Z" fill="#98958B"/>
<path d="M188.243 151.96C187.574 150.018 186.57 148.24 185.677 146.419C182.764 140.529 180.476 134.393 178.853 128.032C177.712 123.543 177.176 118.936 176.516 114.365C176.316 112.963 176.129 111.568 175.895 110.164C175.768 109.448 175.587 108.737 175.384 107.874C175.18 108.18 175.053 108.284 175.063 108.359C175.661 113.263 176.142 118.188 176.905 123.078C178.282 131.99 181.371 140.333 185.682 148.237C186.297 149.363 186.961 150.464 187.604 151.57C187.731 151.781 187.83 152.045 188.243 151.96Z" fill="#98958B"/>
<path d="M126.218 137.035C131.082 138.65 135.864 140.288 140.531 142.195C142.479 142.995 144.462 143.763 146.308 144.839C147.922 145.768 149.573 146.631 151.313 147.334C152.872 147.953 154.149 149.08 155.611 149.908C159.92 152.366 163.824 155.368 167.467 158.713C167.881 159.1 168.373 159.408 168.851 159.742C168.924 159.8 169.091 159.718 169.367 159.662C168.79 158.278 167.587 157.489 166.578 156.633C162.257 152.999 157.705 149.655 152.657 147.049C145.985 143.595 139.154 140.524 131.895 138.507C129.998 137.961 128.151 137.2 126.218 137.035Z" fill="#98958B"/>
<path d="M65.8858 174.785C73.3366 174.378 80.6888 174.685 87.9256 176.742C95.1491 178.791 101.833 181.973 107.998 186.246C98.3362 176.946 78.9021 171.548 65.8858 174.785Z" fill="#98958B"/>
<path d="M148.752 182.714C140.837 185.219 132.78 186.058 124.599 184.664C116.466 183.279 108.944 180.383 102.247 175.275C102.801 176.228 103.804 177.22 105.035 177.99C113.141 183.076 121.937 185.91 131.536 186.223C136.872 186.389 142.032 185.55 147.09 183.887C147.388 183.79 147.687 183.659 147.993 183.549C148.285 183.432 148.571 183.294 148.849 183.169C148.828 183.018 148.787 182.873 148.752 182.714Z" fill="#98958B"/>
<path d="M212.721 102.763C213.278 105.253 214.441 107.468 215.792 109.596C218.835 114.371 221.872 119.125 224.48 124.148C226.595 128.235 228.234 132.458 228.928 137.031C229.408 140.194 229.03 143.3 228.664 146.447C229.196 146.149 229.137 145.627 229.252 145.167C230.695 139.162 229.681 133.435 227.287 127.868C225.403 123.491 223.009 119.372 220.495 115.343C217.877 111.187 214.776 107.305 212.721 102.763Z" fill="#98958B"/>
<path d="M144.108 222.734C142.698 222.319 141.333 222.609 139.979 222.941C127.818 225.989 117.131 231.668 108.285 240.637C106.622 242.315 105.018 244.044 103.387 245.757C103.122 246.046 102.878 246.33 102.819 246.751C105.41 244.313 107.987 241.868 110.57 239.443C116.69 233.692 123.839 229.611 131.582 226.504C135.467 224.941 139.467 223.739 143.586 222.951C143.779 222.918 143.941 222.816 144.108 222.734Z" fill="#98958B"/>
<path d="M127.354 251.103C124.098 253.136 120.873 255.24 117.551 257.202C110.522 261.35 103.171 264.884 95.8952 268.563C90.7002 271.198 85.523 273.894 80.3815 276.715C81.0606 276.813 81.6221 276.461 82.1733 276.19C89.2503 272.68 96.2886 269.113 103.41 265.679C111.006 262.02 118.238 257.758 125.208 253.054C126.01 252.521 126.856 252.065 127.354 251.103Z" fill="#98958B"/>
<path d="M183.284 81.2809C185.714 83.7617 188.052 86.1226 190.384 88.4969C194.7 92.8958 198.71 97.5618 202.204 102.657C205.202 107.04 207.509 111.757 208.681 116.978C208.733 117.199 208.701 117.478 209.144 117.654C209.004 115.797 208.558 114.083 208.042 112.401C206.454 107.142 203.461 102.656 200.201 98.3358C195.596 92.2235 190.059 86.9732 184.493 81.7764C184.309 81.6046 184.082 81.4788 183.855 81.353C183.748 81.2938 183.597 81.3147 183.284 81.2809Z" fill="#98958B"/>
<path d="M160.85 111.806C160.543 110.501 159.78 109.485 159.115 108.418C155.404 102.488 150.798 97.3522 145.239 93.119C142.743 91.2296 140.098 89.4842 137.42 87.8604C134.336 85.9938 131.112 84.3808 127.998 82.5676C126.338 81.5952 124.539 80.9993 122.727 80.3961C123.728 80.9511 124.683 81.6203 125.745 82.0345C127.62 82.777 129.29 83.825 130.959 84.9072C132.748 86.056 134.619 87.0579 136.445 88.1399C143.149 92.135 149.254 96.8629 154.28 102.877C156.263 105.25 157.993 107.797 159.758 110.311C160.098 110.831 160.495 111.312 160.85 111.806Z" fill="#98958B"/>
<path d="M148.286 233.46C147.616 232.81 146.813 233.063 146.093 233.135C142.108 233.491 138.231 234.378 134.469 235.748C125.497 238.994 117.614 244.116 110.055 249.82C109.85 249.968 109.684 250.173 109.526 250.364C109.49 250.397 109.528 250.487 109.537 250.597C110.264 250.355 110.806 249.818 111.418 249.406C117.344 245.328 123.404 241.48 129.992 238.536C135.368 236.142 140.957 234.528 146.812 233.883C147.204 233.838 147.582 233.786 147.954 233.713C148.058 233.683 148.138 233.57 148.286 233.46Z" fill="#98958B"/>
<path d="M42.3152 233.175C44.282 232.713 46.1702 232.171 48.0912 231.823C53.3799 230.846 58.7097 230.991 64.0412 231.259C70.8997 231.606 77.7554 232.021 84.6065 232.381C86.0105 232.461 87.4056 232.432 88.86 232.453C88.6608 231.993 88.3332 231.986 88.0129 231.966C77.6346 231.325 67.2972 230.202 56.8691 230.25C52.2629 230.279 47.7671 230.928 43.4249 232.464C43.0499 232.606 42.5325 232.563 42.3152 233.175Z" fill="#98958B"/>
<path d="M170.407 137.415C170.26 135.728 169.343 134.329 168.423 132.965C165.844 129.179 162.674 125.956 159.05 123.145C155.796 120.608 152.329 118.425 148.634 116.621C144.604 114.666 140.552 112.751 135.918 111.98C136.417 112.466 136.93 112.611 137.449 112.776C139.822 113.533 142.164 114.378 144.434 115.445C146.524 116.428 148.607 117.426 150.629 118.564C158.611 123.023 165.205 128.947 169.975 136.809C170.11 137.006 170.259 137.21 170.407 137.415Z" fill="#98958B"/>
<path d="M165.826 280.246C168.218 277 170.216 273.553 171.846 269.92C175.235 262.358 177.747 254.52 178.443 246.181C178.675 243.431 178.69 240.665 178.418 237.914C178.278 236.528 178.035 235.171 177.416 233.991C176.931 233.984 176.909 234.181 176.949 234.36C178.579 241.685 177.685 248.902 175.98 256.071C174.957 260.372 173.442 264.522 171.732 268.583C170.219 272.194 168.464 275.706 166.456 279.077C166.255 279.471 166.04 279.858 165.826 280.246Z" fill="#98958B"/>
<path d="M114.21 271.352C102.066 278.022 89.2422 282.831 75.7141 285.733C75.9681 286.187 76.5491 286.021 76.9879 285.985C78.0715 285.888 79.164 285.743 80.2267 285.494C91.6765 282.785 102.609 278.742 112.801 272.822C113.243 272.561 113.698 272.307 114.126 272.038C114.21 271.981 114.258 271.832 114.323 271.746C114.281 271.601 114.245 271.477 114.21 271.352Z" fill="#98958B"/>
<path d="M56.391 232.654C57.9627 232.81 59.5372 232.898 61.0852 233.127C66.7953 233.972 72.492 234.809 78.2872 234.776C84.0824 234.742 89.8417 234.427 95.5589 233.496C96.1918 233.393 96.8352 233.366 97.6603 232.759C96.7427 232.808 96.1201 232.83 95.4886 232.899C87.2435 233.668 78.9731 234.231 70.6999 233.571C67.9555 233.359 65.2198 232.941 62.4857 232.647C60.4663 232.418 58.4439 232.257 56.391 232.654Z" fill="#98958B"/>
<path d="M109.554 175.976C111.164 177.164 112.765 177.424 114.279 177.81C120.49 179.42 126.765 180.63 133.23 180.427C138.327 180.268 143.337 179.573 148.201 177.977C149.372 177.596 150.485 177.131 151.537 176.493C151.804 176.327 152.097 176.175 152.071 175.655C138.062 181.535 123.966 180.265 109.554 175.976Z" fill="#98958B"/>
<path d="M214.958 117.997C214.915 119.334 215.54 120.379 216.089 121.468C218.228 125.638 220.359 129.82 221.983 134.228C223.814 139.204 225.095 144.293 224.771 149.663C224.672 151.196 224.491 152.718 224.34 154.345C224.833 153.99 224.874 153.507 224.963 153.032C226.038 147.346 225.543 141.785 223.739 136.318C221.948 130.858 219.467 125.731 216.527 120.803C215.992 119.879 215.486 118.935 214.958 117.997Z" fill="#98958B"/>
<path d="M154.065 254.864C152.125 256.633 150.901 258.746 149.36 260.614C144.268 266.778 138.505 272.168 131.795 276.528C128.134 278.914 124.417 281.18 120.494 283.124C120.278 283.231 120.06 283.372 119.759 283.537C122.238 283.568 134.583 275.875 139.222 272.008C145.079 267.14 150.138 261.604 154.065 254.864Z" fill="#98958B"/>
<path d="M110.95 221.821C97.916 225.467 85.7052 223.41 74.0367 216.628C74.5046 217.515 75.2093 217.976 75.9302 218.375C84.5783 223.239 93.821 225.204 103.673 224.086C106.233 223.813 108.741 223.319 110.95 221.821Z" fill="#98958B"/>
<path d="M180.664 262.576C185.508 255.664 186.754 234.839 182.623 228.501C183.894 234.144 184.404 239.836 184.049 245.607C183.688 251.391 182.363 256.992 180.664 262.576Z" fill="#98958B"/>
<path d="M144.941 224.696C145.24 226.014 146.009 226.894 146.845 227.653C151.034 231.493 156.032 233.339 161.692 233.423C164.027 233.461 166.298 233.08 168.542 232.526C170.22 232.112 171.893 231.644 173.549 231.113C174.518 230.813 175.432 230.36 176.3 229.707C174.919 230.058 173.545 230.396 172.162 230.781C169.314 231.575 166.425 232.19 163.47 232.419C158.137 232.848 153.323 231.331 148.954 228.351C147.865 227.608 146.901 226.638 146.038 225.583C145.77 225.278 145.663 224.747 144.941 224.696Z" fill="#98958B"/>
<path d="M152.458 225.303C158.984 229.776 166.147 230.675 173.76 228.875C179.302 227.567 185.649 224.176 186.908 221.872C183.633 223.878 180.386 225.83 176.763 227.015C171.233 228.836 165.603 229.484 159.876 228.072C157.327 227.444 154.899 226.377 152.458 225.303Z" fill="#98958B"/>
<path d="M192.81 203.071C190.338 206.9 186.768 209.091 182.905 210.928C179.348 212.622 175.583 213.274 171.672 213.183C169.617 213.143 167.574 212.988 165.528 212.901C164.86 212.879 164.191 212.7 163.497 212.944C163.754 213.331 164.14 213.422 164.513 213.472C168.917 214.029 173.33 214.538 177.727 213.625C183.434 212.461 188.272 209.716 192.133 205.33C192.656 204.765 193.053 204.112 192.81 203.071Z" fill="#98958B"/>
<path d="M191.141 201.831C181.996 209.483 171.546 210.042 160.329 207.419C161.347 208.384 161.346 208.419 161.908 208.538C168.262 209.984 174.606 210.377 180.949 208.379C184.647 207.218 187.877 205.327 190.596 202.594C190.817 202.384 190.966 202.083 191.141 201.831Z" fill="#98958B"/>
<path d="M183.804 176.877C183.442 175.892 182.727 175.67 182.131 175.392C178.675 173.755 175.075 172.789 171.218 172.693C165.895 172.569 160.921 173.86 156.152 176.103C155.678 176.328 155.049 176.486 154.927 177.43C156.261 176.913 157.47 176.432 158.699 175.979C164.084 174.008 169.601 173.123 175.346 174.126C177.76 174.557 180.05 175.337 182.292 176.266C182.702 176.441 183.145 176.617 183.804 176.877Z" fill="#98958B"/>
<path d="M122.756 192.524C129.756 197.085 148.887 195.475 152.564 189.975C147.697 192.268 142.9 193.744 137.829 194.266C132.812 194.783 127.935 193.947 122.756 192.524Z" fill="#98958B"/>
<path d="M125.66 84.203C131.954 88.529 137.001 93.8745 141.963 99.312C144.933 102.581 147.86 105.896 151.157 108.858C152.776 110.314 154.38 111.796 156.302 112.862C156.516 112.98 156.727 113.167 157.128 113.04C150.511 108.134 145.354 101.82 139.79 95.9267C136.887 92.8518 133.885 89.8615 130.559 87.2672C129.117 86.1537 127.739 84.7971 125.66 84.203Z" fill="#98958B"/>
<path d="M162.809 176.372C165.107 176.32 167.4 176.213 169.716 176.223C173.452 176.252 177.147 176.607 180.693 177.892C184.501 179.271 187.858 181.306 190.435 184.497C190.922 185.098 191.396 185.692 191.882 186.294C191.915 186.329 191.998 186.305 192.189 186.307C191.136 183.926 189.491 182.107 187.564 180.515C183.642 177.294 178.974 176.05 174.054 175.574C170.25 175.227 166.492 175.395 162.809 176.372Z" fill="#98958B"/>
<path d="M115.349 166.624C109.603 164.207 103.654 162.409 98.2171 159.309C92.8605 156.252 87.8519 152.725 82.9655 148.411C83.4307 149.524 83.8538 150.178 84.4221 150.632C86.7605 152.522 89.1137 154.385 91.5958 156.109C94.0378 157.812 96.644 159.187 99.1836 160.682C101.903 162.294 104.885 163.336 107.832 164.411C110.273 165.328 112.759 166.165 115.349 166.624Z" fill="#98958B"/>
<path d="M163.011 189.169C164.394 189.255 165.685 188.942 166.969 188.798C171.583 188.25 176.197 188.207 180.817 188.814C183.698 189.19 186.442 190.065 189.114 191.162C190.437 191.704 191.343 192.904 192.703 193.378C191.654 191.68 189.732 190.301 187.457 189.493C180.35 186.95 173.106 186.983 165.8 188.325C164.925 188.486 164.042 188.694 163.166 188.889C163.125 188.901 163.107 188.996 163.011 189.169Z" fill="#98958B"/>
<path d="M209.506 145.529C212.096 151.309 213.5 157.025 213.601 163.014C213.687 168.053 212.699 172.827 209.78 177.054C209.525 177.419 209.316 177.827 209.102 178.214C209.072 178.268 209.09 178.33 209.087 178.398C211.578 176.045 213.024 173.217 213.905 169.046C214.971 164.036 214.485 159.09 213.299 154.175C212.731 151.801 211.934 149.492 210.824 147.306C210.548 146.734 210.32 146.137 209.506 145.529Z" fill="#98958B"/>
<path d="M187.665 266.473C184.227 278.754 176.585 288.163 167.676 296.836C168.12 297.012 168.333 296.659 168.579 296.498C168.915 296.301 169.2 296.04 169.484 295.779C172.356 293.305 174.782 290.409 177.194 287.506C179.08 285.236 180.682 282.756 182.356 280.334C183.004 279.385 183.648 278.381 184.049 277.311C184.832 275.268 186.045 273.427 186.627 271.307C187.09 269.714 187.629 268.146 187.665 266.473Z" fill="#98958B"/>
<path d="M103.629 237.358C107.669 233.438 111.733 230.072 116.123 227.096C120.554 224.108 125.482 222.145 130.688 220.058C123.194 220.668 106.572 231.259 103.629 237.358Z" fill="#98958B"/>
<path d="M187.793 165.966C182.084 156.87 177.259 147.407 174.256 137.052C173.743 137.379 174.065 137.837 174.144 138.229C174.904 141.896 176.239 145.376 177.698 148.82C179.959 154.156 182.61 159.29 186.06 163.959C186.481 164.524 186.921 165.082 187.349 165.633C187.487 165.762 187.661 165.858 187.793 165.966Z" fill="#98958B"/>
<path d="M159.469 182.775C164.187 181.726 168.895 180.915 173.776 181.492C178.61 182.06 183.065 183.814 187.513 185.582C178.622 179.99 169.296 178.712 159.469 182.775Z" fill="#98958B"/>
<path d="M143.147 106.966C132.233 101.562 122.32 94.6361 113.105 86.7015C117.792 91.533 129.317 101.691 143.147 106.966Z" fill="#98958B"/>
<path d="M163.541 168C166.268 167.959 169.008 167.803 171.772 168.043C175.366 168.36 178.881 169.07 182.121 170.656C183.834 171.501 185.362 172.68 186.689 174.096C187.094 174.53 187.424 175.132 188.1 175.297C188.498 174.61 188.006 174.302 187.707 173.928C185.462 171.147 182.53 169.383 179.143 168.378C174.406 166.974 169.572 166.754 164.686 167.413C164.308 167.466 163.94 167.594 163.574 167.687C163.519 167.692 163.435 167.75 163.441 167.77C163.438 167.839 163.477 167.895 163.541 168Z" fill="#98958B"/>
<path d="M146.658 211.113C146.147 210.271 145.603 210.371 145.096 210.404C143.609 210.505 142.164 210.751 140.716 211.065C133.935 212.593 127.68 215.408 121.629 218.737C120.313 219.473 118.959 220.153 117.836 221.171C122.504 219.047 126.931 216.476 131.753 214.734C136.54 213.025 141.366 211.53 146.658 211.113Z" fill="#98958B"/>
<path d="M217.742 171.033C219.643 168.423 220.91 165.601 221.488 162.449C222.825 155.25 222.649 148.138 220.467 141.118C219.987 139.56 219.54 138.004 218.623 136.606C219.143 138.5 219.726 140.376 220.206 142.282C221.985 149.305 222.204 156.372 220.517 163.446C219.968 165.759 219.169 167.986 217.968 170.059C217.833 170.334 217.617 170.598 217.742 171.033Z" fill="#98958B"/>
<path d="M186.968 238.011C187.738 238.386 188.181 237.776 188.628 237.378C190.05 236.073 191.168 234.528 192.161 232.863C194.435 229.011 195.963 224.902 196.744 220.502C196.995 219.105 197.109 217.702 197.066 216.3C197.038 215.5 197.046 214.667 196.571 213.95C196.17 214.076 196.274 214.36 196.277 214.607C196.434 219.108 195.413 223.376 193.734 227.506C193.345 228.459 193.051 229.43 192.588 230.36C191.225 233.007 189.585 235.431 187.421 237.477C187.236 237.654 187.137 237.896 186.998 238.115L186.968 238.011Z" fill="#98958B"/>
<path d="M139.852 85.928C141.589 87.1702 143.245 88.245 144.914 89.3271C149.237 92.1073 153.301 95.1975 156.567 99.2237C158.891 102.083 160.739 105.236 162.229 108.592C162.397 108.982 162.445 109.462 162.863 109.746C163.186 109.541 162.944 109.285 162.876 109.125C160.619 102.901 157.093 97.6134 151.781 93.5C148.52 90.9768 145.103 88.734 141.556 86.6633C141.07 86.3761 140.607 86.0148 139.852 85.928Z" fill="#98958B"/>
<path d="M130.155 102.573C121.347 96.644 113.435 89.7282 106.489 81.2891C106.806 82.6689 107.488 83.5177 108.165 84.3117C111.758 88.5022 115.559 92.4761 119.974 95.8136C121.868 97.2469 123.725 98.7128 125.641 100.106C127.025 101.135 128.565 101.884 130.155 102.573Z" fill="#98958B"/>
<path d="M192.525 195.147C185.101 199.094 177.22 198.86 169.28 198.386C169.5 198.839 169.813 198.873 170.132 198.927C174.718 199.533 179.313 199.933 183.917 199.152C186.532 198.717 189.044 197.964 191.38 196.676C191.926 196.385 192.503 196.13 192.525 195.147Z" fill="#98958B"/>
<path d="M147.25 238.226C136.251 240.783 126.645 246.243 117.556 252.721C119.065 252.266 120.341 251.351 121.653 250.525C127.436 246.925 133.351 243.591 139.696 241.053C142.198 240.067 144.725 239.129 147.25 238.226Z" fill="#98958B"/>
<path d="M75.3421 222.237C68.7816 219.054 55.9458 220.455 51.1342 224.034C51.9483 224.172 52.4742 223.852 53.0077 223.677C57.3056 222.22 61.7004 221.376 66.2489 221.42C69.2614 221.432 72.2491 221.866 75.3421 222.237Z" fill="#98958B"/>
<path d="M105.444 180.747C97.4827 174.519 88.4936 171.089 78.3822 170.597C88.1402 172.01 97.1043 175.548 105.444 180.747Z" fill="#98958B"/>
<path d="M64.1911 240.118C74.4588 241.273 84.677 241.824 94.557 237.948C89.6036 239.076 84.6292 240.053 79.5324 240.212C74.4001 240.403 69.2673 240.123 64.1911 240.118Z" fill="#98958B"/>
<path d="M123.376 188.54C124.208 189.211 125.016 189.17 125.744 189.242C133.458 190.029 141.005 189.291 148.277 186.499C149.541 186.014 150.78 185.479 151.848 184.623C152.103 184.415 152.37 184.249 152.4 183.69C143.298 188.555 133.603 189.516 123.376 188.54Z" fill="#98958B"/>
<path d="M204.869 181.347C211.162 172.481 210.621 159.478 207.165 153.183C207.309 153.804 207.433 154.431 207.598 155.046C208.993 160.652 209.444 166.294 208.246 171.982C207.833 173.986 207.224 175.934 206.278 177.766C205.676 178.915 205.551 180.242 204.869 181.347Z" fill="#98958B"/>
<path d="M138.129 313.21C138.732 312.532 138.658 311.689 138.954 310.998C140.321 307.777 142.405 305.024 144.53 302.293C147.435 298.563 150.709 295.144 153.936 291.715C154.237 291.393 154.451 291.006 154.633 290.583C152.701 291.99 151.163 293.79 149.501 295.434C146.727 298.171 144.17 301.116 141.936 304.327C140.554 306.318 139.263 308.394 138.353 310.665C138.027 311.443 137.876 312.25 138.129 313.21Z" fill="#98958B"/>
<path d="M123.152 256.259C114.799 261.662 105.855 266.022 97.0956 271.026C100.263 270.443 120.094 259.415 123.152 256.259Z" fill="#98958B"/>
<path d="M77.1622 134.953C83.4469 139.483 93.1265 144.029 102.804 146.531C101.615 145.401 100.142 145.195 98.8424 144.737C94.3739 143.132 89.9882 141.347 85.7401 139.219C82.8907 137.779 80.0219 136.311 77.1622 134.953Z" fill="#98958B"/>
<path d="M179.324 218.017C170.187 222.724 161.014 221.862 151.825 218.322C158.386 223.267 173.435 223.163 179.324 218.017Z" fill="#98958B"/>
<path d="M201.255 126.629C201.993 120.669 194.902 105.85 188.751 100.574C194.81 108.347 199.508 116.779 201.255 126.629Z" fill="#98958B"/>
<path d="M199.996 184.753C202.593 181.045 204.184 177.198 204.578 172.898C204.992 168.311 204.528 163.796 203.515 159.326C203.481 159.167 203.365 158.998 203.207 158.684C202.907 159.32 203.125 159.808 203.202 160.269C203.861 164.526 204.26 168.812 203.777 173.116C203.462 176.013 202.703 178.768 201.283 181.331C200.707 182.338 200.219 183.376 199.996 184.753Z" fill="#98958B"/>
<path d="M106.908 78.8338C107.909 79.3889 108.903 79.9572 109.912 80.4989C113.525 82.4495 116.847 84.8318 120.074 87.3534C122.289 89.0874 124.534 90.7679 126.786 92.4351C127.23 92.7683 127.706 93.137 128.414 93.2149C125.096 90.259 121.683 87.5996 118.198 85.0396C115.766 83.2554 113.333 81.5054 110.682 80.0535C109.521 79.4097 108.308 78.8593 106.908 78.8338Z" fill="#98958B"/>
<path d="M79.7697 142.086C77.7596 140.832 75.9201 139.743 73.8838 138.946C71.5523 138.02 69.1988 137.291 66.7151 136.891C65.4533 136.681 64.1663 136.578 62.8915 136.674C62.1992 136.726 61.5099 136.868 60.9473 137.568C62.1422 137.585 63.3549 137.507 64.5455 137.626C65.8724 137.751 67.2173 137.938 68.5134 138.307C69.7413 138.674 70.9884 138.911 72.2015 139.304C73.468 139.727 74.7464 140.192 75.9449 140.769C77.1093 141.344 78.2765 141.852 79.7697 142.086Z" fill="#98958B"/>
<path d="M152.078 212.861C155.749 216.344 166.781 218.481 174.694 215.887C172.116 215.941 169.557 216.495 166.973 216.371C164.41 216.242 161.888 215.943 159.371 215.351C156.868 214.766 154.508 213.702 152.078 212.861Z" fill="#98958B"/>
<path d="M168.949 224.236C169.326 224.846 169.742 224.693 170.098 224.681C175.319 224.644 180.265 223.372 185.015 221.258C186.31 220.685 187.452 219.852 188.536 218.935C188.798 218.714 188.958 218.489 188.995 217.951C182.864 222.021 176.118 223.708 168.949 224.236Z" fill="#98958B"/>
<path d="M192.705 155.812C189.745 147.802 186.91 139.756 184.026 131.736C183.517 131.803 183.695 132.112 183.762 132.306C186.145 139.437 188.478 146.593 191.277 153.571C191.598 154.378 191.946 155.198 192.705 155.812Z" fill="#98958B"/>
<path d="M220.918 112.786C224.752 119.534 228.747 126.181 230.888 134.156C231.164 128.935 225.37 118.167 220.918 112.786Z" fill="#98958B"/>
<path d="M179.732 185.229C175.617 182.547 164.491 182.626 157.721 185.487C158.496 185.759 159.072 185.538 159.597 185.41C161.847 184.877 164.129 184.537 166.417 184.252C170.923 183.679 175.337 184.311 179.732 185.229Z" fill="#98958B"/>
<path d="M128.69 262.923C136.513 258.256 144.376 253.611 150.916 247.133C143.861 252.871 136.231 257.82 128.69 262.923Z" fill="#98958B"/>
<path d="M59.6006 203.565C65.5859 209.675 72.9635 213.084 80.8221 215.625C79.1661 214.236 77.0323 213.804 75.1456 212.863C74.1755 212.377 73.1388 212.012 72.191 211.487C69.1456 209.834 66.0647 208.213 63.2917 206.1C62.3852 205.406 61.5008 204.671 60.6165 203.937C60.3583 203.741 60.1579 203.473 59.6006 203.565Z" fill="#98958B"/>
<path d="M178.411 231.628C170.954 235.888 163.194 236.821 154.842 234.163C155.545 234.815 156.228 235.158 156.991 235.355C163.776 237.126 170.32 236.653 176.547 233.229C177.24 232.829 177.993 232.478 178.411 231.628Z" fill="#98958B"/>
<path d="M180.384 196.113C173.563 196.013 166.817 195.747 160.432 192.94C160.394 193.669 160.824 193.838 161.234 194.013C164.049 195.294 167 196.11 170.075 196.418C173.531 196.763 176.983 196.74 180.384 196.113Z" fill="#98958B"/>
<path d="M70.7804 166.837C82.6307 165.798 84.9035 167.302 91.3167 168.484C91.0686 168.05 90.6311 167.894 90.207 167.747C89.7902 167.585 89.3572 167.485 88.9183 167.364C84.0853 165.976 79.201 165.153 74.1581 165.813C72.9767 165.961 71.8369 166.254 70.7804 166.837Z" fill="#98958B"/>
<path d="M219.041 155.875C220.407 150.734 216.737 137.898 213.629 134.658C216.537 141.47 218.832 148.413 219.041 155.875Z" fill="#98958B"/>
<path d="M120.271 106.675C113.681 103.388 106.705 102.278 99.3938 103.251C102.948 103.389 106.503 103.493 110.02 104.168C113.49 104.835 116.865 105.799 120.271 106.675Z" fill="#98958B"/>
<path d="M63.7508 142.996C67.4791 145.621 71.4456 147.785 75.677 149.502C77.6318 150.289 79.5718 151.103 81.5724 151.775C82.4682 152.08 83.4219 152.469 84.7807 151.844C80.7635 150.873 77.4113 149.207 73.8845 147.95C70.3177 146.671 67.1548 144.569 63.7508 142.996Z" fill="#98958B"/>
<path d="M159.305 91.388C153.711 85.7049 146.763 82.6558 139.135 80.9578C146.427 83.3247 153.219 86.6882 159.305 91.388Z" fill="#98958B"/>
<path d="M191.948 145.184C190.252 136.688 187.53 128.532 183.755 120.733C185.023 124.838 186.72 128.798 188.07 132.879C189.413 136.974 190.556 141.115 191.948 145.184Z" fill="#98958B"/>
<path d="M181.588 142.338C183.811 149.346 186.9 155.927 192.095 161.511C192.379 160.779 192.002 160.482 191.755 160.171C187.485 154.873 184.362 148.919 181.821 142.642C181.764 142.523 181.659 142.43 181.588 142.338Z" fill="#98958B"/>
<path d="M196.473 159.907C195.404 161.112 194.996 162.351 194.725 163.597C193.513 169.12 193.701 174.668 194.36 180.564C194.961 179.763 194.788 179.162 194.751 178.6C194.55 174.807 194.532 171.028 194.952 167.248C195.173 165.276 195.346 163.295 196.162 161.444C196.329 161.048 196.35 160.571 196.473 159.907Z" fill="#98958B"/>
<path d="M143.323 97.3613C148.848 103.704 154.251 110.171 161.002 115.309C154.821 109.615 149.297 103.272 143.323 97.3613Z" fill="#98958B"/>
<path d="M205.7 171.443C207.752 166.7 206.189 156.045 202.761 151.335C202.953 152.785 203.585 153.659 203.844 154.64C204.131 155.759 204.536 156.855 204.81 157.967C205.079 159.024 205.265 160.104 205.438 161.177C205.612 162.25 205.743 163.335 205.82 164.425C205.894 165.583 205.899 166.737 205.878 167.877C205.86 168.949 205.781 170.005 205.7 171.443Z" fill="#98958B"/>
<path d="M184.748 227.69C190.558 225.205 195.4 214.959 195.108 210.103C191.095 222.536 191.148 220.803 184.748 227.69Z" fill="#98958B"/>
<path d="M149.287 199.884C147.512 199.686 146.011 200.285 144.462 200.403C142.926 200.529 141.379 200.613 139.851 200.535C138.243 200.446 136.656 200.317 135.042 200.207C133.556 200.116 132.072 199.834 130.407 199.941C136.19 201.977 146.342 201.986 149.287 199.884Z" fill="#98958B"/>
<path d="M155.035 169.428C161.166 165.515 167.734 164.497 174.787 165.719C169.876 163.119 156.804 165.418 155.035 169.428Z" fill="#98958B"/>
<path d="M104.743 107.769C98.5238 106.363 92.3101 105.955 86.1198 108.055C89.2153 108.044 92.2701 107.381 95.3715 107.391C98.4997 107.415 101.616 107.711 104.743 107.769Z" fill="#98958B"/>
<path d="M125.301 234.12C131.752 231.205 138.427 229.112 145.584 228.699C141.51 227.61 131.422 230.289 125.301 234.12Z" fill="#98958B"/>
<path d="M181.31 203.572C182.045 203.002 182.988 203.001 183.831 202.77C186.321 202.057 188.648 201.008 190.723 199.436C190.928 199.288 191.14 199.126 191.311 198.942C191.39 198.864 191.416 198.721 191.527 198.521C190.003 199.351 188.592 200.227 187.1 200.935C183.788 202.502 180.228 203.006 176.624 203.242C175.213 203.332 173.797 203.368 172.387 203.424C172.031 203.436 171.66 203.318 171.367 203.626C171.621 204.081 172.073 203.896 172.422 203.897C174.986 203.992 177.551 203.931 180.102 203.548C180.535 203.491 180.974 203.298 181.407 203.555L181.31 203.572Z" fill="#98958B"/>
<path d="M115.902 108.231C110 105.937 103.924 104.872 97.5751 105.715C100.671 106.017 103.781 105.979 106.854 106.513C109.886 107.025 112.859 107.8 115.902 108.231Z" fill="#98958B"/>
<path d="M102.683 286.983C109.204 286.428 114.916 283.679 120.449 280.341C120.019 280.487 119.577 280.591 119.18 280.772C115.981 282.262 112.801 283.78 109.471 284.97C107.23 285.77 104.896 286.203 102.683 286.983Z" fill="#98958B"/>
<path d="M50.1425 225.666C56.2043 224.018 62.4039 223.633 68.8973 223.568C65.8227 222.282 55.3201 223.441 50.1425 225.666Z" fill="#98958B"/>
<path d="M64.5522 149.547C68.7502 153.34 73.8061 155.27 79.2392 156.362C74.1847 154.398 69.1821 152.341 64.5522 149.547Z" fill="#98958B"/>
<path d="M199.344 155.548C198.385 156.587 198.171 157.917 197.917 159.224C197.1 163.343 197.327 167.5 197.349 171.805C197.965 171.448 197.788 170.949 197.79 170.6C197.901 168.289 197.972 165.99 198.042 163.691C198.125 160.927 198.574 158.228 199.344 155.548Z" fill="#98958B"/>
<path d="M74.4203 152.871C70.4919 150.292 66.1137 148.493 62.3111 145.687C65.5838 149.386 70.0347 151.085 74.4203 152.871Z" fill="#98958B"/>
<path d="M92.9374 239.895C89.1103 242.171 85.1811 243.152 81.072 243.544C84.6325 244.488 91.3508 242.506 92.9374 239.895Z" fill="#98958B"/>
<path d="M150.108 214.334C153.687 217.103 157.873 217.957 162.238 218.3C158.133 217.142 153.897 216.346 150.108 214.334Z" fill="#98958B"/>
<path d="M139.089 314.72C141.268 311.198 143.977 308.233 146.268 304.949C145.129 305.713 144.273 306.722 143.423 307.751C142.573 308.781 141.55 309.714 140.906 310.876C140.248 312.064 138.879 312.928 139.089 314.72Z" fill="#98958B"/>
<path d="M79.2272 163.562C83.3237 163.791 87.1602 164.993 91.0469 165.978C87.3061 164.132 83.4177 163.023 79.2272 163.562Z" fill="#98958B"/>
<path d="M181.401 203.534C180.653 204.253 179.652 204.17 178.73 204.322C177.169 204.556 175.583 204.584 174.014 204.674C177.656 205.471 181.095 204.621 184.495 203.399C183.393 202.963 182.403 204.055 181.31 203.571L181.401 203.534Z" fill="#98958B"/>
<path d="M181.984 238.25C182.54 235.609 182.264 231.006 181.567 229.399C181.512 229.403 181.444 229.4 181.382 229.418C181.333 229.443 181.263 229.474 181.241 229.515C181.209 229.636 181.169 229.771 181.178 229.881C181.434 232.535 181.698 235.177 181.984 238.25Z" fill="#98958B"/>
<path d="M212.961 137.341C214.067 140.257 215.126 143.165 216.136 146.097C215.695 142.957 214.721 139.991 212.961 137.341Z" fill="#98958B"/>
<path d="M270.443 233.068C270.76 234.29 271.442 234.477 271.983 234.759C273.981 235.814 275.783 237.162 277.656 238.41C278.487 238.958 278.992 239.778 279.497 240.599C284.262 248.406 289.677 255.734 295.938 262.416C296.487 262.999 296.905 263.789 298.102 264.086C290.94 255.754 284.412 247.285 279.106 237.904C279.366 237.089 279.584 236.285 279.856 235.511C280.127 234.771 280.762 234.129 280.613 232.982C279.416 233.976 279.235 235.341 278.293 236.442C276.174 232.772 274.378 229.054 272.776 225.27C273.19 224.051 273.641 222.922 274.219 221.847C274.783 220.799 275.854 220.031 276.041 218.686C274.799 219.132 274.799 219.132 273.846 220.82C273.321 221.768 272.795 222.716 272.166 223.85C270.829 220.753 269.738 217.81 268.826 214.827C269.798 212.696 271.58 211.275 272.82 209.415C270.791 210.053 269.93 211.984 268.553 213.367C267.927 212.671 268.045 211.986 268.472 211.246C269.442 209.497 270.484 207.806 271.95 206.42C272.356 206.035 272.715 205.606 273.145 205.146C271.683 204.981 271.541 205.112 267.677 210.194C267.286 209.89 267.273 209.411 267.161 208.983C265.797 203.603 264.963 198.15 264.673 192.597C264.596 191.194 265.044 190.133 265.968 189.127C267.666 187.26 269.683 185.795 271.681 184.268C272.225 183.854 272.92 183.576 273.184 182.815C271.266 183.095 269.065 184.737 264.718 189.115C264.692 184.913 265.185 180.842 266.066 176.828C266.338 175.583 266.813 174.38 267.091 173.121C267.283 172.303 267.75 171.776 268.411 171.34C270.246 170.106 272.269 169.29 274.323 168.545C275.572 168.085 276.802 167.598 278.001 167.041C275.896 166.904 273.956 167.538 268.269 170.179C268.04 169.773 268.346 169.472 268.502 169.192C269.983 166.488 271.365 163.712 273.02 161.104C274.96 158.044 277.665 155.652 280.414 153.337C280.867 152.96 281.453 152.849 282.019 152.709C284.147 152.144 286.337 152.066 288.522 152.091C289.922 152.116 291.323 152.108 292.996 152.111C290.938 151.196 288.254 151 283.464 151.329C283.436 150.72 283.999 150.648 284.329 150.43C288.52 147.623 293.071 145.521 297.735 143.657C298.652 143.293 299.605 143.21 300.572 143.293C302.866 143.5 305.167 143.693 307.807 143.935C305.796 142.873 303.749 143.134 302.024 142.248C305.2 141.775 308.238 142.813 311.363 142.905C309.326 141.951 307.089 141.705 304.89 141.044C305.577 140.78 306.253 140.474 306.945 140.264C309.036 139.609 311.132 139.008 313.217 138.332C314.658 137.874 316.1 137.696 317.587 137.91C318.79 138.07 320.012 138.259 321.216 138.385C321.875 138.455 322.547 138.722 323.353 138.401C321.843 137.599 320.164 137.733 318.654 137.088C320.229 136.041 324.979 134.713 327.779 134.416C330.916 134.078 334.044 133.945 337.206 133.813C334.765 132.739 332.184 133.333 329.658 133.293C334.449 131.011 339.535 129.328 343.375 125.454C338.943 128.634 333.957 130.669 328.504 132.636C330.458 130.212 332.643 128.475 333.914 125.898C333.241 125.665 333.051 126.101 332.812 126.439C331.309 128.52 329.668 130.472 327.829 132.28C327.223 132.869 326.567 133.36 325.75 133.605C323.031 134.418 320.332 135.226 317.612 136.039C317.446 136.087 317.236 136.057 316.791 136.072C318.44 133.444 320.577 131.226 321.223 128.234C321.103 128.167 320.996 128.108 320.876 128.042C320.499 128.722 320.114 129.416 319.736 130.097C318.708 131.953 317.76 133.852 316.372 135.474C315.992 135.909 315.673 136.483 315.153 136.665C313.427 137.261 311.705 137.912 309.569 138.333C311.864 135.61 313.931 133.109 315.181 130.067C314.22 131.14 313.278 132.241 312.562 133.501C311.675 135.069 310.49 136.419 309.352 137.812C308.567 138.755 307.591 139.226 306.178 139.35C308.532 136.206 311.011 133.339 312.869 129.641C311.827 130.355 311.339 131.079 310.843 131.816C309.212 134.192 307.567 136.561 305.678 138.742C305.139 139.368 304.585 140.02 303.773 140.321C301.016 141.358 298.246 142.387 295.128 143.573C296.16 141.65 297.19 140.074 297.878 138.362C298.556 136.696 299.521 135.05 299.332 132.904C298.103 134.334 297.89 135.978 297.322 137.443C296.494 139.566 295.334 141.471 294.206 143.411C293.852 144.017 293.266 144.477 292.618 144.764C288.976 146.392 285.492 148.3 281.998 150.795C283.172 146.944 284.749 143.438 284.17 139.54C283.371 139.534 283.506 140.045 283.499 140.372C283.403 143.285 282.724 146.085 281.794 148.832C281.192 150.61 280.392 152.243 278.831 153.454C277.573 154.432 276.497 155.65 275.362 156.784C275.091 157.052 274.885 157.392 274.435 157.386C273.388 150.333 272.943 148.9 271.366 147.589C270.895 147.904 271.187 148.258 271.332 148.564C272.614 151.352 273.171 154.313 273.529 157.321C273.63 158.145 273.465 158.821 273.006 159.491C271.812 161.237 270.464 162.881 269.537 164.932C268.862 164.418 268.828 163.754 268.654 163.186C267.664 160.124 265.852 157.567 263.703 155.242C263.409 154.922 263.076 154.58 262.527 154.625C262.627 155.483 263.326 155.923 263.794 156.496C265.86 159.002 267.45 161.769 268.502 164.847C268.848 165.859 268.825 166.719 267.916 167.541C266.134 163.639 264.267 159.829 260.759 156.995C260.333 157.858 260.928 158.171 261.223 158.456C263.429 160.586 264.979 163.173 266.347 165.868C266.701 166.553 266.915 167.3 267.22 168.01C267.655 169.019 267.496 169.873 266.665 170.616C263.277 163.189 261.291 160.256 259.051 159.416C259.119 160.239 259.722 160.661 260.18 161.158C262.764 164.022 264.459 167.387 265.928 170.906C266.208 171.567 266.324 172.207 266.101 172.956C265.081 176.212 264.441 179.539 263.97 182.908C263.953 183.003 263.806 183.078 263.634 183.262C260.992 179.529 257.807 176.333 254.101 173.668C253.703 173.377 253.295 173.012 252.704 173.103C252.422 173.61 252.839 173.771 253.145 173.975C256.302 176.214 259.072 178.866 261.557 181.814C262.221 182.601 262.757 183.491 263.343 184.322C263.66 184.759 263.79 185.216 263.747 185.767C263.554 188.854 263.615 191.924 263.804 195.204C262.086 194.462 261.105 192.958 259.644 192.13C258.129 191.273 256.811 190.124 255.267 189.321C253.248 188.271 251.567 187.653 250.266 187.7C251.485 188.62 252.707 189.123 253.892 189.693C257.348 191.329 260.404 193.529 263.292 196.002C263.68 196.34 263.949 196.768 264.028 197.318C264.261 199.227 264.536 201.124 264.784 203.007C264.252 203.305 264.03 202.92 263.788 202.664C261.25 200.001 258.373 197.76 255.243 195.851C254.697 195.513 254.231 195.063 253.707 194.685C252.872 194.083 252.642 194.025 251.37 194.053C253.619 195.631 255.821 197.201 258.031 198.723C260.375 200.319 262.447 202.217 264.425 204.221C265.231 205.034 265.56 205.984 265.477 207.456C261.339 203.051 256.831 199.628 251.905 196.74C251.678 196.614 251.444 196.502 251.141 196.701C250.921 197.067 251.292 197.185 251.531 197.353C253.634 198.815 255.774 200.246 257.855 201.748C260.68 203.768 263.232 206.09 265.54 208.695C266.009 209.235 266.332 209.85 266.521 210.548C267.312 213.464 268.166 216.363 269.333 219.453C267.774 218.833 266.57 218.078 265.402 217.256C264.242 216.421 263.083 215.552 261.756 215.113C260.395 214.673 259.237 213.612 257.688 213.731C258.541 214.553 259.551 215.06 260.576 215.541C263.309 216.846 265.863 218.472 268.492 219.964C269.899 220.761 270.451 222.096 270.905 223.796C267.12 221.21 263.599 218.525 259.085 217.192C259.701 218.284 260.6 218.678 261.466 219.036C265.026 220.485 268.001 222.832 271.128 224.967C271.474 225.194 271.673 225.496 271.842 225.852C273.517 229.38 275.205 232.915 276.901 236.56C274.782 235.473 272.739 234.34 270.443 233.068Z" fill="#98958B"/>
<path d="M403.558 318.948C402.566 318.502 401.62 318.414 400.681 318.313C390.464 317.099 380.225 316.239 369.918 316.319C368.326 316.327 366.914 315.631 365.57 314.938C362.648 313.441 359.785 311.836 356.966 310.152C355.447 309.24 354.082 308.082 352.565 307.136C354.309 309.499 356.733 310.982 359.258 312.347C361.742 313.689 364.094 315.272 366.808 316.2C364.021 316.662 361.32 316.875 358.767 315.216C357.044 314.104 355.01 313.587 353.216 312.54C349.868 310.615 346.716 308.431 343.682 306.034C343.245 305.687 342.803 305.32 341.789 305.229C347.493 310.083 353.308 314.075 360.621 316.436C359.086 316.876 357.977 317.081 356.92 316.722C355.775 316.332 354.6 315.995 353.528 315.348C351.755 314.295 349.945 313.31 348.121 312.351C345.442 310.918 343.133 308.975 340.716 307.164C339.345 306.143 338.165 304.808 336.43 304.318C342.081 309.456 348.191 313.925 355.323 316.989C354.713 317.052 354.115 317.122 353.512 317.171C350.501 317.439 347.481 317.597 344.478 318.009C341.743 318.378 339.261 317.63 336.809 316.637C332.859 315.041 329.192 312.904 325.496 310.82C322.86 309.341 320.393 307.59 317.931 305.859C316.75 305.03 315.447 304.36 314.224 303.542C315.664 305.51 317.753 306.685 319.707 307.977C321.733 309.328 323.678 310.825 325.872 311.936C327.999 313.01 330.021 314.306 332.172 315.306C334.363 316.328 336.515 317.451 338.801 318.492C337.42 318.651 336.034 318.79 334.654 318.95C332.231 319.23 329.765 319.364 327.382 319.822C324.062 320.46 320.869 320.016 317.657 319.231C310.719 317.548 304.381 314.436 298.356 310.696C296.625 309.631 294.896 308.533 293.138 307.454C293.392 308.223 293.972 308.719 294.617 309.129C297.24 310.757 299.783 312.498 302.486 314.014C307.731 316.956 313.278 319.071 319.131 320.414C319.361 320.471 319.651 320.388 319.865 320.821C318.27 321.053 316.721 321.329 315.162 321.529C309.928 322.187 304.695 322.812 299.447 323.463C297.744 323.67 296.138 323.356 294.535 322.816C290.116 321.344 286.047 319.175 282.025 316.859C279.297 315.294 276.561 313.777 273.881 311.402C274.337 312.72 275.165 313.178 275.824 313.753C278.106 315.681 280.77 316.983 283.338 318.459C286.693 320.371 290.057 322.236 293.796 323.331C293.978 323.38 294.115 323.543 294.281 323.652C292.629 324.272 291.53 324.239 289.556 323.581C284.214 321.789 279.38 318.987 274.554 316.138C273.407 315.467 272.424 314.503 271.358 313.686C271.073 313.475 270.836 313.117 270.399 313.276C271.971 315.98 280.335 320.947 288.765 324.189C288.374 324.549 287.934 324.461 287.544 324.472C282.982 324.736 278.43 324.952 273.859 325.262C272.318 325.368 270.897 325.034 269.564 324.417C265.824 322.693 262.285 320.609 259.112 317.926C258.532 317.43 257.8 317.146 257.146 316.12C257.627 317.678 258.235 318.155 260.489 319.945C261.857 321.035 263.416 321.812 264.741 322.948C266.033 324.048 267.793 324.273 269.527 325.426C267.878 325.506 266.61 325.589 265.331 325.63C262.95 325.706 260.578 325.735 258.197 325.811C256.815 325.848 255.546 325.494 254.316 324.847C251.743 323.507 249.388 321.836 247.091 320.092C246.734 319.824 246.398 319.516 245.9 319.501C246.472 320.83 246.935 321.192 253.86 325.606C253.377 325.879 252.918 325.764 252.467 325.759C249.053 325.716 245.682 325.278 242.322 324.759C241.63 324.655 240.948 324.469 239.968 324.693C241.643 325.482 243.245 325.707 244.798 325.992C246.438 326.308 248.105 326.481 249.773 326.621C251.42 326.766 253.085 326.816 254.834 327.123C254.181 327.389 253.527 327.655 252.866 327.934C251.385 328.561 249.947 329.265 248.609 330.199C248.06 330.592 247.363 330.904 247.226 331.718C247.685 332.024 247.908 331.59 248.188 331.431C249.351 330.75 250.464 329.97 251.652 329.338C254.82 327.621 258.155 326.643 261.809 326.819C263.473 326.904 265.154 326.736 266.822 326.718C267.238 326.722 267.713 326.497 268.177 326.981C266.202 327.806 264.318 328.716 262.517 329.794C260.533 330.98 258.645 332.307 256.918 333.88C256.393 334.356 255.847 334.804 255.767 335.58C256.339 335.775 256.557 335.319 256.89 335.033C260.581 331.774 264.682 329.162 269.294 327.391C270.196 327.053 271.131 326.752 272.074 326.594C273.147 326.421 274.24 326.433 275.434 326.641C275.079 326.776 274.705 326.918 274.35 327.053C269.386 328.925 264.726 331.35 260.542 334.615C259.652 335.308 259.645 335.321 259.099 336.432C259.988 336.244 260.499 335.638 261.084 335.212C265.961 331.546 271.24 328.696 277.047 326.785C278.35 326.355 279.651 326.117 281.013 326.052C283.848 325.913 286.672 325.699 289.487 325.532C289.843 325.52 290.191 325.521 290.609 325.805C290.015 326.121 289.44 326.466 288.84 326.761C282.802 329.783 277.482 333.744 272.828 338.615C272.127 339.344 271.534 340.131 271.315 341.249C271.736 340.837 272.189 340.46 272.591 340.019C278.231 333.653 285.16 329.119 292.826 325.585C293.411 325.316 294.045 325.179 294.69 325.118C297.063 324.898 299.431 324.657 301.866 324.42C301.918 325.146 301.279 325.228 300.92 325.465C295.649 328.93 290.845 332.968 286.595 337.644C285.083 339.301 283.59 340.987 282.555 343.012C282.368 343.38 281.977 343.739 282.305 344.218C282.547 344.317 282.67 344.158 282.759 343.998C285.129 339.658 288.576 336.212 292.166 332.915C295.139 330.165 298.371 327.734 301.7 325.444C303.192 324.421 304.757 323.928 306.53 324.003C306.581 324.573 306.067 324.619 305.787 324.778C298.39 329.211 292.088 334.913 286.562 341.482C285.785 342.412 285.132 343.464 284.441 344.459C284.193 344.811 283.985 345.218 284.215 345.905C284.827 345.179 285.41 344.63 285.841 343.979C288.494 339.918 291.976 336.596 295.51 333.337C299.193 329.935 303.26 327.007 307.546 324.375C308.387 323.864 309.257 323.491 310.249 323.465C310.329 323.666 310.402 323.881 310.475 324.096C311.374 323.513 312.318 323.164 313.363 323.01C317.631 322.427 321.908 321.796 326.162 321.205C326.443 321.169 326.756 321.046 327.186 321.372C318.27 326.689 310.152 332.834 303.876 341.133C302.45 343.013 300.996 344.911 300.002 347.083C299.837 347.444 299.478 347.839 299.795 348.276C300.05 348.383 300.219 348.267 300.307 348.107C304.49 340.34 310.438 334.144 317.36 328.803C320.772 326.174 324.305 323.736 328.052 321.573C328.9 321.083 329.783 320.717 330.751 320.608C334.854 320.195 338.95 319.796 343.039 319.41C343.388 319.377 343.803 319.258 344.311 319.696C340.407 321.86 336.841 324.42 333.535 327.299C330.264 330.145 326.915 332.912 324.536 336.637C325.026 337.013 325.19 336.685 325.371 336.454C329.338 331.69 333.996 327.694 338.923 323.969C340.971 322.417 343.18 321.076 345.412 319.818C346.435 319.233 347.521 318.911 348.706 318.852C350.342 318.765 351.976 318.588 353.669 318.619C351.883 320.456 349.441 321.493 348.095 323.731C351.028 321.936 353.275 319.047 356.834 318.262C355.477 319.639 353.562 320.323 352.368 322.069C353.019 322.028 353.346 321.721 353.712 321.47C354.296 321.078 354.893 320.694 355.457 320.274C357.624 318.631 360.024 317.954 362.771 317.784C372.82 317.16 382.821 317.852 392.823 318.668C395.444 318.882 398.08 319.069 400.71 319.236C401.646 319.249 402.54 319.273 403.558 318.948Z" fill="#98958B"/>
<path d="M309.335 324.232C300.709 330.444 292.365 336.585 286.943 346.021C287.833 346.147 287.952 345.743 288.13 345.422C291.028 340.258 295.143 336.17 299.602 332.378C302.579 329.84 305.634 327.415 308.851 325.168C309.069 325.027 309.326 324.942 309.335 324.232Z" fill="#98958B"/>
</g>
</g>
<defs>
<clipPath id="clip0_3902_4794">
<rect width="280.843" height="429.84" fill="white" transform="matrix(-0.48481 0.87462 0.87462 0.48481 136.155 0)"/>
</clipPath>
</defs>
</svg>
