<svg width="219" height="278" viewBox="0 0 219 278" fill="none" xmlns="http://www.w3.org/2000/svg">
<g opacity="0.15">
<rect width="162.255" height="123.175" transform="translate(101.09) rotate(30.9916)" fill="#FEFBF7"/>
<path d="M15.0189 276.415C18.1971 271.299 21.3495 266.167 24.5705 261.076C27.4538 256.528 30.3764 251.992 33.3539 247.5C35.3063 244.56 37.3237 241.648 39.4508 238.824C42.5548 234.723 46.003 230.923 49.6652 227.308C53.4387 223.587 57.1506 219.793 60.6657 215.822C63.0033 213.172 65.1938 210.398 67.3294 207.58C69.3193 204.965 71.0883 202.194 72.9121 199.468C74.2406 197.47 75.3036 195.312 76.4523 193.206C76.766 192.626 76.9171 191.947 77.075 191.297C77.916 187.724 78.531 184.12 78.1405 180.425C77.3596 173.036 75.263 166.091 71.306 159.741C67.8144 154.148 63.8242 148.979 59.0664 144.408C57.1899 142.605 55.2158 140.907 53.0685 139.419C52.4093 138.965 51.8186 138.435 51.1405 137.993C47.3648 135.55 43.2616 133.866 38.9663 132.579C37.276 132.077 35.5598 131.675 33.8335 131.291C30.6787 130.607 27.4807 130.655 24.2776 130.712C20.576 130.784 16.8812 131.116 13.1711 131.008C10.655 130.93 8.13023 130.905 5.66573 130.217C4.2802 129.827 3.00958 129.169 1.70978 128.598C1.15493 128.358 0.730298 127.939 0.333118 127.514C-0.266079 126.863 -0.0327169 126.106 0.837518 125.918C1.20241 125.835 1.59121 125.847 1.96805 125.84C3.61413 125.815 5.2431 125.722 6.87387 125.49C9.64208 125.09 12.2735 124.259 14.8758 123.224C23.1267 119.943 31.6271 117.545 40.4028 116.222C45.3208 115.483 50.29 115.24 55.2381 116.197C58.1291 116.757 60.9962 117.395 63.7671 118.407C66.3634 119.361 68.7214 120.672 70.8719 122.407C75.3134 125.972 78.725 130.339 81.1737 135.457C83.1158 139.536 84.066 143.87 84.3756 148.379C84.6664 152.608 84.3698 156.787 83.7734 160.961C83.0481 166.048 81.8775 171.042 81.082 176.11C80.5854 179.226 80.2841 182.365 80 185.515C79.9845 185.716 79.9998 185.923 80.0201 186.355C80.9286 184.92 81.4654 183.541 82.1135 182.229C83.048 180.344 83.9088 178.426 84.7867 176.518C85.8755 174.143 86.9507 171.771 88.0258 169.399C89.3238 166.521 90.5996 163.64 91.8891 160.756C92.9934 158.297 94.1011 155.852 95.2311 153.408C96.0644 151.613 96.9149 149.829 97.7739 148.05C98.885 145.734 99.996 143.419 101.124 141.114C102.22 138.883 103.35 136.672 104.449 134.454C105.664 132.004 106.863 129.543 108.087 127.098C108.781 125.709 109.49 124.317 110.192 122.933C111.144 121.058 112.096 119.183 113.039 117.302C113.117 117.152 113.165 116.994 113.255 116.768C112.916 115.994 112.57 115.192 112.226 114.426C111.81 114.188 111.444 114.352 111.075 114.422C104.621 115.683 98.3586 115.032 92.2517 112.611C89.7873 111.632 87.3521 110.565 85.1295 109.125C79.8521 105.711 75.4949 101.404 72.5566 95.7826C71.0199 92.8323 70.1993 89.6597 69.8223 86.369C69.3874 82.5542 69.2933 78.7345 69.845 74.9065C69.9928 73.8651 70.2245 72.8392 70.5436 71.8424C70.71 71.3132 70.9929 70.8424 71.2963 70.3954C71.6803 69.8338 71.8755 69.7996 72.5674 70.0638C72.7113 70.1152 72.8208 70.2626 73.0436 70.1633C73.0231 69.9646 72.9941 69.7608 72.9651 69.5569C71.9759 64.2208 72.5642 58.9934 74.158 53.8573C75.0707 50.9219 76.2951 48.127 77.6907 45.3768C79.0074 42.7773 80.5245 40.3098 82.17 37.9195C84.5475 34.4657 86.4026 30.7565 87.3964 26.6581C87.5131 26.1923 87.6709 25.7744 88.0736 25.4337C88.8016 25.3467 89.2278 25.8008 89.505 26.3868C89.7942 26.9916 90.0132 27.6357 90.1961 28.2816C91.1127 31.4303 92.0241 34.5875 92.9167 37.7568C93.7836 40.8524 94.9007 43.8419 96.5642 46.6004C96.6755 46.7838 96.773 46.9705 96.8946 47.1367C96.9391 47.1984 97.0213 47.2361 97.0932 47.291C97.4958 47.0668 97.6005 46.6403 97.7377 46.2567C98.0859 45.2891 98.6516 44.4638 99.2737 43.6607C100.458 42.1351 101.646 40.6233 102.94 39.1868C104.448 37.5295 106.079 36.0161 107.87 34.7032C112.044 31.6528 116.211 28.5751 120.193 25.2815C120.706 24.8552 121.264 24.4684 121.83 24.109C122.291 23.8266 122.786 23.5647 123.302 23.3851C125.046 22.7899 126.124 23.4961 126.252 25.3204C126.308 26.158 126.287 27.0076 126.254 27.8383C126.181 29.9383 126.206 32.0503 126.321 34.1469C126.44 36.3737 126.429 38.6039 126.231 40.8151C126.505 40.9214 126.671 40.7999 126.825 40.6595C131.169 36.919 136.268 34.89 141.873 34.0157C143.786 33.7203 145.711 33.502 147.637 33.2837C148.726 33.1575 149.817 33.1254 150.91 33.3623C152.218 33.6473 152.688 34.2437 152.612 35.5728C152.553 36.5046 152.27 37.3831 151.877 38.2308C151.539 38.9484 151.219 39.6762 150.872 40.4468C151.432 40.6783 151.926 40.5552 152.4 40.5024C153.781 40.3763 155.158 40.1783 156.544 40.0436C157.09 39.9874 157.64 39.9448 158.18 39.9776C159.593 40.0691 160.408 40.8266 160.635 42.233C160.713 42.7229 160.732 43.235 160.766 43.7215C161.121 43.7713 161.395 43.6447 161.655 43.5215C164.086 42.4419 166.661 42.1125 169.283 41.9751C169.787 41.9513 170.292 41.9636 170.785 42.0734C171.878 42.3103 172.395 42.8073 172.575 43.9054C172.624 44.1915 172.632 44.4878 172.641 44.7841C172.739 50.1095 172.291 55.3747 170.8 60.5143C170.74 60.7112 170.689 60.9133 170.648 61.0983C170.963 61.3691 171.317 61.3025 171.641 61.3454C173.604 61.5691 175.556 61.8681 177.475 62.3794C180.539 63.1945 183.656 63.6106 186.792 63.9564C188.422 64.1319 190.056 64.2629 191.672 64.5805C192.461 64.7402 193.198 65.0078 193.896 65.4158C194.797 65.9335 195.057 66.6839 194.906 67.6533C194.902 67.6978 194.89 67.7372 194.878 67.7766C193.483 72.7758 193.22 77.9657 192.409 83.0594C192.289 83.8027 192.133 84.5478 192.021 85.2962C191.966 85.6593 191.8 86.0138 191.944 86.473C192.49 86.4749 193.028 86.4717 193.56 86.4771C195.753 86.5125 197.916 86.8099 200.085 87.1569C203.195 87.662 206.316 88.15 209.428 88.6328C210.388 88.7789 211.337 88.9643 212.25 89.268C214.081 89.8666 214.71 91.34 213.834 93.0508C212.336 95.9722 210.846 98.8988 209 101.623C206.16 105.789 202.811 109.463 198.632 112.347C197.59 113.073 196.469 113.659 195.327 114.184C194.797 114.425 194.271 114.68 193.737 114.93C193.767 115.344 194.103 115.406 194.331 115.531C197.023 117.102 199.518 118.961 202.101 120.711C204.119 122.086 206.12 123.487 208.199 124.759C209.418 125.503 210.531 126.404 211.581 127.372C211.827 127.602 212.058 127.857 212.229 128.135C212.753 128.95 212.641 129.757 211.92 130.396C211.641 130.647 211.324 130.865 210.991 131.05C208.836 132.213 206.925 133.745 204.963 135.188C203.476 136.287 201.972 137.376 200.472 138.456C197.095 140.878 193.374 142.651 189.488 144.057C184.709 145.788 179.787 146.863 174.698 147.092C172.675 147.182 170.657 147.088 168.65 146.861C168.282 146.815 167.915 146.688 167.535 146.797C167.428 147.129 167.703 147.236 167.879 147.388C170.137 149.351 172.154 151.541 174.112 153.789C176.786 156.863 179.74 159.686 182.525 162.652C183.407 163.589 184.136 164.587 184.413 165.871C184.502 166.286 184.572 166.713 184.5 167.124C184.273 168.432 183.642 168.822 182.668 168.796C182.373 168.782 182.082 168.782 181.786 168.732C177.619 168.047 173.398 168.11 169.193 167.973C166.123 167.865 163.049 167.94 159.979 167.658C156.27 167.317 152.712 166.392 149.306 164.847C142.074 161.564 136.991 156.215 133.768 149.013C133.282 147.94 132.87 146.842 132.42 145.768C131.841 145.548 131.293 145.336 130.75 145.114C128.522 144.207 126.736 142.68 125.024 141.069C121.225 137.482 118.713 133.13 117.341 128.101C116.929 126.595 116.717 125.046 116.727 123.479C116.727 122.955 116.628 122.499 116.322 122.059C115.798 121.302 115.32 120.525 114.819 119.77C114.444 119.929 114.349 120.222 114.217 120.48C113.072 122.775 111.944 125.08 110.807 127.38C109.723 129.572 108.645 131.755 107.561 133.947C106.375 136.369 105.193 138.781 104.007 141.203C103.028 143.201 102.027 145.198 101.073 147.212C99.7479 149.981 98.4481 152.765 97.157 155.555C95.8212 158.458 94.5027 161.371 93.184 164.284C91.874 167.202 90.5947 170.127 89.2761 173.04C88.1838 175.46 87.071 177.855 85.9531 180.26C84.9757 182.352 83.9761 184.443 82.9765 186.534C82.4895 187.558 81.9803 188.581 81.459 189.584C78.7261 194.91 75.8255 200.146 72.4333 205.076C68.1412 211.329 63.3508 217.19 58.0382 222.621C54.7444 225.99 51.4045 229.32 48.1603 232.743C44.8871 236.194 41.8654 239.867 39.1692 243.793C37.2563 246.571 35.417 249.381 33.5297 252.173C31.7093 254.855 30.1321 257.694 28.2261 260.324C28.0102 260.625 27.8404 260.966 27.5524 261.446C30.6027 258.617 33.5416 255.955 36.1706 252.956C40.2684 248.287 44.2788 243.53 48.6026 239.067C52.3814 235.162 56.4615 231.589 60.9473 228.504C66.0722 224.977 71.6062 222.242 77.3831 219.957C85.8909 216.597 94.5646 213.698 103.443 211.504C110.477 209.764 117.434 207.744 124.431 205.853C126.504 205.293 128.566 204.691 130.632 204.102C131.891 203.752 133.174 203.497 134.478 203.383C135.055 203.334 135.651 203.272 136.215 203.576C136.43 204.148 136.17 204.562 135.865 204.973C134.855 206.324 133.787 207.617 132.673 208.87C129.989 211.884 127.302 214.883 124.82 218.065C122.956 220.451 121.134 222.864 119.32 225.282C115.947 229.792 112.355 234.124 108.026 237.78C106.602 238.987 105.031 239.954 103.373 240.776C98.0512 243.428 92.3826 244.951 86.5804 246.173C80.2182 247.513 73.757 248.048 67.3094 248.754C62.0728 249.325 56.8652 250.1 51.7722 251.48C45.4851 253.179 39.4205 255.42 33.8229 258.804C30.5417 260.795 27.5293 263.133 24.9004 265.958C24.5782 266.3 24.3074 266.673 24.0537 267.057C21.7687 270.59 19.4872 274.136 17.3597 277.775C17.1457 277.646 16.923 277.512 16.709 277.384C16.8547 277.18 17.0175 276.987 17.1461 276.773C20.7819 270.952 24.3493 265.091 28.0707 259.322C31.4717 254.048 34.8418 248.767 38.4173 243.61C41.8112 238.716 45.6126 234.172 49.818 229.964C56.7568 223.028 63.6408 216.048 69.4188 208.077C71.7705 204.841 74.016 201.53 76.0268 198.065C78.1577 194.382 80.1465 190.625 82.0103 186.804C83.3082 184.159 84.589 181.503 85.8304 178.834C87.233 175.821 88.5876 172.789 89.9474 169.75C91.5336 166.217 93.0803 162.672 94.675 159.144C96.0965 156.002 97.5489 152.866 99.0218 149.755C100.351 146.941 101.736 144.15 103.09 141.351C104.574 138.281 106.052 135.219 107.552 132.159C108.622 129.97 109.765 127.814 110.792 125.6C111.238 124.645 111.761 123.735 112.198 122.775C112.497 122.103 112.841 121.413 112.412 120.654C112.103 120.76 112.047 121.029 111.91 121.238C111.239 122.315 110.742 123.473 110.171 124.598C108.894 127.151 107.56 129.682 106.277 132.244C104.628 135.552 102.999 138.885 101.367 142.204C99.925 145.147 98.4436 148.079 97.0444 151.048C95.2578 154.857 93.5447 158.698 91.8009 162.532C89.522 167.548 87.238 172.573 84.9677 177.594C82.6923 182.624 80.2576 187.569 77.6551 192.426C75.1846 197.024 72.5035 201.506 69.4508 205.755C67.1866 208.904 64.8179 211.955 62.3002 214.905C58.7183 219.103 54.8607 223.043 50.9414 226.91C45.7421 232.036 40.9554 237.503 36.8158 243.521C33.3825 248.52 30.0896 253.614 26.8275 258.715C23.286 264.242 19.8421 269.84 16.364 275.417C16.0983 275.84 15.8702 276.297 15.6217 276.731C15.447 276.672 15.2329 276.544 15.0189 276.415ZM139.282 104.859C139.58 104.887 139.752 104.757 139.93 104.654C141.988 103.42 143.945 102.044 145.841 100.573C149.664 97.6032 152.869 94.0523 155.324 89.8877C156.69 87.5743 157.704 85.0723 158.63 82.5411C160.182 78.2888 161.222 73.9386 161.368 69.3892C161.537 63.9098 161.172 58.4473 160.693 52.9984C160.407 49.6924 159.896 46.3914 159.93 43.0565C159.931 42.7653 159.9 42.4673 159.837 42.1846C159.613 41.2578 159.121 40.8345 158.164 40.7604C157.532 40.707 156.903 40.7838 156.278 40.8742C153.686 41.2515 151.096 41.4318 148.481 41.4802C146.125 41.5219 143.763 41.5944 141.417 41.6995C135.94 41.952 130.645 43.1639 125.6 45.2597C118.726 48.11 113.005 52.4562 108.847 58.7199C107.822 60.2713 106.969 61.9032 106.289 63.638C105.705 65.1519 105.314 66.6762 106.106 68.2473C106.204 68.4341 106.228 68.6464 106.293 68.8486C108.817 77.099 110.305 85.5425 110.957 94.1364C111.04 95.2001 111.096 96.2707 111.178 97.5314C111.9 96.0775 112.368 94.716 113.167 93.5414C114.793 91.163 116.803 89.1547 119.13 87.4532C120.218 86.6504 121.436 86.3102 122.812 86.3674C124.705 86.4557 126.304 87.1484 127.677 88.4509C128.917 89.6265 129.858 91.0076 130.671 92.4862C131.338 93.7026 131.954 94.9465 132.584 96.1869C134.29 99.4953 136.572 102.369 139.282 104.859ZM144.193 134.606C144.576 134.917 144.929 134.873 145.251 134.938C149.713 135.754 153.924 137.258 157.802 139.646C158.67 140.179 159.426 140.843 160.28 141.379C161.998 142.457 163.532 143.763 165.071 145.061C165.706 145.594 166.388 145.933 167.203 146.05C169.916 146.422 172.639 146.601 175.382 146.419C182.586 145.946 189.348 143.903 195.766 140.627C198.471 139.246 200.898 137.418 203.346 135.65C205.832 133.858 208.209 131.918 210.891 130.383C212.133 129.673 212.174 129.022 211.183 127.996C210.395 127.173 209.485 126.498 208.548 125.865C207.769 125.339 206.924 125.018 206.01 124.795C204.212 124.356 202.386 124.04 200.543 123.888C196.389 123.549 192.438 122.387 188.614 120.859C185.321 119.533 182.389 117.528 179.717 115.189C178.106 113.778 176.465 112.397 174.595 111.32C172.768 110.269 170.975 109.181 169.159 108.113C168.833 107.917 168.487 107.756 168.135 107.626C164.944 106.42 161.626 105.93 158.242 106.134C153.632 106.418 149.188 107.57 144.846 109.098C144.625 109.175 144.34 109.202 144.26 109.55C145.336 110.628 146.444 111.712 147.518 112.835C149.04 114.413 150.418 116.115 151.342 118.126C153.078 121.907 152.902 125.634 150.887 129.26C149.655 131.467 147.748 132.954 145.472 133.988C145.056 134.157 144.588 134.237 144.193 134.606ZM179.049 107.902C179.409 107.826 179.686 107.481 179.998 107.214C182.085 105.368 183.897 103.264 185.496 101.009C187.678 97.9386 189.257 94.553 190.143 90.8673C191.08 86.9795 191.791 83.0608 192.339 79.1026C192.852 75.3208 193.112 71.4927 194.248 67.8174C194.582 66.7367 194.141 66.1336 193.041 65.6946C191.485 65.0857 189.849 64.977 188.222 64.8152C184.371 64.4365 180.557 63.8814 176.791 62.9358C172.593 61.894 168.325 61.5322 164.023 62.2341C163.407 62.3298 162.775 62.3928 162.161 62.7351C162.161 63.9581 162.152 65.1759 162.165 66.3955C162.185 69.6003 162.016 72.7725 161.333 75.9273C160.303 80.7263 158.584 85.2748 156.318 89.6107C154.73 92.6418 152.564 95.2785 150.166 97.7182C147.618 100.312 144.731 102.481 141.681 104.435C141.153 104.771 140.569 105.026 140.063 105.596C141.257 106.732 142.438 107.85 143.594 108.951C155.302 104.356 167.073 104.098 179.049 107.902ZM135.423 204.37C135.134 204.057 134.836 204.146 134.551 204.173C133.505 204.267 132.458 204.418 131.445 204.707C129.133 205.357 126.823 206.021 124.516 206.662C119.361 208.086 114.224 209.579 109.045 210.907C102.395 212.61 95.7513 214.34 89.2498 216.552C87.1375 217.276 85.0063 217.953 82.9471 218.801C77.9016 220.897 73.3114 223.767 69.0224 227.145C67.4049 228.422 65.8455 229.757 64.4385 231.266C62.0975 233.786 59.8146 236.364 57.3606 238.782C53.8835 242.204 50.4767 245.703 46.4569 248.497C43.4172 250.609 40.3245 252.654 37.2609 254.729C35.03 256.232 32.7785 257.711 30.8694 259.628C30.7186 259.782 30.4479 259.864 30.5369 260.162C35.4167 256.849 40.2829 253.538 45.1559 250.255C49.1123 247.587 53.2962 245.335 57.6838 243.461C61.0298 242.022 64.5296 241.084 68.1372 240.606C72.5961 240.01 77.034 240.323 81.4752 240.881C87.7628 241.664 94.0713 241.771 100.339 240.608C102.857 240.14 105.169 239.221 107.199 237.586C110.162 235.195 112.686 232.389 115.144 229.519C117.552 226.713 119.614 223.629 121.895 220.723C123.326 218.903 124.668 217.018 126.158 215.256C128.406 212.599 130.765 210.031 133.065 207.404C133.887 206.442 134.734 205.459 135.423 204.37ZM88.445 25.9597C88.301 26.1412 88.2256 26.1892 88.2016 26.268C88.1004 26.5916 88.0129 26.9119 87.9254 27.2322C87.0657 30.4091 85.8412 33.4369 84.079 36.2349C83.4002 37.3068 82.646 38.3102 81.9587 39.377C79.1354 43.7281 76.7215 48.29 75.0713 53.2291C73.5738 57.7007 72.8161 62.2789 73.2609 67.0083C73.4688 69.1838 73.7384 71.373 74.5202 73.4271C75.8853 77.0317 78.4722 79.669 81.6195 81.7226C85.0013 83.9287 88.5152 85.9345 91.9982 87.9916C93.202 88.7031 94.32 89.5378 95.3816 90.4084C97.9088 92.4856 100.415 94.5971 102.785 96.8593C105.338 99.3014 107.808 101.822 109.807 104.759C109.84 104.802 109.948 104.797 110.076 104.816C110.148 102.622 110.258 100.439 110.275 98.2589C110.295 94.7527 109.994 91.2977 109.197 87.8715C108.307 84.0394 106.755 80.5324 104.405 77.3847C102.919 75.397 101.39 73.4419 99.8854 71.4662C95.0582 65.1296 91.3874 58.2643 89.8377 50.3313C89.0603 46.369 88.6391 42.4343 89.1823 38.4264C89.3284 37.3491 89.4043 36.2529 89.4751 35.1653C89.6321 32.8478 89.5065 30.5354 89.3038 28.2349C89.2253 27.4538 89.1264 26.6487 88.445 25.9597ZM126.423 131.097C129.076 132.598 131.768 133.76 134.698 134.274C138.476 134.947 142.173 134.767 145.665 133.008C149.292 131.179 151.328 128.254 151.707 124.171C151.883 122.249 151.298 120.605 150.084 119.153C149.288 118.209 148.338 117.405 147.266 116.843C144.467 115.372 141.484 114.558 138.286 114.781C137.399 114.842 136.527 114.936 135.638 114.962C134.929 114.978 134.206 114.94 133.493 114.885C132.633 114.823 132.103 114.33 131.86 113.531C131.749 113.173 131.661 112.795 131.641 112.421C131.58 111.417 131.51 110.408 131.535 109.398C131.677 104.718 130.977 100.162 129.534 95.7178C128.762 93.3554 127.869 91.0597 126.394 88.9967C125.403 87.6208 124.153 87.1029 122.531 87.1072C121.469 87.1101 120.533 87.4454 119.68 87.9931C115.672 90.5724 112.935 94.1014 111.611 98.7118C110.346 103.125 110.745 107.466 112.074 111.771C113.307 115.751 115.285 119.362 117.712 122.731C120.114 126.084 122.988 128.941 126.423 131.097ZM0.674373 126.752C1.02521 127.371 1.56287 127.775 2.17252 128.06C3.01164 128.448 3.86105 128.818 4.71732 129.158C6.7878 129.959 8.96302 130.158 11.1624 130.104C15.0986 130.01 18.9444 129.349 22.7628 128.404C27.0558 127.348 31.4155 126.588 35.8059 126.009C40.4909 125.386 45.1207 125.534 49.6694 126.961C51.2741 127.471 52.848 128.032 54.3961 128.694C56.5813 129.633 58.6122 130.83 60.4922 132.239C63.0931 134.174 65.341 136.503 67.3233 139.08C73.371 146.953 76.7805 155.922 78.1803 165.676C79.2455 173.038 79.3002 180.435 78.4812 187.83C78.4675 187.95 78.4846 188.077 78.4828 188.216C78.8614 188.012 78.8701 187.668 78.9491 187.342C79.1533 186.44 79.1761 185.51 79.2742 184.59C79.6131 181.543 79.8681 178.48 80.3851 175.447C81.1822 170.765 82.2002 166.121 82.9133 161.423C83.6934 156.323 83.958 151.227 83.3575 146.078C82.9362 142.434 81.9633 138.972 80.3993 135.679C78.038 130.707 74.7239 126.468 70.4314 123.004C68.3819 121.354 66.137 120.029 63.6743 119.144C56.5037 116.573 49.1268 115.742 41.5673 116.805C32.509 118.075 23.7858 120.572 15.2746 123.86C13.3901 124.592 11.5262 125.348 9.52703 125.767C7.04995 126.283 4.54554 126.573 2.00707 126.551C1.56857 126.544 1.08562 126.417 0.674373 126.752ZM131.051 134.332C130.974 135.975 131.305 137.537 131.609 139.106C132.419 143.344 133.589 147.449 135.69 151.263C139.081 157.412 143.989 161.886 150.444 164.622C153.958 166.103 157.65 166.9 161.46 167.056C164.063 167.163 166.679 167.173 169.284 167.258C173.489 167.396 177.696 167.336 181.866 168.035C182.07 168.064 182.284 168.077 182.49 168.084C183.439 168.094 183.773 167.771 183.772 166.803C183.772 165.929 183.469 165.153 182.916 164.483C181.324 162.537 179.199 161.342 176.939 160.392C175.165 159.641 173.308 159.085 171.489 158.447C169.039 157.58 166.657 156.522 164.201 155.665C161.675 154.788 159.334 153.604 157.097 152.167C156.423 151.739 155.762 151.307 155.144 150.784C152.813 148.825 150.762 146.614 148.934 144.188C147.003 141.642 144.971 139.186 142.554 137.082C141.391 136.069 140.138 135.362 138.481 135.404C136.196 135.465 133.954 135.085 131.79 134.344C131.595 134.262 131.392 134.21 131.051 134.332ZM111.72 113.562C111.723 113.343 111.752 113.256 111.727 113.182C111.113 111.392 110.632 109.554 110.375 107.675C110.323 107.294 110.236 106.916 110 106.611C108.896 105.132 107.804 103.672 106.194 102.647C104.076 101.305 101.769 100.432 99.4092 99.6668C96.2187 98.6358 92.908 97.9405 89.8255 96.555C87.7516 95.6239 85.7755 94.5301 84.0274 93.0373C80.7332 90.2197 78.4105 86.7158 76.5882 82.8249C75.0311 79.5012 73.8749 76.0338 72.77 72.539C72.5836 71.9377 72.4109 71.3329 72.0344 70.7572C71.5649 71.1509 71.3522 71.6407 71.1824 72.1562C70.9234 72.956 70.7346 73.7747 70.6074 74.6071C69.9888 78.7211 70.0656 82.8218 70.6168 86.9278C71.0964 90.5131 72.1362 93.9222 74.0428 97.0132C76.9267 101.716 80.7755 105.473 85.3816 108.473C87.1813 109.647 89.1387 110.52 91.1012 111.384C94.1204 112.72 97.2425 113.651 100.512 114.066C104.253 114.53 107.977 114.402 111.72 113.562ZM190.178 113.037C190.704 112.957 190.956 112.654 191.235 112.402C192.003 111.745 192.655 110.971 193.289 110.187C194.711 108.42 196.154 106.677 197.702 105.031C199.907 102.698 202.428 100.751 205.128 99.0296C207.904 97.2598 210.462 95.2313 212.714 92.8207C212.886 92.6324 213.078 92.468 213.215 92.2591C213.631 91.6238 213.532 90.9352 212.941 90.4639C212.613 90.1965 212.243 89.9976 211.82 89.9066C211.039 89.7521 210.261 89.5531 209.473 89.4293C206.036 88.8676 202.583 88.3314 199.146 87.7697C197.111 87.433 195.071 87.1631 193.004 87.1329C192.551 87.1293 192.072 87.016 191.583 87.4217C190.884 91.3593 189.731 95.2572 187.69 98.831C185.663 102.379 182.949 105.386 179.852 108.291C183.561 109.68 186.909 111.4 190.178 113.037ZM76.2419 167.914C76.3843 167.58 76.2525 167.256 76.1876 166.937C75.5537 163.667 74.9506 160.404 74.2534 157.142C73.2331 152.382 71.555 147.843 69.2481 143.557C66.7975 138.985 63.3427 135.291 59.163 132.279C56.9473 130.692 54.5345 129.394 51.9331 128.449C47.4068 126.791 42.7652 126.042 37.9347 126.519C31.7955 127.119 25.7861 128.356 19.8057 129.797C19.6961 129.824 19.6601 129.884 19.6977 129.977C19.886 130.206 20.1602 130.08 20.3846 130.075C21.8114 130.046 23.2468 130.023 24.6771 129.95C29.302 129.699 33.8203 130.304 38.2628 131.598C41.7412 132.615 45.1372 133.828 48.348 135.523C52.0589 137.473 55.3515 140.021 58.4402 142.832C62.3609 146.41 65.8327 150.406 68.8778 154.764C71.6764 158.775 74.2266 162.928 75.9663 167.538C76.0228 167.677 76.0261 167.866 76.2419 167.914ZM105.077 64.8793C105.25 64.7269 105.348 64.6807 105.367 64.6105C106.23 61.6802 107.731 59.0636 109.423 56.538C110.265 55.2726 110.839 53.87 111.352 52.4537C112.542 49.1724 113.404 45.7984 114.156 42.3936C115.39 36.8667 117.285 31.5972 120.198 26.7289C120.291 26.5748 120.455 26.4172 120.31 26.1551C119.929 26.4393 119.559 26.7063 119.201 26.9922C116.178 29.4641 113.061 31.8212 109.876 34.0789C108.269 35.2224 106.706 36.4275 105.258 37.7714C103.246 39.6272 101.515 41.7331 99.8731 43.9043C98.8704 45.2244 97.914 46.6422 97.5894 48.4046C100.677 53.603 103.211 59.0632 105.077 64.8793ZM141.332 135.276C143.477 136.727 145.15 138.326 146.626 140.098C149.217 143.193 152.042 146.055 155.045 148.756C156.771 150.305 158.565 151.779 160.548 152.958C162.793 154.284 165.163 155.381 167.606 156.3C170.358 157.324 173.12 158.331 175.879 159.324C177.109 159.76 178.287 160.281 179.513 160.761C176.644 157.838 173.959 154.781 171.213 151.768C168.865 149.18 166.202 146.94 163.492 144.741C161.629 143.226 159.696 141.809 157.696 140.503C153.744 137.907 149.346 136.384 144.697 135.608C143.687 135.409 142.658 135.163 141.332 135.276ZM90.236 30.7173C89.9653 30.8576 90.0321 31.0375 90.0423 31.1951C90.2414 33.8895 90.0602 36.577 89.7814 39.2523C89.5508 41.479 89.4949 43.7057 89.8159 45.9257C90.5704 51.1093 92.3186 55.9575 94.8497 60.5304C96.7323 63.9331 99.0842 67.0003 101.412 70.0881C103.415 72.7474 105.216 75.53 106.569 78.5916C107.361 80.3956 108.205 82.1723 108.927 84.0157C108.961 83.6868 108.941 83.3717 108.893 83.0633C108.461 80.4852 107.982 77.926 107.364 75.3872C106.271 70.9212 104.958 66.5321 103.42 62.2064C101.66 57.2228 99.29 52.5369 96.5756 48.017C94.7426 44.9586 93.3481 41.7326 92.3991 38.3081C91.8041 36.1564 91.2091 34.0048 90.6089 31.8617C90.4909 31.4762 90.354 31.1027 90.236 30.7173ZM99.8541 241.61C96.6491 241.98 93.511 242.239 90.3421 242.199C87.0175 242.148 83.7083 241.896 80.3923 241.676C73.2618 241.191 66.3278 241.873 59.535 244.375C52.7371 246.886 46.3551 250.102 40.4333 254.258C40.1969 254.419 39.8354 254.516 39.8164 254.994C40.2464 254.821 40.5976 254.683 40.9454 254.53C44.5466 252.977 48.2607 251.759 52.0398 250.743C57.5885 249.265 63.2517 248.449 68.949 247.886C75.1071 247.274 81.2429 246.602 87.314 245.321C91.1495 244.502 94.9338 243.536 98.5949 242.135C99.0283 241.976 99.4378 241.779 99.8541 241.61ZM125.071 44.6856C125.54 42.0429 125.724 39.4856 125.681 36.9197C125.616 33.3038 125.407 29.6947 125.57 26.0874C125.584 25.7928 125.562 25.4999 125.526 25.2104C125.384 24.0302 124.833 23.6873 123.699 24.1013C122.712 24.4639 122.028 25.195 121.452 26.0375C120.098 28.0203 118.941 30.1214 118.022 32.3306C116.837 35.1957 115.838 38.1379 115.169 41.1728C114.489 44.2831 113.804 47.4019 113.102 50.5104C112.899 51.3907 112.613 52.2556 112.311 53.3209C116.124 49.6109 120.252 46.6959 125.071 44.6856ZM162.093 62.0534C164.779 61.2667 167.386 61.2714 169.94 61.1511C171.489 56.128 172.306 49.5115 172 44.6091C171.987 44.4378 171.982 44.2717 171.941 44.1072C171.787 43.2575 171.397 42.86 170.533 42.7259C170.206 42.6693 169.865 42.6742 169.524 42.6792C167.62 42.6885 165.751 42.9874 163.902 43.4267C162.803 43.6865 161.746 44.0885 160.646 44.6396C161.186 50.3934 161.8 56.1215 162.093 62.0534ZM205.414 123.925C205.437 123.868 205.454 123.82 205.485 123.769C204.281 122.999 203.022 122.301 201.878 121.451C198.944 119.257 195.88 117.278 192.717 115.424C191.192 114.531 189.709 113.547 188.138 112.767C185.736 111.569 183.296 110.452 180.818 109.418C176.509 107.611 172.052 106.554 167.414 106.168C167.183 106.145 166.933 106.077 166.679 106.227C166.78 106.311 166.866 106.421 166.976 106.452C169.358 107.16 171.598 108.203 173.808 109.333C176.437 110.679 178.851 112.362 181.141 114.215C183.159 115.858 185.233 117.43 187.442 118.815C191.254 121.198 195.383 122.606 199.844 123.072C201.511 123.246 203.183 123.47 204.813 123.878C205.001 123.933 205.214 123.909 205.414 123.925ZM74.8051 75.7653C74.673 76.1986 74.7568 76.3888 74.827 76.5824C76.1031 80.1218 77.6961 83.5021 79.858 86.5949C81.2701 88.6082 83.0558 90.2517 85.1449 91.5648C87.2168 92.8676 89.3745 93.9888 91.6419 94.908C93.661 95.7363 95.6406 96.6691 97.6597 97.4974C100.27 98.5641 102.876 99.6171 105.309 101.055C105.481 101.158 105.662 101.419 105.995 101.176C105.697 100.857 105.424 100.554 105.13 100.248C102.683 97.7071 100.076 95.3369 97.405 93.0335C94.8847 90.8672 92.2393 88.8705 89.3333 87.2298C86.9514 85.8806 84.6414 84.4116 82.2851 83.0195C80.7217 82.0921 79.3468 80.9284 78.032 79.6842C76.8283 78.5651 75.8064 77.2988 74.8051 75.7653ZM149.434 116.491C149.078 115.706 148.551 115.11 148.029 114.505C145.738 111.859 143.175 109.493 140.587 107.169C136.498 103.501 133.025 99.4108 130.764 94.3481C130.219 93.1231 129.539 91.9461 128.736 90.858C128.57 90.6301 128.488 90.3012 128.051 90.3301C128.139 90.534 128.222 90.7242 128.311 90.9058C130.909 96.2992 132.302 101.971 132.28 107.982C132.28 109.205 132.271 110.423 132.328 111.646C132.367 112.473 132.399 113.331 132.966 113.998C133.663 114.253 134.338 114.274 135.008 114.245C135.97 114.194 136.943 114.126 137.906 114.017C140.157 113.761 142.36 113.954 144.526 114.556C146.228 115.02 147.896 115.579 149.434 116.491ZM36.0278 254.28C36.0466 254.326 36.074 254.377 36.0928 254.424C36.5092 254.138 36.917 253.847 37.3334 253.561C44.9223 248.297 51.7716 242.17 58.3385 235.699C63.2362 230.881 68.3993 226.398 74.1273 222.603C74.3021 222.487 74.6327 222.441 74.5815 222.06C74.3691 222.142 74.1755 222.213 73.9853 222.296C65.7789 225.814 58.4797 230.692 52.0089 236.849C49.3544 239.367 46.8848 242.043 44.4683 244.786C41.6645 247.96 38.8488 251.116 36.0278 254.28ZM130.391 133.9C129.824 133.641 129.307 133.261 128.752 133.195C127.234 133.006 125.984 132.255 124.695 131.551C122.095 130.117 119.737 128.398 118.041 125.888C117.94 125.746 117.851 125.622 117.637 125.727C117.637 125.843 117.609 125.967 117.632 126.085C117.666 126.338 117.705 126.583 117.758 126.825C118.748 131.404 120.847 135.415 123.898 138.948C125.382 140.667 127.134 142.115 128.961 143.457C129.868 144.119 130.879 144.609 132.17 144.884C131.344 141.196 130.257 137.653 130.391 133.9ZM191.048 113.431C192.57 114.66 192.656 114.654 194.167 114C197.179 112.71 199.777 110.81 202.186 108.622C204.239 106.756 206.016 104.631 207.65 102.397C208.567 101.142 209.463 99.8625 210.226 98.5148C210.828 97.4548 211.356 96.3623 211.949 95.2971C212.151 94.941 212.381 94.5779 212.284 94.1C211.909 94.2009 211.788 94.5366 211.574 94.7574C209.482 96.8444 207.109 98.5647 204.641 100.17C201.415 102.263 198.642 104.862 196.145 107.778C194.51 109.685 193.081 111.774 191.048 113.431ZM147.199 34.2444C146.948 34.1398 146.876 34.085 146.804 34.0883C142.945 34.4616 139.113 35.0027 135.443 36.3404C132.248 37.5087 129.404 39.2956 126.751 41.384C126.503 41.5843 126.167 41.7554 126.132 42.1425C126.065 42.8362 125.846 43.5315 125.94 44.2869C126.169 44.2151 126.325 44.1689 126.486 44.1142C130.339 42.7235 134.264 41.6206 138.363 41.2167C138.981 41.157 139.365 40.8283 139.687 40.3694C140.004 39.9191 140.27 39.4379 140.616 39.0167C142.368 36.9347 144.45 35.2725 147.199 34.2444ZM149.848 40.6587C150.223 40.0337 150.561 39.5491 150.816 39.0268C151.324 37.9685 151.814 36.8999 151.942 35.7181C152.072 34.55 151.519 33.9964 150.331 34.0746C150.002 34.0984 149.658 34.148 149.337 34.2352C146.814 34.8865 144.537 36.0005 142.665 37.8358C141.754 38.7329 140.857 39.6626 140.264 41.0189C143.522 40.7738 146.662 40.7839 149.848 40.6587Z" fill="#98958B"/>
<path d="M155.862 43.642C154.302 45.3267 152.532 46.6637 150.762 48.0006C146.95 50.8952 143.072 53.7041 139.292 56.6416C134.816 60.1165 130.602 63.9119 126.734 68.0432C124.786 70.1234 122.962 72.3253 121.406 74.7226C120.811 75.6352 120.11 76.4725 119.536 77.4092C117.477 80.798 115.925 84.4097 114.688 88.1757C114.397 89.0491 114.11 89.914 113.779 90.8919C113.531 90.2768 113.752 89.7922 113.878 89.3315C114.516 86.8138 115.368 84.3666 116.426 81.9845C117.688 79.1657 119.298 76.544 121.043 74.027C124.427 69.1503 128.591 64.9524 133.026 61.0218C137.056 57.4541 141.367 54.2531 145.732 51.119C149.004 48.7739 152.298 46.4529 155.428 43.9176C155.559 43.7978 155.716 43.7293 155.862 43.642Z" fill="#98958B"/>
<path d="M110.763 97.9695C110.698 96.7773 110.589 95.5817 110.592 94.3947C110.599 90.0183 111.493 85.8136 113.037 81.7308C113.994 79.2065 115.132 76.7679 116.584 74.5059C119.721 69.6326 123.146 64.9787 127.502 61.0823C128.816 59.9028 130.249 58.8757 131.69 57.8538C133.198 56.7789 134.7 55.7125 136.224 54.6701C136.635 54.3928 137.032 54.0607 137.798 53.8333C136.58 54.7559 135.586 55.4988 134.599 56.2691C132.245 58.0939 129.784 59.7851 127.597 61.8155C125.87 63.411 124.357 65.1934 122.83 66.9792C121.46 68.5801 120.223 70.2718 119.045 71.9995C117.588 74.1536 116.22 76.3728 115.092 78.736C113.952 81.1386 113.036 83.5945 112.372 86.1549C111.507 89.5151 111.233 92.939 111.087 96.3818C111.068 96.918 111.116 97.4593 110.763 97.9695Z" fill="#98958B"/>
<path d="M87.8793 26.7849C87.9461 30.3785 87.8417 33.8111 87.3262 37.2297C86.3982 43.3717 84.9633 49.4071 83.2424 55.3757C82.0636 59.4911 81.1315 63.6615 80.6892 67.9281C80.3915 70.7902 80.534 73.637 81.0499 76.4635C81.0995 76.7496 81.1353 77.0391 81.1711 77.3286C81.1779 77.356 81.1437 77.3937 81.0374 77.6095C80.9365 77.2343 80.8612 76.991 80.7997 76.7443C79.8152 72.3315 79.8517 67.926 80.6486 63.4763C81.3974 59.3007 82.5984 55.2452 83.6727 51.1485C85.2772 45.0634 86.6659 38.9303 87.1982 32.6323C87.3377 31.0034 87.4242 29.366 87.5552 27.7319C87.5844 27.4699 87.4749 27.1478 87.8793 26.7849Z" fill="#98958B"/>
<path d="M131.766 140.493C131.528 139.745 131.287 138.982 131.056 138.261C127.127 137.858 124.286 135.663 121.662 133.049C124.487 135.329 127.396 137.449 131.222 137.79C131.929 139.426 132.634 141.085 133.366 142.736C135.823 148.267 139.332 153.054 143.847 157.059C145.784 158.782 147.962 160.218 150.291 161.442C153.442 163.102 156.735 164.253 160.2 164.982C160.27 165.001 160.326 165.082 160.487 165.202C159.496 165.165 158.644 164.934 157.791 164.724C156.894 164.511 155.995 164.321 155.106 164.055C151.902 163.086 148.932 161.628 146.205 159.71C142.22 156.897 138.972 153.362 136.271 149.305C134.663 146.882 133.292 144.334 132.281 141.595C132.132 141.203 131.932 140.838 131.756 140.452L131.766 140.493Z" fill="#98958B"/>
<path d="M144.996 45.8068C143.751 46.2704 142.5 46.7426 141.246 47.201C135.915 49.1716 130.985 51.8499 126.588 55.4654C124.578 57.1242 122.781 58.992 121.082 60.9661C119.457 62.8564 118.036 64.8923 116.723 66.9813C114.255 70.9163 112.461 75.1634 111.827 79.8273C111.794 80.0756 111.748 80.3274 111.693 80.574C111.674 80.6442 111.59 80.687 111.522 80.7624C111.299 80.5122 111.41 80.2296 111.44 79.9676C111.834 76.5574 112.822 73.3411 114.329 70.2501C115.044 68.7688 115.81 67.3184 116.696 65.9399C122.118 57.4758 129.384 51.2376 138.82 47.6315C139.877 47.2295 140.952 46.8377 142.033 46.4734C142.985 46.1484 143.956 45.8697 144.921 45.5636C144.941 45.6458 144.967 45.7195 144.996 45.8068Z" fill="#98958B"/>
<path d="M178.175 75.9539C177.613 76.6765 177.08 77.4282 176.477 78.1028C176.05 78.5805 175.723 79.1062 175.373 79.6301C174.041 81.6147 172.603 83.5239 171.114 85.4022C169.132 87.9055 167.055 90.3162 164.899 92.6446C161.091 96.7537 156.967 100.498 152.068 103.299C150.137 104.4 148.162 105.439 146.029 106.255C146.058 105.818 146.404 105.804 146.62 105.678C148.335 104.704 150.083 103.773 151.782 102.766C156.336 100.073 160.285 96.642 163.889 92.7949C166.033 90.5058 168.098 88.1345 170.137 85.7477C171.225 84.479 172.172 83.0783 173.214 81.7702C174.544 80.0991 175.646 78.2446 177.128 76.6883C177.425 76.3887 177.737 76.1216 178.175 75.9539Z" fill="#98958B"/>
<path d="M157.578 40.3969C157.324 40.8387 156.946 41.0423 156.648 41.306C152.221 45.1835 147.247 48.2077 142.023 50.8721C138.88 52.479 135.789 54.2109 132.771 56.0336C129.519 57.995 126.663 60.4619 123.971 63.1207C123.374 63.7062 122.795 64.302 122.183 64.9132C122.228 64.2178 122.824 63.9235 123.196 63.5177C126.051 60.4325 129.054 57.5289 132.7 55.3382C135.731 53.512 138.784 51.7458 141.94 50.1578C147.022 47.5944 151.824 44.5838 156.331 41.1157C156.593 40.912 156.864 40.7134 157.151 40.5251C157.241 40.4738 157.367 40.4567 157.578 40.3969Z" fill="#98958B"/>
<path d="M147.6 40.9284C146.382 41.6763 145.084 42.0148 143.77 42.3208C139.669 43.2711 135.629 44.41 131.735 46.0439C127.28 47.9122 123.482 50.6869 120.217 54.2018C118.687 55.8574 117.243 57.6004 115.704 59.3674C115.987 58.6053 116.368 57.9717 116.819 57.4153C118.39 55.4582 119.979 53.5114 121.765 51.7412C124.802 48.7417 128.369 46.5852 132.313 45.0044C136.113 43.4887 140.034 42.3721 144.061 41.6221C144.847 41.4769 145.62 41.2768 146.403 41.1179C146.793 41.0496 147.196 41.0001 147.6 40.9284Z" fill="#98958B"/>
<path d="M95.5766 90.6649C94.878 90.1986 94.4364 89.712 93.9912 89.2116C91.6989 86.6463 90.2976 83.6258 89.429 80.3195C88.3434 76.1721 87.9669 71.9497 88.2259 67.6779C88.5972 61.5511 88.9855 55.4347 89.3791 49.3096C89.3998 48.9842 89.328 48.6381 89.5936 48.2734C89.7734 48.4979 89.7288 48.7274 89.7252 48.9466C89.6062 54.2462 89.4392 59.5287 89.0255 64.8144C88.7308 68.5055 88.6057 72.2053 89.14 75.8933C89.6624 79.5043 90.5531 82.987 92.3706 86.1876C93.2348 87.7553 94.4452 89.0765 95.5766 90.6649Z" fill="#98958B"/>
<path d="M133.382 92.239C133.653 91.8075 133.975 91.8145 134.232 91.7359C140.428 89.9935 145.725 86.685 150.435 82.3726C152.23 80.724 153.882 78.9434 155.378 77.0343C158.37 73.216 160.401 68.9245 161.501 64.2026C161.552 64.0005 161.564 63.7864 161.775 63.6684C161.984 63.8055 161.936 64.0213 161.895 64.2063C161.441 66.4739 160.784 68.6541 159.805 70.769C156.769 77.357 151.967 82.3836 146.172 86.5808C143.262 88.6896 140.106 90.3359 136.709 91.511C135.678 91.8702 134.619 92.1197 133.382 92.239Z" fill="#98958B"/>
<path d="M100.705 54.9131C100.397 54.3785 100.471 54.0034 100.485 53.6506C100.628 50.9871 101.294 48.4627 102.354 46.0001C103.429 43.5118 104.872 41.2447 106.35 38.9981C107.918 36.6197 109.821 34.5 111.905 32.5244C113.659 30.8638 119.318 26.2349 121.034 25.0641C120.808 25.6155 120.364 25.85 120.04 26.1565C117.609 28.4009 115.013 30.4533 112.622 32.7457C110.343 34.9302 108.322 37.305 106.572 39.9471C105.41 41.7074 104.364 43.5259 103.409 45.3874C102.338 47.4817 101.566 49.6978 101.188 52.034C101.037 52.9452 100.887 53.8341 100.705 54.9131Z" fill="#98958B"/>
<path d="M154.73 60.2285C154.349 61.3863 153.532 62.0488 152.93 62.8175C150.032 66.4594 146.841 69.8322 143.662 73.2239C140.762 76.3057 137.845 79.3772 134.655 82.1676C132.401 84.1346 130.047 85.9594 127.342 87.2821C126.81 87.5456 126.278 87.8896 125.562 87.8208C125.735 87.4355 126.007 87.3311 126.259 87.2028C130.695 84.8806 134.451 81.6725 137.988 78.1696C142.194 74.0197 146.231 69.7223 150.271 65.4027C151.78 63.7813 153.174 62.0434 154.73 60.2285Z" fill="#98958B"/>
<path d="M143.129 135.155C144.542 134.431 146.084 134.366 147.618 134.449C150.559 134.596 153.447 135.143 156.321 135.75C163.035 137.162 169.802 138.057 176.676 138.038C179.032 138.033 181.377 137.95 183.733 137.908C184.145 137.9 184.565 137.802 185.113 138.015C184.813 138.243 184.558 138.241 184.301 138.261C175.12 138.863 166.006 138.48 156.994 136.492C155.276 136.113 153.546 135.773 151.806 135.508C148.939 135.044 146.066 134.647 143.129 135.155Z" fill="#98958B"/>
<path d="M158.64 120.657C160.472 119.858 162.443 119.679 164.389 119.427C171.567 118.495 178.651 119.173 185.685 120.672C188.766 121.323 191.849 121.951 194.949 122.474C195.161 122.508 195.483 122.398 195.627 122.741C194.687 122.91 193.782 122.728 192.873 122.613C190.247 122.271 187.659 121.73 185.069 121.211C178.784 119.941 172.441 119.289 166.026 119.805C163.808 119.987 161.6 120.327 159.38 120.589C159.142 120.598 158.894 120.623 158.64 120.657Z" fill="#98958B"/>
<path d="M86.8335 49.6101C86.3338 52.013 85.824 54.3748 85.3535 56.7487C84.7148 59.9651 84.2096 63.192 83.9425 66.4686C83.6737 69.7092 83.7544 72.95 84.3986 76.1448C85.1145 79.6857 86.2879 83.0469 88.7771 85.7887C88.8884 85.9138 88.9705 86.068 89.0493 86.2085C89.0886 86.2788 89.0954 86.3644 89.1159 86.4466C88.2236 86.2252 87.7358 85.5244 87.2514 84.8373C85.8598 82.848 84.9462 80.6448 84.293 78.3184C83.1456 74.2155 82.9816 70.0274 83.3896 65.7985C83.9043 60.4803 85.1212 55.2926 86.4478 50.1358C86.4993 49.9337 86.5696 49.7196 86.8335 49.6101Z" fill="#98958B"/>
<path d="M154.946 106.345C155.612 105.778 156.284 105.552 156.933 105.267C162.75 102.76 167.801 99.1415 172.24 94.6422C174.15 92.7025 176.169 90.8741 177.95 88.8212C179.372 87.1707 180.778 85.5099 182.073 83.76C182.704 82.9038 183.328 82.0203 184.277 81.2739C184.015 82.0018 183.391 82.3029 183.105 82.8766C182.824 83.4417 182.419 83.9211 182.027 84.4194C181.122 85.5769 180.256 86.7463 179.326 87.8883C177.44 90.193 175.38 92.3228 173.269 94.4218C170.599 97.0823 167.854 99.6742 164.694 101.773C161.984 103.57 159.11 105.036 156.082 106.2C155.775 106.342 155.456 106.465 154.946 106.345Z" fill="#98958B"/>
<path d="M139.697 82.54C140.28 82.0162 140.854 81.4871 141.454 80.9736C144.423 78.4348 147.152 75.6579 149.688 72.6958C152.54 69.364 155.044 65.7767 157.066 61.8877C158.67 58.8087 160.078 55.6115 160.911 52.2084C160.969 51.9755 161.067 51.7546 161.185 51.4412C161.488 51.8096 161.373 52.1367 161.315 52.4279C160.959 54.2416 160.314 55.9747 159.652 57.6976C158.21 61.4566 156.101 64.8505 153.907 68.193C152.318 70.6057 150.419 72.7972 148.457 74.9391C145.986 77.6374 143.271 80.0615 140.388 82.3023C140.211 82.4409 139.997 82.5453 139.8 82.66C139.771 82.6308 139.73 82.5829 139.697 82.54Z" fill="#98958B"/>
<path d="M129.153 90.3975C129.292 89.9916 129.673 90.0346 129.966 89.9542C135.214 88.5505 140.11 86.3536 144.646 83.3805C147.93 81.229 150.819 78.6303 153.325 75.6031C155.395 73.1068 157.354 70.5435 158.923 67.6992C158.98 67.605 159.088 67.5417 159.381 67.2866C155.227 75.1724 149.652 81.3309 142.089 85.6197C136.793 88.6369 131.15 90.6999 129.153 90.3975Z" fill="#98958B"/>
<path d="M190.011 69.9448C189.25 70.8625 188.479 71.6226 187.834 72.4822C186.926 73.6842 186 74.8759 185.142 76.131C183.642 78.3176 182.202 80.5402 180.69 82.708C179.441 84.4974 178.165 86.2713 176.81 87.9852C173.706 91.9113 170.294 95.5358 166.2 98.4714C165.725 98.8155 165.254 99.1733 164.78 99.5173C164.643 99.6097 164.494 99.6833 164.288 99.7929C164.298 99.4263 164.562 99.3168 164.754 99.1524C167.059 97.2745 169.418 95.4412 171.451 93.26C172.961 91.6386 174.476 90.0087 175.818 88.24C176.935 86.7674 178.128 85.3634 179.237 83.8858C179.962 82.9115 180.68 81.9098 181.328 80.8892C182.456 79.1084 183.69 77.403 184.864 75.6616C186.129 73.7883 187.506 71.9819 189.171 70.4308C189.326 70.2904 189.492 70.1689 189.658 70.0474C189.72 70.0029 189.814 70.0012 190.011 69.9448Z" fill="#98958B"/>
<path d="M76.7932 76.5864C76.4955 75.86 76.2115 75.1884 75.9926 74.486C75.1016 71.7021 75.1612 68.8485 75.3561 65.9829C75.6857 61.0894 76.9572 56.4122 78.5644 51.7967C79.7222 48.4726 81.0102 45.2034 82.4197 41.9838C82.6049 41.5591 82.6548 41.0881 82.9307 40.7063C83.0507 40.5453 83.1416 40.3552 83.3523 40.2371C82.0625 43.7616 80.7419 47.2792 79.5001 50.8209C77.5756 56.2943 76.0467 61.8655 75.8177 67.7166C75.7102 70.5531 75.8698 73.352 76.8894 76.0383C76.9339 76.1582 76.951 76.285 76.9732 76.4032C76.968 76.4117 76.9252 76.4443 76.7932 76.5864Z" fill="#98958B"/>
<path d="M182.449 133.024C181.969 133.202 181.476 133.15 180.991 133.162C172.075 133.399 163.167 133.082 154.288 132.21C152.162 132.006 150.042 131.734 147.894 132.052C147.853 131.596 148.216 131.651 148.413 131.594C149.478 131.256 150.575 131.273 151.666 131.358C154.012 131.544 156.362 131.744 158.704 131.939C166.25 132.545 173.809 132.821 181.385 132.816C181.721 132.82 182.05 132.854 182.384 132.88C182.402 132.868 182.42 132.937 182.449 133.024Z" fill="#98958B"/>
<path d="M193.835 71.4139C192.798 76.1855 190.93 80.6329 188.455 84.8317C185.333 90.1452 181.195 94.5915 176.465 98.7412C176.573 97.9208 177.127 97.659 177.492 97.2841C179.685 95.0481 181.855 92.7745 183.86 90.3672C185.451 88.4564 186.726 86.333 188.019 84.22C190.269 80.5503 191.827 76.5807 193.098 72.4858C193.17 72.2494 193.256 72.0097 193.35 71.7751C193.415 71.6278 193.52 71.4925 193.602 71.3555C193.681 71.3796 193.756 71.3899 193.835 71.4139Z" fill="#98958B"/>
<path d="M138.784 143.94C139.383 144.067 139.513 144.471 139.738 144.757C141.841 147.442 144.286 149.773 146.904 151.951C150.056 154.579 153.543 156.708 157.151 158.595C161.577 160.905 166.253 162.665 171.139 163.782C171.417 163.844 171.723 163.818 172.006 164.163C170.329 164.006 168.756 163.656 167.239 163.175C164.194 162.232 161.247 161.067 158.344 159.732C155.274 158.307 152.404 156.548 149.614 154.674C145.739 152.067 142.319 148.917 139.549 145.11C139.297 144.772 139.092 144.416 138.784 143.94Z" fill="#98958B"/>
<path d="M145.919 57.2084C145.362 58.3883 144.422 59.2922 143.54 60.2185C140.762 63.117 137.905 65.9333 135.144 68.8422C132.838 71.2665 130.615 73.7645 128.412 76.2865C127.036 77.8599 125.693 79.4762 124.44 81.1354C123.446 82.4607 122.403 83.7688 121.485 85.1627C122.421 83.4297 123.377 81.7207 124.567 80.1283C128.694 74.6148 133.445 69.6738 138.291 64.8253C140.33 62.7879 142.486 60.8671 144.455 58.7527C144.944 58.2305 145.427 57.7169 145.919 57.2084Z" fill="#98958B"/>
<path d="M142.509 108.545C142.617 108.132 142.824 108.059 143.028 108.03C145.377 107.728 147.446 106.687 149.456 105.553C154.286 102.826 158.892 99.7556 162.844 95.8145C164.592 94.0682 166.18 92.1797 167.781 90.31C168.165 89.8648 168.657 89.5311 168.965 89.0173C168.744 90.0844 167.913 90.7502 167.297 91.5225C165.868 93.3203 164.425 95.1215 162.756 96.7171C158.165 101.102 152.975 104.602 147.249 107.326C145.788 108.033 144.253 108.532 142.509 108.545Z" fill="#98958B"/>
<path d="M98.8623 93.3027C98.573 92.8144 98.2649 92.3381 97.9945 91.8378C95.9683 88.0925 94.7061 84.0837 94.1258 79.8903C93.4721 75.1402 93.0719 70.3559 92.9235 65.5598C92.8577 63.5745 93.0813 61.6117 93.1799 59.6436C93.1834 59.4826 93.2057 59.3096 93.4353 59.1796C93.5874 60.0515 93.4721 60.9027 93.4289 61.7506C93.2418 66.1354 93.7022 70.4898 94.1043 74.8441C94.3002 76.9425 94.5151 79.0289 94.8875 81.1051C95.564 84.8087 96.7133 88.3652 98.3594 91.754C98.5647 92.1686 98.7564 92.5867 98.9429 93.0133C98.9737 93.0784 98.9634 93.1538 98.9753 93.2308C98.9479 93.2377 98.9051 93.2702 98.8623 93.3027Z" fill="#98958B"/>
<path d="M167.439 158.111C152.329 154.849 141.262 141.735 138.792 135.684C139.153 135.586 139.182 135.907 139.297 136.104C142.011 140.624 145.419 144.57 149.311 148.119C152.29 150.841 155.643 152.959 159.167 154.832C161.013 155.812 163.037 156.399 165.004 157.102C165.779 157.382 166.61 157.531 167.439 158.111Z" fill="#98958B"/>
<path d="M166.718 83.0997C167.147 81.9009 168.071 81.0227 168.903 80.1015C171.373 77.3673 173.877 74.6536 176.757 72.3409C180.34 69.4599 184.29 67.2881 188.742 66.0827C189.95 65.7596 191.111 65.2223 192.478 65.1579C192.339 65.622 191.968 65.6201 191.692 65.7107C189.86 66.335 187.995 66.8805 186.198 67.5837C181.306 69.4809 177.115 72.4627 173.391 76.1213C171.277 78.2065 169.241 80.3741 167.167 82.5073C166.992 82.6819 166.867 82.9097 166.718 83.0997Z" fill="#98958B"/>
<path d="M160.27 42.491C159.956 43.5374 159.643 44.5616 159.049 45.4742C158.666 46.0718 158.305 46.6934 157.951 47.3202C156.685 49.5069 155.265 51.5788 153.663 53.529C152.237 55.2823 150.929 57.1298 149.477 58.8677C147.656 61.0473 145.753 63.1669 143.776 65.218C142.382 66.6647 141.003 68.108 139.481 69.4775C139.438 69.0441 139.745 68.8439 139.97 68.6059C142.384 66.1183 144.737 63.5587 147.01 60.9391C148.377 59.3605 149.594 57.6448 150.933 56.037C152.626 54.0132 154.21 51.9003 155.777 49.7771C156.868 48.2891 157.739 46.6452 158.705 45.0578C159.236 44.2119 159.75 43.3557 160.27 42.491Z" fill="#98958B"/>
<path d="M203.365 135.871C199.683 138.122 195.582 139.13 191.45 140.016C184.913 141.413 174.433 141.306 170.063 139.834C170.27 139.586 170.539 139.7 170.779 139.728C172.451 139.893 174.115 140.089 175.792 140.246C184.856 141.1 193.577 139.674 202.03 136.386C202.469 136.218 202.913 136.042 203.365 135.871Z" fill="#98958B"/>
<path d="M179.897 68.18C179.414 68.8101 178.891 69.0788 178.418 69.4006C174.724 71.9818 171.381 74.9486 168.505 78.4175C167.167 80.0252 165.929 81.717 164.763 83.4635C163.269 85.6998 161.834 87.9721 160.42 90.2684C159.892 91.128 159.059 91.7579 158.62 92.7991C158.478 92.3177 158.757 92.1243 158.896 91.8932C160.413 89.3674 161.896 86.8211 163.477 84.345C167.443 78.1292 172.257 72.7137 178.607 68.8149C178.96 68.5958 179.282 68.3116 179.897 68.18Z" fill="#98958B"/>
<path d="M102.866 92.1074C102.609 90.7884 102.596 89.4523 102.506 88.1282C102.229 83.8373 101.517 79.6113 100.354 75.4759C99.5316 72.5584 98.3271 69.7727 97.2048 66.9665C96.8593 66.1065 96.5085 65.255 96.1818 64.383C96.0193 63.9358 95.8893 63.4733 95.7217 62.9182C95.9375 63.0245 96.0437 63.0417 96.0625 63.088C97.3286 66.0621 98.6683 69.0107 99.8368 72.031C101.973 77.5321 102.954 83.2707 103.098 89.1597C103.118 89.999 103.103 90.84 103.101 91.6776C103.097 91.8386 103.128 92.0202 102.866 92.1074Z" fill="#98958B"/>
<path d="M133.128 63.3547C130.9 65.8613 128.726 68.3541 126.706 70.9619C125.864 72.0526 124.992 73.1364 124.297 74.3505C123.687 75.4053 123.034 76.4344 122.278 77.4018C121.598 78.2631 121.243 79.3198 120.686 80.2667C119.048 83.0699 117.819 86.048 116.85 89.1359C116.741 89.4904 116.563 89.826 116.402 90.1719C116.38 90.2285 116.258 90.237 116.083 90.2951C115.957 89.3221 116.38 88.4813 116.672 87.6661C117.931 84.193 119.416 80.8091 121.423 77.6807C124.073 73.5402 126.939 69.5643 130.392 66.046C131.294 65.1078 132.086 64.0804 133.128 63.3547Z" fill="#98958B"/>
<path d="M179.673 65.0044C175.317 67.2119 171.252 69.7913 167.824 73.325C164.402 76.8501 161.656 80.8398 159.56 85.2786C161.997 76.8387 171.237 67.4292 179.673 65.0044Z" fill="#98958B"/>
<path d="M135.311 96.6127C140.616 95.4419 145.456 93.2809 149.635 89.8144C153.791 86.3684 157.106 82.266 159.229 77.1797C159.226 77.9009 158.983 78.7914 158.537 79.6305C155.609 85.1651 151.552 89.6492 146.215 92.9678C143.246 94.8077 140.047 96.0206 136.636 96.7332C136.436 96.776 136.224 96.7998 136.015 96.8374C135.811 96.8664 135.603 96.8817 135.405 96.9022C135.367 96.8097 135.343 96.7138 135.311 96.6127Z" fill="#98958B"/>
<path d="M72.8916 72.2389C73.391 73.8321 73.457 75.4679 73.3877 77.1157C73.2266 80.8172 73.0621 84.5049 73.2281 88.2048C73.3671 91.2127 73.8213 94.1419 74.9247 96.9601C75.6877 98.9097 76.9185 100.546 78.1561 102.21C77.757 102.215 77.6201 101.9 77.4044 101.677C74.6207 98.7465 73.3207 95.1694 72.855 91.2313C72.4899 88.1342 72.4983 85.0168 72.6043 81.9114C72.7326 78.6912 73.2138 75.485 72.8916 72.2389Z" fill="#98958B"/>
<path d="M151.042 117.771C151.705 117.074 152.574 116.792 153.449 116.537C161.338 114.285 169.253 114.006 177.202 116.194C178.693 116.601 180.168 117.055 181.653 117.493C181.898 117.57 182.129 117.651 182.3 117.87C180.034 117.336 177.773 116.794 175.516 116.265C170.166 115.009 164.779 115.035 159.374 115.809C156.661 116.194 154 116.822 151.408 117.723C151.294 117.759 151.168 117.754 151.042 117.771Z" fill="#98958B"/>
<path d="M169.822 128.364C172.333 128.451 174.849 128.587 177.374 128.613C182.714 128.663 188.037 128.26 193.364 127.964C197.17 127.757 200.986 127.591 204.823 127.507C204.47 127.785 204.037 127.769 203.636 127.796C198.477 128.123 193.321 128.404 188.161 128.789C182.659 129.201 177.166 129.152 171.677 128.767C171.048 128.728 170.419 128.746 169.822 128.364Z" fill="#98958B"/>
<path d="M82.5461 50.4252C81.9815 52.626 81.4289 54.7292 80.8849 56.8375C79.8793 60.7423 79.1339 64.6987 78.822 68.729C78.5582 72.194 78.7946 75.6216 79.8396 78.9639C79.8823 79.1061 79.9833 79.2483 79.7982 79.4983C79.2695 78.4001 78.9617 77.2832 78.7036 76.1611C77.8814 72.6613 78.1092 69.1397 78.5426 65.6251C79.1514 60.6546 80.5702 55.8678 82.0234 51.1016C82.0714 50.944 82.1588 50.7985 82.2463 50.6529C82.2874 50.5844 82.3747 50.5553 82.5461 50.4252Z" fill="#98958B"/>
<path d="M105.245 60.3895C104.992 59.5501 105.092 58.7246 105.12 57.9024C105.281 53.3274 106.21 48.9103 107.975 44.6924C108.77 42.8051 109.698 40.9506 110.684 39.1542C111.82 37.0873 113.12 35.1182 114.291 33.0719C114.913 31.9776 115.737 31.0514 116.567 30.1165C116.181 30.7587 115.859 31.4505 115.392 32.0327C114.573 33.0668 113.97 34.2073 113.378 35.3667C112.74 36.603 112.008 37.7829 111.328 38.9935C108.837 43.4509 106.925 48.1279 106.045 53.1804C105.698 55.1741 105.552 57.1832 105.374 59.1855C105.352 59.5914 105.29 59.9853 105.245 60.3895Z" fill="#98958B"/>
<path d="M152.186 125.216C152.352 124.629 152.89 124.509 153.322 124.314C155.696 123.212 158.184 122.446 160.764 121.992C166.91 120.895 173.054 121.218 179.204 121.977C179.369 121.994 179.53 122.055 179.682 122.112C179.713 122.119 179.722 122.182 179.752 122.247C179.261 122.348 178.778 122.221 178.296 122.188C173.603 121.816 168.91 121.619 164.213 122.106C160.383 122.509 156.688 123.423 153.159 124.973C152.922 125.076 152.691 125.17 152.456 125.251C152.388 125.268 152.306 125.23 152.186 125.216Z" fill="#98958B"/>
<path d="M212.141 90.3793C210.875 90.7606 209.628 91.0718 208.425 91.5028C205.109 92.6797 202.136 94.5059 199.203 96.4023C195.43 98.843 191.681 101.321 187.916 103.767C187.147 104.272 186.347 104.712 185.529 105.2C185.492 104.874 185.675 104.763 185.85 104.647C191.522 100.888 197.012 96.8689 202.936 93.4837C205.556 91.993 208.316 90.8896 211.28 90.3395C211.538 90.2968 211.818 90.1033 212.141 90.3793Z" fill="#98958B"/>
<path d="M108.217 78.0204C107.748 77.0165 107.81 75.9237 107.885 74.8498C108.107 71.8609 108.848 68.9973 109.982 66.2179C110.995 63.7158 112.245 61.3441 113.749 59.113C115.392 56.6866 117.062 54.2757 119.435 52.3225C119.312 52.7609 119.068 53.0109 118.828 53.2746C117.732 54.4799 116.681 55.7246 115.743 57.0722C114.881 58.3136 114.027 59.5602 113.254 60.8667C110.191 66.0056 108.393 71.5202 108.264 77.5357C108.246 77.7002 108.229 77.8646 108.217 78.0204Z" fill="#98958B"/>
<path d="M157.56 157.467C155.142 156.41 152.882 155.111 150.769 153.585C146.374 150.409 142.384 146.79 139.261 142.292C138.228 140.81 137.314 139.247 136.568 137.599C136.194 136.768 135.888 135.92 135.852 135.048C136.124 134.886 136.201 134.99 136.237 135.105C137.712 139.789 140.581 143.586 143.893 147.09C145.881 149.193 148.098 151.049 150.396 152.79C152.435 154.342 154.579 155.757 156.821 157.011C157.064 157.168 157.312 157.317 157.56 157.467Z" fill="#98958B"/>
<path d="M183.898 135.537C192.962 135.343 201.803 133.873 210.419 131.09C210.424 131.431 210.04 131.527 209.78 131.65C209.134 131.949 208.467 132.225 207.784 132.432C200.409 134.643 192.89 135.929 185.177 135.91C184.841 135.906 184.501 135.911 184.17 135.899C184.103 135.894 184.028 135.825 183.963 135.798C183.939 135.702 183.918 135.62 183.898 135.537Z" fill="#98958B"/>
<path d="M203.995 94.69C203.155 95.2925 202.291 95.8573 201.489 96.4941C198.53 98.8411 195.576 101.179 192.281 103.057C188.986 104.934 185.62 106.64 182.075 107.983C181.683 108.132 181.309 108.327 180.643 108.253C181.179 107.981 181.539 107.789 181.92 107.622C186.843 105.36 191.714 102.973 196.186 99.8916C197.672 98.8732 199.086 97.7417 200.539 96.6804C201.608 95.8895 202.706 95.1279 203.995 94.69Z" fill="#98958B"/>
<path d="M155.322 79.9593C154.799 81.1598 153.976 81.8308 153.245 82.5447C150.252 85.4894 147.093 88.2285 143.363 90.2291C140.423 91.8069 137.356 93.0524 134.077 93.7394C133.289 93.9068 132.506 94.0075 131.701 93.99C131.496 93.9831 131.28 93.9932 131.124 93.69C140.988 92.4375 148.554 87.1141 155.322 79.9593Z" fill="#98958B"/>
<path d="M76.6108 81.6034C77.073 82.347 77.0606 83.1435 77.1064 83.94C77.2591 87.0027 77.4203 90.0705 77.943 93.0992C78.534 96.5183 79.4745 99.8212 81.4154 102.758C81.9734 103.594 82.5742 104.398 83.1922 105.27C82.7965 105.23 82.6151 104.97 82.4096 104.73C79.9394 101.86 78.3994 98.5463 77.6321 94.8581C76.8682 91.1836 76.5874 87.4614 76.6406 83.7068C76.6461 82.9994 76.6191 82.3074 76.6108 81.6034Z" fill="#98958B"/>
<path d="M155.917 139.236C157.595 139.603 158.98 140.4 160.465 140.954C165.368 142.781 170.398 143.95 175.628 144.225C178.483 144.378 181.331 144.447 184.19 144.265C184.348 144.255 184.518 144.263 184.742 144.258C183.347 145.087 173.834 144.767 169.939 144.093C165.032 143.243 160.348 141.769 155.917 139.236Z" fill="#98958B"/>
<path d="M169.533 106.403C178.112 104.204 184.358 99.0432 188.75 91.3819C188.775 92.0379 188.527 92.5294 188.249 92.9918C184.94 98.5776 180.346 102.715 174.398 105.306C172.863 105.98 171.275 106.529 169.533 106.403Z" fill="#98958B"/>
<path d="M143.369 152.309C138.361 149.977 130.839 138.585 131.105 133.642C132.232 137.255 133.806 140.647 135.896 143.801C137.995 146.961 140.578 149.701 143.369 152.309Z" fill="#98958B"/>
<path d="M151.218 119.146C151.479 119.991 151.332 120.741 151.107 121.445C149.99 124.992 147.762 127.673 144.582 129.573C143.272 130.359 141.86 130.885 140.407 131.306C139.321 131.621 138.219 131.903 137.108 132.144C136.46 132.291 135.794 132.333 135.088 132.247C135.986 131.994 136.875 131.736 137.785 131.502C139.659 131.02 141.497 130.423 143.246 129.586C146.409 128.084 148.64 125.649 150.14 122.531C150.514 121.753 150.743 120.888 150.887 120.008C150.933 119.756 150.82 119.42 151.218 119.146Z" fill="#98958B"/>
<path d="M147.152 121.959C144.917 126.629 141.153 129.482 136.25 130.953C132.681 132.025 127.974 132.181 126.507 131.288C129.02 131.352 131.498 131.396 133.939 130.882C137.669 130.104 141.071 128.629 143.854 125.955C145.098 124.757 146.12 123.366 147.152 121.959Z" fill="#98958B"/>
<path d="M117.008 122.564C119.662 123.926 122.403 123.999 125.193 123.776C127.763 123.572 130.11 122.71 132.296 121.378C133.448 120.683 134.554 119.927 135.685 119.208C136.057 118.977 136.378 118.656 136.85 118.568C136.831 118.871 136.643 119.049 136.448 119.2C134.134 120.956 131.801 122.688 129.01 123.61C125.395 124.818 121.755 124.845 118.131 123.624C117.655 123.466 117.217 123.226 117.008 122.564Z" fill="#98958B"/>
<path d="M117.548 121.316C125.235 122.659 131.339 119.557 136.837 114.4C136.576 115.28 136.588 115.299 136.309 115.551C133.181 118.449 129.715 120.748 125.467 121.691C122.991 122.243 120.542 122.229 118.106 121.57C117.918 121.515 117.73 121.402 117.548 121.316Z" fill="#98958B"/>
<path d="M113.543 104.766C113.425 104.089 113.758 103.73 114.005 103.377C115.427 101.319 117.151 99.5929 119.305 98.2767C122.281 96.4642 125.522 95.5683 128.959 95.2787C129.301 95.2515 129.709 95.1352 130.087 95.6305C129.162 95.7739 128.319 95.8968 127.475 96.042C123.778 96.6876 120.362 97.9912 117.435 100.439C116.208 101.473 115.166 102.665 114.2 103.925C114.02 104.166 113.826 104.411 113.543 104.766Z" fill="#98958B"/>
<path d="M153.253 93.6649C150.779 98.5403 139.411 103.887 135.527 101.974C139.035 101.681 142.237 100.948 145.281 99.5841C148.293 98.2358 150.783 96.1662 153.253 93.6649Z" fill="#98958B"/>
<path d="M116.151 33.2341C114 37.7448 112.89 42.4255 111.858 47.1303C111.245 49.9546 110.672 52.7908 109.773 55.5481C109.332 56.9028 108.908 58.2677 108.168 59.5006C108.086 59.6376 108.027 59.8123 107.758 59.8721C109.902 54.9264 110.757 49.6614 111.981 44.5011C112.62 41.8088 113.342 39.1319 114.378 36.5734C114.836 35.4619 115.167 34.2511 116.151 33.2341Z" fill="#98958B"/>
<path d="M125.269 97.6187C123.95 98.3409 122.615 99.0306 121.306 99.7939C119.199 101.033 117.222 102.443 115.633 104.332C113.926 106.359 112.69 108.611 112.274 111.262C112.195 111.762 112.121 112.254 112.042 112.754C112.035 112.785 111.98 112.799 111.872 112.862C111.69 111.168 112.026 109.599 112.598 108.066C113.766 104.958 116.004 102.725 118.636 100.846C120.678 99.4047 122.868 98.2616 125.269 97.6187Z" fill="#98958B"/>
<path d="M148.972 76.5652C151.437 73.3154 154.22 70.35 156.286 66.8139C158.321 63.3292 160.004 59.6919 161.361 55.6484C161.462 56.4313 161.436 56.94 161.263 57.3835C160.556 59.2194 159.833 61.045 158.991 62.8345C158.164 64.5984 157.137 66.2303 156.188 67.9084C155.174 69.7116 153.826 71.2782 152.508 72.8517C151.424 74.1701 150.29 75.4576 148.972 76.5652Z" fill="#98958B"/>
<path d="M129.344 104.936C128.589 105.438 127.754 105.682 126.98 106.021C124.186 107.22 121.557 108.706 119.138 110.562C117.628 111.717 116.36 113.111 115.205 114.607C114.632 115.347 114.512 116.323 113.897 117.037C113.935 115.732 114.573 114.321 115.598 113.119C118.793 109.352 122.908 107.001 127.487 105.37C128.036 105.175 128.604 105.004 129.164 104.828C129.192 104.821 129.233 104.869 129.344 104.936Z" fill="#98958B"/>
<path d="M88.7129 95.4202C89.1374 99.5433 90.213 103.242 92.1161 106.669C93.7162 109.552 95.839 111.934 98.877 113.374C99.1407 113.498 99.3924 113.661 99.6407 113.81C99.675 113.83 99.6852 113.871 99.7092 113.909C97.5272 113.391 95.7823 112.261 93.918 110.186C91.6736 107.696 90.3305 104.734 89.3933 101.561C88.9385 100.03 88.6344 98.4605 88.5478 96.8589C88.5172 96.4444 88.4505 96.0315 88.7129 95.4202Z" fill="#98958B"/>
<path d="M140.677 156.809C146.645 162.643 154.056 165.474 161.942 167.474C161.749 167.719 161.512 167.588 161.321 167.578C161.065 167.576 160.819 167.521 160.572 167.466C158.135 167.004 155.813 166.157 153.496 165.301C151.684 164.632 149.964 163.751 148.223 162.926C147.545 162.6 146.851 162.242 146.274 161.767C145.161 160.866 143.872 160.22 142.848 159.208C142.069 158.449 141.245 157.745 140.677 156.809Z" fill="#98958B"/>
<path d="M178.772 112.804C175.2 111.904 171.795 111.327 168.333 111.077C164.844 110.834 161.41 111.334 157.776 111.855C162.217 109.757 175.103 110.32 178.772 112.804Z" fill="#98958B"/>
<path d="M107.706 99.8965C107.963 92.8738 107.6 85.933 105.912 79.0824C106.31 79.0997 106.277 79.4646 106.361 79.713C107.131 82.0395 107.513 84.4479 107.813 86.8769C108.279 90.6404 108.457 94.4173 108.031 98.1923C107.977 98.6496 107.91 99.1104 107.848 99.5625C107.812 99.6807 107.751 99.7835 107.706 99.8965Z" fill="#98958B"/>
<path d="M129.263 100.145C126.246 101.095 123.313 102.176 120.736 104.1C118.183 106.003 116.232 108.455 114.29 110.912C117.493 104.843 122.359 101.067 129.263 100.145Z" fill="#98958B"/>
<path d="M113.692 51.8547C118.108 45.2211 121.458 38.0527 124.083 30.5413C123.008 34.8127 119.802 44.3398 113.692 51.8547Z" fill="#98958B"/>
<path d="M122.115 93.1136C120.555 93.983 118.952 94.7907 117.465 95.8314C115.532 97.187 113.772 98.7398 112.455 100.699C111.761 101.738 111.281 102.906 110.993 104.143C110.905 104.521 110.915 104.97 110.586 105.285C110.136 105.026 110.314 104.69 110.36 104.38C110.723 102.07 111.807 100.111 113.397 98.433C115.621 96.0874 118.289 94.381 121.274 93.156C121.505 93.0619 121.755 93.0141 121.993 92.9474C122.026 92.932 122.092 92.9372 122.096 92.9509C122.12 92.9886 122.116 93.0331 122.115 93.1136Z" fill="#98958B"/>
<path d="M145.793 112.02C145.807 111.376 146.148 111.254 146.446 111.107C147.321 110.678 148.221 110.344 149.144 110.048C153.487 108.696 157.953 108.244 162.471 108.15C163.458 108.137 164.448 108.079 165.417 108.289C162.077 108.612 158.727 108.604 155.424 109.195C152.152 109.793 148.928 110.524 145.793 112.02Z" fill="#98958B"/>
<path d="M92.3938 112.568C90.4621 111.711 88.8201 110.526 87.4608 108.929C84.3417 105.296 82.1187 101.2 81.0573 96.5078C80.8197 95.4679 80.5633 94.4401 80.6255 93.3473C80.9503 94.591 81.2341 95.845 81.5863 97.0818C82.8773 101.644 85.0661 105.72 88.3377 109.176C89.406 110.307 90.5874 111.308 91.9471 112.09C92.1183 112.193 92.322 112.28 92.3938 112.568Z" fill="#98958B"/>
<path d="M131.761 140.443C131.448 140.907 130.997 140.707 130.614 140.628C129.38 140.353 128.242 139.844 127.134 139.225C124.584 137.787 122.373 135.958 120.49 133.72C119.891 133.011 119.367 132.253 118.924 131.439C118.678 130.977 118.401 130.507 118.435 129.946C118.704 129.886 118.738 130.081 118.817 130.222C120.201 132.824 122.177 134.908 124.48 136.699C125.012 137.112 125.497 137.566 126.069 137.933C127.708 138.987 129.43 139.824 131.326 140.275C131.489 140.315 131.624 140.419 131.775 140.498L131.761 140.443Z" fill="#98958B"/>
<path d="M108.673 38.8555C108.095 40.1279 107.509 41.2787 106.917 42.438C105.377 45.428 104.086 48.5088 103.554 51.8589C103.172 54.2396 103.157 56.6308 103.411 59.0204C103.444 59.2962 103.574 59.584 103.43 59.882C103.18 59.8716 103.233 59.6472 103.219 59.5342C102.461 55.2687 102.733 51.11 104.392 47.0496C105.414 44.5527 106.616 42.1638 107.948 39.8298C108.13 39.5079 108.274 39.1517 108.673 38.8555Z" fill="#98958B"/>
<path d="M119.617 45.1143C122.667 38.8723 124.887 32.3645 126.06 25.3097C126.332 26.1954 126.224 26.8993 126.1 27.5707C125.435 31.1212 124.582 34.6167 123.173 37.9527C122.569 39.3844 121.996 40.823 121.367 42.2392C120.925 43.2667 120.292 44.2033 119.617 45.1143Z" fill="#98958B"/>
<path d="M114.581 117.972C120.08 117.78 124.469 115.069 128.813 112.202C128.837 112.531 128.671 112.652 128.508 112.787C126.107 114.631 123.635 116.362 120.77 117.426C119.146 118.035 117.476 118.429 115.73 118.465C115.321 118.487 114.91 118.531 114.581 117.972Z" fill="#98958B"/>
<path d="M154.333 127.577C161.403 125.428 168.633 125.378 175.904 126.075C174.9 126.311 173.877 126.21 172.863 126.171C168.408 126.024 163.965 126.069 159.539 126.708C157.798 126.967 156.059 127.263 154.333 127.577Z" fill="#98958B"/>
<path d="M189.846 94.9883C192.522 91.0379 200.254 87.6314 204.152 88.0855C203.736 88.4296 203.333 88.4208 202.973 88.496C200.061 89.0769 197.294 90.0365 194.731 91.5495C193.028 92.5421 191.477 93.7661 189.846 94.9883Z" fill="#98958B"/>
<path d="M159.208 81.3265C161.68 75.1922 165.652 70.3073 171.22 66.7198C166.153 70.7135 162.232 75.6515 159.208 81.3265Z" fill="#98958B"/>
<path d="M202.018 101.472C196.578 105.486 190.968 109.142 184.101 110.178C187.277 109.197 190.415 108.123 193.355 106.545C196.331 104.965 199.143 103.136 202.018 101.472Z" fill="#98958B"/>
<path d="M151.603 91.6019C151.351 92.2544 150.88 92.4957 150.491 92.7747C146.377 95.7445 141.859 97.7961 136.824 98.5935C135.949 98.7319 135.072 98.8342 134.186 98.6984C133.974 98.6641 133.768 98.6571 133.568 98.3504C140.314 98.1379 146.121 95.5097 151.603 91.6019Z" fill="#98958B"/>
<path d="M103.069 114.192C96.6012 111.227 92.6515 103.681 92.5493 98.9829C92.6707 99.3821 92.8059 99.7778 92.9136 100.18C93.9584 103.814 95.5498 107.158 98.0903 109.989C98.9805 110.99 99.9632 111.895 101.099 112.623C101.811 113.086 102.316 113.797 103.069 114.192Z" fill="#98958B"/>
<path d="M184.051 167.075C183.487 166.888 183.253 166.386 182.859 166.091C181.03 164.713 178.948 163.835 176.85 162.983C173.983 161.82 171.008 160.954 168.057 160.067C167.782 159.983 167.533 159.834 167.292 159.654C168.847 159.819 170.308 160.335 171.788 160.723C174.256 161.366 176.669 162.198 178.986 163.287C180.421 163.963 181.832 164.717 183.09 165.706C183.525 166.049 183.88 166.448 184.051 167.075Z" fill="#98958B"/>
<path d="M173.891 129.911C180.393 130.24 186.888 129.784 193.49 129.753C191.504 130.459 176.657 130.699 173.891 129.911Z" fill="#98958B"/>
<path d="M160.244 46.1222C158.166 50.7459 154.169 56.489 149.504 61.0738C149.808 60.0445 150.575 59.4454 151.161 58.7605C153.168 56.3891 155.069 53.9424 156.78 51.3465C157.928 49.5896 159.068 47.8276 160.244 46.1222Z" fill="#98958B"/>
<path d="M129.543 126.621C136.261 126.299 141.177 122.809 145.225 117.796C143.131 122.736 134.564 127.61 129.543 126.621Z" fill="#98958B"/>
<path d="M87.2014 82.0108C84.8323 78.8751 83.9999 68.1572 85.7666 63.1599C84.8694 69.5417 84.9674 75.8571 87.2014 82.0108Z" fill="#98958B"/>
<path d="M106.946 114.528C104.26 113.276 102.1 111.617 100.468 109.309C98.7326 106.845 97.5178 104.135 96.6285 101.27C96.596 101.169 96.6064 101.036 96.5928 100.806C96.9712 101.068 97.007 101.416 97.1147 101.702C98.1343 104.33 99.3115 106.89 100.994 109.17C102.121 110.709 103.453 112.022 105.096 113.009C105.747 113.4 106.364 113.829 106.946 114.528Z" fill="#98958B"/>
<path d="M125.019 24.0555C124.633 24.6977 124.256 25.3449 123.862 25.9819C122.453 28.2697 121.35 30.7065 120.347 33.1914C119.659 34.8988 118.937 36.5857 118.207 38.2674C118.065 38.6013 117.915 38.9661 117.54 39.2417C118.453 36.4809 119.516 33.8573 120.653 31.2663C121.447 29.4596 122.253 27.6718 123.28 25.9817C123.727 25.2368 124.234 24.5279 125.019 24.0555Z" fill="#98958B"/>
<path d="M161.102 51.0182C161.83 49.65 162.516 48.4308 163.409 47.3127C164.427 46.0251 165.522 44.842 166.799 43.8029C167.445 43.2705 168.14 42.7912 168.894 42.4285C169.304 42.2317 169.741 42.0863 170.289 42.299C169.617 42.6995 168.904 43.052 168.268 43.509C167.557 44.014 166.857 44.56 166.243 45.1935C165.667 45.803 165.038 46.3457 164.48 46.9655C163.9 47.6195 163.328 48.3009 162.838 49.0201C162.366 49.7273 161.876 50.3883 161.102 51.0182Z" fill="#98958B"/>
<path d="M143.294 114.784C142.354 117.959 136.802 122.78 131.469 123.899C132.948 123.086 134.579 122.563 136.003 121.647C137.413 120.735 138.744 119.74 139.976 118.581C141.208 117.422 142.192 116.056 143.294 114.784Z" fill="#98958B"/>
<path d="M137.463 126.741C137.449 127.211 137.163 127.26 136.957 127.37C133.986 129.057 130.768 129.955 127.384 130.311C126.463 130.41 125.543 130.312 124.628 130.147C124.408 130.108 124.243 130.032 124.046 129.739C128.847 130.048 133.223 128.797 137.463 126.741Z" fill="#98958B"/>
<path d="M101.603 95.7418C100.659 90.2344 99.632 84.7475 98.6412 79.259C98.9513 79.1307 98.9512 79.3636 98.9769 79.4956C99.9611 84.3161 100.981 89.1349 101.68 94.0049C101.756 94.5754 101.833 95.1458 101.603 95.7418Z" fill="#98958B"/>
<path d="M71.5273 80.6002C71.5643 85.6789 71.4761 90.7524 72.873 95.9722C71.0125 93.0954 70.7663 85.1064 71.5273 80.6002Z" fill="#98958B"/>
<path d="M118.579 108.175C120.033 105.309 126.364 101.713 131.136 101.119C130.786 101.527 130.387 101.59 130.048 101.689C128.599 102.123 127.194 102.678 125.804 103.264C123.063 104.414 120.769 106.217 118.579 108.175Z" fill="#98958B"/>
<path d="M172.934 135.5C166.974 135.415 160.997 135.355 155.171 133.825C161.047 134.768 166.991 135.076 172.934 135.5Z" fill="#98958B"/>
<path d="M192.654 79.2566C191.262 84.6772 188.198 89.023 184.576 93.0345C185.06 91.7055 186.128 90.7623 186.889 89.6116C187.28 89.0191 187.747 88.4729 188.113 87.865C189.297 85.9318 190.512 84.0054 191.392 81.9007C191.679 81.2105 191.939 80.5049 192.2 79.7994C192.282 79.6041 192.308 79.3866 192.654 79.2566Z" fill="#98958B"/>
<path d="M134.52 134.027C140.14 134 144.843 131.99 148.706 127.751C148.52 128.35 148.246 128.768 147.878 129.129C144.613 132.353 140.75 134.227 136.101 134.324C135.571 134.332 135.03 134.38 134.52 134.027Z" fill="#98958B"/>
<path d="M121.772 114.555C125.605 112.267 129.34 109.908 132.039 106.229C132.3 106.63 132.111 106.866 131.936 107.099C130.76 108.746 129.355 110.174 127.714 111.355C125.868 112.682 123.91 113.789 121.772 114.555Z" fill="#98958B"/>
<path d="M174.297 62.102C167.242 65.3907 166.446 66.9867 163.199 69.7548C163.198 69.4277 163.395 69.1965 163.587 68.9739C163.77 68.7462 163.983 68.5476 164.192 68.3353C166.476 65.9675 168.974 63.903 172.048 62.6267C172.766 62.3239 173.513 62.1084 174.297 62.102Z" fill="#98958B"/>
<path d="M86.6955 104.403C84.2387 101.937 82.1171 93.4624 82.8174 90.6091C83.4043 95.4123 84.3715 100.106 86.6955 104.403Z" fill="#98958B"/>
<path d="M126.56 44.2046C129.218 40.1858 132.808 37.2739 137.269 35.433C135.301 36.6739 133.32 37.896 131.548 39.4299C129.8 40.9432 128.203 42.5936 126.56 44.2046Z" fill="#98958B"/>
<path d="M170.477 46.2916C169.223 48.9991 167.684 51.5231 165.848 53.8808C164.998 54.9664 164.165 56.0622 163.252 57.0981C162.844 57.5638 162.431 58.0963 161.456 58.1866C163.415 56.3222 164.769 54.2811 166.356 52.4148C167.958 50.5229 169.062 48.2967 170.477 46.2916Z" fill="#98958B"/>
<path d="M99.4378 48.3144C100.747 43.2638 103.687 39.2622 107.453 35.8041C104.096 39.5314 101.348 43.6598 99.4378 48.3144Z" fill="#98958B"/>
<path d="M98.554 89.4708C96.7341 84.1018 95.6064 78.5892 95.1929 72.9348C95.8185 75.6757 96.1528 78.4747 96.7236 81.2293C97.2978 83.9976 98.0055 86.718 98.554 89.4708Z" fill="#98958B"/>
<path d="M103.488 84.4767C104.522 89.1756 104.926 93.9153 103.81 98.7793C103.41 98.4571 103.526 98.166 103.564 97.9091C104.25 93.509 104.07 89.1137 103.456 84.725C103.449 84.6394 103.478 84.552 103.488 84.4767Z" fill="#98958B"/>
<path d="M100.803 99.304C101.804 99.6368 102.441 100.206 103.002 100.823C105.496 103.556 107.206 106.762 108.763 110.318C108.16 110.061 108.061 109.664 107.898 109.333C106.771 107.118 105.544 104.971 104.068 102.966C103.298 101.921 102.552 100.855 101.483 100.073C101.259 99.9037 101.091 99.6399 100.803 99.304Z" fill="#98958B"/>
<path d="M110.449 46.4698C109.394 51.8718 108.45 57.3045 106.306 62.425C107.944 57.1758 108.999 51.7739 110.449 46.4698Z" fill="#98958B"/>
<path d="M99.3514 108.86C96.6357 106.844 94.0336 100.294 94.4346 96.5039C94.8007 97.3879 94.7284 98.0902 94.9028 98.7309C95.1063 99.4589 95.2361 100.213 95.4447 100.932C95.638 101.619 95.886 102.292 96.1391 102.957C96.3923 103.622 96.6729 104.28 96.9861 104.922C97.3232 105.602 97.698 106.259 98.0831 106.898C98.4442 107.499 98.8396 108.063 99.3514 108.86Z" fill="#98958B"/>
<path d="M129.635 133.877C125.529 134.37 119.432 130.148 118.008 127.301C124.351 133.034 123.754 132.069 129.635 133.877Z" fill="#98958B"/>
<path d="M140.628 106.517C141.569 105.824 142.615 105.672 143.532 105.233C144.443 104.801 145.348 104.343 146.188 103.798C147.07 103.222 147.927 102.629 148.806 102.039C149.618 101.501 150.367 100.856 151.345 100.372C148.74 103.409 142.985 106.745 140.628 106.517Z" fill="#98958B"/>
<path d="M127.402 91.1396C122.647 90.9283 118.592 92.5005 114.995 95.5015C116.927 92.4209 125.092 89.4376 127.402 91.1396Z" fill="#98958B"/>
<path d="M135.717 39.7443C138.781 36.9127 142.169 34.6482 146.364 33.8126C144.606 34.8189 142.658 35.4432 140.904 36.4632C139.139 37.5003 137.47 38.6883 135.717 39.7443Z" fill="#98958B"/>
<path d="M165.427 118.069C160.817 118.528 156.349 119.526 152.159 121.634C154.111 119.684 160.709 117.892 165.427 118.069Z" fill="#98958B"/>
<path d="M123.688 119.085C123.085 119.003 122.55 119.311 121.997 119.456C120.353 119.866 118.691 120.033 117.001 119.822C116.836 119.805 116.663 119.782 116.506 119.734C116.435 119.715 116.374 119.643 116.245 119.566C117.381 119.538 118.467 119.572 119.544 119.486C121.934 119.29 124.116 118.41 126.236 117.365C127.065 116.954 127.879 116.511 128.696 116.081C128.902 115.972 129.073 115.784 129.34 115.862C129.345 116.203 129.028 116.246 128.831 116.361C127.409 117.254 125.936 118.058 124.365 118.676C124.101 118.785 123.789 118.82 123.628 119.107L123.688 119.085Z" fill="#98958B"/>
<path d="M129.546 43.6566C132.139 40.4257 135.233 37.8339 139.107 36.2342C137.452 37.4187 135.677 38.4147 134.111 39.7226C132.56 41.0048 131.129 42.4173 129.546 43.6566Z" fill="#98958B"/>
<path d="M195.547 140.624C191.67 142.442 187.533 142.754 183.306 142.673C183.597 142.615 183.881 142.529 184.166 142.502C186.458 142.294 188.765 142.119 191.042 141.704C192.578 141.415 194.038 140.905 195.547 140.624Z" fill="#98958B"/>
<path d="M205.248 88.6854C201.274 89.7352 197.635 91.5456 193.934 93.6336C195.26 91.8905 201.586 89.1187 205.248 88.6854Z" fill="#98958B"/>
<path d="M172.172 50.2579C171.035 53.7808 168.802 56.5288 166.08 58.9255C168.296 56.1672 170.458 53.3642 172.172 50.2579Z" fill="#98958B"/>
<path d="M97.7553 97.7643C98.639 98.0388 99.1953 98.7225 99.7671 99.3805C101.578 101.447 102.81 103.877 104.207 106.323C103.741 106.323 103.678 105.982 103.563 105.785C102.743 104.512 101.951 103.232 101.158 101.952C100.207 100.414 99.0633 99.0393 97.7553 97.7643Z" fill="#98958B"/>
<path d="M167.663 55.379C169.045 52.6322 170.937 50.1803 172.173 47.3461C171.529 50.5129 169.564 52.9322 167.663 55.379Z" fill="#98958B"/>
<path d="M185.656 110.752C188.569 110.789 191.117 110.059 193.573 108.936C191.865 110.636 187.409 111.712 185.656 110.752Z" fill="#98958B"/>
<path d="M144.892 114.974C143.771 117.714 141.678 119.569 139.317 121.191C141.269 119.183 143.404 117.355 144.892 114.974Z" fill="#98958B"/>
<path d="M184.001 168.245C181.613 166.963 179.108 166.168 176.734 165.057C177.63 165.118 178.445 165.409 179.264 165.714C180.083 166.02 180.968 166.214 181.713 166.661C182.475 167.119 183.528 167.169 184.001 168.245Z" fill="#98958B"/>
<path d="M168.438 63.0103C166.192 64.4806 164.411 66.417 162.532 68.2472C164.047 65.9766 165.887 64.0762 168.438 63.0103Z" fill="#98958B"/>
<path d="M123.625 119.094C124.284 119.257 124.824 118.882 125.396 118.666C126.357 118.288 127.265 117.785 128.184 117.323C126.381 118.967 124.154 119.61 121.828 120.03C122.309 119.422 123.227 119.717 123.688 119.085L123.625 119.094Z" fill="#98958B"/>
<path d="M134.658 138.956C133.479 137.642 132.128 134.944 131.997 133.804C132.03 133.789 132.067 133.765 132.108 133.755C132.144 133.753 132.194 133.748 132.22 133.763C132.278 133.822 132.345 133.885 132.376 133.95C133.099 135.538 133.815 137.121 134.658 138.956Z" fill="#98958B"/>
<path d="M84.0791 91.9032C84.407 93.9177 84.7589 95.9117 85.1467 97.9039C84.3683 95.98 83.9445 93.9894 84.0791 91.9032Z" fill="#98958B"/>
<path d="M82.8358 164.965C83.0564 165.762 82.7307 166.09 82.5165 166.428C81.7297 167.68 81.15 169.032 80.4968 170.353C80.2053 170.935 80.1879 171.565 80.1704 172.196C80.0253 178.179 79.3562 184.103 77.995 189.938C77.8749 190.449 77.8969 191.033 77.3159 191.593C78.6469 184.528 79.5734 177.593 79.5101 170.541C79.0957 170.164 78.7088 169.78 78.3013 169.43C77.9058 169.099 77.3355 168.943 77.0446 168.244C78.0483 168.416 78.5978 169.131 79.4917 169.446C79.4914 166.673 79.2923 163.979 78.9613 161.31C78.3278 160.754 77.7029 160.263 77.0231 159.843C76.3604 159.433 75.5023 159.349 74.9562 158.648C75.8059 158.494 75.8058 158.494 76.8983 159.139C77.5062 159.504 78.1141 159.869 78.8419 160.306C78.586 158.113 78.241 156.089 77.7812 154.1C76.533 153.21 75.0583 152.988 73.7465 152.34C75.105 152.038 76.2248 152.85 77.458 153.183C77.585 152.584 77.294 152.234 76.8094 151.955C75.6878 151.281 74.5439 150.664 73.2594 150.358C72.9031 150.272 72.5588 150.147 72.1649 150.027C72.9394 149.455 73.0628 149.483 76.916 151.098C77.0377 150.799 76.8889 150.523 76.8119 150.244C75.8236 146.749 74.5114 143.386 72.8583 140.144C72.4425 139.323 71.8415 138.869 70.9886 138.602C69.4148 138.099 67.7927 137.929 66.1604 137.717C65.7168 137.66 65.2321 137.73 64.8331 137.386C66.0118 136.917 67.7965 137.127 71.6928 138.186C70.3322 135.796 68.7198 133.65 66.9068 131.664C66.3453 131.047 65.6826 130.521 65.1125 129.899C64.7359 129.498 64.2992 129.352 63.7819 129.321C62.338 129.223 60.9248 129.423 59.5167 129.672C58.6585 129.821 57.802 129.947 56.9403 130.024C58.0883 129.257 59.3954 128.982 63.4825 128.617C63.4792 128.312 63.2069 128.242 63.0271 128.134C61.3028 127.086 59.611 125.965 57.8198 125.029C55.7186 123.93 53.403 123.46 51.0874 123.048C50.7072 122.982 50.3389 123.111 49.9722 123.217C48.5812 123.593 47.3151 124.265 46.0849 124.994C45.3002 125.467 44.5034 125.92 43.5559 126.47C44.4232 125.278 45.8797 124.289 48.7014 122.908C48.5183 122.553 48.1757 122.697 47.9171 122.681C44.6233 122.462 41.3567 122.76 38.1037 123.23C37.4648 123.324 36.8977 123.589 36.3768 123.952C35.1448 124.82 33.9043 125.682 32.4873 126.684C33.2792 125.423 34.5247 124.901 35.2121 123.835C33.2573 124.606 31.876 126.188 30.1352 127.263C30.9768 126.056 32.1642 125.185 33.1942 124.091C32.718 124.166 32.2349 124.213 31.7741 124.321C30.3745 124.634 28.9904 124.979 27.5874 125.278C26.6212 125.49 25.7458 125.862 24.973 126.469C24.3441 126.954 23.7135 127.46 23.0727 127.926C22.7214 128.181 22.4283 128.553 21.8664 128.635C22.4595 127.686 23.455 127.212 24.0995 126.352C22.8645 126.275 19.7381 127.077 18.054 127.824C16.166 128.659 14.3499 129.607 12.5149 130.567C13.5468 129.16 15.2033 128.652 16.622 127.803C13.1601 128.077 9.72722 128.788 6.28308 127.849C9.83541 128.2 13.3265 127.723 17.0609 127.053C15.16 126.319 13.353 126.049 11.7897 125.005C12.0947 124.652 12.3447 124.838 12.5913 124.951C14.124 125.638 15.6927 126.208 17.3266 126.63C17.8626 126.766 18.3953 126.829 18.9384 126.701C20.7457 126.272 22.5393 125.846 24.3466 125.417C24.4562 125.39 24.5658 125.304 24.8228 125.167C23.0196 124.212 21.0912 123.66 19.7456 122.176C19.7919 122.099 19.8331 122.03 19.8793 121.953C20.316 122.216 20.7612 122.483 21.1979 122.745C22.388 123.46 23.5472 124.226 24.8642 124.691C25.2221 124.813 25.5903 125.034 25.9449 124.968C27.1183 124.74 28.3071 124.546 29.6554 124.085C27.4633 123.293 25.4733 122.552 23.7696 121.238C24.6653 121.531 25.5593 121.846 26.3778 122.326C27.3933 122.925 28.5065 123.302 29.6076 123.719C30.3612 123.997 31.0686 123.944 31.9098 123.552C29.5465 122.54 27.2037 121.727 24.94 120.24C25.7639 120.303 26.2776 120.554 26.7999 120.809C28.5021 121.622 30.2095 122.426 31.994 123.043C32.5044 123.222 33.0318 123.411 33.5902 123.315C35.4917 123.001 37.3983 122.678 39.5533 122.329C38.3392 121.577 37.2398 121.021 36.2895 120.276C35.3598 119.554 34.2741 118.937 33.6787 117.659C34.8432 118.067 35.5022 118.929 36.3036 119.574C37.4679 120.506 38.7487 121.205 40.0228 121.936C40.4217 122.164 40.9048 122.232 41.3656 122.183C43.9624 121.914 46.5609 121.855 49.3579 122.125C47.4318 120.328 45.3907 118.857 44.443 116.458C44.8936 116.193 44.9842 116.527 45.0954 116.71C46.1035 118.33 47.4047 119.694 48.8309 120.947C49.7537 121.757 50.7417 122.421 52.0229 122.596C53.0557 122.739 54.0644 123.076 55.0783 123.348C55.3198 123.411 55.5475 123.536 55.8011 123.386C54.0852 119.046 53.8681 118.088 54.3329 116.83C54.7029 116.854 54.6531 117.15 54.6718 117.371C54.8575 119.37 55.511 121.231 56.2929 123.052C56.505 123.552 56.82 123.881 57.2995 124.111C58.5479 124.709 59.8495 125.2 61.0464 126.059C61.2607 125.547 61.0622 125.159 60.975 124.781C60.5341 122.722 60.7235 120.68 61.1801 118.659C61.2419 118.382 61.3192 118.078 61.6447 117.924C61.8688 118.444 61.6168 118.921 61.5395 119.399C61.189 121.496 61.1931 123.584 61.6049 125.672C61.7399 126.359 62.0343 126.838 62.8187 127.007C62.5512 124.213 62.3624 121.443 63.4223 118.689C63.9462 119.039 63.7114 119.41 63.6376 119.669C63.0851 121.598 63.0533 123.571 63.1603 125.546C63.184 126.049 63.3071 126.543 63.3668 127.045C63.4504 127.759 63.8202 128.191 64.5344 128.34C64.0231 123.023 64.1886 120.711 65.1827 119.502C65.4137 119.99 65.2097 120.427 65.1135 120.859C64.5865 123.327 64.7275 125.788 65.0466 128.263C65.1046 128.729 65.2483 129.13 65.6198 129.481C67.2634 130.993 68.7151 132.669 70.0846 134.424C70.1257 134.472 70.2336 134.466 70.3911 134.514C70.6666 131.534 71.4251 128.681 72.6528 125.958C72.7832 125.663 72.8947 125.323 73.2596 125.181C73.5849 125.376 73.4015 125.604 73.2952 125.82C72.239 128.121 71.5372 130.531 71.0941 133.014C70.9756 133.677 70.9633 134.357 70.903 135.02C70.8669 135.371 70.9421 135.673 71.1475 135.971C72.2669 137.657 73.2372 139.416 74.2041 141.337C74.9342 140.354 74.9982 139.181 75.5553 138.234C76.1331 137.253 76.5036 136.17 77.1155 135.21C77.9161 133.955 78.6667 133.054 79.4189 132.655C79.0296 133.575 78.5017 134.26 78.0166 134.97C76.5939 137.029 75.5822 139.275 74.7555 141.622C74.6457 141.94 74.6336 142.271 74.7687 142.608C75.2615 143.766 75.7268 144.931 76.2024 146.079C76.6015 146.074 76.6016 145.783 76.6548 145.559C77.2212 143.219 78.1182 141.008 79.2668 138.902C79.4657 138.532 79.5823 138.125 79.7555 137.739C80.0316 137.124 80.143 137.017 80.8729 136.616C80.115 138.246 79.3811 139.856 78.6267 141.442C77.8208 143.113 77.2684 144.867 76.8033 146.65C76.6129 147.374 76.7376 148.02 77.2665 148.827C78.1693 144.977 79.6029 141.562 81.4493 138.314C81.5367 138.168 81.6327 138.028 81.8691 138.042C82.114 138.177 81.9426 138.365 81.862 138.538C81.1487 140.056 80.4046 141.566 79.717 143.099C78.7773 145.167 78.0911 147.319 77.6361 149.55C77.5468 150.009 77.5654 150.463 77.6868 150.921C78.1929 152.832 78.6579 154.754 79.008 156.887C79.6884 156.026 80.1239 155.204 80.5166 154.356C80.9007 153.503 81.2728 152.632 81.8812 151.949C82.5084 151.253 82.8172 150.274 83.7338 149.834C83.5194 150.579 83.1131 151.197 82.6897 151.805C81.5687 153.439 80.6532 155.196 79.652 156.901C79.1155 157.814 79.2349 158.759 79.5393 159.863C80.8372 157.159 81.9536 154.485 84.0752 152.253C84.0834 153.073 83.7029 153.59 83.3293 154.077C81.7867 156.063 80.8692 158.366 79.7958 160.599C79.6741 160.841 79.6603 161.077 79.6807 161.334C79.8867 163.881 80.0876 166.437 80.3193 169.058C81.1643 167.748 81.9512 166.438 82.8358 164.965Z" fill="#98958B"/>
<path d="M35.5211 257.179C35.9377 256.602 36.4448 256.243 36.9435 255.878C42.3358 251.847 47.8566 248.009 53.7231 244.682C54.6278 244.166 55.2003 243.309 55.7351 242.477C56.9007 240.672 57.9978 238.826 59.0436 236.95C59.6059 235.936 60.0005 234.833 60.5508 233.8C60.3358 235.71 59.4477 237.344 58.4637 238.943C57.4952 240.517 56.6807 242.183 55.4468 243.597C57.1771 242.947 58.7773 242.184 59.6808 240.408C60.2929 239.215 61.2766 238.256 61.9504 237.076C63.2172 234.889 64.2889 232.62 65.2235 230.269C65.3573 229.93 65.4876 229.577 66.0325 229.194C64.3893 233.811 62.4003 237.976 59.0293 241.706C60.0434 241.453 60.739 241.207 61.2206 240.657C61.7416 240.062 62.2968 239.486 62.6929 238.769C63.3529 237.592 64.0557 236.442 64.7757 235.301C65.8248 233.613 66.4972 231.756 67.274 229.939C67.7164 228.912 67.9482 227.77 68.7708 226.924C67.2509 231.685 65.2514 236.216 62.2125 240.286C62.5792 240.122 62.9407 239.966 63.2988 239.797C65.0926 238.964 66.8555 238.065 68.6921 237.316C70.371 236.635 71.5244 235.394 72.5888 234.029C74.3044 231.832 75.6827 229.421 77.0953 227.031C78.105 225.33 78.9298 223.53 79.758 221.744C80.1558 220.888 80.6752 220.082 81.1004 219.218C80.9284 220.804 80.1295 222.154 79.4454 223.526C78.739 224.954 78.1268 226.438 77.2474 227.786C76.3938 229.091 75.672 230.487 74.7806 231.757C73.8653 233.048 73.022 234.394 72.0672 235.731C72.9016 235.37 73.7325 234.996 74.5668 234.635C76.0316 234 77.4725 233.269 78.9733 232.749C81.0633 232.024 82.7272 230.728 84.29 229.232C87.6711 226.008 90.244 222.171 92.4334 218.08C93.0574 216.905 93.6866 215.722 94.3295 214.535C94.4372 215.054 94.2708 215.525 94.0394 215.969C93.0861 217.749 92.2151 219.568 91.1797 221.311C89.1705 224.695 86.7197 227.708 83.8424 230.384C83.731 230.492 83.5392 230.54 83.5596 230.855C84.5395 230.465 85.5075 230.115 86.4566 229.718C89.6381 228.378 92.8076 227.019 95.9942 225.671C97.0272 225.232 97.8343 224.528 98.5661 223.698C100.588 221.417 102.184 218.857 103.705 216.228C104.739 214.449 105.793 212.694 106.534 210.471C106.707 211.367 106.388 211.898 106.202 212.439C105.54 214.278 104.457 215.888 103.485 217.564C102.21 219.746 100.914 221.904 99.1537 223.748C99.0663 223.835 99.0422 223.972 98.9839 224.088C100.123 223.899 100.735 223.52 101.638 222.502C104.078 219.738 105.901 216.569 107.703 213.375C108.133 212.62 108.375 211.752 108.711 210.94C108.803 210.727 108.821 210.447 109.121 210.394C109.114 212.441 106.001 217.992 102.285 222.588C102.624 222.663 102.846 222.47 103.07 222.348C105.741 221.005 108.392 219.638 111.083 218.318C111.991 217.873 112.687 217.219 113.24 216.433C114.795 214.233 116.119 211.894 117.038 209.335C117.204 208.865 117.527 208.464 117.561 207.669C117.799 208.709 117.61 209.178 116.919 210.93C116.501 211.995 115.871 212.946 115.492 214.023C115.12 215.069 114.197 215.773 113.591 216.994C114.553 216.499 115.298 216.131 116.036 215.736C117.41 215 118.764 214.24 120.138 213.504C120.933 213.073 121.536 212.457 122.021 211.688C123.041 210.087 123.828 208.369 124.559 206.629C124.674 206.361 124.763 206.076 125.04 205.905C125.151 206.845 125.007 207.202 122.528 211.969C122.891 211.966 123.114 211.75 123.368 211.6C125.288 210.458 127.055 209.107 128.789 207.714C129.147 207.428 129.473 207.099 130.102 206.906C129.411 207.901 128.576 208.553 127.79 209.223C126.964 209.938 126.076 210.582 125.177 211.207C124.291 211.828 123.364 212.401 122.473 213.148C122.93 213.084 123.387 213.021 123.853 212.963C124.898 212.834 125.943 212.762 127.007 212.853C127.447 212.896 127.944 212.845 128.288 213.262C128.128 213.585 127.86 213.412 127.649 213.414C126.767 213.408 125.881 213.331 125.001 213.361C122.644 213.425 120.434 213.962 118.421 215.258C117.506 215.85 116.498 216.305 115.548 216.841C115.304 216.974 114.97 217.006 114.866 217.433C116.255 217.254 117.62 217.153 118.994 217.175C120.506 217.198 122.01 217.332 123.503 217.658C123.957 217.756 124.413 217.832 124.712 218.244C124.452 218.542 124.18 218.356 123.897 218.302C120.739 217.664 117.56 217.525 114.367 218.03C113.745 218.135 113.116 218.27 112.53 218.489C111.866 218.742 111.251 219.106 110.642 219.615C110.887 219.576 111.146 219.533 111.391 219.494C114.817 218.93 118.251 218.779 121.69 219.26C122.422 219.362 122.43 219.367 123.103 219.818C122.538 220.003 122.05 219.826 121.579 219.776C117.615 219.294 113.691 219.407 109.775 220.224C108.896 220.407 108.081 220.698 107.288 221.107C105.636 221.956 103.966 222.758 102.316 223.585C102.11 223.694 101.913 223.809 101.769 224.107C102.209 224.092 102.648 224.099 103.085 224.07C107.495 223.806 111.806 224.31 116.038 225.547C116.674 225.731 117.268 225.983 117.758 226.545C117.384 226.449 117.004 226.384 116.632 226.265C111.352 224.504 105.942 224.201 100.441 224.707C100.022 224.747 99.6173 224.877 99.2318 225.053C97.8149 225.705 96.3947 226.343 94.9367 227.005C95.1455 227.433 95.5292 227.279 95.8152 227.288C99.9363 227.526 103.98 228.243 107.919 229.502C109.318 229.946 110.716 230.413 111.966 231.222C112.192 231.369 112.531 231.445 112.502 231.823C112.397 231.959 112.275 231.909 112.173 231.847C109.409 230.164 106.328 229.338 103.214 228.645C100.63 228.06 98.0023 227.74 95.3663 227.531C94.1862 227.44 93.1378 227.672 92.1577 228.295C92.3152 228.634 92.6218 228.492 92.8325 228.491C98.4747 228.583 103.913 229.752 109.194 231.666C109.939 231.939 110.653 232.321 111.371 232.659C111.626 232.777 111.878 232.94 111.972 233.404C111.388 233.193 110.877 233.073 110.42 232.845C107.588 231.412 104.527 230.668 101.458 229.978C98.2569 229.256 94.994 228.927 91.7036 228.838C91.0596 228.824 90.4446 228.897 89.8741 229.207C89.8945 229.348 89.9236 229.493 89.9526 229.639C89.2521 229.602 88.6028 229.713 87.9604 229.968C85.3512 231.034 82.7214 232.076 80.1173 233.133C79.946 233.205 79.7284 233.238 79.5912 233.563C86.3844 233.659 92.9958 234.484 99.2688 237.134C100.692 237.732 102.137 238.332 103.411 239.237C103.623 239.388 103.956 239.495 103.92 239.846C103.81 239.99 103.676 239.979 103.574 239.917C98.6608 236.885 93.2626 235.32 87.5916 234.559C84.7981 234.186 81.9976 233.96 79.1663 233.96C78.5256 233.96 77.9055 234.042 77.3213 234.297C74.8611 235.406 72.4094 236.519 69.9663 237.638C69.7573 237.734 69.4832 237.803 69.3391 238.217C72.2596 238.165 75.1182 238.449 77.934 238.999C80.7188 239.542 83.5226 240.014 86.0896 241.346C85.9352 241.719 85.7349 241.587 85.5568 241.515C81.7497 240.114 77.8019 239.374 73.7906 238.875C72.1223 238.666 70.4317 238.629 68.7548 238.647C67.984 238.65 67.2628 238.822 66.5724 239.177C65.6163 239.663 64.6329 240.097 63.6837 240.669C65.297 241.125 67.0203 240.914 68.5152 241.742C66.2663 241.684 64.0468 240.782 61.7734 241.502C62.9928 241.838 64.3016 241.599 65.55 242.198C65.168 242.388 64.8819 242.321 64.5925 242.298C64.1334 242.267 63.6692 242.245 63.2119 242.191C61.4461 241.97 59.8649 242.371 58.2527 243.174C52.3538 246.109 46.9137 249.773 41.5129 253.508C40.0975 254.487 38.6651 255.456 37.2293 256.411C36.7033 256.724 36.1995 257.039 35.5211 257.179Z" fill="#98958B"/>
<path d="M90.6379 229.351C97.5592 230.048 104.297 230.798 110.459 234.371C109.996 234.734 109.796 234.544 109.59 234.42C106.258 232.442 102.588 231.472 98.8196 230.782C96.3019 230.318 93.7773 229.944 91.2183 229.723C91.0488 229.714 90.8809 229.742 90.6379 229.351Z" fill="#98958B"/>
</g>
</svg>
