<svg width="115" height="134" viewBox="0 0 115 134" fill="none" xmlns="http://www.w3.org/2000/svg">
<g opacity="0.29" clip-path="url(#clip0_3801_34196)">
<path d="M127.701 103.106C126.97 102.293 126.245 101.463 125.507 100.656C120.395 95.104 114.831 90.079 108.607 85.7874C103.802 82.4742 98.6167 79.954 93.059 78.1862C92.7377 78.0817 92.4054 77.8995 92.0129 78.072C92.1792 79.1483 92.2572 80.2229 92.2027 81.3273C92.0521 84.3585 91.5132 87.3088 90.3378 90.1155C89.1551 92.9392 87.5888 95.5586 85.7713 98.0147C84.1479 100.204 82.1932 102.064 79.7304 103.32C78.6811 103.854 77.5732 104.248 76.4562 104.611C75.9158 104.789 75.4843 105.07 75.1265 105.523C73.4977 107.57 71.4936 109.184 69.291 110.569C67.3633 111.776 65.3343 112.792 63.3402 113.882C60.8008 115.272 58.2148 116.588 55.8079 118.22C53.9841 119.454 52.3154 120.873 50.7376 122.4C50.2034 122.914 49.6677 123.446 48.9541 123.715C48.1795 124.007 47.7517 123.77 47.5977 122.96C47.4121 121.97 47.589 121.018 47.9182 120.079C48.3178 118.94 48.7062 117.793 49.0947 116.647C49.6871 114.917 50.1372 113.127 51.0836 111.533C51.1454 111.433 51.1199 111.318 51.0061 111.202C50.8819 111.274 50.7411 111.333 50.6154 111.422C46.9941 114.064 43.9908 117.267 41.7254 121.147C41.095 122.225 40.5773 123.366 39.9864 124.465C39.6765 125.046 39.3544 125.632 38.6844 125.875C38.0523 125.407 37.9316 125.302 37.8821 124.784C37.8075 124.011 37.774 123.241 38.0064 122.465C38.5212 120.745 39.0136 119.012 39.4304 117.267C39.8169 115.666 40.3399 114.124 41.0643 112.641C41.6373 111.476 42.261 110.338 43.1636 109.112C39.5758 110.212 36.3892 111.581 33.4202 113.436C32.0605 114.286 30.7206 115.179 29.3763 116.053C29.0447 116.272 28.6941 116.437 28.2995 116.497C27.3003 116.658 26.6449 116.188 26.4368 115.185C26.2696 114.392 26.384 113.617 26.6661 112.88C27.9867 109.42 29.7281 106.208 32.1941 103.418C32.2857 103.314 32.4417 103.216 32.2894 102.931C31.5705 103.058 30.8207 103.199 30.0667 103.323C27.5955 103.722 25.1264 104.098 22.7085 104.767C21.6507 105.059 20.5994 105.346 19.5421 105.632C19.0467 105.766 18.5485 105.728 18.0322 105.695C17.1459 105.642 16.5237 104.721 16.9104 103.799C17.1849 103.15 17.5043 102.529 17.9703 101.985C20.8006 98.667 24.2445 96.2339 28.3608 94.7558C28.72 94.6277 29.1388 94.6286 29.4724 94.2504C28.2429 93.8017 27.0607 93.3511 25.8632 92.9406C24.2767 92.3901 22.7169 91.7358 21.0697 91.4101C18.5756 90.9167 16.0799 90.4408 13.5046 90.6129C12.739 90.6645 11.9475 90.7434 11.1682 90.5461C10.3718 90.3413 10.0654 89.8605 10.3101 89.0794C10.3673 88.8955 10.4372 88.701 10.5451 88.5452C11.1607 87.6369 11.8474 86.7937 12.8075 86.1985C13.9051 85.5149 14.9556 84.7622 16.0168 84.0224C16.2491 83.8596 16.5717 83.746 16.6281 83.3674C15.0647 82.754 13.7088 81.8577 12.5109 80.7038C11.438 79.6727 10.3778 78.631 9.35638 77.5513C8.17244 76.3042 6.91163 75.1271 5.7091 73.8901C4.32271 72.4602 4.47036 70.6205 6.36803 69.6228C7.27016 69.1523 8.16795 68.6637 9.0846 68.2299C11.9939 66.8596 14.8867 65.4761 17.5466 63.6477C21.524 60.9128 25.9346 59.3068 30.7148 58.6769C30.9536 58.6445 31.2816 58.8086 31.4024 58.4356C28.6599 56.5873 27.5829 55.4674 26.112 52.9033C25.2151 51.3389 24.442 49.7085 23.8462 48.0049C22.6543 44.6037 21.4071 41.2272 19.7132 38.0362C19.2009 37.0714 18.7449 36.0702 18.2948 35.0696C18.052 34.5353 17.8581 33.9816 17.7912 33.3917C17.7001 32.6051 17.8732 32.3782 18.639 32.3915C19.2281 32.4012 19.8157 32.4286 20.3919 32.5198C21.7481 32.7317 23.1196 32.768 24.4868 32.7862C26.6724 32.8222 28.8516 32.5922 31.0155 32.2665C34.2734 31.776 37.5487 31.7648 40.8286 31.9724C41.685 32.0289 42.5245 32.2138 43.3588 32.4572C44.2108 32.7021 45.025 33.109 45.9332 33.1818C45.9497 32.9236 45.8091 32.7757 45.7052 32.6134C44.8012 31.2666 44.1799 29.7909 43.7423 28.2368C43.4528 27.2205 43.1086 26.2231 42.7282 25.2344C42.2461 23.9891 41.8481 22.7275 41.8238 21.3744C41.7943 19.6727 42.9575 18.9122 44.5441 19.5983C45.4141 19.9746 46.1673 20.5414 46.929 21.0793C48.2414 22.0013 49.5406 22.9399 50.8594 23.8566C51.1598 24.0655 51.4484 24.3442 51.9759 24.384C51.6173 23.2792 51.3747 22.267 51.2165 21.2327C50.8684 18.9193 50.7058 16.5748 50.2023 14.2834C50.1682 14.133 50.1467 13.9718 50.1482 13.8186C50.1485 13.1342 50.6645 12.8309 51.2514 13.2062C51.5145 13.3706 51.7485 13.5974 51.9464 13.8328C53.6359 15.8494 55.5517 17.6379 57.5316 19.367C59.5169 21.1025 61.2911 23.0262 62.6953 25.2717C62.7939 25.4278 62.8719 25.6174 63.0918 25.666C63.2939 25.3767 63.1846 25.0723 63.1402 24.7675C62.8081 22.4733 62.8133 20.1669 63.0117 17.8774C63.1736 16.0094 63.4888 14.1429 63.8897 12.3075C64.2536 10.6281 64.9056 9.0268 65.8632 7.57587C66.3656 6.81705 66.9662 6.14935 67.7512 5.66871C68.7289 5.07498 69.3713 5.35485 69.6331 6.48667C69.6846 6.70943 69.7053 6.94721 69.7089 7.17761C69.7388 8.46633 69.7453 9.75302 69.7933 11.0374C69.9247 14.8305 71.137 18.2689 73.4564 21.2545C75.4099 23.766 77.0756 26.4649 78.9102 29.0546C79.862 30.3937 80.6944 31.8169 81.5522 33.2187C81.9761 33.9103 82.3256 34.6426 82.7627 35.4533C83.15 35.068 83.4468 34.7752 83.7441 34.4765C84.8813 33.3361 86.104 32.2975 87.5644 31.5804C89.9131 30.4153 92.4079 29.8114 95.0144 29.6893C95.755 29.6531 96.5106 29.7835 97.2088 30.0328C98.2677 30.4078 98.4431 31.1074 97.7684 32.0164C97.6748 32.144 97.5758 32.2652 97.4714 32.3801C96.9036 33.0093 96.6327 33.7528 96.4893 34.5899C96.2753 35.8339 96.3429 37.0964 96.1241 38.3282C95.8198 40.0009 95.8865 41.6822 96.1436 43.3446C96.7692 47.3575 97.2396 51.3923 97.8296 55.408C98.2735 58.4553 98.3708 61.4844 97.6209 64.4873C97.2786 65.8499 96.9997 67.2299 96.5706 68.5732C95.8688 70.7484 94.9537 72.7988 93.501 74.5844C93.2961 74.8381 93.0049 75.0665 92.9513 75.4807C93.3287 75.6196 93.6869 75.7746 94.0604 75.8895C97.0203 76.795 99.8891 77.9345 102.667 79.308C107.679 81.7896 112.21 84.9905 116.523 88.5265C121.871 92.9133 126.677 97.8431 131.147 103.104C131.517 103.537 131.936 103.945 132.164 104.513C131.499 104.627 131.167 104.238 130.829 103.849C129.826 102.694 128.835 101.535 127.812 100.402C122.595 94.6339 116.921 89.381 110.536 84.9044C106.609 82.157 102.469 79.8159 97.9942 78.083C97.0407 77.7171 96.0981 77.2933 95.0063 77.0925C95.246 77.5262 95.4289 77.8665 95.6429 78.2568C100.354 79.9276 104.765 82.2568 108.914 85.1001C115.508 89.6185 121.357 94.969 126.708 100.884C127.543 101.806 128.364 102.75 129.363 103.875C128.213 103.675 128.207 103.675 127.701 103.106ZM19.3532 34.4298C21.5585 36.4852 22.602 36.9297 24.7802 39.2861C26.6588 41.6179 28.6344 45.912 29.0737 46.9618C29.6476 48.3335 31.9672 52.1498 32.5926 53.347C33.1868 54.4701 35.6177 57.7213 38.2046 58.7773C39.5378 59.3235 40.9147 59.7733 42.2799 60.222C44.3331 60.9014 46.2522 61.8347 48.0754 62.9897C48.6682 63.3656 49.2811 63.7137 49.9208 64.0936C50.5194 63.4493 50.6734 62.4892 51.5653 62.1358C51.1929 60.375 51.9423 59.2836 53.5209 58.7006C53.7361 57.2385 54.6369 56.5791 56.0219 56.528C56.3416 56.5144 56.493 56.3329 56.7079 56.1686C57.5364 55.5265 58.4215 55.3201 59.4367 55.7915C60.1283 56.1169 60.8183 56.4599 61.663 56.3797C62.0853 56.3397 62.5422 56.6506 63.0458 56.83C63.1912 56.2408 62.9057 55.6556 62.9047 55.0538C62.9018 54.4753 62.8232 53.8845 62.7011 53.3193C61.3342 47.0357 57.709 42.1669 52.9556 38.0618C50.6559 36.0749 47.8958 34.8386 45.0466 33.8129C42.392 32.8572 39.6533 32.667 36.859 32.6431C33.9938 32.619 31.1884 33.131 28.3516 33.3925C25.9728 33.6111 23.598 33.6472 21.2213 33.3645C20.3338 33.2581 19.4412 33.2102 18.4457 33.124C18.5152 33.8203 18.9931 34.0918 19.3532 34.4298ZM20.0549 80.7912C21.9921 79.201 23.9576 77.6251 26.0789 76.2927C29.8604 73.9125 34.0035 72.6019 38.4901 72.5011C42.6691 72.409 46.6445 73.2373 50.3461 75.2513C50.4079 75.2862 50.4899 75.2933 50.605 75.3269C50.9185 74.8408 50.5451 74.248 50.8767 73.7575C49.6956 72.6817 49.6255 71.4485 50.3184 70.0572C49.2136 68.7815 49.4187 67.4365 50.2691 66.0648C50.1532 65.7008 50.0377 65.3309 49.9083 64.9185C47.8998 63.8594 46.0162 62.5163 43.8748 61.6286C40.9984 60.4413 38.0202 59.6109 34.9254 59.3781C31.1683 59.0937 27.5381 59.8647 24.016 61.1582C21.9805 61.9081 20.0862 62.9356 18.3001 64.1436C15.5302 66.0157 12.5682 67.5171 9.5344 68.8942C8.5704 69.3299 7.63161 69.8149 6.70251 70.3243C5.29613 71.0992 5.05944 72.2645 6.25021 73.3648C8.75781 75.6765 10.9427 78.3083 13.4762 80.5928C14.598 81.6044 15.8877 82.3121 17.407 82.957C18.3027 82.2205 19.1788 81.5059 20.0549 80.7912ZM64.2598 76.7227C63.9997 77.886 63.1454 78.3488 61.9944 78.491C61.4973 79.734 60.5772 80.3445 59.1804 80.1232C58.9419 80.0848 58.7227 80.0953 58.5094 80.242C57.3876 81.0002 56.4458 80.6354 55.5965 79.7477C55.5152 79.6639 55.4213 79.5909 55.339 79.5189C53.9636 79.8008 52.8786 79.3174 52.3875 77.4283C50.9604 76.0597 49.1993 75.7537 47.3059 75.7489C46.132 75.7475 44.9716 75.7944 43.8046 75.9174C42.5062 76.0586 41.2774 76.4182 40.107 76.9893C38.9488 77.5556 37.7944 78.1458 36.6458 78.7365C35.1707 79.4877 33.598 79.9355 31.9947 80.3275C27.8956 81.3351 23.7858 82.3299 19.7846 83.7058C17.0602 84.6438 14.5983 86.0941 12.28 87.7929C11.6943 88.22 11.0928 88.6929 10.909 89.5206C11.3071 90.033 11.8608 89.9748 12.3844 89.855C13.6428 89.5629 14.8963 89.2586 16.1363 88.9058C18.0178 88.3669 19.8776 87.7375 21.8412 87.6127C24.8609 87.4201 27.8292 87.6833 30.7987 88.3418C33.6291 88.9706 36.1321 90.3144 38.7211 91.4827C41.6113 92.7833 44.652 93.4362 47.7818 93.7429C48.7118 93.8353 49.6459 93.6094 50.5746 93.5129C53.3549 93.2229 56.0548 92.5661 58.6065 91.4421C60.9441 90.4058 62.8622 88.8316 63.9792 86.427C64.197 85.9562 64.2582 85.4541 64.4355 84.9739C65.4111 82.3623 65.7383 79.6768 65.3584 76.9123C65.3145 76.6017 65.2823 76.2922 65.2354 75.881C64.7802 76.0952 64.3752 76.2076 64.2598 76.7227ZM85.5992 65.351C84.8258 61.1365 83.3804 57.1882 80.6767 53.8035C78.2448 50.7549 75.3364 48.3023 71.5979 46.9871C69.4166 46.2199 67.3533 46.5426 65.4779 47.8963C64.2253 48.8024 63.7618 50.0661 63.9071 51.589C64.1515 54.147 64.9816 56.5494 65.9212 58.914C66.7592 61.022 67.5913 63.1295 67.835 65.422C68.0007 66.9821 67.9604 68.5361 67.9489 70.0985C67.9362 72.0148 67.9963 73.9079 68.4045 75.8017C68.8814 77.9905 70.0454 79.5368 72.0668 80.5143C73.9577 81.4334 75.901 81.8142 77.9763 81.4218C78.96 81.2357 79.6923 80.7505 80.161 79.8353C80.9785 78.2307 82.0095 76.7507 83.0511 75.2835C83.4817 74.6718 83.9298 74.0617 84.5336 73.6302C85.1305 73.21 85.446 72.7005 85.5138 71.9866C85.5473 71.6001 85.634 71.2124 85.6968 70.8284C86.0802 68.9914 85.9378 67.162 85.5992 65.351ZM67.37 14.3554C67.2024 14.9957 67.1441 15.6691 67.0111 16.3184C66.2026 20.2011 66.5645 23.9905 67.6516 27.7839C68.8846 32.0736 71.2225 35.6626 74.153 38.949C75.9489 40.9631 77.8143 42.9242 79.368 45.1473C80.1287 46.2398 80.864 47.3536 81.5314 48.5029C82.9884 51.0245 83.6763 53.7743 83.9167 56.6506C83.9532 57.114 84.0073 57.5788 84.0795 58.0393C84.0948 58.1351 84.1936 58.2203 84.2879 58.3583C84.9089 57.7278 85.0751 56.8985 85.3636 56.1566C85.6595 55.3975 85.8594 54.5889 86.0002 53.7811C86.4147 51.3804 86.4158 48.9852 86.0539 46.5586C85.6373 43.8087 84.6524 41.2867 83.494 38.7911C81.6596 34.8386 79.4647 31.0968 76.9285 27.5495C75.4292 25.4491 74.0056 23.2903 72.4755 21.2049C70.2538 18.1805 69.2373 14.7296 69.0641 11.0096C69.0546 10.7787 69.0339 10.5409 69.0128 10.309C68.9967 10.1542 68.9625 10.0038 68.9227 9.78203C68.0929 11.2558 67.7744 12.8211 67.37 14.3554ZM75.128 82.2251C73.5635 81.9656 72.1315 81.4698 70.7789 80.6033C68.9402 79.4233 67.3251 78.0444 66.0809 75.9956C66.1282 76.8787 66.1313 77.5929 66.2119 78.296C66.4939 80.6921 65.8734 82.951 65.166 85.1906C64.9696 85.8225 64.8308 86.4713 64.5135 87.0691C63.9265 88.1923 63.1429 89.1332 62.2068 89.996C60.5152 91.5426 58.5157 92.4903 56.3939 93.2149C52.289 94.6291 48.1011 95.7764 43.8645 96.7367C42.041 97.1509 40.4076 97.9592 38.8161 98.895C33.5567 101.991 29.9907 106.514 27.6552 112.087C27.3506 112.81 27.0754 113.535 27.0239 114.333C26.991 114.849 26.9326 115.387 27.4543 115.698C27.9425 115.988 28.3423 115.663 28.742 115.408C29.6787 114.811 30.4855 114.079 31.0914 113.146C31.8396 112.001 32.6048 110.864 33.2857 109.678C35.4057 105.98 38.4737 103.255 41.9996 100.964C45.3626 98.7839 49.0892 97.514 52.9199 96.4714C57.0712 95.3385 61.3071 94.5906 65.4713 93.512C67.831 92.9023 70.0759 91.9819 72.2763 90.9631C74.3598 89.9992 76.0168 88.5794 76.9485 86.4064C77.5324 85.047 78.1903 83.7176 78.8089 82.3671C78.8374 82.3106 78.7918 82.224 78.769 82.0097C77.5333 82.2447 76.349 82.4312 75.128 82.2251ZM74.5557 90.5294C71.1029 92.7257 67.275 93.9397 63.3266 94.8423C59.5525 95.707 55.7617 96.4935 52.0261 97.5266C47.7165 98.7165 43.7004 100.469 40.129 103.215C37.8408 104.976 35.8276 106.966 34.2979 109.436C33.5157 110.701 32.7062 111.941 31.9015 113.192C31.8402 113.287 31.7555 113.38 31.8716 113.538C33.0725 112.751 34.3152 112.027 35.5997 111.365C39.0692 109.589 42.739 108.362 46.5026 107.414C48.8915 106.807 51.2967 106.283 53.7024 105.754C56.5829 105.125 59.361 104.18 62.0185 102.924C64.479 101.762 66.7055 100.238 68.5728 98.2291C70.3824 96.2739 72.1701 94.299 73.782 92.1733C74.1747 91.6586 74.5898 91.1577 74.835 90.5064C74.6925 90.5177 74.6056 90.4983 74.5557 90.5294ZM57.958 79.7281C58.4027 79.4304 58.8739 79.3709 59.4068 79.4171C60.3964 79.5029 60.7609 79.2454 61.1624 78.2891C61.2957 77.9761 61.457 77.7482 61.7898 77.6532C61.8259 77.6445 61.8626 77.63 61.9046 77.6218C62.9379 77.3397 63.549 76.7555 63.333 75.6394C64.9933 74.3851 65.0236 74.3759 64.7117 72.3253C64.4132 70.3231 63.9478 68.3417 63.769 66.3203C63.593 64.3346 63.6709 62.3472 63.5593 60.3671C63.5314 59.9399 63.5333 59.5094 63.4874 59.0865C63.3264 57.7451 62.2843 56.8348 60.9271 56.9059C60.5595 56.9272 60.2741 56.8847 59.9344 56.7196C58.34 55.9207 57.9024 56.0007 56.6142 57.1811C54.8494 57.2582 54.6038 57.4376 54.1905 59.0064C53.4137 59.5291 52.3695 59.8693 52.062 61.0344C52.1278 61.3645 52.2012 61.7426 52.2851 62.2041C51.1586 63.2215 50.1367 64.3247 51.0163 65.9525C50.9737 66.4444 50.6827 66.7378 50.5 67.0759C50.1336 67.7639 50.0977 68.4511 50.5276 69.0724C50.873 69.5802 50.9202 70.0563 50.7597 70.6147C50.4827 71.5641 50.4344 72.4625 51.3223 73.1767C51.5434 73.3492 51.5361 73.6377 51.4809 73.9338C51.2814 75.0787 51.6312 76.0117 52.6385 76.6418C52.9965 76.8675 53.1499 77.1404 53.2427 77.5673C53.4494 78.5173 53.9816 78.9115 54.9119 78.7975C55.4427 78.7314 55.8098 78.8517 56.1404 79.2579C56.4126 79.5883 56.7882 79.8156 57.1401 79.9758C57.4695 79.9867 57.7261 79.885 57.958 79.7281ZM89.521 42.5641C89.0608 43.7219 88.6634 44.9028 88.4553 46.1473C87.9841 48.9973 88.2222 51.832 88.656 54.6543C88.9795 56.7767 89.4045 58.8843 89.7758 60.9991C90.207 63.4435 90.2428 65.8891 89.8828 68.3417C89.7146 69.4657 89.3386 70.5364 89.0143 71.6233C88.8993 71.9968 88.7619 72.3566 88.7735 72.8355C89.9484 73.4388 90.4676 74.6637 91.1812 75.6872C91.5608 75.7319 91.697 75.4546 91.8782 75.2697C93.7916 73.3412 94.986 70.9963 95.8384 68.4449C96.3334 66.9538 96.585 65.4122 96.9703 63.894C97.5152 61.7584 97.5991 59.565 97.3052 57.3744C96.7141 52.9633 96.2118 48.5481 95.5073 44.1508C95.1669 42.021 95.1036 39.8916 95.4554 37.7392C95.664 36.4889 95.6453 35.207 95.8969 33.8011C92.8777 36.2356 90.8658 39.1645 89.521 42.5641ZM70.1804 104.935C73.0056 104.808 75.7524 104.291 78.3802 103.173C81.1307 102.002 83.2945 100.113 85.055 97.7697C87.1019 95.0504 88.8532 92.1343 90.0455 88.9279C90.3991 87.9792 90.7303 87.0168 90.8772 86.003C91.135 84.1846 91.5383 82.3907 91.5396 80.5383C91.5346 78.2134 90.774 76.1652 89.4354 74.3206C88.6609 73.2505 87.5551 73.0072 86.3055 73.4711C85.7444 73.6821 85.229 73.9796 84.8317 74.4112C83.6996 75.6288 82.854 77.0127 82.5439 78.6849C82.2099 80.4967 82.0643 82.313 82.0694 84.16C82.0752 85.7947 82.0258 87.4541 81.7447 89.064C81.0711 92.8876 79.7011 96.3736 76.9463 99.297C74.77 101.604 72.3493 103.394 69.3674 104.445C69.0752 104.55 68.7979 104.685 68.4187 104.841C69.0937 105.153 69.6473 104.959 70.1804 104.935ZM83.0318 55.9014C83.0801 55.6165 83.1254 55.5024 83.1047 55.4003C82.6067 52.6374 81.6927 50.0449 80.1401 47.6744C78.3737 44.9785 76.3279 42.5121 74.1749 40.125C72.253 37.9997 70.4137 35.8049 69.0646 33.2632C67.1175 29.5901 65.9771 25.6623 65.7893 21.4986C65.706 19.6684 65.842 17.8277 66.2984 16.0324C66.5764 14.9356 66.686 13.8064 66.9996 12.7068C67.4165 11.2326 68.0493 9.85382 68.6196 8.44604C68.9135 7.71044 69.1195 6.96724 68.7234 6.16005C68.1465 6.14545 67.7851 6.5035 67.43 6.85621C66.2562 8.01111 65.5656 9.44387 65.0378 10.9733C64.2449 13.2468 63.9149 15.6253 63.7157 17.9915C63.2795 23.0923 64.0192 28.0354 66.0092 32.7801C66.9192 34.9416 67.8664 37.0827 69.0961 39.0948C70.4501 41.3066 71.4781 43.6729 71.8487 46.2714C76.7509 48.183 80.2356 51.541 83.0318 55.9014ZM85.4918 41.3359C85.988 42.4172 86.3055 43.5185 86.5482 44.6664C87.2144 47.8037 87.3431 50.9476 86.6816 54.0879C86.261 56.0809 85.8661 57.5747 84.6609 59.3641C86.2204 63.629 87.2451 68.0069 86.0698 72.7191C86.7581 72.5369 87.3417 72.7468 87.8979 72.5236C89.6218 68.2896 89.6738 63.946 88.7527 59.5299C88.1689 56.736 87.6627 53.931 87.5208 51.0751C87.4373 49.3157 87.3895 47.5534 87.7872 45.8239C88.7681 41.5844 90.6233 37.8101 93.8407 34.791C95.0672 33.6407 96.3477 32.5482 97.4533 31.2281C97.2719 30.7345 96.8469 30.6681 96.4363 30.5736C95.4242 30.3383 94.4194 30.4282 93.4046 30.5645C89.5414 31.0969 86.2151 32.6493 83.6314 35.6407C83.4805 35.8164 83.3456 36.0113 83.1333 36.2819C83.9526 37.9931 84.7222 39.6645 85.4918 41.3359ZM71.1353 46.0621C70.9608 44.6723 70.4851 43.5574 70.0026 42.4536C68.0892 38.0518 65.1881 34.4258 61.4013 31.4899C59.0463 29.6634 56.5069 28.1277 53.9341 26.6363C51.2877 25.109 48.7619 23.4152 46.3186 21.5869C45.9198 21.2869 45.501 21.0146 45.037 20.7856C46.5896 22.749 47.5954 25.0309 48.9063 27.1268C50.565 29.772 52.6084 32.0612 55.1111 33.9536C57.0158 35.393 59.0157 36.6873 61.0083 37.9986C62.2809 38.8346 63.5256 39.7212 64.6904 40.713C66.1409 41.9479 67.3076 43.3941 68.1317 45.1174C68.246 45.3633 68.3912 45.5942 68.5586 45.9096C69.4563 45.8989 70.2638 45.8391 71.1353 46.0621ZM66.7325 46.3531C66.4471 45.4257 65.9367 44.644 65.4439 43.8638C64.2406 41.9543 62.6854 40.3622 60.8785 39.0198C59.5925 38.0647 58.2801 37.1427 56.9677 36.2207C55.0709 34.8941 53.2196 33.5183 51.6188 31.8397C49.5743 29.698 48.0387 27.1991 46.6787 24.5798C46.0612 23.3994 45.3939 22.2501 44.5524 21.2038C44.2117 20.779 43.8518 20.3702 43.4136 20.049C42.6618 20.214 42.4596 20.7097 42.5028 21.3683C42.5611 22.1934 42.7161 22.9915 42.9785 23.7753C43.6171 25.6654 44.2434 27.5604 44.8819 29.4506C45.3745 30.9151 46.1829 32.2064 47.0529 33.4676C47.3672 33.9255 47.8558 34.0741 48.3096 34.2845C50.3063 35.2068 52.1926 36.3142 53.8616 37.7509C56.946 40.4194 59.4278 43.5725 61.3587 47.1617C61.8972 48.1641 62.3129 49.2208 62.6554 50.3065C62.7573 50.628 62.7801 50.9781 63.0821 51.3051C63.1835 48.8419 64.4481 47.2524 66.7325 46.3531ZM77.7667 86.495C76.2705 90.0763 74.152 93.2142 71.5667 96.0874C68.9422 99.0045 66.1947 101.775 63.149 104.243C62.3874 104.861 61.784 105.629 61.171 106.372C61.388 106.727 61.6318 106.501 61.8082 106.439C64.5351 105.472 67.2803 104.565 69.969 103.495C73.5565 102.059 76.1618 99.6361 77.8041 96.1384C78.7524 94.1144 79.4822 92.0242 79.8161 89.8054C80.133 87.7149 80.5079 85.6353 80.8365 83.5458C81.0543 82.19 81.5379 80.8986 81.6801 79.5304C81.7093 79.2616 81.7619 78.9947 81.8087 78.7274C80.1074 81.1345 78.891 83.8019 77.7667 86.495ZM51.9349 120.362C54.9668 117.646 58.4867 115.697 62.0494 113.799C64.3622 112.572 66.7008 111.388 68.9375 110.019C70.7506 108.908 72.377 107.568 73.8917 106.088C74.1365 105.85 74.3434 105.573 74.6325 105.232C73.9998 105.112 73.4841 105.345 72.9558 105.382C71.2876 105.503 69.619 105.694 67.9456 105.738C65.7338 105.8 63.7479 106.454 61.8528 107.558C59.4985 108.923 57.2731 110.436 55.6199 112.629C54.2736 114.412 53.2411 116.387 52.3903 118.443C52.1143 119.109 51.6256 119.71 51.578 120.532C51.7379 120.457 51.858 120.432 51.9349 120.362ZM46.5715 94.5701C44.3207 94.6051 42.1473 94.0864 39.9705 93.6087C36.9254 92.9377 34.2347 91.377 31.4234 90.1187C29.0323 89.0501 26.5188 88.5077 23.9393 88.3196C22.2215 88.1943 20.5079 88.4293 18.839 88.8982C17.8653 89.1737 16.8862 89.4428 15.6653 89.7795C16.5263 89.919 17.1351 90.0426 17.7489 90.1076C20.6473 90.4295 23.4073 91.2587 26.1291 92.2557C29.7143 93.5693 33.2813 94.9581 36.9601 96.0085C38.7913 96.5271 40.689 96.55 42.5372 96.191C44.7571 95.7639 46.9454 95.1571 49.1446 94.6279C49.137 94.5801 49.124 94.5259 49.1163 94.478C48.2693 94.5167 47.4218 94.5612 46.5715 94.5701ZM29.9296 79.9892C32.4465 79.1985 34.8238 78.1125 37.1474 76.898C40.3046 75.2542 43.6512 74.4882 47.4925 74.8211C46.7847 74.5474 46.3427 74.338 45.8706 74.2027C45.3464 74.057 44.7975 73.9917 44.2595 73.8684C38.731 72.581 33.4711 73.4349 28.4009 75.845C27.3674 76.3336 26.4111 76.9527 25.5034 77.6233C23.2086 79.3241 20.9185 81.0372 18.7456 82.896C18.6565 82.9709 18.5894 83.0654 18.511 83.153C22.2732 81.8802 26.1692 81.1737 29.9296 79.9892ZM20.6323 38.3223C21.9434 40.8253 23.0038 43.4305 23.9111 46.0991C24.6827 48.3606 25.5769 50.5679 26.7771 52.6483C28.0894 54.9331 29.7769 56.8375 32.1464 58.0871C32.7448 58.3985 33.3225 58.6079 34.0333 58.5751C34.8447 58.5392 35.6686 58.6991 36.6284 58.7882C36.0226 58.3581 35.4879 57.7797 34.9764 57.2545C32.414 54.7604 29.2975 50.4234 28.8173 49.4096C28.2499 48.2118 27.6755 47.0112 27.1965 45.7307C26.9381 45.0358 26.692 44.336 26.4156 43.6453C25.6869 41.8418 24.633 40.2519 23.2591 38.8821C22.0428 37.6676 20.8269 36.8938 19.5847 35.7065C19.5216 35.7541 19.459 35.7959 19.39 35.843C19.8022 36.6692 20.2021 37.5004 20.6323 38.3223ZM38.6865 97.0549C36.8109 96.8451 35.0604 96.1447 33.2644 95.6292C32.6314 95.4446 32.0168 95.1848 31.3917 94.9772C30.8583 94.8012 30.3336 94.797 29.7868 94.9797C25.2459 96.4564 21.4316 99.0107 18.3712 102.669C18.0752 103.021 17.8663 103.457 17.6477 103.869C17.4994 104.151 17.4183 104.474 17.6477 104.754C17.8991 105.053 18.2104 104.932 18.509 104.822C19.4239 104.477 20.2846 104.009 21.1189 103.503C22.4889 102.672 23.8438 101.81 25.2337 101.022C28.5038 99.1635 32.0102 98.0515 35.7837 97.8062C36.9408 97.7295 38.0828 97.4863 39.2778 97.3126C39.0809 97.0655 38.8739 97.0711 38.6865 97.0549ZM60.7701 105.824C60.7496 105.651 60.7033 105.641 60.5982 105.697C58.5582 106.771 56.5231 107.857 54.4783 108.919C52.5327 109.924 51.5633 111.717 50.8092 113.61C49.9282 115.811 49.3904 118.136 48.5201 120.35C48.2479 121.04 48.1654 121.788 48.159 122.542C48.1534 122.742 48.1787 122.928 48.4099 123.119C48.9415 123.112 49.2377 122.689 49.5367 122.302C50.4323 121.158 51.0633 119.868 51.6388 118.537C52.8435 115.733 54.1329 112.972 56.3348 110.779C57.6389 109.482 59.0933 108.357 60.8298 107.381C60.183 106.812 60.4464 106.292 60.7701 105.824ZM65.9962 34.4958C65.4619 33.1044 64.8447 31.8533 64.441 30.5203C63.3353 26.8729 61.2377 23.8475 58.5266 21.229C56.828 19.5892 54.9594 18.1411 53.1918 16.277C55.764 23.084 61.5634 31.3211 65.9962 34.4958ZM52.6867 107.194C50.2764 108.254 47.9979 109.561 46.1173 111.451C43.9595 113.612 42.3049 116.094 41.3663 119.027C41.318 119.177 41.2867 119.333 41.2559 119.484C41.2003 119.786 41.1558 120.095 41.0765 120.601C41.3407 120.276 41.5028 120.107 41.6318 119.912C44.5438 115.38 48.3692 111.811 52.9803 109.049C55.3015 107.657 57.759 106.531 60.1505 105.281C61.0839 104.789 62.0388 104.324 62.827 103.601C62.9293 103.51 63.1063 103.443 63.0242 103.164C59.7077 104.877 56.0724 105.706 52.6867 107.194ZM63.7635 56.0367C64.3061 58.7622 64.3257 61.5308 64.381 64.2967C64.4429 67.3935 64.9767 70.425 65.8039 73.4052C66.1951 74.8137 66.8943 76.072 67.8669 77.171C68.0049 77.0768 68.0209 76.9602 67.9832 76.8507C67.2233 74.5902 67.1784 72.25 67.2691 69.9098C67.3972 66.5935 67.033 63.3761 65.7067 60.2995C64.9651 58.5774 64.3877 56.7988 63.8416 54.8636C63.5573 55.3522 63.6924 55.7002 63.7635 56.0367ZM53.0597 17.5281C52.7171 16.7846 52.3505 16.0448 51.9585 15.3265C51.6684 14.794 51.3798 14.2439 50.9087 13.8255C50.8435 13.8965 50.7873 13.9329 50.7911 13.9569C51.415 16.4239 51.5369 18.9655 51.9338 21.4659C52.0672 22.3093 52.2719 23.1471 52.4829 23.9796C52.6718 24.7275 53.078 25.2819 53.7927 25.6801C55.4522 26.6145 57.063 27.6331 58.6939 28.624C56.5131 25.0604 54.7864 21.2943 53.0597 17.5281ZM45.2539 108.479C44.8674 108.582 44.5674 108.845 44.2785 109.115C43.7119 109.661 43.1843 110.235 42.7945 110.921C41.6265 112.962 40.6536 115.066 40.1339 117.387C39.7499 119.094 39.2094 120.77 38.7094 122.455C38.4586 123.306 38.4106 123.792 38.6357 124.938C39.0453 124.773 39.2026 124.456 39.2941 124.081C39.6766 122.527 40.157 120.999 40.5683 119.454C41.0586 117.608 41.8073 115.844 42.9352 114.267C44.8154 111.633 46.966 109.283 49.6511 107.368C48.1855 107.736 46.7146 108.099 45.2539 108.479ZM21.4249 104.261C21.4662 104.329 21.5907 104.322 21.6996 104.291C24.8178 103.369 28.0306 102.922 31.2309 102.415C32.6965 102.182 34.0149 101.741 35.0788 100.63C35.5789 100.101 36.2313 99.7211 36.9335 99.1743C31.2039 99.5273 25.8983 100.637 21.4249 104.261Z" fill="#CBC8C1"/>
<path d="M19.9827 85.3681C20.4013 85.5755 20.7793 85.3663 21.1451 85.2978C25.5686 84.4953 30.0284 84.0913 34.514 84.0021C36.4226 83.967 38.3331 84.1149 40.243 84.1329C43.4796 84.1597 46.7182 84.1631 49.9213 83.5558C51.8945 83.184 53.8015 82.6236 55.5227 81.5516C55.9218 81.303 56.3102 81.0416 56.6083 80.6663C56.7607 80.473 56.8604 80.2752 56.7331 79.9751C53.3129 82.7465 49.2086 83.2698 45.0355 83.4981C42.3918 83.6407 39.7398 83.5406 37.0851 83.4698C31.5636 83.3276 26.1079 83.9226 20.7133 85.1069C20.4666 85.1623 20.2107 85.1873 19.9827 85.3681Z" fill="#CBC8C1"/>
<path d="M65.9098 51.4254C72.048 52.5532 77.7735 54.4948 82.3859 59.0008C82.0173 59.3051 81.8973 58.9879 81.7718 58.8708C79.3989 56.7065 76.6308 55.2218 73.634 54.1302C73.4512 54.0612 73.2605 54.0152 73.0688 53.9809C72.8019 53.9283 72.5336 53.8932 72.251 53.8864C75.0956 54.9648 77.816 56.2507 80.1921 58.1735C82.5901 60.1158 84.6265 62.3513 85.7325 65.3144C85.7637 62.2315 83.9379 60.0851 82.0284 58.0199C80.6364 56.5188 78.8934 55.4592 77.0622 54.5335C74.1856 53.0748 71.1621 52.087 67.9972 51.506C67.6137 51.4373 67.2209 51.4092 66.8275 51.3869C66.5157 51.3776 66.212 51.4102 65.9098 51.4254Z" fill="#CBC8C1"/>
<path d="M90.8303 48.8359C91.4462 49.8981 92.1052 50.9405 92.6717 52.0279C94.4983 55.5255 95.7 59.2225 96.096 63.1624C96.2525 64.6922 96.169 66.2012 95.8267 67.6995C95.695 68.2663 95.6379 68.8572 95.5813 69.4423C96.384 67.736 96.6541 65.9128 96.6681 64.0498C96.6743 63.5016 96.6688 62.9525 96.7858 62.4198C97.4995 59.1543 96.9426 56.05 95.5789 53.0646C94.4386 50.5646 93.0128 48.2286 91.6187 45.8659C91.1814 45.1259 90.7313 44.3967 90.2362 43.575C90.027 43.9463 90.246 44.1422 90.3527 44.3403C91.7451 46.927 93.1687 49.4929 94.5366 52.0893C95.8084 54.5004 96.6073 57.0593 96.7114 59.8057C96.7232 60.0781 96.6994 60.3534 96.676 60.6227C96.6603 60.8043 96.6494 60.998 96.4145 61.19C95.3976 56.6535 93.8355 52.4179 90.8303 48.8359Z" fill="#CBC8C1"/>
<path d="M67.3034 98.2421C67.2309 98.3302 67.1797 98.4438 67.0858 98.5064C64.8265 100.069 62.5023 101.496 59.8617 102.352C56.8873 103.316 53.846 104.031 50.7911 104.699C46.474 105.634 42.2013 106.739 38.0889 108.377C36.4144 109.046 34.7952 109.826 33.2715 110.797C32.8597 111.056 32.442 111.315 32.2109 111.802C32.3346 111.736 32.4691 111.683 32.5879 111.605C36.1941 109.41 40.1367 108.029 44.1762 106.893C47.6353 105.918 51.1555 105.191 54.645 104.343C56.8144 103.817 58.9472 103.17 61.0229 102.364C63.5565 101.38 65.8189 99.9187 67.8563 98.1248C67.6593 98.0841 67.465 98.0791 67.3034 98.2421Z" fill="#CBC8C1"/>
<path d="M70.4441 24.7684C71.7122 27.4269 73.3644 29.8061 75.136 32.1012C76.7642 34.2128 78.4624 36.2656 80.1101 38.3553C82.1672 40.9642 83.7788 43.8119 84.6736 47.0339C85.2987 49.2828 85.4488 51.5672 85.1185 53.8807C84.9846 54.8131 84.6259 55.6846 84.3477 56.5809C84.2658 56.8451 84.1561 57.0893 84.1855 57.3633C85.7779 54.6458 86.0034 51.7037 85.518 48.6587C84.9538 45.0936 83.4028 41.9563 81.3041 39.0782C80.1491 37.4973 78.8806 36.0009 77.6243 34.4997C75.2015 31.6172 72.9682 28.5918 70.886 25.4556C70.7286 25.2296 70.5893 24.9992 70.4441 24.7684Z" fill="#CBC8C1"/>
<path d="M49.4102 72.7091C48.1973 71.7958 46.9156 71.4723 45.6993 71.007C42.1293 69.6534 38.3989 68.9938 34.6321 68.5493C32.6644 68.3139 30.6696 68.2531 28.6808 68.1928C26.892 68.1381 25.0984 68.0711 23.3102 68.1462C19.9583 68.2923 16.634 68.665 13.3291 69.2222C12.9936 69.2816 12.6249 69.3145 12.2319 69.6286C13.4733 69.4648 14.6077 69.3094 15.7405 69.1716C19.0674 68.7697 22.407 68.4927 25.7592 68.5473C27.509 68.575 29.2644 68.6741 31.012 68.796C33.5452 68.9743 36.0819 69.1115 38.5755 69.6108C40.7155 70.0382 42.8435 70.5353 44.9117 71.2455C46.3559 71.7365 47.8036 72.1864 49.4102 72.7091Z" fill="#CBC8C1"/>
<path d="M24.2806 40.2069C24.8416 40.7452 25.3761 41.3166 25.9705 41.8105C31.7047 46.5789 37.7465 50.8606 44.6882 53.7454C46.3114 54.4171 47.9593 55.0082 49.6219 55.5653C50.0232 55.7004 50.4707 55.7097 51.0523 55.8073C48.5094 54.8553 46.131 53.9117 43.8391 52.7869C41.5243 51.6541 39.2164 50.5101 37.0151 49.1571C34.7797 47.7893 32.6463 46.2652 30.532 44.7251C28.4567 43.2119 26.4142 41.6602 24.4658 39.9751C24.4055 40.0584 24.3457 40.1358 24.2806 40.2069Z" fill="#CBC8C1"/>
<path d="M40.3326 34.2943C40.8231 34.7615 41.4573 34.8637 42.0144 35.1067C46.7549 37.1812 50.9898 39.9848 54.5493 43.7741C57.6437 47.0748 59.4089 51.0094 60.1034 55.4531C60.1483 55.752 60.1087 56.073 60.6087 56.1576C60.7141 55.4175 60.5426 54.7419 60.3999 54.0747C59.3419 48.9918 56.7902 44.8061 52.8917 41.3886C49.2619 38.2068 45.1715 35.8464 40.6098 34.2947C40.5421 34.2593 40.4571 34.2874 40.3326 34.2943Z" fill="#CBC8C1"/>
<path d="M31.2407 34.639C34.1548 35.9358 37.058 37.155 39.8647 38.6018C44.8111 41.1602 49.1933 44.4427 52.9102 48.5937C54.0613 49.8793 55.1307 51.2227 56.111 52.641C56.3525 52.9864 56.613 53.3158 56.9668 53.7948C57.0344 53.2874 56.8067 53.0553 56.6625 52.8127C54.3518 48.9782 51.2803 45.8212 47.7985 43.0416C44.046 40.0497 39.8492 37.8276 35.4143 36.0391C34.1888 35.5435 32.9801 34.9904 31.6773 34.7064C31.5378 34.6825 31.3861 34.6634 31.2407 34.639Z" fill="#CBC8C1"/>
<path d="M48.1142 25.9893C48.9172 26.8672 49.9429 27.4221 50.9611 27.9942C53.8858 29.6459 56.867 31.1904 59.7283 32.9605C62.1025 34.4288 64.312 36.0952 66.2691 38.0878C68.107 39.958 69.5649 42.0607 70.4221 44.5598C70.5347 44.894 70.6781 45.2132 70.8475 45.6409C71.0429 45.1564 70.8005 44.8227 70.7054 44.4899C69.6967 41.0161 67.5218 38.338 64.8629 36.0013C62.4066 33.8475 59.625 32.1787 56.7673 30.639C54.468 29.3954 52.1476 28.1914 49.835 26.9644C49.2547 26.6486 48.6877 26.3163 48.1142 25.9893Z" fill="#CBC8C1"/>
<path d="M31.6713 87.3958C32.6648 87.7769 33.7318 87.6511 34.7766 87.7122C36.8371 87.8317 38.9076 87.8342 40.968 87.8181C44.4923 87.7931 47.9785 87.4581 51.3681 86.4008C54.2055 85.5199 56.5752 83.9082 58.6017 81.7653C59.186 81.1492 59.6706 80.4597 59.9824 79.5841C59.4422 79.6906 59.2677 80.0708 59.0295 80.3687C56.5522 83.4932 53.3758 85.4952 49.4884 86.3736C46.1663 87.13 42.7948 87.4336 39.3874 87.4038C36.8112 87.3811 34.2437 87.3946 31.6713 87.3958Z" fill="#CBC8C1"/>
<path d="M73.0815 92.7016C71.0739 94.15 68.87 95.2097 66.568 96.1076C63.79 97.1883 60.9006 97.8524 57.9885 98.4377C54.6261 99.1139 51.2224 99.5858 47.8873 100.424C46.9102 100.669 45.9278 100.909 45.0591 101.471C46.5873 101.06 48.1101 100.644 49.6729 100.378C52.9789 99.8089 56.2838 99.2516 59.581 98.6466C62.9017 98.0435 66.1075 97.0647 69.1649 95.6188C70.2664 95.0948 71.2891 94.4578 72.2508 93.7092C72.5924 93.4439 72.8896 93.1451 73.0815 92.7016Z" fill="#CBC8C1"/>
<path d="M25.9534 32.8179C34.7602 34.0591 42.9671 36.6405 50.4364 41.6064C50.3197 41.1833 50.1101 41.0826 49.9207 40.9541C46.2266 38.4451 42.3458 36.3212 38.0564 34.9642C34.611 33.875 31.1137 33.1118 27.5437 32.6431C27.0539 32.577 26.5607 32.4812 25.9534 32.8179Z" fill="#CBC8C1"/>
<path d="M83.9794 55.6581C84.5207 52.2714 84.156 49.0598 82.5214 46.0686C80.9941 43.2696 79.0524 40.7591 76.8954 38.4188C74.4791 35.8023 71.9287 33.304 69.6256 30.5381C69.7436 30.743 69.8371 30.9576 69.9746 31.1406C71.6762 33.4945 73.6641 35.6078 75.6271 37.7366C77.8654 40.1607 79.9275 42.7111 81.6534 45.5332C83.256 48.1441 83.9177 50.992 83.9145 54.0241C83.9206 54.5674 83.9617 55.1138 83.9794 55.6581Z" fill="#CBC8C1"/>
<path d="M25.6865 37.1901C32.9599 42.9178 40.8344 47.7005 49.0574 51.9353C47.8325 50.956 46.4908 50.1671 45.1433 49.3778C38.7638 45.6568 32.5069 41.7458 26.3732 37.639C26.1448 37.4835 25.9154 37.3397 25.6865 37.1901Z" fill="#CBC8C1"/>
<path d="M43.3576 63.6536C41.6495 62.5321 39.8729 61.5876 37.8575 61.1534C36.2883 60.8109 34.6989 60.5669 33.1016 60.4816C31.2339 60.3846 29.3645 60.5117 27.4997 60.7217C25.0088 61.0073 22.569 61.5215 20.1618 62.2038C19.8652 62.2902 19.5827 62.4191 19.1927 62.5623C19.6638 62.845 20.0257 62.6168 20.3564 62.5451C23.407 61.8597 26.4794 61.3295 29.6055 61.1343C32.0256 60.9842 34.4475 61.0171 36.8382 61.478C38.7592 61.8451 40.5873 62.5345 42.3707 63.3321C42.5808 63.427 42.7962 63.5283 43.0136 63.6061C43.1218 63.6509 43.2468 63.6381 43.3576 63.6536Z" fill="#CBC8C1"/>
<path d="M49.8691 95.9347C54.6936 95.2024 59.1359 93.9118 62.8288 90.7157C64.64 89.15 66.0567 87.3023 66.8993 85.0685C67.8029 82.6749 67.9522 80.204 67.3366 77.7082C67.3106 77.5998 67.2304 77.5043 67.1226 77.318C66.9241 78.1798 67.2188 78.931 67.2353 79.6935C67.314 83.2106 66.2665 86.3116 63.909 88.9391C61.7406 91.3588 59.0088 92.9274 56.0274 94.1085C54.2068 94.8298 52.3224 95.3331 50.3759 95.601C50.227 95.6176 50.0679 95.6156 49.8691 95.9347Z" fill="#CBC8C1"/>
<path d="M32.2303 90.0697C33.7656 90.4623 35.3301 90.7218 36.9397 90.8023C38.7312 90.8927 40.5164 90.9884 42.3057 90.9016C44.8833 90.771 47.4238 90.3894 49.8956 89.642C52.0162 88.9998 53.9189 87.9435 55.6752 86.6031C55.9091 86.4228 56.199 86.2768 56.343 85.8409C55.8764 86.119 55.4867 86.3272 55.1169 86.5783C52.388 88.4539 49.3189 89.4209 46.0873 89.9491C43.6576 90.3462 41.2248 90.507 38.7622 90.3998C37.0106 90.3247 35.2559 90.2847 33.517 90.0632C33.0901 90.0203 32.655 90.0711 32.2303 90.0697Z" fill="#CBC8C1"/>
<path d="M61.8743 77.9073C61.4656 77.7893 61.3394 77.8845 61.2959 78.046C61.2226 78.3464 61.1367 78.6575 61.1332 78.9699C61.1046 82.2949 59.4508 84.8359 57.1884 87.0469C55.5831 88.6186 53.7135 89.8371 51.6328 90.701C50.4206 91.2096 49.1938 91.6814 47.9523 92.1874C48.0557 92.2199 48.139 92.2802 48.1996 92.2619C51.4415 91.4101 54.509 90.1893 57.1222 88.0146C58.966 86.4812 60.3385 84.6001 61.164 82.359C61.5812 81.2211 61.7224 80.0003 61.7098 78.7839C61.7064 78.4827 61.6434 78.1882 61.8743 77.9073Z" fill="#CBC8C1"/>
<path d="M11.6977 87.0276C15.1513 85.3682 18.7973 84.5515 22.4509 83.7826C26.1231 83.0035 29.8579 82.7962 33.8004 82.778C32.534 82.2789 31.4001 82.4284 30.3033 82.4218C24.9742 82.373 19.8466 83.5392 14.8277 85.2222C13.8616 85.5455 12.9444 85.9852 12.0777 86.5237C11.9285 86.611 11.718 86.6577 11.6977 87.0276Z" fill="#CBC8C1"/>
<path d="M66.1696 21.4716C66.417 23.2452 67.2718 24.6821 68.1447 26.1147C70.3765 29.7712 73.1074 33.0463 75.9655 36.2143C77.0155 37.3731 78.1101 38.4945 79.1919 39.6266C79.2892 39.7295 79.3633 39.8952 79.6706 39.8215C78.9572 38.9987 78.2941 38.2096 77.6054 37.442C74.7814 34.2887 72.1213 31.0139 69.7152 27.531C68.4886 25.7551 67.3416 23.9448 66.4627 21.969C66.3838 21.791 66.2676 21.6335 66.1696 21.4716Z" fill="#CBC8C1"/>
<path d="M38.8932 44.0928C36.2892 42.0087 20.867 33.2326 19.0634 32.8049C19.8526 33.5695 37.816 43.7929 38.8932 44.0928Z" fill="#CBC8C1"/>
<path d="M90.4124 73.3954C91.2701 72.3488 91.8121 71.269 92.2288 70.1369C93.5956 66.4147 93.2338 62.761 91.6851 59.1872C90.7657 57.0663 89.6981 55.0209 88.5939 52.9902C88.2072 52.2782 87.845 51.5565 87.409 50.8698C87.3969 51.5531 87.7064 52.1345 87.9803 52.7187C88.9241 54.6943 89.8738 56.6704 90.8479 58.6368C92.0125 60.9914 92.6589 63.4722 92.6204 66.0942C92.5826 68.2325 92.0292 70.2612 90.9526 72.1325C90.7454 72.4804 90.4286 72.801 90.4124 73.3954Z" fill="#CBC8C1"/>
<path d="M9.48859 68.0634C9.60586 67.7313 9.9376 67.7837 10.1789 67.722C14.9865 66.5045 19.8588 65.6288 24.8146 65.3563C27.3752 65.2183 29.9476 65.2171 32.6603 65.4345C30.7176 64.977 28.8785 64.9592 27.0375 64.8941C24.6963 64.815 22.3696 64.9084 20.0519 65.2385C16.7307 65.7117 13.4258 66.2689 10.2392 67.3674C9.88634 67.4902 9.47238 67.5015 9.21103 67.8623C9.32943 67.9257 9.43077 67.9817 9.53211 68.0376L9.48859 68.0634Z" fill="#CBC8C1"/>
<path d="M63.3425 83.9755C62.715 84.9536 62.2419 85.715 61.7523 86.4631C60.6779 88.1045 59.2661 89.3508 57.4929 90.206C55.0171 91.4073 52.3866 92.1469 49.7427 92.8381C48.2819 93.2189 46.8044 93.5215 45.3156 93.8173C45.8814 93.9607 46.4264 93.8663 46.9758 93.7901C50.506 93.2878 53.9099 92.3379 57.2082 90.9719C60.1942 89.738 61.9387 87.376 63.2429 84.5805C63.293 84.4786 63.2861 84.3541 63.3425 83.9755Z" fill="#CBC8C1"/>
<path d="M91.121 75.1618C92.1968 74.2521 92.8579 73.159 93.3617 71.9755C94.5704 69.1245 94.8018 66.183 94.1377 63.1579C93.5876 60.6559 92.6039 58.3229 91.4062 56.0775C91.3403 55.9538 91.3002 55.8028 91.0197 55.7726C91.2217 56.2326 91.4038 56.6496 91.5865 57.0607C92.6493 59.5009 93.6022 61.9846 93.8662 64.6565C94.2153 68.1852 93.5688 71.492 91.3598 74.3802C91.2323 74.5579 91.0238 74.7168 91.121 75.1618Z" fill="#CBC8C1"/>
<path d="M36.905 38.3748C40.5772 40.1149 43.9162 42.0915 46.8852 44.6615C49.8595 47.2379 52.4442 50.158 54.8859 53.5024C54.9323 52.8987 54.671 52.646 54.4869 52.3882C50.2042 46.3238 44.8234 41.5625 37.9527 38.6072C37.6851 38.4955 37.4562 38.2102 36.905 38.3748Z" fill="#CBC8C1"/>
<path d="M44.2484 68.0081C42.9882 66.9608 41.5017 66.2774 40.0152 65.594C37.0993 64.2499 33.9837 63.6436 30.8219 63.4345C27.5542 63.222 24.2848 63.5051 20.9937 64.0399C21.3619 64.2842 21.6976 64.154 22.037 64.1185C24.9876 63.8374 27.9596 63.7174 30.9116 63.8965C32.9306 64.0184 34.9399 64.3872 36.9106 64.9297C39.4849 65.6543 41.8636 66.7985 44.2484 68.0081Z" fill="#CBC8C1"/>
<path d="M29.1064 49.3979C31.552 52.9019 42.7912 58.8199 47.8335 59.251C40.8867 57.3097 34.7509 53.8399 29.1064 49.3979Z" fill="#CBC8C1"/>
<path d="M21.3604 87.7176C22.2216 87.7863 23.0141 87.56 23.8069 87.3986C27.9396 86.5474 32.1033 86.0882 36.3269 86.0943C38.1554 86.0994 39.9856 86.1518 41.8108 86.2628C42.374 86.2998 42.9453 86.2432 43.5102 86.1918C36.0135 85.0819 28.6222 85.6154 21.3604 87.7176Z" fill="#CBC8C1"/>
<path d="M33.8653 107.893C33.8646 107.969 33.8697 108.046 33.872 108.224C34.1839 108.233 34.4349 108.06 34.6765 107.928C37.9505 106.093 41.477 104.954 45.1263 104.167C47.0323 103.754 48.9339 103.323 50.8468 102.898C50.6996 102.691 50.4758 102.754 50.2907 102.779C46.71 103.183 43.2 103.929 39.7664 105.018C38.0435 105.565 36.4087 106.32 34.8797 107.284C34.7173 107.388 34.5297 107.443 34.3576 107.522C34.1937 107.644 34.0293 107.771 33.8653 107.893Z" fill="#CBC8C1"/>
<path d="M56.6401 114.132C57.11 113.884 57.6008 113.667 58.0503 113.381C60.8149 111.638 63.8218 110.436 66.8974 109.393C68.3014 108.918 69.6971 108.402 71.072 107.855C71.6829 107.613 72.2722 107.28 72.8332 106.934C73.2881 106.655 73.691 106.294 73.8782 105.768C73.534 105.519 73.5066 105.836 73.3969 105.944C72.6226 106.709 71.6382 107.107 70.6564 107.477C68.4244 108.316 66.1741 109.094 63.9377 109.915C61.2811 110.888 58.8622 112.319 56.6401 114.132Z" fill="#CBC8C1"/>
<path d="M53.6098 58.4242C51.7198 57.8356 49.7483 57.712 47.8636 57.1297C46.0019 56.5554 44.1761 55.9075 42.3907 55.1333C40.577 54.3448 39.0084 53.1116 37.208 52.3066C39.563 54.2688 42.161 55.8096 45.0547 56.7978C47.2263 57.5406 49.4289 58.1976 51.7022 58.5834C52.3476 58.6924 52.977 58.6466 53.6098 58.4242Z" fill="#CBC8C1"/>
<path d="M66.935 12.4997C66.8245 14.1833 67.0923 15.587 67.5573 16.9607C68.0654 18.4501 68.7582 19.8494 69.5743 21.1886C71.0618 23.6301 72.631 26.0139 74.4321 28.2408C74.5172 28.3485 74.6145 28.4513 74.8253 28.4696C74.1251 27.3587 73.4371 26.2431 72.7311 25.1317C71.6142 23.383 70.4782 21.6504 69.4856 19.8298C68.4323 17.892 67.5911 15.8898 67.3465 13.674C67.3167 13.4059 67.2453 13.1401 67.1798 12.8749C67.1625 12.8026 67.0968 12.7438 66.935 12.4997Z" fill="#CBC8C1"/>
<path d="M32.7435 61.8193C35.8644 62.2963 38.84 63.1559 41.734 64.3448C44.6168 65.5268 47.2136 67.1501 49.7278 69.25C49.7258 68.7955 49.5341 68.6255 49.3609 68.4453C47.9804 67.0159 46.284 66.0312 44.5434 65.1487C42.3847 64.0531 40.1344 63.1973 37.7833 62.5511C36.3774 62.1637 34.9562 61.9521 33.5264 61.7043C33.2878 61.6659 33.0003 61.5112 32.7435 61.8193Z" fill="#CBC8C1"/>
<path d="M47.6566 79.4657C46.4503 79.3611 45.2491 79.198 44.0367 79.1637C42.1655 79.1078 40.2955 79.105 38.4225 79.1373C35.7285 79.1811 33.0403 79.3611 30.4208 80.0427C29.7931 80.2065 29.1497 80.3455 28.5671 80.7375C28.6875 80.7774 28.7649 80.8372 28.8255 80.8188C32.1596 79.8571 35.5805 79.6639 39.0228 79.6318C41.4019 79.6138 43.7757 79.5895 46.1538 79.5832C46.6551 79.5853 47.1438 79.3917 47.6566 79.4657Z" fill="#CBC8C1"/>
<path d="M85.1736 71.8972C84.5664 71.7561 84.208 71.9433 83.8465 72.03C82.6243 72.3134 81.4013 72.4021 80.1385 72.2691C77.3909 71.9778 74.8185 71.0941 72.2644 70.1353C71.2134 69.7374 70.1628 69.3337 69.0733 68.7673C69.218 69.2754 69.6254 69.3402 69.9085 69.4769C72.2317 70.5809 74.6111 71.5127 77.0987 72.218C78.5036 72.617 79.9021 72.8858 81.3558 72.8583C82.6265 72.8328 83.8601 72.6211 85.1736 71.8972Z" fill="#CBC8C1"/>
<path d="M67.6934 48.1346C73.9656 49.3507 79.4247 51.8474 82.9636 57.5759C83.1117 57.2289 82.856 57.0474 82.7513 56.826C81.1653 53.4791 78.2848 51.5893 75.1099 50.034C73.3443 49.1671 71.4579 48.6732 69.5543 48.2427C68.9582 48.1085 68.3162 48.1649 67.6934 48.1346Z" fill="#CBC8C1"/>
<path d="M45.9462 23.3C46.2025 23.8827 46.7199 24.1753 47.1938 24.4937C48.6613 25.4645 50.1636 26.3735 51.7204 27.1987C54.2692 28.5582 56.8043 29.9402 59.3463 31.3109C59.549 31.4229 59.7285 31.5977 60.0823 31.4632C55.5213 28.4071 50.545 26.1942 45.9462 23.3Z" fill="#CBC8C1"/>
<path d="M38.8172 81.3898C40.2398 81.9261 41.7316 81.7309 43.2013 81.7226C46.3649 81.7077 49.5072 81.4609 52.6166 80.8454C53.4987 80.6741 54.3736 80.449 55.1566 79.9918C55.3121 79.8991 55.4361 79.7623 55.6015 79.6233C55.4699 79.5765 55.3871 79.5103 55.3382 79.5297C52.105 80.689 48.7354 81.04 45.341 81.2001C43.4395 81.289 41.5322 81.3774 39.6258 81.454C39.3593 81.4663 39.0866 81.4132 38.8172 81.3898Z" fill="#CBC8C1"/>
<path d="M96.6823 53.8741C96.7724 52.7669 96.6417 51.6877 96.4574 50.6157C96.145 48.8423 95.7359 47.0959 95.1519 45.3934C94.2932 42.9119 93.6328 40.3886 93.2983 37.7815C93.2817 37.6326 93.2061 37.4844 93.136 37.2718C92.9362 37.6026 93.0066 37.8801 93.0291 38.1652C93.2288 40.3536 93.6752 42.4867 94.3619 44.5698C95.372 47.619 96.0811 50.7365 96.6823 53.8741Z" fill="#CBC8C1"/>
<path d="M53.4533 78.2689C51.9962 77.8595 50.5802 77.9963 49.1944 77.8526C48.4225 77.7739 47.6432 77.7123 46.8717 77.6277C44.0831 77.333 41.2945 77.0382 38.4804 77.2427C37.4712 77.3145 36.4654 77.4161 35.5103 77.8171C36.5719 77.8206 37.6144 77.5688 38.676 77.5723C40.3507 77.5817 42.019 77.5965 43.6912 77.771C46.4798 78.0657 49.2682 78.4313 52.0798 78.3918C52.5055 78.3815 52.9299 78.318 53.4533 78.2689Z" fill="#CBC8C1"/>
<path d="M67.0405 59.482C70.9102 61.1212 74.3794 63.5694 78.314 65.0726C80.1699 65.7821 82.0377 66.4219 84.0445 66.5486C81.2009 65.5942 78.3185 64.7485 75.6271 63.4002C73.71 62.4435 71.7945 61.4692 69.8774 60.5125C68.973 60.0566 68.0454 59.6635 67.0405 59.482Z" fill="#CBC8C1"/>
<path d="M35.6136 72.1329C35.3897 71.9247 35.1476 71.9273 34.9401 71.9388C28.8018 72.1738 22.6603 72.1725 16.5229 72.1244C22.8764 72.675 29.2213 72.7116 35.6136 72.1329Z" fill="#CBC8C1"/>
<path d="M69.2758 107.481C66.107 106.876 57.2455 110.963 53.8394 114.662C54.2126 114.576 54.5058 114.325 54.8033 114.091C56.3213 112.913 57.9219 111.871 59.606 110.955C62.4671 109.392 65.4806 108.249 68.6954 107.643C68.8815 107.606 69.0701 107.54 69.2758 107.481Z" fill="#CBC8C1"/>
<path d="M11.333 75.9872C14.233 76.9701 25.3145 76.7447 27.9368 75.3495C22.4298 76.1289 16.8974 76.4518 11.333 75.9872Z" fill="#CBC8C1"/>
<path d="M63.6327 29.2281C62.5465 27.0573 61.1427 25.148 59.456 23.4384C57.2868 21.2386 54.9555 19.2077 52.8063 16.7087C52.8438 17.1604 53.0229 17.3411 53.1599 17.5299C53.3178 17.7501 53.4874 17.9713 53.6639 18.1813C54.9406 19.7197 56.3779 21.1068 57.7897 22.5152C59.6798 24.3959 61.52 26.3076 63.0464 28.5047C63.2252 28.7562 63.4353 28.9868 63.6327 29.2281Z" fill="#CBC8C1"/>
<path d="M61.4745 56.5159C61.7035 56.0519 61.657 55.6349 61.6121 55.2004C61.2108 51.3898 59.8042 47.9464 57.7569 44.7483C56.8474 43.3303 55.8174 42.008 54.5923 40.828C54.4213 41.1672 54.7426 41.2717 54.862 41.4591C55.0072 41.69 55.1959 41.8951 55.3724 42.1051C57.2555 44.3391 58.6906 46.841 59.7354 49.5569C60.4677 51.4552 61.0006 53.407 61.1534 55.4556C61.1728 55.7759 61.0915 56.17 61.4745 56.5159Z" fill="#CBC8C1"/>
<path d="M23.7205 100.034C28.2338 98.0595 32.9923 96.7964 37.9801 96.4263C35.6101 95.5897 26.4461 97.8574 23.6426 99.8445C23.5482 99.913 23.5505 99.9545 23.7205 100.034Z" fill="#CBC8C1"/>
<path d="M4.94333 72.6547C5.61814 73.1734 6.37868 73.4517 7.17966 73.6037C9.83338 74.0932 12.4949 74.4242 15.1979 74.4815C16.853 74.5128 18.4936 74.5075 20.1395 74.3729C15.0611 73.9504 9.92426 74.0657 4.94333 72.6547Z" fill="#CBC8C1"/>
<path d="M56.5275 64.3113C56.1036 65.2539 55.7849 66.1407 56.8045 67.173C56.6257 65.7652 56.6373 64.6099 57.783 63.8478C57.3928 63.4482 57.0936 64.0417 56.7654 63.8127C56.6563 62.5525 57.0418 61.9842 58.3266 61.5233C58.7009 61.5616 58.7499 62.085 59.2815 62.078C59.292 61.4122 58.7577 60.7701 59.1944 60.0881C59.6036 59.451 60.1855 59.1357 60.8873 59.0018C60.8164 58.5945 60.5557 58.6073 60.3393 58.6535C59.485 58.8449 58.8178 59.2591 58.6244 60.198C58.5847 60.3834 58.527 60.5731 58.4909 60.7174C56.3208 61.727 55.7615 62.7346 56.5275 64.3113Z" fill="#CBC8C1"/>
<path d="M67.3033 98.242C67.4649 98.0791 67.6592 98.0841 67.8626 98.1194C68.5493 97.412 69.4479 96.9825 70.1816 96.344C70.5645 96.0114 70.9745 95.7048 71.2425 95.2678C71.0973 95.037 70.9792 95.1742 70.8647 95.2705C69.0287 96.781 66.9371 97.8386 64.6763 98.5335C62.5489 99.1869 60.3983 99.7675 58.2627 100.379C58.0389 100.442 57.8152 100.505 57.5308 100.587C57.9316 100.863 58.2984 100.647 58.6115 100.574C61.35 99.9503 64.0986 99.3448 66.7343 98.3402C66.9102 98.2847 67.1113 98.2785 67.3033 98.242Z" fill="#CBC8C1"/>
<path d="M82.1827 75.9093C80.5999 77.4949 78.7691 78.4689 76.5963 78.6936C74.5841 78.9027 72.6293 78.5858 70.7115 77.9771C70.4877 77.9046 70.2639 77.8321 70.0386 77.7772C69.9001 77.7416 69.7463 77.7459 69.59 77.7796C71.1343 78.5447 72.7262 79.1015 74.4752 79.2059C75.4556 79.2614 76.4195 79.3036 77.39 79.1341C78.9714 78.8581 80.358 78.176 81.5583 77.1237C81.8907 76.828 82.3046 76.5453 82.1827 75.9093Z" fill="#CBC8C1"/>
<path d="M54.6711 32.0207C55.9873 32.831 57.3098 33.6358 58.6255 34.4519C61.1902 36.037 63.5951 37.8325 65.624 40.085C66.3559 40.8977 66.9924 41.7906 67.6676 42.6456C67.8213 42.3698 67.5641 42.2059 67.45 42.025C65.6102 39.0868 63.0647 36.8721 60.195 34.995C58.6929 34.0153 57.1422 33.1198 55.5571 32.2804C55.2921 32.1394 55.0074 32.0204 54.7349 31.8965C54.7138 31.9359 54.6922 31.9813 54.6711 32.0207Z" fill="#CBC8C1"/>
<path d="M36.518 56.4591C41.0181 59.1972 45.7848 61.1737 51.1285 61.3949C49.9269 60.8955 48.6308 60.8068 47.3708 60.5737C46.0995 60.3337 44.8919 59.9046 43.67 59.5037C42.414 59.0881 41.1954 58.5813 39.992 58.0345C38.834 57.5094 37.676 56.9842 36.518 56.4591Z" fill="#CBC8C1"/>
<path d="M55.6934 95.6488C60.608 94.8299 66.3027 90.8633 67.5 86.1707C67.081 87.2612 66.5374 87.9515 66.0098 88.661C65.423 89.442 64.8196 90.2097 64.1003 90.8848C63.4075 91.5269 62.6627 92.0877 61.8586 92.5844C60.0206 93.7112 58.0967 94.6713 56.0831 95.4407C55.9492 95.4881 55.7671 95.4782 55.6934 95.6488Z" fill="#CBC8C1"/>
<path d="M85.7192 46.2691C85.8526 46.0918 85.812 45.9467 85.7725 45.7899C84.8765 41.9011 83.3719 38.2958 80.8725 35.1411C79.8094 33.7923 78.7904 32.412 77.6303 30.8896C77.6386 31.3387 77.8288 31.5263 77.9659 31.7152C79.0692 33.2798 80.1916 34.8284 81.2822 36.4037C82.8504 38.6635 84.0728 41.0998 84.8954 43.7257C85.1586 44.5686 85.4399 45.4071 85.7192 46.2691Z" fill="#CBC8C1"/>
<path d="M66.9445 73.3852C68.1488 74.5338 69.5056 75.1469 70.9091 75.6993C72.0044 76.1305 73.1522 76.3656 74.2783 76.6461C76.5769 77.217 78.8382 77.1298 81.0983 75.7623C80.4916 75.751 80.1024 75.9532 79.7124 76.0964C78.0307 76.7117 76.3423 76.589 74.6468 76.2061C73.1309 75.8623 71.6061 75.5532 70.155 74.9377C69.3298 74.5889 68.5321 74.1953 67.7712 73.7164C67.5642 73.5864 67.3892 73.3588 66.9445 73.3852Z" fill="#CBC8C1"/>
<path d="M9.52607 68.0371C9.12929 68.4629 8.55391 68.4307 8.05598 68.5941C7.41829 68.8043 6.74188 68.9168 6.16357 69.3268C11.2957 68.1079 16.4996 67.3554 21.6983 66.5257C20.5302 66.3891 19.38 66.5903 18.2344 66.7388C15.5321 67.0827 12.8379 67.4687 10.1727 68.0637C9.93827 68.1141 9.71654 68.1539 9.48891 68.0575L9.52607 68.0371Z" fill="#CBC8C1"/>
<path d="M63.182 50.0857C63.5802 50.2559 63.778 50.0843 63.9901 50.0201C64.8569 49.753 65.7298 49.6871 66.6375 49.7657C69.0037 49.9649 71.1789 50.8024 73.3451 51.6745C74.166 52.0052 74.9737 52.3525 75.8098 52.6433C74.3495 51.5904 72.7087 50.9173 71.0389 50.3065C70.2726 50.0277 69.5062 49.7489 68.7235 49.5217C67.3547 49.114 65.9573 49.105 64.5663 49.362C64.0813 49.4439 63.5897 49.6019 63.182 50.0857Z" fill="#CBC8C1"/>
<path d="M38.1393 101.396C34.7482 102.335 28.9673 107.091 28.021 109.705C29.0187 108.676 29.9298 107.557 31.0034 106.606C32.1093 105.623 33.2536 104.672 34.4879 103.84C35.7031 103.025 36.9183 102.21 38.1393 101.396Z" fill="#CBC8C1"/>
<path d="M90.6343 85.6093C89.9858 87.7831 88.6758 89.2153 86.7911 90.1316C85.5219 90.7532 84.1719 91.1495 82.7756 91.4001C82.1704 91.507 81.5648 91.6197 80.8517 91.7467C81.709 91.9979 82.4404 91.7958 83.1675 91.7114C84.6153 91.5478 86.0052 91.1668 87.3136 90.5014C88.844 89.7255 89.9315 88.5454 90.6103 86.9759C90.7858 86.5841 90.9375 86.196 90.6343 85.6093Z" fill="#CBC8C1"/>
<path d="M85.2425 72.6701C84.7877 72.9492 84.3425 73.2528 83.8726 73.5012C82.4942 74.2254 80.9756 74.3888 79.4578 74.4755C77.1818 74.5968 74.951 74.3327 72.8104 73.5041C72.6676 73.4504 72.511 73.4192 72.3603 73.3884C72.1691 73.3482 71.9763 73.3256 71.7495 73.2883C72.2173 73.8126 72.8678 73.8631 73.4343 74.0656C76.3649 75.1042 79.2945 75.0346 82.327 74.3534C83.4769 74.0873 84.3126 73.7159 85.2425 72.6701Z" fill="#CBC8C1"/>
<path d="M79.0358 96.427C83.2177 97.3912 88.4815 94.4492 88.8799 90.8732C86.6832 94.7771 83.2433 96.2784 79.0358 96.427Z" fill="#CBC8C1"/>
<path d="M30.3687 105.832C34.0505 102.151 38.688 100.104 43.3759 98.1565C39.5932 98.985 32.423 102.482 30.3687 105.832Z" fill="#CBC8C1"/>
<path d="M69.7073 79.4947C70.5727 81.5579 70.8976 83.6628 70.4876 85.875C70.0865 88.0526 68.6656 89.6758 67.5039 91.4394C71.2784 88.5276 72.3101 82.682 69.7073 79.4947Z" fill="#CBC8C1"/>
<path d="M91.3948 82.277C90.4615 84.1961 89.4857 85.8579 87.779 86.9666C86.1094 88.0549 84.2251 88.5583 82.2988 89.0698C83.6039 89.3953 86.3746 88.603 88.0625 87.4395C90.0384 86.0828 91.2854 84.2203 91.3948 82.277Z" fill="#CBC8C1"/>
<path d="M67.0193 55.5038C71.9527 56.2382 76.6085 57.6564 80.7373 60.5275C76.8031 57.1128 72.0771 55.8242 67.0193 55.5038Z" fill="#CBC8C1"/>
<path d="M84.9733 97.1481C82.3484 99.4575 79.4236 100.189 76.3057 100.426C75.6706 100.472 75.0081 100.355 74.33 100.692C77.8377 101.539 83.6983 99.6748 84.9733 97.1481Z" fill="#CBC8C1"/>
<path d="M90.88 37.8432C90.6564 38.3135 90.7038 38.7188 90.7551 39.148C90.9501 40.7106 91.3864 42.2116 92.0108 43.6521C92.8222 45.5218 93.7015 47.3562 94.7344 49.1212C94.9983 48.8668 94.734 48.6492 94.6556 48.4654C94.0225 46.9887 93.34 45.5372 92.7128 44.061C91.9281 42.2231 91.2954 40.3335 91.0497 38.3358C91.0326 38.1927 90.9564 38.0504 90.88 37.8432Z" fill="#CBC8C1"/>
<path d="M78.2727 69.7003C74.5271 68.4671 70.7418 67.2836 67.392 64.7514C67.47 65.3481 67.8199 65.5318 68.1018 65.7509C69.225 66.6093 70.4523 67.288 71.7567 67.8258C73.8538 68.6801 75.9839 69.4252 78.2727 69.7003Z" fill="#CBC8C1"/>
<path d="M91.2265 77.4129C90.6192 78.021 90.0919 78.6597 89.3249 79.0003C88.5951 79.3205 87.8406 79.5855 86.845 79.9771C88.5161 79.8919 89.739 79.3961 90.9261 78.3603C90.7992 79.075 90.4126 79.3837 90.0318 79.6928C88.846 80.6461 87.4571 81.1511 85.9821 81.4244C85.3344 81.5453 84.6786 81.6242 84.0213 81.7206C85.8117 82.0291 88.823 81.2518 90.187 80.1488C90.6564 79.7706 91.0035 79.3051 91.2279 78.7582C91.4001 78.3365 90.9198 77.8878 91.2265 77.4129Z" fill="#CBC8C1"/>
<path d="M85.6115 69.4336C81.3835 69.4094 77.6757 67.6721 73.9755 65.9827C73.7859 66.1964 73.988 66.1785 74.0387 66.2065C74.6121 66.5335 75.1777 66.8833 75.7722 67.1709C77.9457 68.2324 80.2029 69.077 82.5557 69.6349C83.3541 69.8162 84.9099 69.7681 85.6115 69.4336Z" fill="#CBC8C1"/>
<path d="M9.71509 76.8204C10.1756 77.4975 10.9267 77.6806 11.6144 77.8464C14.9431 78.6481 18.3113 78.7218 21.9113 78.2314C21.3311 78.0513 20.9474 78.0535 20.5457 78.06C18.0571 78.1157 15.569 78.1655 13.1006 77.7156C11.9445 77.5092 10.7985 77.3214 9.71509 76.8204Z" fill="#CBC8C1"/>
<path d="M75.626 59.2585C72.0758 57.4051 66.4805 56.0706 64.2037 56.7465C66.2456 57.1476 68.2098 57.1527 70.1137 57.6481C71.9655 58.133 73.7547 58.7955 75.626 59.2585Z" fill="#CBC8C1"/>
<path d="M65.5183 34.0228C64.1709 30.2364 61.1587 26.1229 58.144 23.8085C59.4775 25.4403 60.9573 26.9491 62.2012 28.6616C63.4456 30.3682 64.4969 32.1939 65.5183 34.0228Z" fill="#CBC8C1"/>
<path d="M61.7397 107.707C65.7688 106.622 70.0411 106.544 74.0435 104.95C73.6313 104.737 73.3528 104.955 73.0796 105.044C71.2526 105.634 69.3407 105.776 67.4777 106.169C66.1076 106.457 64.7327 106.733 63.3669 107.04C62.8017 107.162 62.234 107.313 61.7397 107.707Z" fill="#CBC8C1"/>
<path d="M26.562 97.6079C22.9881 98.6138 19.7365 100.19 17.0826 102.833C17.3139 103.16 17.478 102.968 17.6058 102.855C20.1612 100.599 23.1739 99.1254 26.2637 97.7826C26.3619 97.738 26.4564 97.6695 26.562 97.6079Z" fill="#CBC8C1"/>
<path d="M19.1733 70C23.7412 69.9829 28.3225 70.0142 32.9067 70.2168C31.9135 70.0364 30.9409 69.8223 29.907 69.8389C28.4304 69.8584 26.9499 69.7183 25.4715 69.6904C23.3742 69.6561 21.2777 69.6809 19.1733 70Z" fill="#CBC8C1"/>
<path d="M91.5489 79.9541C91.0155 80.663 90.6301 81.5028 89.8771 82.0216C88.0944 83.2594 86.1531 84.1472 83.9504 84.2395C83.3758 84.2664 82.7952 84.4993 82.2063 84.283C83.2013 84.6465 84.2209 84.5225 85.2273 84.4151C86.883 84.2341 88.389 83.6035 89.7714 82.6968C90.758 82.0684 91.4189 81.1818 91.5489 79.9541Z" fill="#CBC8C1"/>
<path d="M77.2005 73.4952C73.68 72.5234 70.2211 71.3859 67.0496 69.5181C70.0226 71.9056 73.5357 72.8944 77.2005 73.4952Z" fill="#CBC8C1"/>
<path d="M88.9314 84.2228C87.4873 84.6168 86.1213 85.2654 84.6384 85.5616C83.1497 85.8574 81.642 85.9627 80.1448 86.1515C83.3579 86.7899 86.2373 85.9008 88.9314 84.2228Z" fill="#CBC8C1"/>
<path d="M93.5653 56.6245C92.4085 53.2263 90.6642 50.2079 87.8888 47.8553C88.3965 48.8727 89.2384 49.6419 89.9222 50.533C90.6648 51.4941 91.3258 52.513 91.9188 53.5674C92.4924 54.5728 93.0225 55.604 93.5653 56.6245Z" fill="#CBC8C1"/>
<path d="M53.6569 62.6465C52.9704 63.1475 52.3952 63.7938 52.2819 64.6925C52.2403 65.037 52.2905 65.4779 52.8907 65.701C52.6456 64.376 53.2595 63.556 54.2721 63.0361C54.5593 62.3767 53.914 61.7898 54.2988 61.1623C54.6428 60.5963 55.1972 60.3258 55.7572 59.9908C54.4263 59.4861 53.5292 60.6473 53.6569 62.6465Z" fill="#CBC8C1"/>
<path d="M68.3174 92.1942C71.7557 90.8462 73.195 86.7645 72.6289 83.3585C72.4072 84.4189 72.6104 85.5457 72.2614 86.5774C71.8946 87.6783 71.5843 88.8078 70.8422 89.7464C70.1462 90.63 69.2993 91.3472 68.3174 92.1942Z" fill="#CBC8C1"/>
<path d="M80.5295 83.3471C81.1669 83.8212 81.6316 83.8379 82.0972 83.8429C83.9603 83.8568 85.7441 83.4923 87.4351 82.7008C88.0007 82.4371 88.6109 82.2717 89.0927 81.8179C87.7196 82.1414 86.4468 82.8039 85.0563 83.0551C83.6355 83.3154 82.2017 83.3858 80.5295 83.3471Z" fill="#CBC8C1"/>
<path d="M63.3904 75.7261C63.1547 76.6083 63.5072 77.4412 63.3937 78.275C63.275 79.1674 63.1223 80.045 62.9749 80.929C62.8369 81.7725 62.5492 82.5735 62.2188 83.595C63.6574 81.7669 64.4789 77.0535 63.3904 75.7261Z" fill="#CBC8C1"/>
<path d="M79.3788 92.3329C80.0198 92.9017 80.7884 93.0863 81.6046 93.0627C83.7696 92.9966 85.7071 92.2206 87.563 91.1602C86.9601 91.1728 86.4248 91.4273 85.8701 91.6329C84.4318 92.1632 82.9673 92.52 81.4286 92.5754C80.7183 92.6024 80.066 92.3688 79.3788 92.3329Z" fill="#CBC8C1"/>
<path d="M62.7021 70.5337C62.0532 69.1028 62.0532 69.1028 62.6055 67.6994C62.4315 67.1887 62.2185 66.6511 62.4368 66.0387C62.6225 65.5297 63.2265 65.2989 63.314 64.6988C62.2972 64.8585 61.5304 65.8776 61.7707 66.8483C61.9311 67.517 61.8948 68.1392 61.8024 68.7979C61.6685 69.7302 61.9043 70.14 62.7021 70.5337Z" fill="#CBC8C1"/>
<path d="M83.3901 76.1378C89.6263 75.1149 88.5424 75.7761 90.7429 76.1851C90.5979 75.7478 90.2611 75.6183 89.9263 75.4654C89.1255 75.1069 88.2657 75.0206 87.4225 75.0832C86.0266 75.1923 84.657 75.4748 83.3901 76.1378Z" fill="#CBC8C1"/>
<path d="M36.8184 105.134C39.4482 104.129 42.2509 103.717 44.9169 102.839C42.1201 103.251 39.3007 103.585 36.8184 105.134Z" fill="#CBC8C1"/>
<path d="M59.7446 74.7729C59.255 73.6154 59.9434 72.8197 60.5499 72.0168C60.4234 71.4335 59.8953 71.1282 59.7106 70.6048C59.5172 70.0453 59.7727 69.5482 59.8619 68.9955C58.8475 69.6038 58.8439 70.394 59.8505 71.9857C59.3902 72.872 58.6145 73.79 59.7446 74.7729Z" fill="#CBC8C1"/>
<path d="M33.8656 107.893C34.0301 107.765 34.194 107.644 34.3584 107.516C34.5853 106.805 35.4089 106.628 35.7541 105.98C34.3426 106.677 30.0412 110.428 28.7481 112.074C29.0781 112.215 29.1762 111.899 29.3422 111.754C30.6846 110.561 32.0226 109.349 33.3596 108.15C33.5006 108.02 33.6538 107.886 33.8656 107.893Z" fill="#CBC8C1"/>
<path d="M74.6021 89.0457C76.4268 87.5284 76.96 83.4861 75.5681 81.6428C75.8792 84.1122 76.5232 84.5102 74.6021 89.0457Z" fill="#CBC8C1"/>
<path d="M73.2286 81.0684C74.0869 83.9628 74.6045 86.8395 72.7674 89.5888C74.8934 87.4545 74.7106 83.0965 73.2286 81.0684Z" fill="#CBC8C1"/>
<path d="M80.0182 101.09C77.5878 101.835 75.135 102.16 72.6244 102.06C75.2548 102.955 77.6612 102.078 80.0182 101.09Z" fill="#CBC8C1"/>
<path d="M13.9089 80.2989C16.5866 80.9204 19.861 80.7145 21.2758 79.7751C19.953 79.926 18.7878 80.0964 17.6185 80.1779C16.4135 80.2623 15.2103 80.2583 13.9089 80.2989Z" fill="#CBC8C1"/>
<path d="M81.562 78.5104C83.4279 79.3093 86.4479 78.8395 88.3038 77.6434C87.1704 77.7871 86.0893 78.2125 84.9554 78.362C83.8337 78.5067 82.7033 78.3439 81.562 78.5104Z" fill="#CBC8C1"/>
<path d="M56.1336 75.457C55.3847 75.929 54.8398 76.4304 55.1031 77.5447C55.5165 76.6543 55.9639 75.9851 56.913 75.9257C56.8271 74.8741 55.8399 74.2162 56.2304 73.1822C55.5499 73.9551 55.5448 74.1494 56.1336 75.457Z" fill="#CBC8C1"/>
<path d="M71.3879 103.328C72.5854 104.01 75.8066 103.805 78.0325 102.9C75.8294 103.134 73.6309 103.587 71.3879 103.328Z" fill="#CBC8C1"/>
<path d="M85.757 66.3253C83.3601 65.3919 80.8947 64.6355 78.512 63.6738C80.7932 64.9217 83.1891 65.8668 85.757 66.3253Z" fill="#CBC8C1"/>
<path d="M5.25295 71.6018C6.30811 72.0886 7.39727 72.183 8.52562 72.2335C9.64811 72.2836 10.7744 72.3577 12.1709 72.3784C9.72053 71.7884 7.44126 72.0157 5.25295 71.6018Z" fill="#CBC8C1"/>
<path d="M34.0369 94.7512C31.8018 94.6047 29.2398 95.1673 27.0845 96.2785C28.213 95.9869 29.3387 95.6597 30.4753 95.4101C31.654 95.1524 32.85 94.967 34.0369 94.7512Z" fill="#CBC8C1"/>
<path d="M54.1529 71.1497C53.4758 69.5689 53.4758 69.5689 54.1665 67.9297C53.4792 68.1002 53.0389 68.5517 52.9362 69.1917C52.818 69.9426 53.1858 70.5998 54.1529 71.1497Z" fill="#CBC8C1"/>
<path d="M62.6276 61.3178C61.7103 61.3504 61.2128 61.8501 60.9049 62.5432C60.5754 63.2816 60.7329 63.779 61.3515 64.3341C61.3996 62.7571 61.3996 62.7571 62.6276 61.3178Z" fill="#CBC8C1"/>
<path d="M55.9495 115.771C54.1877 116.562 52.6765 117.729 50.9126 119.022C51.8632 118.809 54.7909 116.886 55.9495 115.771Z" fill="#CBC8C1"/>
<path d="M83.2002 75.3367C83.9003 75.1555 84.4121 74.7633 85.0142 74.6916C85.6227 74.6145 86.2311 74.5374 86.989 74.4379C85.279 73.8827 84.0446 74.1709 83.2002 75.3367Z" fill="#CBC8C1"/>
</g>
<defs>
<clipPath id="clip0_3801_34196">
<rect width="122.661" height="129.725" fill="white" transform="translate(0 122.202) rotate(-85.0467)"/>
</clipPath>
</defs>
</svg>
